<?xml version="1.0" encoding="UTF-8" standalone="no"?>
<!DOCTYPE svg PUBLIC "-//W3C//DTD SVG 1.1//EN" "http://www.w3.org/Graphics/SVG/1.1/DTD/svg11.dtd">
<svg version="1.1" xmlns="http://www.w3.org/2000/svg" xmlns:xlink="http://www.w3.org/1999/xlink" xml:space="preserve" style="fill-rule:evenodd;clip-rule:evenodd;stroke-linejoin:round;stroke-miterlimit:1.41421;">
    <defs>
        <linearGradient id="_Linear1" x1="0" y1="0" x2="1" y2="0" gradientUnits="userSpaceOnUse" gradientTransform="matrix(80.3288,-13.3628,13.3628,80.3288,24.4097,91.446)"><stop offset="0" style="stop-color:white;stop-opacity:1"/><stop offset="0.04" style="stop-color:white;stop-opacity:1"/><stop offset="0.9" style="stop-color:rgb(137,140,191);stop-opacity:1"/><stop offset="1" style="stop-color:rgb(137,140,191);stop-opacity:1"/></linearGradient>
        <linearGradient id="_Linear2" x1="0" y1="0" x2="1" y2="0" gradientUnits="userSpaceOnUse" gradientTransform="matrix(25.5879,0,0,25.5879,28.416,55.153)"><stop offset="0" style="stop-color:rgb(110,112,169);stop-opacity:1"/><stop offset="0.97" style="stop-color:rgb(81,74,142);stop-opacity:1"/><stop offset="1" style="stop-color:rgb(81,74,142);stop-opacity:1"/></linearGradient>
        <linearGradient id="_Linear3" x1="0" y1="0" x2="1" y2="0" gradientUnits="userSpaceOnUse" gradientTransform="matrix(0.3276,0,0,0.3276,53.8125,62.3088)"><stop offset="0" style="stop-color:rgb(110,112,169);stop-opacity:1"/><stop offset="0.97" style="stop-color:rgb(81,74,142);stop-opacity:1"/><stop offset="1" style="stop-color:rgb(81,74,142);stop-opacity:1"/></linearGradient>
        <linearGradient id="_Linear4" x1="0" y1="0" x2="1" y2="0" gradientUnits="userSpaceOnUse" gradientTransform="matrix(44.6418,29.3056,-29.3056,44.6418,64.0796,66.9001)"><stop offset="0" style="stop-color:rgb(76,82,132);stop-opacity:1"/><stop offset="1" style="stop-color:rgb(135,137,188);stop-opacity:1"/></linearGradient>
        <linearGradient id="_Linear5" x1="0" y1="0" x2="1" y2="0" gradientUnits="userSpaceOnUse" gradientTransform="matrix(-0.311,-19.9033,19.9033,-0.311,53.459,123.573)"><stop offset="0" style="stop-color:rgb(76,64,126);stop-opacity:1"/><stop offset="0.11" style="stop-color:rgb(76,64,126);stop-opacity:1"/><stop offset="0.89" style="stop-color:rgb(102,102,153);stop-opacity:1"/><stop offset="1" style="stop-color:rgb(167,179,217);stop-opacity:1"/><stop offset="1" style="stop-color:rgb(155,165,205);stop-opacity:1"/></linearGradient>
        <linearGradient id="_Linear6" x1="0" y1="0" x2="1" y2="0" gradientUnits="userSpaceOnUse" gradientTransform="matrix(61.2022,-17.0091,17.0091,61.2022,4.8188,79.7068)"><stop offset="0" style="stop-color:rgb(102,102,153);stop-opacity:1"/><stop offset="0.23" style="stop-color:rgb(102,102,153);stop-opacity:1"/><stop offset="0.72" style="stop-color:rgb(167,179,217);stop-opacity:1"/><stop offset="1" style="stop-color:rgb(167,179,217);stop-opacity:1"/></linearGradient>
        <linearGradient id="_Linear7" x1="0" y1="0" x2="1" y2="0" gradientUnits="userSpaceOnUse" gradientTransform="matrix(61.1979,-17.0079,17.0079,61.1979,5.8774,83.5056)"><stop offset="0" style="stop-color:rgb(102,102,153);stop-opacity:1"/><stop offset="0.23" style="stop-color:rgb(102,102,153);stop-opacity:1"/><stop offset="0.99" style="stop-color:rgb(167,179,217);stop-opacity:1"/><stop offset="1" style="stop-color:rgb(167,179,217);stop-opacity:1"/></linearGradient>
        <linearGradient id="_Linear8" x1="0" y1="0" x2="1" y2="0" gradientUnits="userSpaceOnUse" gradientTransform="matrix(24.3349,13.0216,-13.0216,24.3349,19.581,86.3884)"><stop offset="0" style="stop-color:rgb(110,112,169);stop-opacity:1"/><stop offset="0.97" style="stop-color:rgb(81,74,142);stop-opacity:1"/><stop offset="1" style="stop-color:rgb(81,74,142);stop-opacity:1"/></linearGradient>
        <linearGradient id="_Linear9" x1="0" y1="0" x2="1" y2="0" gradientUnits="userSpaceOnUse" gradientTransform="matrix(15.4504,7.5165,-7.5165,15.4504,55.73,22.2283)"><stop offset="0" style="stop-color:rgb(158,165,211);stop-opacity:1"/><stop offset="0.04" style="stop-color:rgb(158,165,211);stop-opacity:1"/><stop offset="0.9" style="stop-color:rgb(118,117,174);stop-opacity:1"/><stop offset="1" style="stop-color:rgb(118,117,174);stop-opacity:1"/></linearGradient>
        <linearGradient id="_Linear10" x1="0" y1="0" x2="1" y2="0" gradientUnits="userSpaceOnUse" gradientTransform="matrix(-3.6445,40.495,-40.495,-3.6445,49.3808,4.5212)"><stop offset="0" style="stop-color:rgb(170,172,210);stop-opacity:1"/><stop offset="0.63" style="stop-color:rgb(252,250,251);stop-opacity:1"/><stop offset="1" style="stop-color:rgb(252,250,251);stop-opacity:1"/></linearGradient>
        <linearGradient id="_Linear11" x1="0" y1="0" x2="1" y2="0" gradientUnits="userSpaceOnUse" gradientTransform="matrix(-3.6446,40.4958,-40.4958,-3.6446,71.7749,-0.1604)"><stop offset="0" style="stop-color:rgb(170,172,210);stop-opacity:1"/><stop offset="0.67" style="stop-color:rgb(170,172,210);stop-opacity:1"/><stop offset="1" style="stop-color:rgb(252,250,251);stop-opacity:1"/></linearGradient>
    </defs>
    <g>
        <g>
            <path id="Layer_6" d="M29.248,99.123L28.12,98.282" style="fill:none;"/>
            <path id="__x33_D_PART" d="M89.451,62.438L89.451,82.608L53.699,103.224L18.222,82.608L16.628,83.691L53.699,105.427L91.065,83.824L91.065,61.505L89.451,62.438Z" style="fill:url(#_Linear1);fill-rule:nonzero;"/>
            <path id="black_line_thing" d="M89.451,82.52L91.065,83.685L91.065,83.824L90.963,83.9L89.308,82.69L89.451,82.608L89.451,82.52Z" style="fill:rgb(122,126,174);fill-rule:nonzero;"/>
            <g id="dark_purple_top_line">
                <path d="M54.004,62.205L28.814,47.455L28.416,47.853L53.699,62.851L54.004,62.205Z" style="fill:url(#_Linear2);fill-rule:nonzero;"/>
                <path d="M53.922,62.205L54.107,62.205L54.14,62.413L53.813,62.413L53.922,62.205Z" style="fill:url(#_Linear3);fill-rule:nonzero;"/>
            </g>
            <path id="top_black_line" d="M54.004,62.851L54.004,62.205L107.627,31.206L107.785,31.647L54.004,62.851Z" style="fill:rgb(18,15,34);fill-rule:nonzero;"/>
            <path id="LOGO_DARK_LINES" d="M54.004,124.23L54.363,105.729L91.582,84.28L91.72,61.312L91.065,61.312L91.065,83.824L53.699,105.427L53.565,124.23L54.004,124.23Z" style="fill:rgb(69,61,118);fill-rule:nonzero;"/>
            <path id="LOGO" d="M54.004,91.212L54.004,62.851L107.785,31.647L107.785,93.197L54.004,124.23L54.004,105.573L91.361,84.062L91.361,61.332L78.85,68.566L78.85,76.595L54.004,91.212Z" style="fill:url(#_Linear4);fill-rule:nonzero;"/>
            <path id="BOTTOM_LAIN_LEFT_LIGHT_LINE" d="M53.402,124.23L53.699,124.23L53.699,105.427L52.642,104.806L53.402,124.23" style="fill:url(#_Linear5);fill-rule:nonzero;"/>
            <path id="underneath" d="M16.542,40.703L16.771,40.897L16.862,83.532L16.628,83.691L16.486,83.601L16.542,40.703" style="fill:rgb(45,40,104);fill-rule:nonzero;"/>
            <path id="LEFT_3D_PURPLE_SHADOW" d="M18.222,82.608L16.628,83.691L16.628,40.755L54.004,19.174L54.004,21.3L18.26,41.987L18.222,82.608Z" style="fill:rgb(69,61,118);fill-rule:nonzero;"/>
            <path id="MAIN_DARK_PURPLE_LINE" d="M54.004,62.094L54.004,91.212L53.699,91.417L53.699,62.851L53.699,62.028L54.004,62.094Z" style="fill:rgb(69,61,118);fill-rule:nonzero;"/>
            <g id="logo_LEFT_side">
                <path d="M28.416,47.853L28.416,76.802L53.699,91.417L53.699,62.851L28.416,47.853Z" style="fill:url(#_Linear6);fill-rule:nonzero;"/>
                <path d="M53.402,123.926L53.402,105.251L16.628,83.691L16.628,40.964L0,31.206L0,93.302L53.402,124.23L53.402,123.926Z" style="fill:url(#_Linear7);fill-rule:nonzero;"/>
            </g>
            <g id="left_purple_line">
                <rect x="16.343" y="40.755" width="0.285" height="42.938" style="fill:rgb(45,40,104);"/>
                <path d="M16.628,40.755L0.214,30.992L0,31.206L16.486,40.897L16.628,40.755Z" style="fill:rgb(45,40,104);fill-rule:nonzero;"/>
            </g>
            <path id="BOTTOM_PURPLE_LINE" d="M53.402,105.251L53.402,105.603L16.343,84.015L16.343,83.691L16.628,83.691L53.402,105.251Z" style="fill:url(#_Linear8);fill-rule:nonzero;"/>
            <path id="top_middle_light_line" d="M54.004,19.174L77.901,33.142L77.901,35.231L54.004,21.3L54.004,19.174Z" style="fill:url(#_Linear9);fill-rule:nonzero;"/>
            <path id="top_right" d="M77.901,33.142L77.901,35.231L94.454,25.524L94.454,23.552L77.901,33.142Z" style="fill:rgb(72,69,146);fill-rule:nonzero;"/>
            <g id="MAIN_TOP">
                <path d="M53.833,0L94.454,23.552L77.901,33.142L54.004,19.174L16.628,40.755L0.214,30.992L53.833,0Z" style="fill:url(#_Linear10);fill-rule:nonzero;"/>
                <path d="M28.814,47.455L53.68,33.409L77.369,46.781L106.232,30.192L107.627,31.206L54.004,62.205L28.814,47.455Z" style="fill:url(#_Linear11);fill-rule:nonzero;"/>
            </g>
        </g>
        <g>
            <g>
                <path id="path23497" d="M373.52,21.158L373.52,16.209L359.377,16.209C357.561,16.209 355.844,16.613 354.323,17.319C352.81,18.029 351.597,19.037 350.689,20.251C349.781,21.46 349.375,22.78 349.273,24.291L349.273,39.543C349.373,40.96 349.781,42.272 350.586,43.487C351.498,44.697 352.707,45.603 354.123,46.411C355.639,47.121 357.25,47.526 359.176,47.526L373.516,47.526L373.516,42.577L359.777,42.577C358.667,42.577 357.659,42.271 356.755,41.666C355.94,41.062 355.437,40.354 355.437,39.347L355.437,33.69L373.519,33.69L373.519,28.637L355.437,28.637L355.437,24.495C355.437,23.482 355.94,22.678 356.755,22.068C357.659,21.462 358.667,21.158 359.777,21.158L373.516,21.158" style="fill:rgb(61,37,49);fill-rule:nonzero;"/>
                <path id="path23501" d="M457.952,16.21L457.952,47.527L473.054,47.527C474.97,47.429 476.679,47.122 478.193,46.42C479.802,45.616 481.011,44.708 481.916,43.499C482.824,42.296 483.223,40.884 483.324,39.372L483.324,24.266C483.222,22.759 482.824,21.445 481.916,20.238C481.012,19.03 479.805,18.025 478.193,17.317C476.679,16.612 474.968,16.21 473.054,16.21L457.952,16.21ZM475.778,22.052C476.676,22.656 477.081,23.459 477.182,24.47L477.182,39.273C477.078,40.279 476.676,41.085 475.778,41.689C474.969,42.392 473.958,42.694 472.85,42.694L464.092,42.694L464.092,21.046L472.85,21.046C473.958,21.046 474.969,21.347 475.778,22.052" style="fill:rgb(61,37,49);fill-rule:nonzero;"/>
                <path id="path23503" d="M531.958,17.302C530.47,16.61 528.786,16.309 526.905,16.209L521.452,16.209C519.567,16.308 517.886,16.609 516.395,17.302C514.811,18.096 513.62,18.982 512.729,20.176C511.834,21.362 511.34,22.752 511.34,24.239L511.34,39.598C511.34,41.084 511.834,42.375 512.729,43.565C513.62,44.755 514.811,45.744 516.395,46.439C517.885,47.132 519.567,47.528 521.452,47.528L526.905,47.528C528.786,47.528 530.468,47.132 531.958,46.439C533.542,45.745 534.731,44.755 535.624,43.565C536.517,42.374 537.011,40.988 537.011,39.598L537.011,24.238C536.915,22.751 536.517,21.361 535.624,20.175C534.731,18.981 533.542,18.095 531.958,17.302ZM529.579,21.958C530.47,22.652 530.966,23.442 530.966,24.34L530.966,39.399C530.966,40.291 530.47,41.085 529.579,41.778C528.786,42.375 527.792,42.772 526.706,42.772L521.651,42.772C520.557,42.772 519.567,42.376 518.674,41.778C517.885,41.084 517.389,40.291 517.389,39.399L517.389,24.34C517.389,23.443 517.885,22.652 518.674,21.958C519.567,21.362 520.557,21.065 521.651,20.966L526.706,20.966C527.793,21.067 528.786,21.363 529.579,21.958" style="fill:rgb(61,37,49);fill-rule:nonzero;"/>
                <path id="path23515" d="M169.301,16.21L163.138,16.21L163.138,36.213L152.634,16.21L144.249,16.21L144.249,47.527L150.412,47.527L150.412,23.083L163.24,47.527L169.301,47.527L169.301,16.21" style="fill:rgb(61,37,49);fill-rule:nonzero;"/>
                <path id="path23515_1_" d="M269.711,16.21L263.548,16.21L263.548,36.213L253.043,16.21L244.658,16.21L244.658,47.527L250.821,47.527L250.821,23.083L263.649,47.527L269.711,47.527L269.711,16.21" style="fill:rgb(61,37,49);fill-rule:nonzero;"/>
                <path id="path23515_2_" d="M428.299,16.21L422.137,16.21L422.137,36.213L411.633,16.21L403.246,16.21L403.246,47.527L409.409,47.527L409.409,23.083L422.237,47.527L428.299,47.527L428.299,16.21" style="fill:rgb(61,37,49);fill-rule:nonzero;"/>
                <path id="path23517" d="M210.526,47.527L210.526,16.21L203.456,16.21L203.456,47.527L210.526,47.527" style="fill:rgb(61,37,49);fill-rule:nonzero;"/>
                <path id="path23521" d="M296.922,16.21L296.922,21.159L307.323,21.159L307.323,47.528L313.994,47.528L313.994,21.158L324.498,21.158L324.498,16.209L296.92,16.209" style="fill:rgb(61,37,49);fill-rule:nonzero;"/>
            </g>
            <g>
                <path id="path23505" d="M543.92,69.03L543.92,60.567L501.203,60.567L501.203,100.796L544.316,100.796L544.316,91.734L512.461,91.734L512.461,84.164L530.777,84.164L530.777,75.707L512.461,75.707L512.461,69.03L543.92,69.03" style="fill:rgb(61,37,49);fill-rule:nonzero;"/>
                <path id="path23507" d="M496.374,68.755C496.47,65.97 495.677,63.778 493.981,62.481C492.385,61.087 489.901,60.391 486.514,60.391L451.366,60.391L451.366,100.716L484.024,100.716C492.587,100.617 496.768,97.829 496.768,92.154L496.768,87.271C496.768,83.889 495.276,81.401 492.186,80.009C494.975,78.711 496.374,76.522 496.374,73.433L496.374,68.755ZM485.52,68.955C485.918,69.354 486.122,69.755 486.016,70.351L486.016,74.036C486.12,74.531 485.918,75.031 485.52,75.329L482.725,75.824L462.618,75.824L462.618,68.558L482.725,68.558C484.227,68.558 485.221,68.757 485.52,68.955ZM462.618,91.855L462.618,83.988L482.829,83.988C484.325,83.988 485.222,84.189 485.718,84.488C486.12,84.889 486.314,85.486 486.314,86.481L486.314,89.367C486.314,90.264 486.123,90.961 485.718,91.258C485.222,91.658 484.325,91.855 482.829,91.855L462.618,91.855" style="fill:rgb(61,37,49);fill-rule:nonzero;"/>
                <path id="path23509" d="M446.614,60.458L435.364,60.458L435.364,91.625L410.968,91.625L410.968,60.458L399.72,60.458L399.72,90.729C399.614,93.215 400.015,95.213 400.71,96.704C401.31,98.099 402.507,99.194 404.099,99.793C405.696,100.488 407.783,100.786 410.569,100.689L435.662,100.689C438.451,100.786 440.639,100.488 442.232,99.793C443.822,99.194 444.921,98.099 445.621,96.704C446.316,95.213 446.617,93.217 446.617,90.729L446.617,60.458" style="fill:rgb(61,37,49);fill-rule:nonzero;"/>
                <path id="path23511" d="M394.09,64.607C393.385,63.118 392.194,62.119 390.702,61.421C389.106,60.819 386.918,60.523 384.229,60.523L359.638,60.523C356.849,60.523 354.757,60.821 353.16,61.421C351.569,62.118 350.374,63.117 349.778,64.607C349.081,66.101 348.682,68.091 348.785,70.581L348.785,90.795C348.682,93.279 349.081,95.275 349.778,96.766C350.374,98.162 351.569,99.257 353.16,99.859C354.757,100.552 356.848,100.85 359.638,100.752L384.23,100.752C386.918,100.85 389.107,100.553 390.703,99.859C392.195,99.257 393.387,98.162 394.09,96.766C394.687,95.277 395.086,93.281 395.086,90.795L395.086,83.424L383.83,83.529L383.83,91.691L359.937,91.691L359.937,69.39L383.83,69.39L383.83,76.555L395.086,76.555L395.086,70.581C395.086,67.996 394.687,66.007 394.09,64.607" style="fill:rgb(61,37,49);fill-rule:nonzero;"/>
                <path id="path23513" d="M340.461,69.03L340.461,60.567L297.743,60.567L297.743,100.796L340.859,100.796L340.859,91.734L308.998,91.734L308.998,84.164L327.319,84.164L327.319,75.707L308.998,75.707L308.998,69.03L340.461,69.03" style="fill:rgb(61,37,49);fill-rule:nonzero;"/>
                <path id="path23523" d="M282.411,60.458L265.284,88.938L248.259,60.458L238.005,60.458L238.005,93.617L217.989,60.458L207.933,60.458L183.939,100.686L214.007,100.686L214.007,91.625L200.565,91.625L213.012,71.612L229.84,100.684L248.359,100.684L248.359,79.179L261.201,100.684L269.467,100.684L282.409,79.179L282.409,100.684L292.763,100.684L292.763,60.457L282.409,60.457" style="fill:rgb(61,37,49);fill-rule:nonzero;"/>
                <path id="path23525" d="M184.83,69.307L184.83,60.537L146.892,60.537C144.207,60.537 142.013,60.837 140.418,61.436C138.828,62.132 137.732,63.134 137.037,64.623C136.337,66.116 136.039,68.106 136.039,70.598L136.039,90.808C136.039,93.294 136.337,95.291 137.037,96.783C137.733,98.178 138.829,99.273 140.418,99.874C142.012,100.566 144.207,100.865 146.892,100.769L174.476,100.769C178.454,100.866 181.244,100.17 182.934,98.678C184.529,97.083 185.325,94.495 185.228,90.81L185.228,76.57L159.14,76.57L159.14,85.04L174.275,85.04L174.275,91.707L147.29,91.707L147.29,69.307L184.83,69.307" style="fill:rgb(61,37,49);fill-rule:nonzero;"/>
            </g>
            <g>
                <path id="path23527" d="M566.93,91.979L565.237,91.979L563.196,98.429C562.862,98.942 562.686,99.453 562.686,99.791C562.514,99.453 562.34,99.109 562.174,98.603L559.963,91.977L558.264,91.977L558.264,101.147L559.291,101.147L559.291,93.334L562.008,101.147L563.02,101.147L565.741,93.505L565.741,101.147L566.93,101.147L566.93,91.979" style="fill:rgb(61,37,49);fill-rule:nonzero;"/>
                <path id="path23529" d="M554.016,93.167L556.909,93.167L556.909,91.979L549.77,91.979L549.77,93.167L552.833,93.167L552.833,101.149L554.019,101.149L554.019,93.167" style="fill:rgb(61,37,49);fill-rule:nonzero;"/>
            </g>
        </g>
        <g transform="matrix(1,0,0,1,-3,-1)">
            <g>
                <path id="path234971" d="M373.52,21.158L373.52,16.209L359.377,16.209C357.561,16.209 355.844,16.613 354.323,17.319C352.81,18.029 351.597,19.037 350.689,20.251C349.781,21.46 349.375,22.78 349.273,24.291L349.273,39.543C349.373,40.96 349.781,42.272 350.586,43.487C351.498,44.697 352.707,45.603 354.123,46.411C355.639,47.121 357.25,47.526 359.176,47.526L373.516,47.526L373.516,42.577L359.777,42.577C358.667,42.577 357.659,42.271 356.755,41.666C355.94,41.062 355.437,40.354 355.437,39.347L355.437,33.69L373.519,33.69L373.519,28.637L355.437,28.637L355.437,24.495C355.437,23.482 355.94,22.678 356.755,22.068C357.659,21.462 358.667,21.158 359.777,21.158L373.516,21.158" style="fill:rgb(252,250,251);fill-rule:nonzero;"/>
                <path id="path235011" d="M457.952,16.21L457.952,47.527L473.054,47.527C474.97,47.429 476.679,47.122 478.193,46.42C479.802,45.616 481.011,44.708 481.916,43.499C482.824,42.296 483.223,40.884 483.324,39.372L483.324,24.266C483.222,22.759 482.824,21.445 481.916,20.238C481.012,19.03 479.805,18.025 478.193,17.317C476.679,16.612 474.968,16.21 473.054,16.21L457.952,16.21ZM475.778,22.052C476.676,22.656 477.081,23.459 477.182,24.47L477.182,39.273C477.078,40.279 476.676,41.085 475.778,41.689C474.969,42.392 473.958,42.694 472.85,42.694L464.092,42.694L464.092,21.046L472.85,21.046C473.958,21.046 474.969,21.347 475.778,22.052" style="fill:rgb(252,250,251);fill-rule:nonzero;"/>
                <path id="path235031" d="M531.958,17.302C530.47,16.61 528.786,16.309 526.905,16.209L521.452,16.209C519.567,16.308 517.886,16.609 516.395,17.302C514.811,18.096 513.62,18.982 512.729,20.176C511.834,21.362 511.34,22.752 511.34,24.239L511.34,39.598C511.34,41.084 511.834,42.375 512.729,43.565C513.62,44.755 514.811,45.744 516.395,46.439C517.885,47.132 519.567,47.528 521.452,47.528L526.905,47.528C528.786,47.528 530.468,47.132 531.958,46.439C533.542,45.745 534.731,44.755 535.624,43.565C536.517,42.374 537.011,40.988 537.011,39.598L537.011,24.238C536.915,22.751 536.517,21.361 535.624,20.175C534.731,18.981 533.542,18.095 531.958,17.302ZM529.579,21.958C530.47,22.652 530.966,23.442 530.966,24.34L530.966,39.399C530.966,40.291 530.47,41.085 529.579,41.778C528.786,42.375 527.792,42.772 526.706,42.772L521.651,42.772C520.557,42.772 519.567,42.376 518.674,41.778C517.885,41.084 517.389,40.291 517.389,39.399L517.389,24.34C517.389,23.443 517.885,22.652 518.674,21.958C519.567,21.362 520.557,21.065 521.651,20.966L526.706,20.966C527.793,21.067 528.786,21.363 529.579,21.958" style="fill:rgb(252,250,251);fill-rule:nonzero;"/>
                <path id="path235151" d="M169.301,16.21L163.138,16.21L163.138,36.213L152.634,16.21L144.249,16.21L144.249,47.527L150.412,47.527L150.412,23.083L163.24,47.527L169.301,47.527L169.301,16.21" style="fill:rgb(252,250,251);fill-rule:nonzero;"/>
                <path id="path23515_1_1" d="M269.711,16.21L263.548,16.21L263.548,36.213L253.043,16.21L244.658,16.21L244.658,47.527L250.821,47.527L250.821,23.083L263.649,47.527L269.711,47.527L269.711,16.21" style="fill:rgb(252,250,251);fill-rule:nonzero;"/>
                <path id="path23515_2_1" d="M428.299,16.21L422.137,16.21L422.137,36.213L411.633,16.21L403.246,16.21L403.246,47.527L409.409,47.527L409.409,23.083L422.237,47.527L428.299,47.527L428.299,16.21" style="fill:rgb(252,250,251);fill-rule:nonzero;"/>
                <path id="path235171" d="M210.526,47.527L210.526,16.21L203.456,16.21L203.456,47.527L210.526,47.527" style="fill:rgb(252,250,251);fill-rule:nonzero;"/>
                <path id="path235211" d="M296.922,16.21L296.922,21.159L307.323,21.159L307.323,47.528L313.994,47.528L313.994,21.158L324.498,21.158L324.498,16.209L296.92,16.209" style="fill:rgb(252,250,251);fill-rule:nonzero;"/>
            </g>
            <g>
                <path id="path235051" d="M543.92,69.03L543.92,60.567L501.203,60.567L501.203,100.796L544.316,100.796L544.316,91.734L512.461,91.734L512.461,84.164L530.777,84.164L530.777,75.707L512.461,75.707L512.461,69.03L543.92,69.03" style="fill:rgb(252,250,251);fill-rule:nonzero;"/>
                <path id="path235071" d="M496.374,68.755C496.47,65.97 495.677,63.778 493.981,62.481C492.385,61.087 489.901,60.391 486.514,60.391L451.366,60.391L451.366,100.716L484.024,100.716C492.587,100.617 496.768,97.829 496.768,92.154L496.768,87.271C496.768,83.889 495.276,81.401 492.186,80.009C494.975,78.711 496.374,76.522 496.374,73.433L496.374,68.755ZM485.52,68.955C485.918,69.354 486.122,69.755 486.016,70.351L486.016,74.036C486.12,74.531 485.918,75.031 485.52,75.329L482.725,75.824L462.618,75.824L462.618,68.558L482.725,68.558C484.227,68.558 485.221,68.757 485.52,68.955ZM462.618,91.855L462.618,83.988L482.829,83.988C484.325,83.988 485.222,84.189 485.718,84.488C486.12,84.889 486.314,85.486 486.314,86.481L486.314,89.367C486.314,90.264 486.123,90.961 485.718,91.258C485.222,91.658 484.325,91.855 482.829,91.855L462.618,91.855" style="fill:rgb(252,250,251);fill-rule:nonzero;"/>
                <path id="path235091" d="M446.614,60.458L435.364,60.458L435.364,91.625L410.968,91.625L410.968,60.458L399.72,60.458L399.72,90.729C399.614,93.215 400.015,95.213 400.71,96.704C401.31,98.099 402.507,99.194 404.099,99.793C405.696,100.488 407.783,100.786 410.569,100.689L435.662,100.689C438.451,100.786 440.639,100.488 442.232,99.793C443.822,99.194 444.921,98.099 445.621,96.704C446.316,95.213 446.617,93.217 446.617,90.729L446.617,60.458" style="fill:rgb(252,250,251);fill-rule:nonzero;"/>
                <path id="path235111" d="M394.09,64.607C393.385,63.118 392.194,62.119 390.702,61.421C389.106,60.819 386.918,60.523 384.229,60.523L359.638,60.523C356.849,60.523 354.757,60.821 353.16,61.421C351.569,62.118 350.374,63.117 349.778,64.607C349.081,66.101 348.682,68.091 348.785,70.581L348.785,90.795C348.682,93.279 349.081,95.275 349.778,96.766C350.374,98.162 351.569,99.257 353.16,99.859C354.757,100.552 356.848,100.85 359.638,100.752L384.23,100.752C386.918,100.85 389.107,100.553 390.703,99.859C392.195,99.257 393.387,98.162 394.09,96.766C394.687,95.277 395.086,93.281 395.086,90.795L395.086,83.424L383.83,83.529L383.83,91.691L359.937,91.691L359.937,69.39L383.83,69.39L383.83,76.555L395.086,76.555L395.086,70.581C395.086,67.996 394.687,66.007 394.09,64.607" style="fill:rgb(252,250,251);fill-rule:nonzero;"/>
                <path id="path235131" d="M340.461,69.03L340.461,60.567L297.743,60.567L297.743,100.796L340.859,100.796L340.859,91.734L308.998,91.734L308.998,84.164L327.319,84.164L327.319,75.707L308.998,75.707L308.998,69.03L340.461,69.03" style="fill:rgb(252,250,251);fill-rule:nonzero;"/>
                <path id="path235231" d="M282.411,60.458L265.284,88.938L248.259,60.458L238.005,60.458L238.005,93.617L217.989,60.458L207.933,60.458L183.939,100.686L214.007,100.686L214.007,91.625L200.565,91.625L213.012,71.612L229.84,100.684L248.359,100.684L248.359,79.179L261.201,100.684L269.467,100.684L282.409,79.179L282.409,100.684L292.763,100.684L292.763,60.457L282.409,60.457" style="fill:rgb(252,250,251);fill-rule:nonzero;"/>
                <path id="path235251" d="M184.83,69.307L184.83,60.537L146.892,60.537C144.207,60.537 142.013,60.837 140.418,61.436C138.828,62.132 137.732,63.134 137.037,64.623C136.337,66.116 136.039,68.106 136.039,70.598L136.039,90.808C136.039,93.294 136.337,95.291 137.037,96.783C137.733,98.178 138.829,99.273 140.418,99.874C142.012,100.566 144.207,100.865 146.892,100.769L174.476,100.769C178.454,100.866 181.244,100.17 182.934,98.678C184.529,97.083 185.325,94.495 185.228,90.81L185.228,76.57L159.14,76.57L159.14,85.04L174.275,85.04L174.275,91.707L147.29,91.707L147.29,69.307L184.83,69.307" style="fill:rgb(252,250,251);fill-rule:nonzero;"/>
            </g>
            <g>
                <path id="path235271" d="M566.93,91.979L565.237,91.979L563.196,98.429C562.862,98.942 562.686,99.453 562.686,99.791C562.514,99.453 562.34,99.109 562.174,98.603L559.963,91.977L558.264,91.977L558.264,101.147L559.291,101.147L559.291,93.334L562.008,101.147L563.02,101.147L565.741,93.505L565.741,101.147L566.93,101.147L566.93,91.979" style="fill:rgb(252,250,251);fill-rule:nonzero;"/>
                <path id="path235291" d="M554.016,93.167L556.909,93.167L556.909,91.979L549.77,91.979L549.77,93.167L552.833,93.167L552.833,101.149L554.019,101.149L554.019,93.167" style="fill:rgb(252,250,251);fill-rule:nonzero;"/>
            </g>
        </g>
    </g>
</svg>
