<?xml version="1.0" encoding="UTF-8" standalone="no"?>
<!DOCTYPE svg PUBLIC "-//W3C//DTD SVG 1.1//EN" "http://www.w3.org/Graphics/SVG/1.1/DTD/svg11.dtd">
<svg width="575px" height="84px" version="1.1" xmlns="http://www.w3.org/2000/svg" xmlns:xlink="http://www.w3.org/1999/xlink" xml:space="preserve" style="fill-rule:evenodd;clip-rule:evenodd;stroke-linejoin:round;stroke-miterlimit:1.41421;">
    <rect x="0" y="0" width="553" height="83.5"/>
    <g>
        <g>
            <path d="M79.804,29.764l-1.553,-0.719c0.097,-0.32 0.194,-0.719 0.194,-1.119c0,-1.039 -9.127,-6.633 -24.953,-6.633c-15.146,0 -21.651,3.836 -21.651,8.79c0,13.104 57.186,-6.072 57.186,22.854c0,10.548 -12.428,18.699 -37.283,18.699c-23.689,0 -30.486,-6.233 -32.719,-6.233c-0.583,0 -0.874,0.397 -1.359,0.64l-1.262,-0.24l8.058,-13.586l1.554,0.64c0,0.321 -0.195,0.642 -0.195,1.28c0,4.716 12.525,8.068 24.953,8.068c17.671,0 23.69,-4.152 23.69,-8.55c0,-15.66 -56.41,3.755 -56.41,-22.771c0,-13.425 17.185,-19.019 36.021,-19.019c16.894,0 28.739,6.073 29.904,6.073c1.262,0 1.456,-0.319 1.748,-0.559l1.553,0.399l-7.476,11.986Z" style="fill:#e7e7e7;fill-rule:nonzero;"/>
            <path d="M96.499,69.716c2.136,0 2.524,-0.639 2.524,-2.397l0,-51.139c0,-1.758 -0.389,-2.397 -2.524,-2.397l0,-1.119l63.012,0c2.33,0 3.301,-0.64 3.301,-1.758l1.359,0l0,13.265l-1.359,0c0,-1.438 -0.971,-2.077 -3.301,-2.077l-46.701,0l0,14.224l30.487,0c2.33,0 3.301,-0.64 3.301,-2.078l1.359,0l0,13.422l-1.359,0c0,-0.639 -0.194,-1.117 -0.777,-1.438c-0.485,-0.319 -1.359,-0.48 -2.524,-0.48l-30.487,0l0,15.664l47.575,0c2.33,0 3.301,-0.641 3.301,-1.918l1.359,0l0,13.104l-1.359,0c0,-1.118 -0.971,-1.758 -3.301,-1.758l-63.886,0l0,-1.12Z" style="fill:#e7e7e7;fill-rule:nonzero;"/>
            <path d="M251.158,40.152l0,1.119c-0.971,0.16 -1.845,0.799 -1.845,2.557l0,15.741c0,1.279 0.486,1.757 1.748,1.997l0,1.119c-6.117,2.876 -21.069,8.951 -37.866,8.951c-22.331,0 -41.943,-9.112 -41.943,-29.886c0,-20.776 22.913,-29.886 43.108,-29.886c7.962,0 15.535,1.518 21.069,2.957c5.146,1.838 8.932,3.277 9.612,3.277c0.874,0 1.748,-0.4 2.136,-0.879l1.359,0.479l-9.417,13.104l-1.36,-0.719c0.097,-0.319 0.194,-0.799 0.194,-1.358c0,-2.478 -10.485,-7.432 -23.398,-7.432c-16.311,0 -29.515,6.633 -29.515,20.138c0,14.143 13.204,20.773 28.156,20.773c12.234,0 19.418,-3.437 22.331,-5.193l0,-6.631l-16.699,0c-1.942,0 -3.107,0.799 -3.107,1.916l-1.36,0l0,-14.061l1.36,0c0,1.118 1.165,1.917 3.107,1.917l32.33,0Z" style="fill:#e7e7e7;fill-rule:nonzero;"/>
            <path d="M256.006,70.838l0,-1.119c1.748,-0.08 2.33,-0.479 3.689,-3.037l26.506,-49.063c0.484,-0.799 1.066,-1.678 1.066,-2.396c0,-0.879 -0.774,-1.279 -2.039,-1.438l0,-1.12l21.167,0l0,1.119c-1.457,0.16 -2.041,0.639 -2.041,1.199c0,0.639 0.39,1.278 0.875,2.078l28.156,49.621c1.357,2.478 1.748,3.037 3.785,3.037l0,1.119l-19.32,0l0,-1.119c1.264,0 1.748,-0.4 1.748,-0.799c0,-0.879 -0.873,-1.998 -7.379,-13.426l-33.303,0c-5.631,10.387 -7.087,11.986 -7.087,13.025c0,0.719 0.582,1.119 1.456,1.197l0,1.119l-17.281,0l0,0.003l0.002,0Zm50.585,-24.454l-11.651,-20.936l-11.457,20.936l23.108,0Z" style="fill:#e7e7e7;fill-rule:nonzero;"/>
        </g>
        <path d="M549.731,80.349l-546.461,0l0,-77.199l546.46,0l0,77.199l0.001,0Zm-541.544,-4.917l536.627,0l0,-67.365l-536.627,0l0,67.365Z" style="fill:#e7e7e7;fill-rule:nonzero;"/>
        <path d="M354.006,12.664l0,58.171l186.855,0l0,-58.171l-186.855,0Zm7.922,40.836c-1.555,-10.357 32.85,-24.163 77.67,-31.438c-1.012,0.261 -2.969,0.762 -2.969,0.762c0,0 -4.404,1.076 -5.623,1.374c-22.863,5.587 -38.881,15.652 -37.545,24.577c1.369,9.137 20.469,14.083 44.766,12.393c1.35,-0.096 6.139,-0.326 7.182,-0.373c-44.989,6.179 -81.93,3.064 -83.481,-7.295Zm112.039,2.237c-9.932,2.257 -22.346,4.173 -22.346,4.173l0,-25.959l6.4,21.124c0,0 15.242,-2.474 26.844,-7.304c10.084,-4.199 16.34,-9.466 15.918,-15.077c-0.684,-9.115 -20.068,-13.978 -44,-12.439c-1.596,0.103 -6.895,0.375 -7.936,0.421c44.98,-6.181 81.916,-3.064 83.471,7.293c1.321,8.81 -23.371,20.109 -58.351,27.768Z" style="fill:#e7e7e7;fill-rule:nonzero;"/>
    </g>
    <g>
        <path d="M556.039,1.699l3.321,0l0,8.848l1.632,0l0,-8.848l3.323,0l0,-1.424l-8.276,0l0,1.424Z" style="fill:#e7e7e7;fill-rule:nonzero;"/>
        <path d="M572.709,0.275l-3.047,8.09l-3.031,-8.09l-2.074,0l0,10.272l1.56,0l0,-7.672l2.881,7.672l1.346,0l2.879,-7.669l0,7.669l1.562,0l0,-10.272l-2.076,0Z" style="fill:#e7e7e7;fill-rule:nonzero;"/>
    </g>
</svg>
