<?xml version="1.0" encoding="UTF-8" standalone="no"?>
<!DOCTYPE svg PUBLIC "-//W3C//DTD SVG 1.1//EN" "http://www.w3.org/Graphics/SVG/1.1/DTD/svg11.dtd">
<svg width="935px" height="111px" version="1.1" xmlns="http://www.w3.org/2000/svg" xmlns:xlink="http://www.w3.org/1999/xlink" xml:space="preserve" style="fill-rule:evenodd;clip-rule:evenodd;stroke-linejoin:round;stroke-miterlimit:1.41421;">
    <g transform="matrix(1,0,0,1,-13.0052,-20)">
        <g id="Layer-2">
            <rect x="74.886" y="20" width="13.568" height="110.328" style="fill:rgb(19,143,242);fill-rule:nonzero;"/>
            <path d="M60.137,54.855l0,-34.855l8.761,0l0,49.275c0,60.393 -55.893,61.052 -55.893,61.052l0,-17.367c0,0.001 47.132,-16.908 47.132,-58.105" style="fill:rgb(19,143,242);fill-rule:nonzero;"/>
            <path d="M103.202,54.855l0,-34.855l-8.764,0l0,49.275c0,60.393 55.895,61.052 55.895,61.052l0,-17.367c0,0.001 -47.131,-16.908 -47.131,-58.105" style="fill:rgb(19,143,242);fill-rule:nonzero;"/>
            <rect x="452.852" y="23.218" width="19.148" height="107.11" style="fill:rgb(19,143,242);fill-rule:nonzero;"/>
            <path d="M228.685,41.537l0,-18.229l66.829,0l0,18.229l-23.773,0l-0.071,88.791l-19.144,0l0,-88.701l-23.841,-0.09Z" style="fill:rgb(19,143,242);fill-rule:nonzero;"/>
            <path d="M419.2,86.11c12.702,-4.682 21.714,-16.515 21.714,-30.376c0,-17.962 -15.14,-32.517 -33.818,-32.517l-13.096,-0.061c-12.127,-0.047 -19.149,6.107 -19.149,18.415l0,88.139l19.149,0l0,-88.696l11.807,0c8.994,0 16.278,7.007 16.278,15.656c0,7.698 -5.777,14.099 -13.389,15.405c-1.352,0.316 -2.704,0.701 -3.952,1.429c-6.672,3.867 -8.821,12.194 -4.801,18.602l24.058,38.221l20.234,0l-26.162,-41.37c-0.563,-0.896 -0.263,-2.067 0.669,-2.609c0.18,-0.094 0.368,-0.151 0.56,-0.195l-0.102,-0.043Z" style="fill:rgb(19,143,242);fill-rule:nonzero;"/>
            <path d="M188.029,87.591l9.721,-34.082l10.87,34.14l-20.591,-0.058Zm23.243,-55.306c-1.758,-5.688 -7.258,-9.823 -13.744,-9.823c-6.478,0 -11.95,4.142 -13.706,9.823l-28.087,97.906l20.106,0l7.274,-25.491l30.935,0.044l8.072,25.447l19.962,0.137l-30.813,-98.043Z" style="fill:rgb(19,143,242);fill-rule:nonzero;"/>
            <path d="M314.221,87.591l9.722,-34.082l10.88,34.14l-20.602,-0.058Zm23.247,-55.306c-1.759,-5.688 -7.258,-9.823 -13.746,-9.823c-6.473,0 -11.943,4.142 -13.709,9.823l-28.085,97.906l20.106,0l7.273,-25.491l30.937,0.044l8.073,25.447l19.964,0.137l-30.813,-98.043Z" style="fill:rgb(19,143,242);fill-rule:nonzero;"/>
        </g>
        <g id="Layer-3">
            <path d="M588.133,38.561c-2.413,0 -4.656,0.432 -6.73,1.296c-2.076,0.864 -3.885,2.017 -5.428,3.455c-1.544,1.442 -2.75,3.144 -3.618,5.112c-0.869,1.967 -1.303,4.102 -1.303,6.405c0,3.266 1.108,5.858 3.328,7.775c2.22,1.92 5.259,2.879 9.12,2.879c2.508,0 4.871,-0.432 7.092,-1.296c2.219,-0.864 4.149,-2.037 5.79,-3.525c1.639,-1.489 2.943,-3.239 3.908,-5.256c0.964,-2.015 1.447,-4.175 1.447,-6.48c0,-3.166 -1.229,-5.683 -3.69,-7.556c-2.461,-1.873 -5.767,-2.809 -9.916,-2.809m-7.961,40.673c-2.799,0 -5.405,0.579 -7.815,1.737c-2.413,1.158 -4.537,2.703 -6.369,4.631c-1.834,1.932 -3.257,4.248 -4.271,6.948c-1.012,2.703 -1.519,5.55 -1.519,8.54c0,3.379 1.278,6.152 3.836,8.323c2.556,2.171 5.91,3.256 10.06,3.256c2.797,0 5.377,-0.529 7.743,-1.592c2.364,-1.061 4.391,-2.533 6.08,-4.414c1.686,-1.882 3.015,-4.148 3.98,-6.803c0.963,-2.654 1.448,-5.523 1.448,-8.613c0,-3.666 -1.183,-6.585 -3.547,-8.756c-2.366,-2.172 -5.572,-3.257 -9.626,-3.257m21.712,-8.106c4.438,2.703 7.575,5.501 9.408,8.396c1.832,2.894 2.75,6.513 2.75,10.855c0,5.21 -1.183,10.399 -3.546,15.56c-2.365,5.163 -5.572,9.625 -9.625,13.389c-3.861,3.57 -8.396,6.296 -13.606,8.178c-5.21,1.881 -10.711,2.822 -16.501,2.822c-9.65,0 -17.273,-2.316 -22.869,-6.948c-5.598,-4.632 -8.395,-10.903 -8.395,-18.816c0,-4.053 0.746,-8.081 2.243,-12.086c1.496,-4.003 3.595,-7.599 6.297,-10.783c1.832,-2.122 3.835,-3.956 6.006,-5.501c2.172,-1.542 5.089,-3.232 8.757,-5.066c-3.378,-2.605 -5.79,-5.089 -7.237,-7.454c-1.448,-2.363 -2.171,-5.138 -2.171,-8.323c0,-4.534 1.013,-8.804 3.04,-12.81c2.026,-4.003 4.799,-7.526 8.323,-10.566c3.521,-3.039 7.622,-5.427 12.303,-7.165c4.679,-1.736 9.625,-2.605 14.836,-2.605c4.245,0 8.128,0.557 11.652,1.665c3.521,1.11 6.536,2.63 9.046,4.559c2.508,1.932 4.462,4.27 5.862,7.02c1.398,2.75 2.099,5.767 2.099,9.047c0,3.668 -0.796,7.214 -2.389,10.638c-1.591,3.427 -3.835,6.491 -6.73,9.192c-1.157,1.063 -2.438,2.123 -3.836,3.184c-1.399,1.062 -3.306,2.268 -5.717,3.618" style="fill:rgb(82,82,82);fill-rule:nonzero;"/>
            <path d="M669.175,38.561c-4.826,0 -8.926,2.553 -12.303,7.656c-1.353,2.121 -2.677,5.251 -3.981,9.392c-1.301,4.141 -2.726,9.678 -4.27,16.612c-0.578,2.601 -1.085,5.274 -1.519,8.017c-0.434,2.746 -0.846,5.369 -1.23,7.873c-0.387,2.506 -0.677,4.864 -0.869,7.078c-0.194,2.217 -0.289,4.047 -0.289,5.489c0,3.662 1.012,6.575 3.039,8.741c2.027,2.167 4.727,3.25 8.105,3.25c4.343,0 7.84,-1.588 10.494,-4.767c2.653,-3.178 5.042,-8.522 7.165,-16.035c0.964,-3.467 1.858,-7.126 2.679,-10.98c0.818,-3.851 1.542,-7.656 2.171,-11.412c0.626,-3.754 1.132,-7.269 1.52,-10.543c0.384,-3.275 0.578,-6.019 0.578,-8.235c0,-3.659 -1.012,-6.597 -3.039,-8.814c-2.027,-2.214 -4.777,-3.322 -8.251,-3.322m4.488,-16.356c8.489,0 15.198,2.558 20.118,7.671c4.922,5.117 7.383,12.111 7.383,20.988c0,3.764 -0.339,8.106 -1.013,13.027c-0.678,4.921 -1.571,9.868 -2.679,14.836c-1.11,4.971 -2.413,9.77 -3.907,14.402c-1.498,4.632 -3.018,8.589 -4.56,11.869c-3.958,8.203 -9.118,14.474 -15.488,18.816c-6.368,4.343 -13.558,6.514 -21.566,6.514c-8.782,0 -15.633,-2.511 -20.553,-7.527c-4.922,-5.016 -7.383,-12.061 -7.383,-21.132c0,-3.858 0.338,-8.225 1.014,-13.099c0.674,-4.872 1.567,-9.793 2.678,-14.764c1.108,-4.968 2.387,-9.745 3.835,-14.329c1.447,-4.582 2.99,-8.563 4.632,-11.942c4.053,-8.298 9.239,-14.594 15.56,-18.889c6.318,-4.292 13.629,-6.441 21.929,-6.441" style="fill:rgb(82,82,82);fill-rule:nonzero;"/>
            <path d="M750.652,38.561c-4.826,0 -8.926,2.553 -12.303,7.656c-1.353,2.121 -2.677,5.251 -3.981,9.392c-1.301,4.141 -2.726,9.678 -4.27,16.612c-0.578,2.601 -1.085,5.274 -1.519,8.017c-0.434,2.746 -0.846,5.369 -1.23,7.873c-0.387,2.506 -0.677,4.864 -0.869,7.078c-0.194,2.217 -0.289,4.047 -0.289,5.489c0,3.662 1.012,6.575 3.039,8.741c2.027,2.167 4.727,3.25 8.105,3.25c4.343,0 7.84,-1.588 10.494,-4.767c2.653,-3.178 5.042,-8.522 7.165,-16.035c0.964,-3.467 1.858,-7.126 2.679,-10.98c0.818,-3.851 1.542,-7.656 2.171,-11.412c0.626,-3.754 1.132,-7.269 1.52,-10.543c0.384,-3.275 0.578,-6.019 0.578,-8.235c0,-3.659 -1.012,-6.597 -3.039,-8.814c-2.027,-2.214 -4.777,-3.322 -8.251,-3.322m4.488,-16.356c8.489,0 15.198,2.558 20.118,7.671c4.922,5.117 7.383,12.111 7.383,20.988c0,3.764 -0.339,8.106 -1.014,13.027c-0.677,4.921 -1.57,9.868 -2.678,14.836c-1.11,4.971 -2.413,9.77 -3.907,14.402c-1.498,4.632 -3.018,8.589 -4.56,11.869c-3.958,8.203 -9.118,14.474 -15.488,18.816c-6.368,4.343 -13.558,6.514 -21.566,6.514c-8.782,0 -15.633,-2.511 -20.553,-7.527c-4.922,-5.016 -7.383,-12.061 -7.383,-21.132c0,-3.858 0.338,-8.225 1.014,-13.099c0.674,-4.872 1.567,-9.793 2.678,-14.764c1.108,-4.968 2.387,-9.745 3.835,-14.329c1.447,-4.582 2.99,-8.563 4.632,-11.942c4.053,-8.298 9.239,-14.594 15.56,-18.889c6.318,-4.292 13.629,-6.441 21.929,-6.441" style="fill:rgb(82,82,82);fill-rule:nonzero;"/>
            <path d="M860.051,126.999l-25.909,0l-13.027,-36.041l-27.356,36.041l-25.33,0l44.87,-53.121l-20.987,-52.396l25.764,0l11.435,34.159l26.488,-34.159l25.329,0l-43.856,51.672l22.579,53.845Z" style="fill:rgb(82,82,82);fill-rule:nonzero;"/>
            <path d="M896.986,108.906l50.514,0l-3.907,18.093l-72.227,0l22.435,-105.517l21.712,0l-18.527,87.424Z" style="fill:rgb(82,82,82);fill-rule:nonzero;"/>
        </g>
    </g>
</svg>
