<?xml version="1.0" encoding="UTF-8" standalone="no"?>
<!DOCTYPE svg PUBLIC "-//W3C//DTD SVG 1.1//EN" "http://www.w3.org/Graphics/SVG/1.1/DTD/svg11.dtd">
<svg width="632px" height="133px" version="1.1" xmlns="http://www.w3.org/2000/svg" xmlns:xlink="http://www.w3.org/1999/xlink" xml:space="preserve" style="fill-rule:evenodd;clip-rule:evenodd;">
    <g id="g3">
        <path id="path5" d="M213.299,73.81c-4.779,6.492 -9.51,8.334 -11.58,9.33c-2.068,0.998 -5.201,1.779 -7.941,1.779c-7.689,0 -13.688,-2.508 -18,-7.5c-4.314,-5.017 -6.469,-12.048 -6.469,-21.165c0,-10.782 2.719,-19.924 8.182,-27.472c5.46,-7.522 12.7,-11.272 21.72,-11.272c6.846,0 12.445,1.922 16.828,5.789c4.383,3.844 6.564,9.891 6.564,18.117l-13.244,0c0,-3.938 -0.867,-6.703 -2.604,-8.298c-1.732,-1.569 -4.219,-2.366 -7.477,-2.366c-5.32,0 -9.422,2.601 -12.352,7.78c-2.906,5.204 -4.385,11.109 -4.385,17.742c0,4.524 0.963,8.229 2.838,11.086c1.898,2.885 4.732,4.313 8.508,4.313c3.938,0 6.984,-1.125 9.188,-3.354c2.18,-2.202 3.797,-5.063 4.828,-8.556l-12.33,0l1.996,-12l24.045,0l-2.039,11.625c0,0.007 -1.52,7.93 -6.28,14.422l0.004,0Z" style="fill:#4d4d4d;fill-rule:nonzero;stroke:#ededed;stroke-width:2px;"/>
        <path id="polygon9" d="M327.629,19.176l-10.76,64.174l-11.58,0l9.12,-49.736l-20.11,49.736l-9.49,0l-4.38,-49.713l-6.92,49.713l-11.72,0l10.71,-64.174l16.43,0l3.69,45.189l18.46,-45.308l16.55,0.119Z" style="fill:#4d4d4d;fill-rule:nonzero;stroke:#ededed;stroke-width:2px;"/>
        <path id="polygon11" d="M339.889,44.019l18.91,0l-1.97,12.447l-18.91,0l-2.44,13.664l21.35,0l-2.11,13.22l-33.65,0l10.64,-64.246l33.25,0l-2.03,13.313l-20.93,0l-2.11,11.602Z" style="fill:#4d4d4d;fill-rule:nonzero;stroke:#ededed;stroke-width:2px;"/>
        <path id="path13" d="M239.079,19.057l-25.87,64.293l12.609,0l4.617,-12.541l16.5,0l1.078,12.541l12.211,0l-7.313,-64.292l-13.84,-0.001l0.008,0Zm-4.64,40.784l9.377,-25.571l2.178,25.571l-11.56,0l0.005,0Z" style="fill:#4d4d4d;fill-rule:nonzero;stroke:#ededed;stroke-width:2px;"/>
    </g>
    <g id="g9">
        <path id="path5_1_" d="M430.279,73.81c-4.781,6.492 -9.51,8.334 -11.58,9.331c-2.068,0.997 -5.201,1.779 -7.941,1.779c-7.688,0 -13.688,-2.509 -18,-7.5c-4.314,-5.017 -6.471,-12.046 -6.471,-21.164c0,-10.782 2.721,-19.923 8.182,-27.472c5.461,-7.522 12.703,-11.272 21.727,-11.272c6.844,0 12.445,1.922 16.828,5.789c4.385,3.845 6.563,9.893 6.563,18.118l-13.24,0c0,-3.938 -0.865,-6.703 -2.604,-8.298c-1.732,-1.568 -4.219,-2.366 -7.477,-2.366c-5.32,0 -9.422,2.601 -12.352,7.78c-2.908,5.204 -4.383,11.109 -4.383,17.743c0,4.523 0.961,8.229 2.834,11.085c1.898,2.885 4.734,4.313 8.51,4.313c3.938,0 6.984,-1.125 9.188,-3.353c2.18,-2.203 3.797,-5.063 4.83,-8.556l-12.33,0l1.992,-12l24.047,0l-2.039,11.625c0,0.003 -1.53,7.926 -6.29,14.418l0.006,0Z" style="fill:#4d4d4d;fill-rule:nonzero;stroke:#ededed;stroke-width:2px;"/>
        <path id="polygon15" d="M454.989,44.042l18.89,0l-1.94,12.424l-18.92,0l-2.46,13.664l21.38,0l-2.11,13.242l-33.66,0l10.64,-64.268l33.26,0l-2.04,13.312l-20.93,0l-2.11,11.626Z" style="fill:#4d4d4d;fill-rule:nonzero;stroke:#ededed;stroke-width:2px;"/>
        <path id="path17" d="M496.799,19.083l-25.875,64.292l12.635,0l4.594,-12.54l16.523,0l1.076,12.54l12.189,0l-7.314,-64.292l-13.83,0l0.002,0Zm-4.62,40.757l9.355,-25.572l2.203,25.572l-11.557,0l-0.001,0Z" style="fill:#4d4d4d;fill-rule:nonzero;stroke:#ededed;stroke-width:2px;"/>
        <path id="path19" d="M537.489,47.346l2.813,-15.819l6.75,0c2.484,0 4.336,0.444 5.578,1.336c1.242,0.914 1.852,2.718 1.852,5.438c0,3.047 -1.008,5.297 -3,6.798c-2.018,1.5 -4.57,2.249 -7.664,2.249l-6.33,-0.002l0.001,0Zm-7.61,-28.242l-10.641,64.268l12.303,0l4.127,-24.492l5.695,0l9.516,24.492l14.109,0l-10.549,-27.117c3.682,-1.875 6.846,-4.993 9.049,-8.25c2.297,-3.353 3.443,-7.267 3.443,-11.743c0,-6.07 -1.357,-10.431 -4.102,-13.125c-2.719,-2.694 -6.588,-4.031 -11.555,-4.031l-21.4,-0.002l0.005,0Z" style="fill:#4d4d4d;fill-rule:nonzero;stroke:#ededed;stroke-width:2px;"/>
    </g>
    <path id="path21" d="M10.273,43.791c10.857,-18.21 25.803,-29.576 33.383,-25.426c7.564,4.168 4.898,22.309 -5.979,40.506c-10.859,18.211 -25.803,29.575 -33.365,25.423c-7.582,-4.165 -4.9,-22.307 5.961,-40.503l0,0Z" style="fill:#d61808;fill-rule:nonzero;"/>
    <path id="path21_2_" d="M58.845,43.791c10.858,-18.21 25.803,-29.576 33.381,-25.426c7.564,4.168 4.898,22.309 -5.979,40.506c-10.857,18.211 -25.802,29.575 -33.365,25.423c-7.58,-4.165 -4.898,-22.307 5.963,-40.503l0,0Z" style="fill:#008400;fill-rule:nonzero;"/>
    <path id="path21_3_" d="M107.419,43.791c10.85,-18.211 25.8,-29.576 33.38,-25.427c7.564,4.168 4.898,22.309 -5.979,40.506c-10.859,18.211 -25.801,29.575 -33.365,25.424c-7.586,-4.165 -4.903,-22.307 5.96,-40.503l0.004,0Z" style="fill:#00f;fill-rule:nonzero;"/>
    <g>
        <path d="M461.467,47.128c0.146,0.083 0.278,0.124 0.397,0.123c0.126,0 0.3,0.109 0.522,0.329c0.221,0.22 0.333,0.393 0.333,0.52c0,0.063 0.032,0.126 0.096,0.188c0,0.064 0.016,0.127 0.048,0.19c0.031,0.063 0.047,0.126 0.048,0.189l-0.188,0.379c0.001,0.253 -0.045,0.584 -0.138,0.995c-0.093,0.41 -0.171,0.616 -0.234,0.616c0,0 -0.063,0.111 -0.188,0.332c-0.125,0.221 -0.282,0.443 -0.47,0.665c-0.189,0.221 -0.377,0.443 -0.566,0.665c-0.188,0.221 -0.314,0.364 -0.376,0.427c-0.063,0.063 -0.11,0.143 -0.141,0.237c-0.032,0.095 -0.078,0.206 -0.141,0.332c-0.062,0.19 -0.156,0.348 -0.282,0.475l0.064,15.334l0.568,-0.002c0.063,0 0.236,-0.033 0.52,-0.097c0.284,-0.064 0.568,-0.113 0.852,-0.146c0.283,-0.032 0.551,-0.081 0.804,-0.145c0.252,-0.064 0.378,-0.096 0.378,-0.096c0.441,-0.065 1.214,-0.21 2.317,-0.436c1.103,-0.225 2.302,-0.451 3.594,-0.677c1.293,-0.227 2.491,-0.437 3.595,-0.631c1.103,-0.194 1.876,-0.323 2.317,-0.388l0.85,-0.477l-0.066,-15.902c-0.001,-0.126 0.156,-0.427 0.469,-0.902c0.314,-0.474 0.565,-0.87 0.753,-1.186l2.545,-2.566c0.126,-0.001 0.409,-0.128 0.85,-0.382c0.441,-0.255 0.787,-0.414 1.039,-0.478l0.379,-0.002l0.284,-0.001c0.189,-0.001 0.473,0.061 0.853,0.186c0.189,0.062 0.347,0.125 0.474,0.187l0.076,18.364l0.581,3.121l0.066,15.713c0.066,0.631 0.133,1.688 0.202,3.17c0.061,1.298 0.11,2.656 0.147,4.074l0.03,1.223c0.037,1.418 0.086,2.776 0.147,4.073c0.069,1.483 0.136,2.508 0.202,3.076c0,0.063 0.032,0.284 0.097,0.662c0.065,0.378 0.114,0.804 0.147,1.277c0.034,0.474 0.083,0.915 0.148,1.325c0.065,0.41 0.097,0.646 0.098,0.71l0.01,2.555c0.001,0.119 -0.068,0.362 -0.205,0.73l-0.056,0.151c-0.138,0.369 -0.206,0.612 -0.205,0.73c-0.063,0.127 -0.125,0.474 -0.185,1.042c-0.061,0.569 -0.106,1.168 -0.135,1.8c-0.029,0.631 -0.074,1.215 -0.134,1.751c-0.061,0.537 -0.123,0.837 -0.186,0.9c0.001,0.253 -0.045,0.568 -0.138,0.947c-0.093,0.38 -0.202,0.632 -0.328,0.759c-0.063,0.063 -0.158,0.095 -0.284,0.096c-0.126,0.064 -0.315,0.096 -0.567,0.097l-0.022,-5.301c0,0.189 -0.014,0.552 -0.043,1.089c-0.03,0.536 -0.074,1.105 -0.135,1.704c-0.061,0.6 -0.121,1.168 -0.182,1.705c-0.061,0.537 -0.123,0.9 -0.185,1.089c0.001,0.19 -0.077,0.474 -0.233,0.853c-0.156,0.38 -0.298,0.569 -0.424,0.57c0.001,0.063 -0.031,0.126 -0.094,0.19l0.001,0.094l-0.095,0.001l-0.189,0.001c-0.063,0 -0.095,-0.095 -0.096,-0.284c-0.001,-0.126 -0.065,-0.536 -0.194,-1.23c-0.13,-0.693 -0.195,-1.135 -0.195,-1.324c-0.128,-0.252 -0.256,-0.756 -0.385,-1.513c-0.13,-0.757 -0.195,-1.261 -0.196,-1.514l-1.136,0.005c-0.126,0 -0.3,-0.062 -0.521,-0.187c-0.222,-0.126 -0.333,-0.251 -0.333,-0.378c-0.126,0.001 -0.238,-0.204 -0.334,-0.613c-0.096,-0.41 -0.176,-0.71 -0.24,-0.899c-0.128,-0.252 -0.24,-0.709 -0.337,-1.371c-0.098,-0.662 -0.147,-1.056 -0.147,-1.182c-0.064,-0.253 -0.13,-0.757 -0.196,-1.514c-0.066,-0.757 -0.117,-1.577 -0.152,-2.461c-0.035,-0.883 -0.086,-1.719 -0.153,-2.508c-0.066,-0.788 -0.131,-1.34 -0.196,-1.655c-0.002,-0.442 -0.038,-1.515 -0.108,-3.218c-0.061,-1.491 -0.111,-3.078 -0.149,-4.762l-0.031,-1.455c-0.039,-1.684 -0.088,-3.272 -0.15,-4.762c-0.07,-1.704 -0.106,-2.776 -0.108,-3.218c-0.001,-0.19 -0.018,-0.537 -0.052,-1.041c-0.033,-0.505 -0.083,-1.01 -0.148,-1.514c-0.065,-0.505 -0.114,-1.009 -0.148,-1.514c-0.034,-0.505 -0.051,-0.852 -0.052,-1.041l-1.325,0.005l-1.231,0.006c-0.315,0.001 -0.867,0.066 -1.655,0.196c-0.789,0.129 -1.277,0.194 -1.467,0.195c0.001,0.126 -0.078,0.253 -0.235,0.38c-0.157,0.127 -0.235,0.253 -0.235,0.379c-0.061,0.379 -0.122,1.042 -0.181,1.989c-0.059,0.947 -0.102,1.973 -0.129,3.077c-0.027,1.104 -0.07,2.146 -0.129,3.124c-0.059,0.979 -0.119,1.657 -0.181,2.036c0.001,0.126 -0.029,0.474 -0.09,1.042c-0.061,0.568 -0.105,1.215 -0.134,1.941c-0.028,0.726 -0.073,1.42 -0.133,2.083c-0.061,0.663 -0.09,1.152 -0.089,1.468c0.001,0.189 -0.013,0.536 -0.043,1.041c-0.029,0.505 -0.074,1.042 -0.135,1.61c-0.061,0.568 -0.106,1.089 -0.135,1.562c-0.03,0.474 -0.045,0.773 -0.044,0.9c-0.062,0.189 -0.124,0.458 -0.186,0.805c-0.054,0.304 -0.096,0.62 -0.125,0.948l-0.024,0.282c-0.03,0.328 -0.072,0.644 -0.126,0.948c-0.062,0.348 -0.092,0.584 -0.092,0.711c-0.001,-0.237 -0.072,-0.695 -0.213,-1.375l-0.059,-0.278c-0.141,-0.68 -0.213,-1.138 -0.214,-1.374l-0.005,-1.231l-0.005,-1.325c-0.002,-0.316 0.027,-1.026 0.086,-2.13c0.058,-1.105 0.1,-2.304 0.127,-3.598c0.026,-1.294 0.068,-2.477 0.127,-3.55c0.058,-1.073 0.087,-1.768 0.086,-2.083l-0.036,-8.614l-0.758,0.003c0.001,0.126 0.018,0.347 0.051,0.663c0.032,0.315 0.065,0.662 0.099,1.041c0.033,0.378 0.066,0.741 0.099,1.088c0.033,0.347 0.05,0.583 0.05,0.709c-0.125,0.253 -0.234,0.696 -0.326,1.327c-0.092,0.631 -0.2,1.042 -0.326,1.232l-0.189,0.001l-0.284,0.001c-0.064,-0.063 -0.175,-0.22 -0.333,-0.472c-0.159,-0.252 -0.239,-0.409 -0.239,-0.472c-0.001,-0.19 0.014,-0.505 0.043,-0.947c0.03,-0.442 0.044,-0.899 0.042,-1.373c-0.002,-0.473 0.012,-0.915 0.042,-1.325c0.03,-0.411 0.044,-0.71 0.043,-0.9c-0.126,0.001 -0.489,-0.029 -1.089,-0.09c-0.599,-0.06 -0.962,-0.09 -1.089,-0.09c-0.189,0.001 -0.536,0.081 -1.04,0.241c-0.504,0.16 -0.851,0.272 -1.04,0.336l0.013,3.029c0.064,0.189 0.145,0.646 0.242,1.371c0.098,0.726 0.212,1.561 0.342,2.507c0.13,0.946 0.245,1.877 0.343,2.791c0.099,0.915 0.18,1.625 0.246,2.129c0.001,0.253 0.05,0.71 0.147,1.372c0.098,0.662 0.211,1.372 0.34,2.129c0.13,0.756 0.243,1.497 0.341,2.223c0.098,0.725 0.147,1.214 0.148,1.466c0.001,0.126 0.049,0.458 0.146,0.994c0.097,0.536 0.21,1.103 0.339,1.702c0.128,0.599 0.257,1.182 0.386,1.75c0.128,0.567 0.224,0.945 0.288,1.134l0.009,2.083c-0.063,0.063 -0.125,0.158 -0.188,0.284c-0.063,0.127 -0.141,0.238 -0.235,0.333c-0.095,0.095 -0.173,0.174 -0.236,0.237c-0.125,0.253 -0.297,0.57 -0.517,0.949c-0.219,0.38 -0.391,0.633 -0.517,0.76c-0.063,0.126 -0.235,0.332 -0.518,0.617c-0.283,0.285 -0.581,0.586 -0.896,0.903c-0.314,0.317 -0.628,0.618 -0.942,0.903c-0.315,0.286 -0.503,0.491 -0.566,0.618l0.096,23.002l-0.469,0.948c-0.127,-0.189 -0.271,-0.598 -0.431,-1.229c-0.161,-0.63 -0.241,-1.071 -0.242,-1.324c-0.001,-0.189 -0.034,-0.536 -0.099,-1.041c-0.066,-0.504 -0.115,-1.025 -0.149,-1.561c-0.034,-0.536 -0.083,-1.041 -0.148,-1.514c-0.065,-0.473 -0.098,-0.804 -0.099,-0.993c-0.003,-0.631 -0.039,-1.72 -0.108,-3.266c-0.061,-1.352 -0.11,-2.765 -0.147,-4.239l-0.031,-1.27c-0.037,-1.474 -0.086,-2.887 -0.147,-4.239c-0.07,-1.546 -0.137,-2.634 -0.203,-3.265c-0.127,-0.126 -0.302,-0.456 -0.525,-0.992c-0.223,-0.535 -0.335,-0.929 -0.336,-1.182c-0.127,-0.125 -0.27,-0.424 -0.43,-0.897c-0.159,-0.473 -0.24,-0.835 -0.241,-1.088c0,-0.126 -0.049,-0.457 -0.146,-0.993c-0.097,-0.536 -0.21,-1.135 -0.339,-1.797c-0.129,-0.662 -0.242,-1.293 -0.339,-1.892c-0.097,-0.599 -0.178,-1.056 -0.242,-1.371c-0.002,-0.379 -0.068,-1.041 -0.198,-1.987c-0.13,-0.946 -0.196,-1.514 -0.196,-1.703c-0.13,-0.757 -0.293,-2.003 -0.489,-3.737c-0.197,-1.735 -0.409,-3.533 -0.638,-5.393c-0.229,-1.861 -0.441,-3.58 -0.637,-5.157c-0.196,-1.576 -0.358,-2.649 -0.487,-3.216c-0.001,-0.315 -0.019,-0.757 -0.052,-1.325c-0.034,-0.568 -0.084,-1.151 -0.15,-1.751c-0.065,-0.599 -0.115,-1.119 -0.148,-1.561c-0.034,-0.441 -0.051,-0.725 -0.051,-0.852l-0.025,-5.963l-0.024,-5.679c0,-0.127 0.061,-0.6 0.184,-1.421c0.122,-0.821 0.183,-1.452 0.181,-1.894c0.125,-0.316 0.25,-0.664 0.374,-1.043l0.186,-0.758c0.126,-0.253 0.392,-0.774 0.799,-1.565c0.406,-0.791 0.672,-1.375 0.797,-1.755c0.063,-0.063 0.219,-0.284 0.47,-0.664c0.251,-0.38 0.408,-0.633 0.47,-0.759l1.132,-1.141c0.126,-0.064 0.377,-0.222 0.755,-0.476c0.377,-0.254 0.598,-0.413 0.661,-0.476l1.133,-0.573c0.252,-0.127 0.536,-0.223 0.851,-0.288c0.118,0 0.25,-0.042 0.396,-0.126l0.058,-0.035c0.146,-0.084 0.278,-0.126 0.397,-0.126c0.118,-0.001 0.25,0.04 0.397,0.123l0.059,0.034Zm84.325,-12.922c0.07,0.061 0.224,0.135 0.461,0.223c0.253,0.094 0.411,0.203 0.474,0.329l0.475,0.377c0.064,0.126 0.143,0.268 0.239,0.425c0.095,0.157 0.175,0.331 0.239,0.52c0.064,0.252 0.128,0.472 0.192,0.662c0.127,0.188 0.301,0.487 0.524,0.897c0.223,0.409 0.397,0.676 0.524,0.802c0.19,0.252 0.65,0.723 1.378,1.414c0.729,0.691 1.505,1.445 2.329,2.262l3.992,3.959c0.063,0 0.269,0.141 0.617,0.424c0.349,0.282 0.729,0.596 1.14,0.941c0.412,0.346 0.808,0.675 1.188,0.989c0.379,0.314 0.633,0.503 0.759,0.565c0.127,0.126 0.365,0.362 0.713,0.707c0.349,0.346 0.697,0.707 1.046,1.084c0.348,0.378 0.681,0.739 0.998,1.085c0.317,0.346 0.539,0.581 0.666,0.707c0.063,0.126 0.175,0.315 0.333,0.567c0.159,0.251 0.239,0.44 0.239,0.566c-0.125,0.19 -0.219,0.38 -0.281,0.57c-0.063,0.126 -0.125,0.268 -0.188,0.426c-0.062,0.158 -0.093,0.301 -0.093,0.427c0.001,0.126 -0.03,0.236 -0.093,0.331c-0.063,0.095 -0.125,0.206 -0.188,0.332c-0.062,0.19 -0.124,0.348 -0.187,0.475c-0.126,0.126 -0.314,0.301 -0.566,0.523c-0.251,0.221 -0.518,0.475 -0.801,0.76c-0.283,0.285 -0.534,0.555 -0.754,0.808c-0.22,0.253 -0.361,0.412 -0.424,0.475c-0.126,0.064 -0.457,0.223 -0.992,0.477c-0.535,0.255 -0.898,0.414 -1.087,0.478l-0.757,0.003l-0.852,0.004c-0.126,-0.063 -0.348,-0.219 -0.664,-0.471c-0.317,-0.251 -0.665,-0.517 -1.045,-0.8c-0.38,-0.282 -0.744,-0.549 -1.092,-0.8c-0.348,-0.251 -0.585,-0.408 -0.712,-0.47c-0.38,-0.314 -0.949,-0.706 -1.709,-1.176c-0.759,-0.47 -1.202,-0.768 -1.329,-0.894c-0.189,-0.125 -0.695,-0.376 -1.517,-0.751c-0.822,-0.375 -1.391,-0.594 -1.707,-0.655c-0.253,-0.126 -0.758,-0.313 -1.517,-0.562c-0.758,-0.249 -1.264,-0.436 -1.517,-0.562l-0.852,0.004l0.022,5.111l-0.852,0.004l-0.023,-5.585l-0.852,0.004c-0.062,0.252 -0.218,0.695 -0.468,1.327c-0.25,0.632 -0.406,1.043 -0.468,1.232l-0.472,0.476c-0.126,-0.126 -0.238,-0.378 -0.334,-0.756c-0.096,-0.378 -0.208,-0.599 -0.334,-0.661c-0.001,-0.253 -0.082,-0.694 -0.242,-1.325c-0.161,-0.63 -0.241,-1.04 -0.242,-1.229c-0.19,-0.126 -0.679,-0.25 -1.469,-0.373c-0.789,-0.123 -1.279,-0.247 -1.469,-0.372l-5.679,0.024c-0.189,0.063 -0.41,0.159 -0.661,0.286l-0.945,0.477c-0.189,0.064 -0.551,0.224 -1.087,0.478c-0.535,0.255 -0.866,0.414 -0.992,0.478l-0.471,0.475c-0.062,0.126 -0.172,0.316 -0.329,0.569c-0.156,0.253 -0.235,0.443 -0.234,0.569l0.021,5.112c0.128,0.252 0.286,0.503 0.477,0.755c0.127,0.189 0.238,0.378 0.333,0.567c0.096,0.189 0.175,0.346 0.239,0.472c0.127,0.252 0.318,0.582 0.572,0.991c0.254,0.41 0.445,0.645 0.571,0.708c0.064,0.126 0.222,0.33 0.476,0.613c0.253,0.283 0.523,0.582 0.808,0.896c0.286,0.315 0.555,0.613 0.809,0.896c0.253,0.283 0.412,0.487 0.475,0.613c0.064,0.189 0.27,0.441 0.619,0.755c0.348,0.314 0.713,0.66 1.093,1.037c0.38,0.377 0.744,0.738 1.093,1.084c0.348,0.345 0.586,0.613 0.713,0.801c0.127,0.126 0.349,0.314 0.665,0.566c0.317,0.251 0.665,0.549 1.045,0.894c0.38,0.346 0.76,0.66 1.14,0.942c0.38,0.283 0.664,0.455 0.854,0.517c0.127,0.126 0.443,0.393 0.95,0.801c0.507,0.408 0.823,0.707 0.95,0.895c0.19,0.126 0.443,0.282 0.76,0.47c0.316,0.188 0.648,0.376 0.996,0.564c0.348,0.188 0.664,0.36 0.949,0.517c0.284,0.156 0.458,0.266 0.522,0.329c0.126,0.126 0.601,0.376 1.423,0.751c0.822,0.376 1.359,0.626 1.612,0.751c0.126,0.062 0.269,0.125 0.427,0.187c0.158,0.063 0.3,0.125 0.426,0.188l0.569,0.187l1.988,-0.008l1.704,-0.008c0.063,0 0.141,-0.063 0.236,-0.19c0.094,-0.126 0.204,-0.253 0.329,-0.38l0.375,-0.853c0.126,-0.19 0.235,-0.538 0.327,-1.043c0.093,-0.505 0.139,-0.852 0.138,-1.042c0.063,-0.126 0.14,-0.363 0.234,-0.711c0.093,-0.347 0.17,-0.726 0.232,-1.137c0.061,-0.41 0.107,-0.789 0.137,-1.136c0.03,-0.347 0.045,-0.584 0.044,-0.71c-0.001,-0.253 0.077,-0.6 0.232,-1.042c0.156,-0.443 0.234,-0.727 0.234,-0.853c0.062,-0.127 0.14,-0.348 0.233,-0.664c0.094,-0.316 0.204,-0.474 0.33,-0.475c0.062,-0.126 0.235,-0.348 0.518,-0.664c0.282,-0.317 0.597,-0.634 0.942,-0.951c0.346,-0.317 0.645,-0.618 0.896,-0.903c0.251,-0.285 0.439,-0.491 0.565,-0.617c0.126,-0.064 0.284,-0.128 0.473,-0.192c0.378,-0.128 0.598,-0.192 0.661,-0.192c0.126,-0.063 0.268,-0.127 0.426,-0.191c0.157,-0.064 0.299,-0.159 0.424,-0.286c0.189,-0.127 0.378,-0.222 0.567,-0.286c0.127,0.126 0.349,0.314 0.665,0.565c0.317,0.251 0.475,0.44 0.476,0.566l0.015,3.597c0,0.126 -0.061,0.584 -0.184,1.373c-0.123,0.79 -0.183,1.405 -0.181,1.847c-0.126,0.127 -0.251,0.443 -0.375,0.948c-0.124,0.506 -0.249,0.822 -0.375,0.948c0.001,0.19 -0.139,0.6 -0.421,1.233c-0.281,0.632 -0.453,1.074 -0.515,1.327c0.001,0.189 -0.155,0.569 -0.468,1.138c-0.313,0.569 -0.533,0.886 -0.659,0.949c0.001,0.126 -0.109,0.395 -0.328,0.806c-0.219,0.411 -0.391,0.68 -0.517,0.807c-0.252,0.19 -0.566,0.555 -0.942,1.092c-0.376,0.538 -0.628,0.871 -0.753,0.998l-0.849,0.855c-0.125,0.127 -0.455,0.396 -0.99,0.809c-0.535,0.412 -0.928,0.714 -1.18,0.904c-0.126,0.064 -0.267,0.127 -0.425,0.191c-0.157,0.064 -0.299,0.159 -0.425,0.286l-0.566,0.381c-0.063,0.063 -0.22,0.143 -0.472,0.238c-0.252,0.096 -0.52,0.208 -0.803,0.335c-0.284,0.127 -0.552,0.239 -0.804,0.335c-0.252,0.095 -0.409,0.143 -0.472,0.144c-0.126,0.126 -0.346,0.238 -0.662,0.334c-0.315,0.096 -0.472,0.207 -0.471,0.333l-0.375,0.854c-0.126,0.126 -0.236,0.253 -0.33,0.38c-0.094,0.126 -0.173,0.19 -0.236,0.19c0,-0.063 -0.049,-0.284 -0.145,-0.662c-0.096,-0.378 -0.208,-0.63 -0.334,-0.756c-0.001,-0.189 -0.065,-0.284 -0.191,-0.283l-0.094,0c-0.064,0 -0.189,0.096 -0.378,0.286c0.002,0.441 -0.026,1.23 -0.085,2.367c-0.058,1.136 -0.1,2.366 -0.126,3.692c-0.026,1.325 -0.068,2.556 -0.127,3.692c-0.058,1.136 -0.086,1.925 -0.085,2.367c0.001,0.189 -0.06,0.742 -0.182,1.657c-0.122,0.916 -0.183,1.594 -0.181,2.036c-0.125,0.316 -0.249,0.79 -0.373,1.421c-0.123,0.632 -0.185,1.011 -0.184,1.137c0,0.063 -0.078,0.221 -0.235,0.474c-0.156,0.254 -0.235,0.412 -0.234,0.475l-0.084,-19.973c-0.189,0.001 -0.695,-0.139 -1.516,-0.42c-0.822,-0.28 -1.39,-0.483 -1.706,-0.608l-3.036,-1.502c-0.126,-0.062 -0.411,-0.235 -0.854,-0.517c-0.443,-0.282 -0.902,-0.58 -1.376,-0.893l-2.421,-1.599c-0.126,-0.063 -0.316,-0.204 -0.569,-0.424c-0.254,-0.22 -0.523,-0.439 -0.808,-0.659c-0.285,-0.22 -0.538,-0.424 -0.76,-0.612c-0.221,-0.189 -0.364,-0.314 -0.427,-0.377l-7.699,-7.635l-0.571,-0.755c-0.127,-0.189 -0.27,-0.394 -0.429,-0.614c-0.159,-0.22 -0.301,-0.393 -0.428,-0.519c-0.127,-0.188 -0.318,-0.487 -0.572,-0.896c-0.254,-0.41 -0.444,-0.677 -0.571,-0.803l-0.477,-0.85c-0.001,-0.126 -0.065,-0.41 -0.193,-0.851c-0.128,-0.441 -0.255,-0.724 -0.382,-0.85c-0.001,-0.126 -0.065,-0.505 -0.194,-1.135c-0.064,-0.252 -0.129,-0.536 -0.193,-0.851l-0.007,-1.799l-0.008,-1.704c-0.001,-0.252 0.061,-0.615 0.185,-1.089c0.124,-0.474 0.186,-0.837 0.185,-1.089c0.125,-0.253 0.313,-0.648 0.563,-1.186c0.25,-0.537 0.516,-1.075 0.798,-1.612c0.282,-0.538 0.532,-1.028 0.751,-1.471c0.219,-0.442 0.36,-0.727 0.422,-0.854c0.126,-0.063 0.409,-0.333 0.849,-0.808c0.44,-0.475 0.927,-0.982 1.461,-1.52c0.534,-0.539 1.052,-1.077 1.555,-1.616c0.503,-0.538 0.911,-0.935 1.226,-1.188c0.125,-0.127 0.393,-0.318 0.802,-0.572c0.409,-0.254 0.708,-0.444 0.897,-0.571c0.252,-0.064 0.756,-0.287 1.511,-0.669c0.756,-0.382 1.26,-0.637 1.512,-0.764c0.315,-0.127 0.85,-0.319 1.607,-0.575c0.756,-0.255 1.26,-0.447 1.512,-0.574c0.189,-0.001 0.536,-0.018 1.041,-0.051c0.504,-0.034 1.056,-0.084 1.656,-0.149c0.599,-0.066 1.167,-0.116 1.703,-0.149c0.536,-0.034 0.899,-0.052 1.088,-0.052c-0.064,-0.252 -0.097,-0.694 -0.1,-1.325c-0.003,-0.631 0.027,-1.041 0.09,-1.231c-0.001,-0.252 0.155,-0.616 0.468,-1.091c0.314,-0.474 0.533,-0.838 0.658,-1.091c0.126,-0.19 0.534,-0.602 1.226,-1.236c0.691,-0.634 1.131,-1.077 1.319,-1.33l1.89,-0.955l0.662,-0.003l0.474,-0.002l0.013,0.012Zm-36.933,0.365l0.02,4.733c0,0 -0.015,0.174 -0.045,0.521c-0.03,0.347 -0.076,0.726 -0.137,1.137c-0.062,0.41 -0.107,0.805 -0.137,1.183c-0.03,0.379 -0.045,0.6 -0.045,0.663l0.008,1.988c0.001,0.126 0.019,0.647 0.054,1.562c0.036,0.915 0.071,1.924 0.108,3.028c0.036,1.105 0.087,2.13 0.154,3.076c0.067,0.946 0.101,1.483 0.102,1.609c0.001,0.189 0.081,0.631 0.242,1.324c0.161,0.694 0.241,1.103 0.242,1.23c0.127,0.315 0.319,0.913 0.575,1.796c0.256,0.882 0.448,1.512 0.576,1.891c0.064,0.315 0.224,0.835 0.48,1.559c0.255,0.725 0.527,1.497 0.814,2.316c0.288,0.819 0.559,1.591 0.814,2.316c0.256,0.725 0.416,1.213 0.48,1.465c0.064,0.189 0.223,0.599 0.478,1.229c0.255,0.63 0.415,1.071 0.479,1.323c0.128,0.315 0.35,0.708 0.668,1.18c0.317,0.472 0.476,0.771 0.477,0.898c0.126,-0.001 0.442,0.14 0.948,0.422c0.506,0.282 0.822,0.422 0.948,0.422c0.127,0.125 0.27,0.235 0.428,0.329c0.158,0.094 0.237,0.173 0.237,0.236c-0.124,0.379 -0.185,1.073 -0.18,2.083c0.004,1.01 0.07,1.704 0.198,2.082c0,0 0.095,0.204 0.286,0.614c0.191,0.409 0.414,0.897 0.669,1.464c0.255,0.567 0.541,1.134 0.859,1.701c0.318,0.566 0.572,1.007 0.763,1.322c0.063,0.126 0.271,0.708 0.622,1.748c0.352,1.04 0.735,2.174 1.15,3.403c0.416,1.229 0.799,2.379 1.151,3.45c0.351,1.072 0.559,1.639 0.622,1.702c0.128,0.441 0.319,0.819 0.573,1.133c0.127,0.252 0.286,0.504 0.476,0.755l0.009,2.083c-0.126,0.127 -0.298,0.459 -0.516,0.996c-0.219,0.537 -0.391,0.932 -0.516,1.185l-2.545,2.567c-0.126,0 -0.316,0.064 -0.567,0.191c-0.252,0.128 -0.441,0.192 -0.568,0.192l-1.23,0.005l-1.325,0.006c-0.063,0 -0.38,-0.204 -0.949,-0.611c-0.57,-0.408 -0.95,-0.675 -1.14,-0.8c0,-0.127 -0.08,-0.379 -0.239,-0.757c-0.16,-0.378 -0.24,-0.63 -0.24,-0.756l-0.007,-1.704l-0.382,-0.755c-0.127,-0.189 -0.223,-0.394 -0.287,-0.614c-0.064,-0.221 -0.159,-0.394 -0.286,-0.52c-0.445,-0.692 -0.986,-1.889 -1.624,-3.59c-0.638,-1.701 -1.308,-3.434 -2.01,-5.198c-0.766,-2.079 -1.595,-4.285 -2.488,-6.616l-4.165,0.018c0.001,0.189 -0.061,0.536 -0.185,1.042c-0.124,0.505 -0.186,0.852 -0.185,1.042c-0.126,0 -0.237,0.08 -0.331,0.238c-0.094,0.158 -0.172,0.237 -0.235,0.237c0.001,0.253 -0.029,0.71 -0.089,1.373c-0.06,0.663 -0.105,1.373 -0.133,2.131c-0.029,0.757 -0.073,1.499 -0.133,2.225c-0.06,0.726 -0.09,1.215 -0.088,1.467c-0.126,0.253 -0.234,0.759 -0.325,1.516c-0.092,0.758 -0.2,1.263 -0.325,1.516c0,0.189 -0.093,0.537 -0.28,1.042c-0.187,0.506 -0.28,0.854 -0.28,1.043l-0.058,-14.009c-0.189,0 -0.458,-0.062 -0.806,-0.186c-0.347,-0.125 -0.695,-0.25 -1.042,-0.375c-0.348,-0.124 -0.68,-0.218 -0.995,-0.279c-0.316,-0.062 -0.506,-0.061 -0.568,0.002c-0.126,0.253 -0.282,0.506 -0.47,0.759c-0.314,0.569 -0.533,1.012 -0.658,1.328c-0.125,0.253 -0.296,0.711 -0.514,1.375c-0.219,0.663 -0.39,1.058 -0.516,1.185c0,0.063 -0.015,0.221 -0.045,0.474c-0.031,0.252 -0.077,0.521 -0.139,0.805c-0.062,0.284 -0.108,0.552 -0.139,0.805c-0.03,0.253 -0.045,0.41 -0.045,0.474c0,0.126 -0.078,0.3 -0.235,0.521c-0.156,0.222 -0.235,0.396 -0.234,0.522c-0.189,0.127 -0.44,0.333 -0.755,0.618c-0.314,0.285 -0.628,0.602 -0.942,0.951c-0.314,0.348 -0.629,0.665 -0.943,0.95c-0.314,0.286 -0.503,0.428 -0.566,0.429l-1.889,1.143l-0.378,0.002l-0.284,0.001c-0.126,0.001 -0.3,-0.078 -0.522,-0.234c-0.221,-0.157 -0.395,-0.298 -0.522,-0.424c-0.063,-0.063 -0.127,-0.157 -0.191,-0.283c-0.127,-0.252 -0.191,-0.441 -0.191,-0.567l-0.003,-0.568l-0.002,-0.474c0,-0.189 0.061,-0.568 0.185,-1.136c0.124,-0.569 0.186,-0.885 0.185,-0.948c0.125,-0.253 0.313,-0.711 0.562,-1.375c0.25,-0.663 0.5,-1.359 0.749,-2.085c0.249,-0.727 0.483,-1.406 0.701,-2.038c0.219,-0.632 0.391,-1.043 0.516,-1.233l-0.004,-0.947c-0.189,0.001 -0.6,-0.044 -1.231,-0.137c-0.632,-0.092 -1.074,-0.2 -1.327,-0.325c0,-0.127 -0.064,-0.316 -0.191,-0.567c-0.128,-0.252 -0.192,-0.441 -0.192,-0.568l0,-0.094l-0.002,-0.474c-0.001,-0.063 0.061,-0.347 0.185,-0.852c0.062,-0.253 0.125,-0.474 0.187,-0.664l3.582,-3.612c0.063,0 0.221,-0.032 0.473,-0.096c0.252,-0.064 0.52,-0.144 0.803,-0.24c0.284,-0.096 0.552,-0.192 0.804,-0.288c0.252,-0.095 0.409,-0.175 0.472,-0.238c0,-0.126 0.156,-0.506 0.469,-1.138c0.312,-0.632 0.531,-1.107 0.656,-1.423c0.062,-0.379 0.233,-1.01 0.513,-1.895c0.28,-0.885 0.592,-1.833 0.935,-2.844c0.343,-1.011 0.638,-1.943 0.887,-2.796c0.249,-0.853 0.436,-1.469 0.561,-1.848c0.062,-0.063 0.14,-0.253 0.234,-0.569c0.081,-0.276 0.163,-0.577 0.245,-0.902l0.104,-0.422c0.07,-0.278 0.14,-0.548 0.21,-0.808c0.093,-0.348 0.171,-0.585 0.234,-0.711c0.062,-0.253 0.155,-0.616 0.279,-1.09c0.124,-0.474 0.248,-0.932 0.373,-1.374c0.124,-0.442 0.233,-0.837 0.326,-1.185c0.093,-0.347 0.14,-0.552 0.14,-0.615c-0.001,-0.063 0.013,-0.647 0.04,-1.752c0.027,-1.104 0.053,-2.303 0.079,-3.597c0.026,-1.294 0.037,-2.493 0.033,-3.597c-0.005,-1.105 -0.008,-1.72 -0.008,-1.846c0.126,-0.127 0.266,-0.459 0.422,-0.996c0.155,-0.537 0.264,-0.869 0.327,-0.995c0,-0.063 0.156,-0.379 0.469,-0.949c0.313,-0.569 0.533,-0.948 0.658,-1.138c0,-0.126 0.14,-0.379 0.423,-0.759c0.282,-0.38 0.486,-0.602 0.612,-0.665c0,-0.127 0.047,-0.253 0.141,-0.38c0.094,-0.126 0.172,-0.253 0.235,-0.379c0.251,-0.191 0.645,-0.445 1.18,-0.763c0.535,-0.317 0.865,-0.54 0.991,-0.666c0.126,-0.064 0.315,-0.128 0.567,-0.192c0.378,-0.128 0.694,-0.192 0.946,-0.193l0.473,-0.002l0.568,-0.003l0.38,0.377Zm106.401,30.807l-0.757,0.003l0.03,7.289l-0.852,0.003l-0.974,-6.717c-0.379,0.002 -1.01,-0.059 -1.894,-0.181c-0.884,-0.123 -1.484,-0.246 -1.8,-0.371c-0.126,0 -0.379,-0.046 -0.758,-0.139c-0.379,-0.093 -0.6,-0.171 -0.664,-0.234c-0.253,-0.125 -0.648,-0.313 -1.185,-0.563c-0.538,-0.25 -0.87,-0.438 -0.996,-0.564l-0.666,-0.659c-0.19,-0.189 -0.364,-0.346 -0.522,-0.472c-0.159,-0.125 -0.27,-0.219 -0.333,-0.282c0,-0.126 -0.144,-0.394 -0.429,-0.803c-0.286,-0.409 -0.492,-0.676 -0.619,-0.802c-0.127,-0.189 -0.302,-0.551 -0.525,-1.086c-0.223,-0.536 -0.335,-0.867 -0.335,-0.993c-0.127,-0.126 -0.27,-0.441 -0.43,-0.945c-0.16,-0.504 -0.24,-0.819 -0.241,-0.945l-0.013,-3.219l-0.011,-2.555c-0.001,-0.253 0.155,-0.695 0.468,-1.328c0.313,-0.632 0.532,-1.043 0.657,-1.233c-0.189,0.001 -0.536,-0.029 -1.041,-0.09c-0.506,-0.061 -1.011,-0.106 -1.516,-0.136c-0.505,-0.029 -1.01,-0.075 -1.515,-0.136c-0.505,-0.061 -0.852,-0.091 -1.041,-0.09c-0.126,0.001 -0.316,-0.062 -0.569,-0.187c-0.253,-0.125 -0.443,-0.25 -0.57,-0.376c-0.126,0 -0.3,-0.141 -0.522,-0.424c-0.222,-0.283 -0.396,-0.424 -0.522,-0.424c-0.001,-0.063 -0.065,-0.283 -0.192,-0.661c-0.064,-0.189 -0.128,-0.347 -0.192,-0.473l-0.005,-1.23l-0.005,-1.326c-0.001,-0.063 0.061,-0.379 0.185,-0.947c0.124,-0.569 0.185,-0.947 0.185,-1.137c0.125,-0.253 0.296,-0.679 0.515,-1.28c0.218,-0.6 0.436,-1.232 0.655,-1.896l0.981,-2.986c0.062,-0.315 0.375,-0.932 0.939,-1.849c0.564,-0.918 0.94,-1.661 1.126,-2.23c0.126,-0.252 0.344,-0.758 0.657,-1.517c0.312,-0.758 0.656,-1.58 1.031,-2.465c0.375,-0.885 0.718,-1.723 1.03,-2.513c0.313,-0.79 0.531,-1.343 0.656,-1.659c0.313,-0.759 0.735,-1.502 1.269,-2.23c0.533,-0.728 1.082,-1.456 1.647,-2.184c0.565,-0.728 1.098,-1.503 1.6,-2.326c0.501,-0.822 0.876,-1.707 1.124,-2.655c0.063,-0.063 0.189,-0.253 0.377,-0.57c0.188,-0.316 0.391,-0.648 0.611,-0.996c0.219,-0.348 0.439,-0.696 0.658,-1.044c0.22,-0.348 0.392,-0.617 0.517,-0.807c0,-0.063 0.11,-0.3 0.329,-0.711c0.219,-0.411 0.391,-0.743 0.516,-0.996c0.189,-0.19 0.487,-0.523 0.895,-0.998c0.409,-0.475 0.676,-0.744 0.802,-0.808c0.125,-0.253 0.454,-0.649 0.988,-1.187c0.535,-0.539 0.865,-0.871 0.99,-0.998c0.063,0 0.284,-0.159 0.661,-0.476c0.377,-0.317 0.629,-0.539 0.754,-0.666c0.063,0 0.284,-0.064 0.662,-0.192c0.126,-0.064 0.284,-0.127 0.473,-0.191l1.798,-0.008l1.704,-0.007l1.141,1.131c0.126,0.063 0.301,0.283 0.523,0.661c0.222,0.377 0.397,0.629 0.524,0.755c0,0.126 0.112,0.504 0.336,1.134c0.223,0.63 0.399,1.103 0.526,1.418c0.127,0.189 0.35,0.677 0.669,1.464c0.319,0.788 0.479,1.276 0.479,1.465c0.001,0.127 0.049,0.363 0.145,0.71c0.097,0.347 0.209,0.709 0.336,1.087c0.128,0.378 0.24,0.741 0.336,1.087c0.096,0.347 0.145,0.615 0.145,0.804c0.001,0.126 0.081,0.457 0.241,0.993c0.16,0.536 0.241,0.93 0.242,1.182c0.065,0.379 0.193,0.899 0.385,1.561c0.192,0.661 0.384,1.339 0.576,2.032c0.193,0.694 0.353,1.324 0.482,1.892c0.128,0.567 0.224,0.914 0.288,1.04c0.001,0.315 0.145,0.709 0.431,1.181c0.286,0.472 0.43,0.929 0.432,1.371c0.128,0.441 0.272,1.056 0.433,1.844c0.161,0.788 0.242,1.245 0.243,1.371l0.014,3.408c0,0.126 -0.078,0.3 -0.235,0.522c-0.157,0.221 -0.298,0.395 -0.423,0.522c-0.126,0.19 -0.377,0.57 -0.753,1.139c-0.376,0.57 -0.596,0.886 -0.659,0.949c-0.125,0.127 -0.456,0.397 -0.99,0.809c-0.535,0.413 -0.865,0.682 -0.991,0.809c-0.126,0 -0.394,0.065 -0.804,0.193c-0.409,0.127 -0.709,0.192 -0.898,0.193l-0.189,0l-0.284,0.002c-0.063,0 -0.221,-0.063 -0.474,-0.188c-0.253,-0.125 -0.411,-0.187 -0.474,-0.187c-0.127,-0.126 -0.222,-0.283 -0.286,-0.472c-0.128,-0.378 -0.192,-0.599 -0.192,-0.662c-0.127,-0.126 -0.239,-0.378 -0.335,-0.756c-0.096,-0.378 -0.208,-0.599 -0.334,-0.661c-0.001,-0.253 -0.082,-0.647 -0.242,-1.182c-0.16,-0.536 -0.24,-0.867 -0.24,-0.993c-0.001,-0.19 -0.018,-0.521 -0.052,-0.994c-0.033,-0.473 -0.083,-0.994 -0.148,-1.561c-0.066,-0.568 -0.115,-1.104 -0.149,-1.609c-0.034,-0.504 -0.051,-0.82 -0.051,-0.946c-0.128,-0.378 -0.224,-0.725 -0.289,-1.04c-0.064,-0.315 -0.128,-0.615 -0.193,-0.899c-0.064,-0.283 -0.096,-0.488 -0.097,-0.615c-0.129,-0.63 -0.4,-1.386 -0.814,-2.268c-0.414,-0.882 -0.685,-1.48 -0.812,-1.795c-0.064,-0.252 -0.224,-0.835 -0.481,-1.749c-0.256,-0.914 -0.416,-1.529 -0.481,-1.844c-0.127,-0.315 -0.271,-0.725 -0.431,-1.229c-0.16,-0.504 -0.335,-1.008 -0.527,-1.512c-0.254,-0.567 -0.478,-1.166 -0.67,-1.796l-0.568,0.002c0.001,0.19 0.018,0.568 0.052,1.136c0.034,0.568 0.053,1.183 0.055,1.846c0.003,0.662 0.021,1.278 0.055,1.845c0.034,0.568 0.052,0.947 0.052,1.136c0.002,0.252 -0.075,0.742 -0.23,1.468c-0.155,0.727 -0.263,1.185 -0.326,1.374c0,-0.126 -0.08,-0.41 -0.24,-0.851c-0.159,-0.441 -0.24,-0.725 -0.24,-0.851c-0.064,-0.189 -0.128,-0.488 -0.193,-0.898c-0.065,-0.41 -0.114,-0.852 -0.148,-1.325c-0.033,-0.473 -0.082,-0.93 -0.147,-1.372c-0.065,-0.441 -0.13,-0.756 -0.194,-0.946l-0.843,1.992l0.039,9.371l-0.565,0.854l-0.76,-0.849l-0.032,-7.667c-0.126,0.127 -0.299,0.349 -0.518,0.665c-0.22,0.316 -0.455,0.649 -0.706,0.997c-0.251,0.348 -0.47,0.68 -0.658,0.997c-0.188,0.316 -0.314,0.569 -0.376,0.758c-0.062,0.127 -0.25,0.522 -0.563,1.186c-0.313,0.664 -0.656,1.438 -1.031,2.323c-0.375,0.885 -0.766,1.771 -1.173,2.656c-0.406,0.885 -0.703,1.58 -0.89,2.086c-0.062,0.253 -0.219,0.521 -0.47,0.807c-0.251,0.285 -0.408,0.553 -0.47,0.806c-0.125,0.379 -0.296,0.885 -0.514,1.517c-0.219,0.632 -0.437,1.264 -0.655,1.896c-0.218,0.632 -0.421,1.216 -0.608,1.753c-0.187,0.538 -0.312,0.838 -0.375,0.901c0.001,0.126 0.081,0.442 0.241,0.946c0.16,0.504 0.24,0.851 0.241,1.04c0.189,-0.001 0.584,0.013 1.183,0.042c0.6,0.03 1.231,0.043 1.894,0.04c0.662,-0.003 1.293,-0.006 1.893,-0.008c0.599,-0.003 1.057,-0.036 1.372,-0.1c0.063,-0.001 0.252,-0.017 0.568,-0.05c0.315,-0.033 0.678,-0.082 1.088,-0.147c0.409,-0.064 0.804,-0.113 1.182,-0.147c0.379,-0.033 0.631,-0.05 0.757,-0.05c0.252,-0.064 0.599,-0.145 1.04,-0.241c0.442,-0.097 0.883,-0.177 1.325,-0.242c0.441,-0.065 0.819,-0.13 1.135,-0.194c0.315,-0.065 0.504,-0.097 0.567,-0.097l4.449,-0.019l3.692,-0.015c0.19,0.125 0.68,0.312 1.469,0.562c0.79,0.249 1.343,0.436 1.659,0.561c0.127,0.125 0.46,0.455 0.998,0.989c0.539,0.534 0.872,0.928 0.999,1.179c0.064,0.189 0.239,0.536 0.525,1.039c0.286,0.504 0.43,0.851 0.43,1.04l0.024,5.585c0,0.063 -0.062,0.284 -0.187,0.663c-0.124,0.379 -0.186,0.632 -0.186,0.758c-0.063,0.127 -0.156,0.332 -0.281,0.617c-0.125,0.284 -0.282,0.585 -0.47,0.901c-0.188,0.316 -0.376,0.632 -0.564,0.949c-0.188,0.316 -0.313,0.569 -0.375,0.759c-0.063,0.189 -0.157,0.379 -0.282,0.569c-0.126,0.126 -0.235,0.269 -0.329,0.427c-0.094,0.158 -0.173,0.301 -0.235,0.427c-0.252,0.253 -0.566,0.618 -0.942,1.093c-0.377,0.474 -0.628,0.775 -0.754,0.902c0.001,0.126 -0.109,0.3 -0.329,0.522c-0.22,0.222 -0.393,0.396 -0.518,0.523c-0.126,0.126 -0.346,0.317 -0.661,0.57c-0.314,0.254 -0.644,0.524 -0.99,0.809c-0.346,0.286 -0.661,0.539 -0.944,0.761c-0.283,0.222 -0.456,0.365 -0.518,0.429c-0.126,0.126 -0.394,0.317 -0.803,0.571c-0.409,0.254 -0.676,0.444 -0.802,0.571c-0.126,0.001 -0.347,0.112 -0.661,0.334c-0.315,0.222 -0.677,0.445 -1.086,0.667c-0.409,0.223 -0.787,0.445 -1.133,0.668c-0.346,0.222 -0.551,0.365 -0.614,0.428c-0.063,0 -0.188,0.096 -0.377,0.286c-0.063,0.063 -0.094,0.126 -0.094,0.189l0.006,1.42c0.001,0.19 0.034,0.647 0.1,1.372c0.067,0.726 0.117,1.499 0.152,2.319c0.035,0.82 0.086,1.577 0.152,2.271c0.066,0.694 0.099,1.104 0.099,1.23l0.028,6.721c0.001,0.126 -0.03,0.363 -0.091,0.71c-0.062,0.348 -0.108,0.711 -0.138,1.089c-0.03,0.379 -0.076,0.742 -0.137,1.09c-0.062,0.347 -0.093,0.552 -0.092,0.615c-0.127,-0.189 -0.239,-0.598 -0.337,-1.229c-0.097,-0.631 -0.209,-1.072 -0.337,-1.324c-0.065,-0.504 -0.147,-1.403 -0.247,-2.696c-0.1,-1.294 -0.201,-2.682 -0.302,-4.164c-0.101,-1.483 -0.185,-2.871 -0.254,-4.164c-0.068,-1.294 -0.104,-2.193 -0.106,-2.697l-0.577,-2.175Zm-40.574,-2.186c0.085,0.462 0.17,0.9 0.254,1.314c0.097,0.473 0.146,0.804 0.146,0.993c0.127,0.126 0.255,0.488 0.384,1.087c0.128,0.599 0.193,0.962 0.193,1.088l0.004,0.947c0.001,0.126 -0.061,0.394 -0.186,0.805c-0.124,0.411 -0.249,0.68 -0.375,0.806c0,0.063 -0.109,0.285 -0.328,0.664c-0.22,0.38 -0.392,0.633 -0.518,0.76l-1.131,1.14c-0.063,0.064 -0.283,0.222 -0.661,0.476c-0.377,0.254 -0.629,0.413 -0.755,0.477c-0.126,0.127 -0.251,0.206 -0.377,0.238c-0.127,0.032 -0.253,0.08 -0.379,0.144c-0.189,0.064 -0.315,0.096 -0.378,0.096c-0.189,0.064 -0.346,0.128 -0.472,0.191c-0.063,0.064 -0.158,0.096 -0.284,0.096l-0.189,0.001c-0.253,0.001 -0.474,-0.03 -0.663,-0.092c-0.19,-0.062 -0.348,-0.125 -0.474,-0.187c-0.126,0 -0.221,-0.031 -0.285,-0.094c-0.126,-0.126 -0.19,-0.252 -0.19,-0.378c-0.001,-0.063 -0.065,-0.347 -0.193,-0.851c-0.129,-0.504 -0.257,-0.914 -0.384,-1.229c-0.065,-0.378 -0.178,-0.946 -0.339,-1.702c-0.16,-0.757 -0.306,-1.545 -0.435,-2.365c-0.13,-0.82 -0.275,-1.576 -0.436,-2.27c-0.16,-0.693 -0.273,-1.135 -0.337,-1.324c0,-0.063 -0.032,-0.236 -0.096,-0.52c-0.065,-0.284 -0.113,-0.615 -0.147,-0.993c-0.033,-0.379 -0.082,-0.757 -0.146,-1.136c-0.065,-0.378 -0.098,-0.693 -0.099,-0.946c-0.001,-0.189 -0.034,-0.504 -0.099,-0.946c-0.064,-0.441 -0.129,-0.883 -0.194,-1.324c-0.065,-0.442 -0.13,-0.836 -0.195,-1.183c-0.064,-0.347 -0.097,-0.552 -0.097,-0.615c-0.001,-0.378 -0.02,-0.946 -0.054,-1.703c-0.035,-0.757 -0.086,-1.562 -0.152,-2.413c-0.067,-0.852 -0.118,-1.609 -0.152,-2.272c-0.034,-0.662 -0.052,-1.088 -0.052,-1.277l-0.049,-11.549l-0.047,-11.453c-0.001,-0.126 0.061,-0.379 0.186,-0.758c0.124,-0.379 0.186,-0.6 0.186,-0.663c0.126,-0.127 0.251,-0.349 0.376,-0.665c0.062,-0.189 0.125,-0.347 0.187,-0.474c0.126,-0.126 0.315,-0.317 0.566,-0.57c0.251,-0.254 0.503,-0.523 0.754,-0.808c0.251,-0.285 0.487,-0.538 0.707,-0.76c0.22,-0.222 0.393,-0.365 0.518,-0.428c0.126,-0.127 0.457,-0.302 0.992,-0.525c0.536,-0.223 0.866,-0.398 0.992,-0.525l0.852,-0.003l0.852,-0.004c0.063,0.126 0.127,0.221 0.19,0.283l0.285,0.283c0.064,0.126 0.144,0.457 0.241,0.993c0.097,0.536 0.146,0.867 0.146,0.993l0.105,25.179c0.189,-0.127 0.536,-0.318 1.039,-0.572c0.504,-0.255 1.024,-0.509 1.559,-0.764c0.535,-0.254 1.039,-0.493 1.512,-0.716c0.472,-0.223 0.802,-0.398 0.991,-0.525c0.126,-0.127 0.393,-0.317 0.803,-0.571c0.409,-0.254 0.708,-0.445 0.896,-0.572c0.252,-0.19 0.598,-0.46 1.038,-0.809c0.441,-0.349 0.865,-0.698 1.274,-1.046c0.409,-0.349 0.786,-0.635 1.132,-0.857c0.346,-0.222 0.519,-0.333 0.519,-0.333c0.252,-0.254 0.707,-0.698 1.367,-1.331c0.66,-0.634 1.352,-1.315 2.074,-2.044c0.723,-0.729 1.399,-1.41 2.027,-2.044c0.628,-0.634 1.037,-1.109 1.225,-1.425c0.063,0 0.141,-0.142 0.234,-0.427c0.094,-0.284 0.204,-0.427 0.33,-0.427c0,-0.063 0.062,-0.332 0.186,-0.806c0.124,-0.473 0.186,-0.773 0.185,-0.9c0.063,-0.063 0.095,-0.126 0.094,-0.189c0,-0.126 0.031,-0.221 0.094,-0.285c0.062,-0.126 0.157,-0.253 0.282,-0.379c0.188,-0.317 0.486,-0.712 0.895,-1.187c0.408,-0.475 0.675,-0.776 0.8,-0.903c0.126,-0.127 0.503,-0.46 1.132,-0.999c0.629,-0.539 1.101,-0.935 1.415,-1.189l0.378,-0.191c0.252,-0.127 0.409,-0.191 0.472,-0.191c0.189,-0.127 0.488,-0.239 0.898,-0.335c0.41,-0.096 0.678,-0.145 0.804,-0.145l0.378,-0.097c0.064,0 0.127,0.016 0.19,0.047c0.063,0.031 0.126,0.047 0.189,0.046l0.095,0c0.442,-0.002 0.663,0.155 0.665,0.471l0.01,2.555c0.001,0.063 -0.062,0.221 -0.187,0.474c-0.125,0.253 -0.266,0.538 -0.422,0.854c-0.157,0.316 -0.329,0.633 -0.517,0.949c-0.188,0.316 -0.313,0.538 -0.376,0.664c-0.125,0.253 -0.454,0.775 -0.987,1.566c-0.533,0.791 -0.925,1.376 -1.176,1.756c-0.063,0.19 -0.376,0.601 -0.942,1.235c-0.565,0.633 -0.942,1.076 -1.13,1.33c-0.188,0.253 -0.565,0.696 -1.13,1.33c-0.566,0.633 -1.178,1.298 -1.838,1.995c-0.66,0.697 -1.272,1.362 -1.837,1.996c-0.566,0.633 -0.943,1.045 -1.131,1.235c0.127,0.126 0.38,0.314 0.759,0.565c0.38,0.25 0.633,0.439 0.76,0.564c0.127,0.126 0.317,0.299 0.57,0.519c0.254,0.219 0.523,0.471 0.808,0.754c0.285,0.282 0.539,0.549 0.761,0.801c0.222,0.251 0.364,0.409 0.428,0.471c0.126,0.063 0.412,0.551 0.858,1.464c0.445,0.913 0.795,1.59 1.049,2.031c0.064,0.189 0.319,0.693 0.764,1.511c0.445,0.819 0.906,1.669 1.383,2.55c0.477,0.882 0.922,1.732 1.336,2.55c0.414,0.819 0.684,1.323 0.811,1.512c0,0.126 0.112,0.394 0.335,0.803c0.222,0.409 0.492,0.881 0.81,1.416c0.318,0.535 0.651,1.07 1.001,1.605c0.349,0.535 0.619,0.96 0.81,1.275c0.126,0.126 0.317,0.377 0.571,0.755c0.254,0.377 0.444,0.629 0.571,0.755c0.127,0.252 0.381,0.613 0.762,1.085c0.38,0.472 0.603,0.834 0.667,1.086c0.253,0.314 0.65,0.818 1.189,1.509c0.54,0.692 0.872,1.038 0.999,1.038c0.19,0.251 0.602,0.691 1.236,1.32l3.992,3.959c0.633,0.628 1.108,1.036 1.425,1.224c0,0.119 0.07,0.292 0.21,0.521l0.058,0.093c0.139,0.228 0.209,0.402 0.21,0.52l0.002,0.568c-0.125,0.19 -0.297,0.538 -0.516,1.043c-0.219,0.506 -0.328,0.822 -0.327,0.948c-0.126,0.127 -0.33,0.349 -0.613,0.666c-0.283,0.316 -0.597,0.633 -0.943,0.95c-0.345,0.317 -0.675,0.618 -0.99,0.904c-0.314,0.285 -0.566,0.491 -0.754,0.618l-0.568,0.192c-0.378,0.127 -0.661,0.192 -0.851,0.193l-1.136,0.004c-0.189,-0.062 -0.347,-0.124 -0.474,-0.187c-0.063,0 -0.11,-0.015 -0.142,-0.047c-0.032,-0.031 -0.079,-0.047 -0.142,-0.047c-0.063,0.001 -0.126,-0.031 -0.19,-0.093c-0.127,-0.252 -0.46,-0.566 -0.998,-0.943c-0.538,-0.376 -0.87,-0.627 -0.997,-0.753c-0.252,-0.062 -0.696,-0.423 -1.329,-1.083c-0.634,-0.66 -1.046,-1.147 -1.237,-1.462c-0.127,-0.126 -0.349,-0.346 -0.665,-0.66c-0.317,-0.314 -0.634,-0.66 -0.951,-1.037c-0.317,-0.377 -0.634,-0.723 -0.951,-1.037c-0.317,-0.315 -0.507,-0.535 -0.571,-0.661c-0.064,-0.126 -0.238,-0.377 -0.524,-0.755c-0.285,-0.377 -0.587,-0.786 -0.904,-1.227c-0.318,-0.44 -0.635,-0.88 -0.952,-1.321c-0.318,-0.44 -0.54,-0.755 -0.667,-0.944c-0.127,-0.125 -0.317,-0.377 -0.571,-0.754c-0.254,-0.378 -0.444,-0.598 -0.571,-0.661c-0.19,-0.314 -0.54,-0.897 -1.048,-1.747c-0.509,-0.849 -1.017,-1.746 -1.526,-2.691c-0.509,-0.944 -1.017,-1.826 -1.526,-2.644c-0.508,-0.818 -0.857,-1.385 -1.048,-1.7l-0.854,-0.469l0.011,2.556l-0.568,0.002c-0.064,-0.252 -0.128,-0.504 -0.192,-0.757c-0.065,-0.252 -0.145,-0.488 -0.24,-0.709c-0.096,-0.22 -0.175,-0.425 -0.239,-0.614c-0.001,-0.126 -0.034,-0.41 -0.099,-0.851c-0.064,-0.442 -0.114,-0.899 -0.147,-1.372c-0.034,-0.473 -0.083,-0.931 -0.148,-1.372c-0.065,-0.442 -0.098,-0.726 -0.098,-0.852c-0.001,-0.126 -0.065,-0.378 -0.193,-0.756c-0.127,-0.378 -0.192,-0.694 -0.193,-0.946l-0.571,-0.85c-0.127,-0.125 -0.317,-0.345 -0.571,-0.66c-0.254,-0.314 -0.444,-0.471 -0.57,-0.471l0.005,1.136c0.064,0.252 0.145,0.899 0.244,1.94c0.099,1.041 0.183,2.16 0.251,3.359c0.068,1.199 0.12,2.334 0.156,3.407c0.036,1.073 0.055,1.735 0.056,1.988l0.059,14.198l-0.652,2.559l-0.475,-0.471c0,0 -0.032,-0.158 -0.097,-0.473c-0.064,-0.316 -0.113,-0.694 -0.146,-1.136c-0.034,-0.441 -0.067,-0.883 -0.101,-1.324c-0.033,-0.442 -0.05,-0.789 -0.051,-1.042c-0.065,-0.315 -0.131,-1.024 -0.198,-2.129c-0.068,-1.104 -0.137,-2.397 -0.206,-3.88c-0.069,-1.482 -0.155,-3.06 -0.256,-4.732c-0.102,-1.671 -0.187,-3.249 -0.257,-4.731c-0.069,-1.483 -0.122,-2.777 -0.158,-3.881c-0.036,-1.104 -0.055,-1.845 -0.057,-2.224c-0.063,-0.126 -0.127,-0.394 -0.192,-0.804c-0.065,-0.41 -0.114,-0.82 -0.147,-1.23c-0.034,-0.41 -0.083,-0.804 -0.147,-1.182c-0.065,-0.379 -0.129,-0.631 -0.193,-0.757c-0.126,0.001 -0.379,-0.046 -0.758,-0.139c-0.379,-0.093 -0.6,-0.139 -0.663,-0.139c-0.126,0.001 -0.441,0.065 -0.946,0.193c-0.252,0.064 -0.472,0.097 -0.662,0.098c-0.063,0 -0.488,0.112 -1.276,0.336c-0.788,0.225 -1.403,0.401 -1.844,0.529c-0.126,0.126 -0.456,0.301 -0.992,0.524c-0.535,0.224 -0.866,0.399 -0.991,0.525c0,0.19 0.033,0.458 0.098,0.804c0.064,0.347 0.113,0.71 0.146,1.088c0.033,0.379 0.082,0.742 0.147,1.088c0.064,0.347 0.097,0.584 0.097,0.71c0.128,0.315 0.241,0.851 0.338,1.608c0.098,0.757 0.21,1.198 0.337,1.324c0.001,0.189 0.05,0.536 0.147,1.04c0.072,0.378 0.145,0.766 0.217,1.162l0.109,0.598Zm-72.217,5.199c-0.125,0.316 -0.343,0.87 -0.656,1.66c-0.312,0.79 -0.468,1.28 -0.467,1.469c0.001,0.126 -0.014,0.315 -0.045,0.568c-0.03,0.253 -0.045,0.442 -0.045,0.568l0.568,-0.002c0.189,-0.127 0.63,-0.239 1.324,-0.337c0.694,-0.098 1.104,-0.21 1.229,-0.336l-0.001,-0.19l-0.001,-0.284c-0.001,-0.189 -0.145,-0.678 -0.432,-1.465c-0.287,-0.788 -0.431,-1.339 -0.433,-1.655c-0.126,0.001 -0.237,-0.141 -0.333,-0.424c-0.096,-0.284 -0.175,-0.426 -0.238,-0.425l-0.47,0.853Zm106.858,-18.323c0.001,0.126 0.002,0.331 0.003,0.615c0.001,0.284 0.034,0.584 0.098,0.899c0.065,0.315 0.129,0.662 0.194,1.04c0.001,0.253 0.113,0.615 0.336,1.088c0.223,0.472 0.461,0.834 0.714,1.085c0.001,0.063 0.27,0.378 0.809,0.943c0.539,0.566 0.935,0.943 1.188,1.131c0.063,0 0.221,0.078 0.474,0.235c0.253,0.157 0.411,0.235 0.474,0.235l2.84,-0.012l2.272,-0.01c0.063,0 0.236,-0.064 0.52,-0.191c0.283,-0.128 0.582,-0.271 0.897,-0.43c0.315,-0.159 0.63,-0.334 0.945,-0.524c0.314,-0.191 0.535,-0.35 0.66,-0.477c0.126,-0.063 0.315,-0.222 0.566,-0.475c0.252,-0.254 0.44,-0.412 0.566,-0.476c0.062,-0.253 0.234,-0.616 0.516,-1.091c0.282,-0.474 0.423,-0.838 0.422,-1.09l-0.005,-1.23l-0.006,-1.326c0,-0.126 -0.144,-0.457 -0.43,-0.992c-0.286,-0.535 -0.461,-0.866 -0.525,-0.992c-0.126,-0.062 -0.395,-0.235 -0.807,-0.517c-0.411,-0.282 -0.68,-0.423 -0.806,-0.422c-0.064,-0.126 -0.443,-0.235 -1.137,-0.327c-0.695,-0.092 -1.168,-0.137 -1.421,-0.136l-1.23,0.005l-1.325,0.006c-0.316,0.001 -0.758,0.019 -1.325,0.053c-0.568,0.033 -1.152,0.067 -1.751,0.101c-0.6,0.035 -1.136,0.084 -1.609,0.149c-0.473,0.065 -0.741,0.129 -0.804,0.193c-0.126,0 -0.315,0.064 -0.567,0.192c-0.189,0.063 -0.346,0.127 -0.472,0.191c0.001,0.252 -0.045,0.694 -0.137,1.326c-0.092,0.631 -0.137,1.041 -0.137,1.231Z"/>
        <path d="M459.467,45.128c0.146,0.083 0.278,0.124 0.397,0.123c0.126,0 0.3,0.109 0.522,0.329c0.221,0.22 0.333,0.393 0.333,0.52c0,0.063 0.032,0.126 0.096,0.188c0,0.064 0.016,0.127 0.048,0.19c0.031,0.063 0.047,0.126 0.048,0.189l-0.188,0.379c0.001,0.253 -0.045,0.584 -0.138,0.995c-0.093,0.41 -0.171,0.616 -0.234,0.616c0,0 -0.063,0.111 -0.188,0.332c-0.125,0.221 -0.282,0.443 -0.47,0.665c-0.189,0.221 -0.377,0.443 -0.566,0.665c-0.188,0.221 -0.314,0.364 -0.376,0.427c-0.063,0.063 -0.11,0.143 -0.141,0.237c-0.032,0.095 -0.078,0.206 -0.141,0.332c-0.062,0.19 -0.156,0.348 -0.282,0.475l0.064,15.334l0.568,-0.002c0.063,0 0.236,-0.033 0.52,-0.097c0.284,-0.064 0.568,-0.113 0.852,-0.146c0.283,-0.032 0.551,-0.081 0.804,-0.145c0.252,-0.064 0.378,-0.096 0.378,-0.096c0.441,-0.065 1.214,-0.21 2.317,-0.436c1.103,-0.225 2.302,-0.451 3.594,-0.677c1.293,-0.227 2.491,-0.437 3.595,-0.631c1.103,-0.194 1.876,-0.323 2.317,-0.388l0.85,-0.477l-0.066,-15.902c-0.001,-0.126 0.156,-0.427 0.469,-0.902c0.314,-0.474 0.565,-0.87 0.753,-1.186l2.545,-2.566c0.126,-0.001 0.409,-0.128 0.85,-0.382c0.441,-0.255 0.787,-0.414 1.039,-0.478l0.379,-0.002l0.284,-0.001c0.189,-0.001 0.473,0.061 0.853,0.186c0.189,0.062 0.347,0.125 0.474,0.187l0.076,18.364l0.581,3.121l0.066,15.713c0.066,0.631 0.133,1.688 0.202,3.17c0.061,1.298 0.11,2.656 0.147,4.074l0.03,1.223c0.037,1.418 0.086,2.776 0.147,4.073c0.069,1.483 0.136,2.508 0.202,3.076c0,0.063 0.032,0.284 0.097,0.662c0.065,0.378 0.114,0.804 0.147,1.277c0.034,0.474 0.083,0.915 0.148,1.325c0.065,0.41 0.097,0.646 0.098,0.71l0.01,2.555c0.001,0.119 -0.068,0.362 -0.205,0.73l-0.056,0.151c-0.138,0.369 -0.206,0.612 -0.205,0.73c-0.063,0.127 -0.125,0.474 -0.185,1.042c-0.061,0.569 -0.106,1.168 -0.135,1.8c-0.029,0.631 -0.074,1.215 -0.134,1.751c-0.061,0.537 -0.123,0.837 -0.186,0.9c0.001,0.253 -0.045,0.568 -0.138,0.947c-0.093,0.38 -0.202,0.632 -0.328,0.759c-0.063,0.063 -0.158,0.095 -0.284,0.096c-0.126,0.064 -0.315,0.096 -0.567,0.097l-0.022,-5.301c0,0.189 -0.014,0.552 -0.043,1.089c-0.03,0.536 -0.074,1.105 -0.135,1.704c-0.061,0.6 -0.121,1.168 -0.182,1.705c-0.061,0.537 -0.123,0.9 -0.185,1.089c0.001,0.19 -0.077,0.474 -0.233,0.853c-0.156,0.38 -0.298,0.569 -0.424,0.57c0.001,0.063 -0.031,0.126 -0.094,0.19l0.001,0.094l-0.095,0.001l-0.189,0.001c-0.063,0 -0.095,-0.095 -0.096,-0.284c-0.001,-0.126 -0.065,-0.536 -0.194,-1.23c-0.13,-0.693 -0.195,-1.135 -0.195,-1.324c-0.128,-0.252 -0.256,-0.756 -0.385,-1.513c-0.13,-0.757 -0.195,-1.261 -0.196,-1.514l-1.136,0.005c-0.126,0 -0.3,-0.062 -0.521,-0.187c-0.222,-0.126 -0.333,-0.251 -0.333,-0.378c-0.126,0.001 -0.238,-0.204 -0.334,-0.613c-0.096,-0.41 -0.176,-0.71 -0.24,-0.899c-0.128,-0.252 -0.24,-0.709 -0.337,-1.371c-0.098,-0.662 -0.147,-1.056 -0.147,-1.182c-0.064,-0.253 -0.13,-0.757 -0.196,-1.514c-0.066,-0.757 -0.117,-1.577 -0.152,-2.461c-0.035,-0.883 -0.086,-1.719 -0.153,-2.508c-0.066,-0.788 -0.131,-1.34 -0.196,-1.655c-0.002,-0.442 -0.038,-1.515 -0.108,-3.218c-0.061,-1.491 -0.111,-3.078 -0.149,-4.762l-0.031,-1.455c-0.039,-1.684 -0.088,-3.272 -0.15,-4.762c-0.07,-1.704 -0.106,-2.776 -0.108,-3.218c-0.001,-0.19 -0.018,-0.537 -0.052,-1.041c-0.033,-0.505 -0.083,-1.01 -0.148,-1.514c-0.065,-0.505 -0.114,-1.009 -0.148,-1.514c-0.034,-0.505 -0.051,-0.852 -0.052,-1.041l-1.325,0.005l-1.231,0.006c-0.315,0.001 -0.867,0.066 -1.655,0.196c-0.789,0.129 -1.277,0.194 -1.467,0.195c0.001,0.126 -0.078,0.253 -0.235,0.38c-0.157,0.127 -0.235,0.253 -0.235,0.379c-0.061,0.379 -0.122,1.042 -0.181,1.989c-0.059,0.947 -0.102,1.973 -0.129,3.077c-0.027,1.104 -0.07,2.146 -0.129,3.124c-0.059,0.979 -0.119,1.657 -0.181,2.036c0.001,0.126 -0.029,0.474 -0.09,1.042c-0.061,0.568 -0.105,1.215 -0.134,1.941c-0.028,0.726 -0.073,1.42 -0.133,2.083c-0.061,0.663 -0.09,1.152 -0.089,1.468c0.001,0.189 -0.013,0.536 -0.043,1.041c-0.029,0.505 -0.074,1.042 -0.135,1.61c-0.061,0.568 -0.106,1.089 -0.135,1.562c-0.03,0.474 -0.045,0.773 -0.044,0.9c-0.062,0.189 -0.124,0.458 -0.186,0.805c-0.054,0.304 -0.096,0.62 -0.125,0.948l-0.024,0.282c-0.03,0.328 -0.072,0.644 -0.126,0.948c-0.062,0.348 -0.092,0.584 -0.092,0.711c-0.001,-0.237 -0.072,-0.695 -0.213,-1.375l-0.059,-0.278c-0.141,-0.68 -0.213,-1.138 -0.214,-1.374l-0.005,-1.231l-0.005,-1.325c-0.002,-0.316 0.027,-1.026 0.086,-2.13c0.058,-1.105 0.1,-2.304 0.127,-3.598c0.026,-1.294 0.068,-2.477 0.127,-3.55c0.058,-1.073 0.087,-1.768 0.086,-2.083l-0.036,-8.614l-0.758,0.003c0.001,0.126 0.018,0.347 0.051,0.663c0.032,0.315 0.065,0.662 0.099,1.041c0.033,0.378 0.066,0.741 0.099,1.088c0.033,0.347 0.05,0.583 0.05,0.709c-0.125,0.253 -0.234,0.696 -0.326,1.327c-0.092,0.631 -0.2,1.042 -0.326,1.232l-0.189,0.001l-0.284,0.001c-0.064,-0.063 -0.175,-0.22 -0.333,-0.472c-0.159,-0.252 -0.239,-0.409 -0.239,-0.472c-0.001,-0.19 0.014,-0.505 0.043,-0.947c0.03,-0.442 0.044,-0.899 0.042,-1.373c-0.002,-0.473 0.012,-0.915 0.042,-1.325c0.03,-0.411 0.044,-0.71 0.043,-0.9c-0.126,0.001 -0.489,-0.029 -1.089,-0.09c-0.599,-0.06 -0.962,-0.09 -1.089,-0.09c-0.189,0.001 -0.536,0.081 -1.04,0.241c-0.504,0.16 -0.851,0.272 -1.04,0.336l0.013,3.029c0.064,0.189 0.145,0.646 0.242,1.371c0.098,0.726 0.212,1.561 0.342,2.507c0.13,0.946 0.245,1.877 0.343,2.791c0.099,0.915 0.18,1.625 0.246,2.129c0.001,0.253 0.05,0.71 0.147,1.372c0.098,0.662 0.211,1.372 0.34,2.129c0.13,0.756 0.243,1.497 0.341,2.223c0.098,0.725 0.147,1.214 0.148,1.466c0.001,0.126 0.049,0.458 0.146,0.994c0.097,0.536 0.21,1.103 0.339,1.702c0.128,0.599 0.257,1.182 0.386,1.75c0.128,0.567 0.224,0.945 0.288,1.134l0.009,2.083c-0.063,0.063 -0.125,0.158 -0.188,0.284c-0.063,0.127 -0.141,0.238 -0.235,0.333c-0.095,0.095 -0.173,0.174 -0.236,0.237c-0.125,0.253 -0.297,0.57 -0.517,0.949c-0.219,0.38 -0.391,0.633 -0.517,0.76c-0.063,0.126 -0.235,0.332 -0.518,0.617c-0.283,0.285 -0.581,0.586 -0.896,0.903c-0.314,0.317 -0.628,0.618 -0.942,0.903c-0.315,0.286 -0.503,0.491 -0.566,0.618l0.096,23.002l-0.469,0.948c-0.127,-0.189 -0.271,-0.598 -0.431,-1.229c-0.161,-0.63 -0.241,-1.071 -0.242,-1.324c-0.001,-0.189 -0.034,-0.536 -0.099,-1.041c-0.066,-0.504 -0.115,-1.025 -0.149,-1.561c-0.034,-0.536 -0.083,-1.041 -0.148,-1.514c-0.065,-0.473 -0.098,-0.804 -0.099,-0.993c-0.003,-0.631 -0.039,-1.72 -0.108,-3.266c-0.061,-1.352 -0.11,-2.765 -0.147,-4.239l-0.031,-1.27c-0.037,-1.474 -0.086,-2.887 -0.147,-4.239c-0.07,-1.546 -0.137,-2.634 -0.203,-3.265c-0.127,-0.126 -0.302,-0.456 -0.525,-0.992c-0.223,-0.535 -0.335,-0.929 -0.336,-1.182c-0.127,-0.125 -0.27,-0.424 -0.43,-0.897c-0.159,-0.473 -0.24,-0.835 -0.241,-1.088c0,-0.126 -0.049,-0.457 -0.146,-0.993c-0.097,-0.536 -0.21,-1.135 -0.339,-1.797c-0.129,-0.662 -0.242,-1.293 -0.339,-1.892c-0.097,-0.599 -0.178,-1.056 -0.242,-1.371c-0.002,-0.379 -0.068,-1.041 -0.198,-1.987c-0.13,-0.946 -0.196,-1.514 -0.196,-1.703c-0.13,-0.757 -0.293,-2.003 -0.489,-3.737c-0.197,-1.735 -0.409,-3.533 -0.638,-5.393c-0.229,-1.861 -0.441,-3.58 -0.637,-5.157c-0.196,-1.576 -0.358,-2.649 -0.487,-3.216c-0.001,-0.315 -0.019,-0.757 -0.052,-1.325c-0.034,-0.568 -0.084,-1.151 -0.15,-1.751c-0.065,-0.599 -0.115,-1.119 -0.148,-1.561c-0.034,-0.441 -0.051,-0.725 -0.051,-0.852l-0.025,-5.963l-0.024,-5.679c0,-0.127 0.061,-0.6 0.184,-1.421c0.122,-0.821 0.183,-1.452 0.181,-1.894c0.125,-0.316 0.25,-0.664 0.374,-1.043l0.186,-0.758c0.126,-0.253 0.392,-0.774 0.799,-1.565c0.406,-0.791 0.672,-1.375 0.797,-1.755c0.063,-0.063 0.219,-0.284 0.47,-0.664c0.251,-0.38 0.408,-0.633 0.47,-0.759l1.132,-1.141c0.126,-0.064 0.377,-0.222 0.755,-0.476c0.377,-0.254 0.598,-0.413 0.661,-0.476l1.133,-0.573c0.252,-0.127 0.536,-0.223 0.851,-0.288c0.118,0 0.25,-0.042 0.396,-0.126l0.058,-0.035c0.146,-0.084 0.278,-0.126 0.397,-0.126c0.118,-0.001 0.25,0.04 0.397,0.123l0.059,0.034Zm84.325,-12.922c0.07,0.061 0.224,0.135 0.461,0.223c0.253,0.094 0.411,0.203 0.474,0.329l0.475,0.377c0.064,0.126 0.143,0.268 0.239,0.425c0.095,0.157 0.175,0.331 0.239,0.52c0.064,0.252 0.128,0.472 0.192,0.662c0.127,0.188 0.301,0.487 0.524,0.897c0.223,0.409 0.397,0.676 0.524,0.802c0.19,0.252 0.65,0.723 1.378,1.414c0.729,0.691 1.505,1.445 2.329,2.262l3.992,3.959c0.063,0 0.269,0.141 0.617,0.424c0.349,0.282 0.729,0.596 1.14,0.941c0.412,0.346 0.808,0.675 1.188,0.989c0.379,0.314 0.633,0.503 0.759,0.565c0.127,0.126 0.365,0.362 0.713,0.707c0.349,0.346 0.697,0.707 1.046,1.084c0.348,0.378 0.681,0.739 0.998,1.085c0.317,0.346 0.539,0.581 0.666,0.707c0.063,0.126 0.175,0.315 0.333,0.567c0.159,0.251 0.239,0.44 0.239,0.566c-0.125,0.19 -0.219,0.38 -0.281,0.57c-0.063,0.126 -0.125,0.268 -0.188,0.426c-0.062,0.158 -0.093,0.301 -0.093,0.427c0.001,0.126 -0.03,0.236 -0.093,0.331c-0.063,0.095 -0.125,0.206 -0.188,0.332c-0.062,0.19 -0.124,0.348 -0.187,0.475c-0.126,0.126 -0.314,0.301 -0.566,0.523c-0.251,0.221 -0.518,0.475 -0.801,0.76c-0.283,0.285 -0.534,0.555 -0.754,0.808c-0.22,0.253 -0.361,0.412 -0.424,0.475c-0.126,0.064 -0.457,0.223 -0.992,0.477c-0.535,0.255 -0.898,0.414 -1.087,0.478l-0.757,0.003l-0.852,0.004c-0.126,-0.063 -0.348,-0.219 -0.664,-0.471c-0.317,-0.251 -0.665,-0.517 -1.045,-0.8c-0.38,-0.282 -0.744,-0.549 -1.092,-0.8c-0.348,-0.251 -0.585,-0.408 -0.712,-0.47c-0.38,-0.314 -0.949,-0.706 -1.709,-1.176c-0.759,-0.47 -1.202,-0.768 -1.329,-0.894c-0.189,-0.125 -0.695,-0.376 -1.517,-0.751c-0.822,-0.375 -1.391,-0.594 -1.707,-0.655c-0.253,-0.126 -0.758,-0.313 -1.517,-0.562c-0.758,-0.249 -1.264,-0.436 -1.517,-0.562l-0.852,0.004l0.022,5.111l-0.852,0.004l-0.023,-5.585l-0.852,0.004c-0.062,0.252 -0.218,0.695 -0.468,1.327c-0.25,0.632 -0.406,1.043 -0.468,1.232l-0.472,0.476c-0.126,-0.126 -0.238,-0.378 -0.334,-0.756c-0.096,-0.378 -0.208,-0.599 -0.334,-0.661c-0.001,-0.253 -0.082,-0.694 -0.242,-1.325c-0.161,-0.63 -0.241,-1.04 -0.242,-1.229c-0.19,-0.126 -0.679,-0.25 -1.469,-0.373c-0.789,-0.123 -1.279,-0.247 -1.469,-0.372l-5.679,0.024c-0.189,0.063 -0.41,0.159 -0.661,0.286l-0.945,0.477c-0.189,0.064 -0.551,0.224 -1.087,0.478c-0.535,0.255 -0.866,0.414 -0.992,0.478l-0.471,0.475c-0.062,0.126 -0.172,0.316 -0.329,0.569c-0.156,0.253 -0.235,0.443 -0.234,0.569l0.021,5.112c0.128,0.252 0.286,0.503 0.477,0.755c0.127,0.189 0.238,0.378 0.333,0.567c0.096,0.189 0.175,0.346 0.239,0.472c0.127,0.252 0.318,0.582 0.572,0.991c0.254,0.41 0.445,0.645 0.571,0.708c0.064,0.126 0.222,0.33 0.476,0.613c0.253,0.283 0.523,0.582 0.808,0.896c0.286,0.315 0.555,0.613 0.809,0.896c0.253,0.283 0.412,0.487 0.475,0.613c0.064,0.189 0.27,0.441 0.619,0.755c0.348,0.314 0.713,0.66 1.093,1.037c0.38,0.377 0.744,0.738 1.093,1.084c0.348,0.345 0.586,0.613 0.713,0.801c0.127,0.126 0.349,0.314 0.665,0.566c0.317,0.251 0.665,0.549 1.045,0.894c0.38,0.346 0.76,0.66 1.14,0.942c0.38,0.283 0.664,0.455 0.854,0.517c0.127,0.126 0.443,0.393 0.95,0.801c0.507,0.408 0.823,0.707 0.95,0.895c0.19,0.126 0.443,0.282 0.76,0.47c0.316,0.188 0.648,0.376 0.996,0.564c0.348,0.188 0.664,0.36 0.949,0.517c0.284,0.156 0.458,0.266 0.522,0.329c0.126,0.126 0.601,0.376 1.423,0.751c0.822,0.376 1.359,0.626 1.612,0.751c0.126,0.062 0.269,0.125 0.427,0.187c0.158,0.063 0.3,0.125 0.426,0.188l0.569,0.187l1.988,-0.008l1.704,-0.008c0.063,0 0.141,-0.063 0.236,-0.19c0.094,-0.126 0.204,-0.253 0.329,-0.38l0.375,-0.853c0.126,-0.19 0.235,-0.538 0.327,-1.043c0.093,-0.505 0.139,-0.852 0.138,-1.042c0.063,-0.126 0.14,-0.363 0.234,-0.711c0.093,-0.347 0.17,-0.726 0.232,-1.137c0.061,-0.41 0.107,-0.789 0.137,-1.136c0.03,-0.347 0.045,-0.584 0.044,-0.71c-0.001,-0.253 0.077,-0.6 0.232,-1.042c0.156,-0.443 0.234,-0.727 0.234,-0.853c0.062,-0.127 0.14,-0.348 0.233,-0.664c0.094,-0.316 0.204,-0.474 0.33,-0.475c0.062,-0.126 0.235,-0.348 0.518,-0.664c0.282,-0.317 0.597,-0.634 0.942,-0.951c0.346,-0.317 0.645,-0.618 0.896,-0.903c0.251,-0.285 0.439,-0.491 0.565,-0.617c0.126,-0.064 0.284,-0.128 0.473,-0.192c0.378,-0.128 0.598,-0.192 0.661,-0.192c0.126,-0.063 0.268,-0.127 0.426,-0.191c0.157,-0.064 0.299,-0.159 0.424,-0.286c0.189,-0.127 0.378,-0.222 0.567,-0.286c0.127,0.126 0.349,0.314 0.665,0.565c0.317,0.251 0.475,0.44 0.476,0.566l0.015,3.597c0,0.126 -0.061,0.584 -0.184,1.373c-0.123,0.79 -0.183,1.405 -0.181,1.847c-0.126,0.127 -0.251,0.443 -0.375,0.948c-0.124,0.506 -0.249,0.822 -0.375,0.948c0.001,0.19 -0.139,0.6 -0.421,1.233c-0.281,0.632 -0.453,1.074 -0.515,1.327c0.001,0.189 -0.155,0.569 -0.468,1.138c-0.313,0.569 -0.533,0.886 -0.659,0.949c0.001,0.126 -0.109,0.395 -0.328,0.806c-0.219,0.411 -0.391,0.68 -0.517,0.807c-0.252,0.19 -0.566,0.555 -0.942,1.092c-0.376,0.538 -0.628,0.871 -0.753,0.998l-0.849,0.855c-0.125,0.127 -0.455,0.396 -0.99,0.809c-0.535,0.412 -0.928,0.714 -1.18,0.904c-0.126,0.064 -0.267,0.127 -0.425,0.191c-0.157,0.064 -0.299,0.159 -0.425,0.286l-0.566,0.381c-0.063,0.063 -0.22,0.143 -0.472,0.238c-0.252,0.096 -0.52,0.208 -0.803,0.335c-0.284,0.127 -0.552,0.239 -0.804,0.335c-0.252,0.095 -0.409,0.143 -0.472,0.144c-0.126,0.126 -0.346,0.238 -0.662,0.334c-0.315,0.096 -0.472,0.207 -0.471,0.333l-0.375,0.854c-0.126,0.126 -0.236,0.253 -0.33,0.38c-0.094,0.126 -0.173,0.19 -0.236,0.19c0,-0.063 -0.049,-0.284 -0.145,-0.662c-0.096,-0.378 -0.208,-0.63 -0.334,-0.756c-0.001,-0.189 -0.065,-0.284 -0.191,-0.283l-0.094,0c-0.064,0 -0.189,0.096 -0.378,0.286c0.002,0.441 -0.026,1.23 -0.085,2.367c-0.058,1.136 -0.1,2.366 -0.126,3.692c-0.026,1.325 -0.068,2.556 -0.127,3.692c-0.058,1.136 -0.086,1.925 -0.085,2.367c0.001,0.189 -0.06,0.742 -0.182,1.657c-0.122,0.916 -0.183,1.594 -0.181,2.036c-0.125,0.316 -0.249,0.79 -0.373,1.421c-0.123,0.632 -0.185,1.011 -0.184,1.137c0,0.063 -0.078,0.221 -0.235,0.474c-0.156,0.254 -0.235,0.412 -0.234,0.475l-0.084,-19.973c-0.189,0.001 -0.695,-0.139 -1.516,-0.42c-0.822,-0.28 -1.39,-0.483 -1.706,-0.608l-3.036,-1.502c-0.126,-0.062 -0.411,-0.235 -0.854,-0.517c-0.443,-0.282 -0.902,-0.58 -1.376,-0.893l-2.421,-1.599c-0.126,-0.063 -0.316,-0.204 -0.569,-0.424c-0.254,-0.22 -0.523,-0.439 -0.808,-0.659c-0.285,-0.22 -0.538,-0.424 -0.76,-0.612c-0.221,-0.189 -0.364,-0.314 -0.427,-0.377l-7.699,-7.635l-0.571,-0.755c-0.127,-0.189 -0.27,-0.394 -0.429,-0.614c-0.159,-0.22 -0.301,-0.393 -0.428,-0.519c-0.127,-0.188 -0.318,-0.487 -0.572,-0.896c-0.254,-0.41 -0.444,-0.677 -0.571,-0.803l-0.477,-0.85c-0.001,-0.126 -0.065,-0.41 -0.193,-0.851c-0.128,-0.441 -0.255,-0.724 -0.382,-0.85c-0.001,-0.126 -0.065,-0.505 -0.194,-1.135c-0.064,-0.252 -0.129,-0.536 -0.193,-0.851l-0.007,-1.799l-0.008,-1.704c-0.001,-0.252 0.061,-0.615 0.185,-1.089c0.124,-0.474 0.186,-0.837 0.185,-1.089c0.125,-0.253 0.313,-0.648 0.563,-1.186c0.25,-0.537 0.516,-1.075 0.798,-1.612c0.282,-0.538 0.532,-1.028 0.751,-1.471c0.219,-0.442 0.36,-0.727 0.422,-0.854c0.126,-0.063 0.409,-0.333 0.849,-0.808c0.44,-0.475 0.927,-0.982 1.461,-1.52c0.534,-0.539 1.052,-1.077 1.555,-1.616c0.503,-0.538 0.911,-0.935 1.226,-1.188c0.125,-0.127 0.393,-0.318 0.802,-0.572c0.409,-0.254 0.708,-0.444 0.897,-0.571c0.252,-0.064 0.756,-0.287 1.511,-0.669c0.756,-0.382 1.26,-0.637 1.512,-0.764c0.315,-0.127 0.85,-0.319 1.607,-0.575c0.756,-0.255 1.26,-0.447 1.512,-0.574c0.189,-0.001 0.536,-0.018 1.041,-0.051c0.504,-0.034 1.056,-0.084 1.656,-0.149c0.599,-0.066 1.167,-0.116 1.703,-0.149c0.536,-0.034 0.899,-0.052 1.088,-0.052c-0.064,-0.252 -0.097,-0.694 -0.1,-1.325c-0.003,-0.631 0.027,-1.041 0.09,-1.231c-0.001,-0.252 0.155,-0.616 0.468,-1.091c0.314,-0.474 0.533,-0.838 0.658,-1.091c0.126,-0.19 0.534,-0.602 1.226,-1.236c0.691,-0.634 1.131,-1.077 1.319,-1.33l1.89,-0.955l0.662,-0.003l0.474,-0.002l0.013,0.012Zm-36.933,0.365l0.02,4.733c0,0 -0.015,0.174 -0.045,0.521c-0.03,0.347 -0.076,0.726 -0.137,1.137c-0.062,0.41 -0.107,0.805 -0.137,1.183c-0.03,0.379 -0.045,0.6 -0.045,0.663l0.008,1.988c0.001,0.126 0.019,0.647 0.054,1.562c0.036,0.915 0.071,1.924 0.108,3.028c0.036,1.105 0.087,2.13 0.154,3.076c0.067,0.946 0.101,1.483 0.102,1.609c0.001,0.189 0.081,0.631 0.242,1.324c0.161,0.694 0.241,1.103 0.242,1.23c0.127,0.315 0.319,0.913 0.575,1.796c0.256,0.882 0.448,1.512 0.576,1.891c0.064,0.315 0.224,0.835 0.48,1.559c0.255,0.725 0.527,1.497 0.814,2.316c0.288,0.819 0.559,1.591 0.814,2.316c0.256,0.725 0.416,1.213 0.48,1.465c0.064,0.189 0.223,0.599 0.478,1.229c0.255,0.63 0.415,1.071 0.479,1.323c0.128,0.315 0.35,0.708 0.668,1.18c0.317,0.472 0.476,0.771 0.477,0.898c0.126,-0.001 0.442,0.14 0.948,0.422c0.506,0.282 0.822,0.422 0.948,0.422c0.127,0.125 0.27,0.235 0.428,0.329c0.158,0.094 0.237,0.173 0.237,0.236c-0.124,0.379 -0.185,1.073 -0.18,2.083c0.004,1.01 0.07,1.704 0.198,2.082c0,0 0.095,0.204 0.286,0.614c0.191,0.409 0.414,0.897 0.669,1.464c0.255,0.567 0.541,1.134 0.859,1.701c0.318,0.566 0.572,1.007 0.763,1.322c0.063,0.126 0.271,0.708 0.622,1.748c0.352,1.04 0.735,2.174 1.15,3.403c0.416,1.229 0.799,2.379 1.151,3.45c0.351,1.072 0.559,1.639 0.622,1.702c0.128,0.441 0.319,0.819 0.573,1.133c0.127,0.252 0.286,0.504 0.476,0.755l0.009,2.083c-0.126,0.127 -0.298,0.459 -0.516,0.996c-0.219,0.537 -0.391,0.932 -0.516,1.185l-2.545,2.567c-0.126,0 -0.316,0.064 -0.567,0.191c-0.252,0.128 -0.441,0.192 -0.568,0.192l-1.23,0.005l-1.325,0.006c-0.063,0 -0.38,-0.204 -0.949,-0.611c-0.57,-0.408 -0.95,-0.675 -1.14,-0.8c0,-0.127 -0.08,-0.379 -0.239,-0.757c-0.16,-0.378 -0.24,-0.63 -0.24,-0.756l-0.007,-1.704l-0.382,-0.755c-0.127,-0.189 -0.223,-0.394 -0.287,-0.614c-0.064,-0.221 -0.159,-0.394 -0.286,-0.52c-0.445,-0.692 -0.986,-1.889 -1.624,-3.59c-0.638,-1.701 -1.308,-3.434 -2.01,-5.198c-0.766,-2.079 -1.595,-4.285 -2.488,-6.616l-4.165,0.018c0.001,0.189 -0.061,0.536 -0.185,1.042c-0.124,0.505 -0.186,0.852 -0.185,1.042c-0.126,0 -0.237,0.08 -0.331,0.238c-0.094,0.158 -0.172,0.237 -0.235,0.237c0.001,0.253 -0.029,0.71 -0.089,1.373c-0.06,0.663 -0.105,1.373 -0.133,2.131c-0.029,0.757 -0.073,1.499 -0.133,2.225c-0.06,0.726 -0.09,1.215 -0.088,1.467c-0.126,0.253 -0.234,0.759 -0.325,1.516c-0.092,0.758 -0.2,1.263 -0.325,1.516c0,0.189 -0.093,0.537 -0.28,1.042c-0.187,0.506 -0.28,0.854 -0.28,1.043l-0.058,-14.009c-0.189,0 -0.458,-0.062 -0.806,-0.186c-0.347,-0.125 -0.695,-0.25 -1.042,-0.375c-0.348,-0.124 -0.68,-0.218 -0.995,-0.279c-0.316,-0.062 -0.506,-0.061 -0.568,0.002c-0.126,0.253 -0.282,0.506 -0.47,0.759c-0.314,0.569 -0.533,1.012 -0.658,1.328c-0.125,0.253 -0.296,0.711 -0.514,1.375c-0.219,0.663 -0.39,1.058 -0.516,1.185c0,0.063 -0.015,0.221 -0.045,0.474c-0.031,0.252 -0.077,0.521 -0.139,0.805c-0.062,0.284 -0.108,0.552 -0.139,0.805c-0.03,0.253 -0.045,0.41 -0.045,0.474c0,0.126 -0.078,0.3 -0.235,0.521c-0.156,0.222 -0.235,0.396 -0.234,0.522c-0.189,0.127 -0.44,0.333 -0.755,0.618c-0.314,0.285 -0.628,0.602 -0.942,0.951c-0.314,0.348 -0.629,0.665 -0.943,0.95c-0.314,0.286 -0.503,0.428 -0.566,0.429l-1.889,1.143l-0.378,0.002l-0.284,0.001c-0.126,0.001 -0.3,-0.078 -0.522,-0.234c-0.221,-0.157 -0.395,-0.298 -0.522,-0.424c-0.063,-0.063 -0.127,-0.157 -0.191,-0.283c-0.127,-0.252 -0.191,-0.441 -0.191,-0.567l-0.003,-0.568l-0.002,-0.474c0,-0.189 0.061,-0.568 0.185,-1.136c0.124,-0.569 0.186,-0.885 0.185,-0.948c0.125,-0.253 0.313,-0.711 0.562,-1.375c0.25,-0.663 0.5,-1.359 0.749,-2.085c0.249,-0.727 0.483,-1.406 0.701,-2.038c0.219,-0.632 0.391,-1.043 0.516,-1.233l-0.004,-0.947c-0.189,0.001 -0.6,-0.044 -1.231,-0.137c-0.632,-0.092 -1.074,-0.2 -1.327,-0.325c0,-0.127 -0.064,-0.316 -0.191,-0.567c-0.128,-0.252 -0.192,-0.441 -0.192,-0.568l0,-0.094l-0.002,-0.474c-0.001,-0.063 0.061,-0.347 0.185,-0.852c0.062,-0.253 0.125,-0.474 0.187,-0.664l3.582,-3.612c0.063,0 0.221,-0.032 0.473,-0.096c0.252,-0.064 0.52,-0.144 0.803,-0.24c0.284,-0.096 0.552,-0.192 0.804,-0.288c0.252,-0.095 0.409,-0.175 0.472,-0.238c0,-0.126 0.156,-0.506 0.469,-1.138c0.312,-0.632 0.531,-1.107 0.656,-1.423c0.062,-0.379 0.233,-1.01 0.513,-1.895c0.28,-0.885 0.592,-1.833 0.935,-2.844c0.343,-1.011 0.638,-1.943 0.887,-2.796c0.249,-0.853 0.436,-1.469 0.561,-1.848c0.062,-0.063 0.14,-0.253 0.234,-0.569c0.081,-0.276 0.163,-0.577 0.245,-0.902l0.104,-0.422c0.07,-0.278 0.14,-0.548 0.21,-0.808c0.093,-0.348 0.171,-0.585 0.234,-0.711c0.062,-0.253 0.155,-0.616 0.279,-1.09c0.124,-0.474 0.248,-0.932 0.373,-1.374c0.124,-0.442 0.233,-0.837 0.326,-1.185c0.093,-0.347 0.14,-0.552 0.14,-0.615c-0.001,-0.063 0.013,-0.647 0.04,-1.752c0.027,-1.104 0.053,-2.303 0.079,-3.597c0.026,-1.294 0.037,-2.493 0.033,-3.597c-0.005,-1.105 -0.008,-1.72 -0.008,-1.846c0.126,-0.127 0.266,-0.459 0.422,-0.996c0.155,-0.537 0.264,-0.869 0.327,-0.995c0,-0.063 0.156,-0.379 0.469,-0.949c0.313,-0.569 0.533,-0.948 0.658,-1.138c0,-0.126 0.14,-0.379 0.423,-0.759c0.282,-0.38 0.486,-0.602 0.612,-0.665c0,-0.127 0.047,-0.253 0.141,-0.38c0.094,-0.126 0.172,-0.253 0.235,-0.379c0.251,-0.191 0.645,-0.445 1.18,-0.763c0.535,-0.317 0.865,-0.54 0.991,-0.666c0.126,-0.064 0.315,-0.128 0.567,-0.192c0.378,-0.128 0.694,-0.192 0.946,-0.193l0.473,-0.002l0.568,-0.003l0.38,0.377Zm106.401,30.807l-0.757,0.003l0.03,7.289l-0.852,0.003l-0.974,-6.717c-0.379,0.002 -1.01,-0.059 -1.894,-0.181c-0.884,-0.123 -1.484,-0.246 -1.8,-0.371c-0.126,0 -0.379,-0.046 -0.758,-0.139c-0.379,-0.093 -0.6,-0.171 -0.664,-0.234c-0.253,-0.125 -0.648,-0.313 -1.185,-0.563c-0.538,-0.25 -0.87,-0.438 -0.996,-0.564l-0.666,-0.659c-0.19,-0.189 -0.364,-0.346 -0.522,-0.472c-0.159,-0.125 -0.27,-0.219 -0.333,-0.282c0,-0.126 -0.144,-0.394 -0.429,-0.803c-0.286,-0.409 -0.492,-0.676 -0.619,-0.802c-0.127,-0.189 -0.302,-0.551 -0.525,-1.086c-0.223,-0.536 -0.335,-0.867 -0.335,-0.993c-0.127,-0.126 -0.27,-0.441 -0.43,-0.945c-0.16,-0.504 -0.24,-0.819 -0.241,-0.945l-0.013,-3.219l-0.011,-2.555c-0.001,-0.253 0.155,-0.695 0.468,-1.328c0.313,-0.632 0.532,-1.043 0.657,-1.233c-0.189,0.001 -0.536,-0.029 -1.041,-0.09c-0.506,-0.061 -1.011,-0.106 -1.516,-0.136c-0.505,-0.029 -1.01,-0.075 -1.515,-0.136c-0.505,-0.061 -0.852,-0.091 -1.041,-0.09c-0.126,0.001 -0.316,-0.062 -0.569,-0.187c-0.253,-0.125 -0.443,-0.25 -0.57,-0.376c-0.126,0 -0.3,-0.141 -0.522,-0.424c-0.222,-0.283 -0.396,-0.424 -0.522,-0.424c-0.001,-0.063 -0.065,-0.283 -0.192,-0.661c-0.064,-0.189 -0.128,-0.347 -0.192,-0.473l-0.005,-1.23l-0.005,-1.326c-0.001,-0.063 0.061,-0.379 0.185,-0.947c0.124,-0.569 0.185,-0.947 0.185,-1.137c0.125,-0.253 0.296,-0.679 0.515,-1.28c0.218,-0.6 0.436,-1.232 0.655,-1.896l0.981,-2.986c0.062,-0.315 0.375,-0.932 0.939,-1.849c0.564,-0.918 0.94,-1.661 1.126,-2.23c0.126,-0.252 0.344,-0.758 0.657,-1.517c0.312,-0.758 0.656,-1.58 1.031,-2.465c0.375,-0.885 0.718,-1.723 1.03,-2.513c0.313,-0.79 0.531,-1.343 0.656,-1.659c0.313,-0.759 0.735,-1.502 1.269,-2.23c0.533,-0.728 1.082,-1.456 1.647,-2.184c0.565,-0.728 1.098,-1.503 1.6,-2.326c0.501,-0.822 0.876,-1.707 1.124,-2.655c0.063,-0.063 0.189,-0.253 0.377,-0.57c0.188,-0.316 0.391,-0.648 0.611,-0.996c0.219,-0.348 0.439,-0.696 0.658,-1.044c0.22,-0.348 0.392,-0.617 0.517,-0.807c0,-0.063 0.11,-0.3 0.329,-0.711c0.219,-0.411 0.391,-0.743 0.516,-0.996c0.189,-0.19 0.487,-0.523 0.895,-0.998c0.409,-0.475 0.676,-0.744 0.802,-0.808c0.125,-0.253 0.454,-0.649 0.988,-1.187c0.535,-0.539 0.865,-0.871 0.99,-0.998c0.063,0 0.284,-0.159 0.661,-0.476c0.377,-0.317 0.629,-0.539 0.754,-0.666c0.063,0 0.284,-0.064 0.662,-0.192c0.126,-0.064 0.284,-0.127 0.473,-0.191l1.798,-0.008l1.704,-0.007l1.141,1.131c0.126,0.063 0.301,0.283 0.523,0.661c0.222,0.377 0.397,0.629 0.524,0.755c0,0.126 0.112,0.504 0.336,1.134c0.223,0.63 0.399,1.103 0.526,1.418c0.127,0.189 0.35,0.677 0.669,1.464c0.319,0.788 0.479,1.276 0.479,1.465c0.001,0.127 0.049,0.363 0.145,0.71c0.097,0.347 0.209,0.709 0.336,1.087c0.128,0.378 0.24,0.741 0.336,1.087c0.096,0.347 0.145,0.615 0.145,0.804c0.001,0.126 0.081,0.457 0.241,0.993c0.16,0.536 0.241,0.93 0.242,1.182c0.065,0.379 0.193,0.899 0.385,1.561c0.192,0.661 0.384,1.339 0.576,2.032c0.193,0.694 0.353,1.324 0.482,1.892c0.128,0.567 0.224,0.914 0.288,1.04c0.001,0.315 0.145,0.709 0.431,1.181c0.286,0.472 0.43,0.929 0.432,1.371c0.128,0.441 0.272,1.056 0.433,1.844c0.161,0.788 0.242,1.245 0.243,1.371l0.014,3.408c0,0.126 -0.078,0.3 -0.235,0.522c-0.157,0.221 -0.298,0.395 -0.423,0.522c-0.126,0.19 -0.377,0.57 -0.753,1.139c-0.376,0.57 -0.596,0.886 -0.659,0.949c-0.125,0.127 -0.456,0.397 -0.99,0.809c-0.535,0.413 -0.865,0.682 -0.991,0.809c-0.126,0 -0.394,0.065 -0.804,0.193c-0.409,0.127 -0.709,0.192 -0.898,0.193l-0.189,0l-0.284,0.002c-0.063,0 -0.221,-0.063 -0.474,-0.188c-0.253,-0.125 -0.411,-0.187 -0.474,-0.187c-0.127,-0.126 -0.222,-0.283 -0.286,-0.472c-0.128,-0.378 -0.192,-0.599 -0.192,-0.662c-0.127,-0.126 -0.239,-0.378 -0.335,-0.756c-0.096,-0.378 -0.208,-0.599 -0.334,-0.661c-0.001,-0.253 -0.082,-0.647 -0.242,-1.182c-0.16,-0.536 -0.24,-0.867 -0.24,-0.993c-0.001,-0.19 -0.018,-0.521 -0.052,-0.994c-0.033,-0.473 -0.083,-0.994 -0.148,-1.561c-0.066,-0.568 -0.115,-1.104 -0.149,-1.609c-0.034,-0.504 -0.051,-0.82 -0.051,-0.946c-0.128,-0.378 -0.224,-0.725 -0.289,-1.04c-0.064,-0.315 -0.128,-0.615 -0.193,-0.899c-0.064,-0.283 -0.096,-0.488 -0.097,-0.615c-0.129,-0.63 -0.4,-1.386 -0.814,-2.268c-0.414,-0.882 -0.685,-1.48 -0.812,-1.795c-0.064,-0.252 -0.224,-0.835 -0.481,-1.749c-0.256,-0.914 -0.416,-1.529 -0.481,-1.844c-0.127,-0.315 -0.271,-0.725 -0.431,-1.229c-0.16,-0.504 -0.335,-1.008 -0.527,-1.512c-0.254,-0.567 -0.478,-1.166 -0.67,-1.796l-0.568,0.002c0.001,0.19 0.018,0.568 0.052,1.136c0.034,0.568 0.053,1.183 0.055,1.846c0.003,0.662 0.021,1.278 0.055,1.845c0.034,0.568 0.052,0.947 0.052,1.136c0.002,0.252 -0.075,0.742 -0.23,1.468c-0.155,0.727 -0.263,1.185 -0.326,1.374c0,-0.126 -0.08,-0.41 -0.24,-0.851c-0.159,-0.441 -0.24,-0.725 -0.24,-0.851c-0.064,-0.189 -0.128,-0.488 -0.193,-0.898c-0.065,-0.41 -0.114,-0.852 -0.148,-1.325c-0.033,-0.473 -0.082,-0.93 -0.147,-1.372c-0.065,-0.441 -0.13,-0.756 -0.194,-0.946l-0.843,1.992l0.039,9.371l-0.565,0.854l-0.76,-0.849l-0.032,-7.667c-0.126,0.127 -0.299,0.349 -0.518,0.665c-0.22,0.316 -0.455,0.649 -0.706,0.997c-0.251,0.348 -0.47,0.68 -0.658,0.997c-0.188,0.316 -0.314,0.569 -0.376,0.758c-0.062,0.127 -0.25,0.522 -0.563,1.186c-0.313,0.664 -0.656,1.438 -1.031,2.323c-0.375,0.885 -0.766,1.771 -1.173,2.656c-0.406,0.885 -0.703,1.58 -0.89,2.086c-0.062,0.253 -0.219,0.521 -0.47,0.807c-0.251,0.285 -0.408,0.553 -0.47,0.806c-0.125,0.379 -0.296,0.885 -0.514,1.517c-0.219,0.632 -0.437,1.264 -0.655,1.896c-0.218,0.632 -0.421,1.216 -0.608,1.753c-0.187,0.538 -0.312,0.838 -0.375,0.901c0.001,0.126 0.081,0.442 0.241,0.946c0.16,0.504 0.24,0.851 0.241,1.04c0.189,-0.001 0.584,0.013 1.183,0.042c0.6,0.03 1.231,0.043 1.894,0.04c0.662,-0.003 1.293,-0.006 1.893,-0.008c0.599,-0.003 1.057,-0.036 1.372,-0.1c0.063,-0.001 0.252,-0.017 0.568,-0.05c0.315,-0.033 0.678,-0.082 1.088,-0.147c0.409,-0.064 0.804,-0.113 1.182,-0.147c0.379,-0.033 0.631,-0.05 0.757,-0.05c0.252,-0.064 0.599,-0.145 1.04,-0.241c0.442,-0.097 0.883,-0.177 1.325,-0.242c0.441,-0.065 0.819,-0.13 1.135,-0.194c0.315,-0.065 0.504,-0.097 0.567,-0.097l4.449,-0.019l3.692,-0.015c0.19,0.125 0.68,0.312 1.469,0.562c0.79,0.249 1.343,0.436 1.659,0.561c0.127,0.125 0.46,0.455 0.998,0.989c0.539,0.534 0.872,0.928 0.999,1.179c0.064,0.189 0.239,0.536 0.525,1.039c0.286,0.504 0.43,0.851 0.43,1.04l0.024,5.585c0,0.063 -0.062,0.284 -0.187,0.663c-0.124,0.379 -0.186,0.632 -0.186,0.758c-0.063,0.127 -0.156,0.332 -0.281,0.617c-0.125,0.284 -0.282,0.585 -0.47,0.901c-0.188,0.316 -0.376,0.632 -0.564,0.949c-0.188,0.316 -0.313,0.569 -0.375,0.759c-0.063,0.189 -0.157,0.379 -0.282,0.569c-0.126,0.126 -0.235,0.269 -0.329,0.427c-0.094,0.158 -0.173,0.301 -0.235,0.427c-0.252,0.253 -0.566,0.618 -0.942,1.093c-0.377,0.474 -0.628,0.775 -0.754,0.902c0.001,0.126 -0.109,0.3 -0.329,0.522c-0.22,0.222 -0.393,0.396 -0.518,0.523c-0.126,0.126 -0.346,0.317 -0.661,0.57c-0.314,0.254 -0.644,0.524 -0.99,0.809c-0.346,0.286 -0.661,0.539 -0.944,0.761c-0.283,0.222 -0.456,0.365 -0.518,0.429c-0.126,0.126 -0.394,0.317 -0.803,0.571c-0.409,0.254 -0.676,0.444 -0.802,0.571c-0.126,0.001 -0.347,0.112 -0.661,0.334c-0.315,0.222 -0.677,0.445 -1.086,0.667c-0.409,0.223 -0.787,0.445 -1.133,0.668c-0.346,0.222 -0.551,0.365 -0.614,0.428c-0.063,0 -0.188,0.096 -0.377,0.286c-0.063,0.063 -0.094,0.126 -0.094,0.189l0.006,1.42c0.001,0.19 0.034,0.647 0.1,1.372c0.067,0.726 0.117,1.499 0.152,2.319c0.035,0.82 0.086,1.577 0.152,2.271c0.066,0.694 0.099,1.104 0.099,1.23l0.028,6.721c0.001,0.126 -0.03,0.363 -0.091,0.71c-0.062,0.348 -0.108,0.711 -0.138,1.089c-0.03,0.379 -0.076,0.742 -0.137,1.09c-0.062,0.347 -0.093,0.552 -0.092,0.615c-0.127,-0.189 -0.239,-0.598 -0.337,-1.229c-0.097,-0.631 -0.209,-1.072 -0.337,-1.324c-0.065,-0.504 -0.147,-1.403 -0.247,-2.696c-0.1,-1.294 -0.201,-2.682 -0.302,-4.164c-0.101,-1.483 -0.185,-2.871 -0.254,-4.164c-0.068,-1.294 -0.104,-2.193 -0.106,-2.697l-0.577,-2.175Zm-40.574,-2.186c0.085,0.462 0.17,0.9 0.254,1.314c0.097,0.473 0.146,0.804 0.146,0.993c0.127,0.126 0.255,0.488 0.384,1.087c0.128,0.599 0.193,0.962 0.193,1.088l0.004,0.947c0.001,0.126 -0.061,0.394 -0.186,0.805c-0.124,0.411 -0.249,0.68 -0.375,0.806c0,0.063 -0.109,0.285 -0.328,0.664c-0.22,0.38 -0.392,0.633 -0.518,0.76l-1.131,1.14c-0.063,0.064 -0.283,0.222 -0.661,0.476c-0.377,0.254 -0.629,0.413 -0.755,0.477c-0.126,0.127 -0.251,0.206 -0.377,0.238c-0.127,0.032 -0.253,0.08 -0.379,0.144c-0.189,0.064 -0.315,0.096 -0.378,0.096c-0.189,0.064 -0.346,0.128 -0.472,0.191c-0.063,0.064 -0.158,0.096 -0.284,0.096l-0.189,0.001c-0.253,0.001 -0.474,-0.03 -0.663,-0.092c-0.19,-0.062 -0.348,-0.125 -0.474,-0.187c-0.126,0 -0.221,-0.031 -0.285,-0.094c-0.126,-0.126 -0.19,-0.252 -0.19,-0.378c-0.001,-0.063 -0.065,-0.347 -0.193,-0.851c-0.129,-0.504 -0.257,-0.914 -0.384,-1.229c-0.065,-0.378 -0.178,-0.946 -0.339,-1.702c-0.16,-0.757 -0.306,-1.545 -0.435,-2.365c-0.13,-0.82 -0.275,-1.576 -0.436,-2.27c-0.16,-0.693 -0.273,-1.135 -0.337,-1.324c0,-0.063 -0.032,-0.236 -0.096,-0.52c-0.065,-0.284 -0.113,-0.615 -0.147,-0.993c-0.033,-0.379 -0.082,-0.757 -0.146,-1.136c-0.065,-0.378 -0.098,-0.693 -0.099,-0.946c-0.001,-0.189 -0.034,-0.504 -0.099,-0.946c-0.064,-0.441 -0.129,-0.883 -0.194,-1.324c-0.065,-0.442 -0.13,-0.836 -0.195,-1.183c-0.064,-0.347 -0.097,-0.552 -0.097,-0.615c-0.001,-0.378 -0.02,-0.946 -0.054,-1.703c-0.035,-0.757 -0.086,-1.562 -0.152,-2.413c-0.067,-0.852 -0.118,-1.609 -0.152,-2.272c-0.034,-0.662 -0.052,-1.088 -0.052,-1.277l-0.049,-11.549l-0.047,-11.453c-0.001,-0.126 0.061,-0.379 0.186,-0.758c0.124,-0.379 0.186,-0.6 0.186,-0.663c0.126,-0.127 0.251,-0.349 0.376,-0.665c0.062,-0.189 0.125,-0.347 0.187,-0.474c0.126,-0.126 0.315,-0.317 0.566,-0.57c0.251,-0.254 0.503,-0.523 0.754,-0.808c0.251,-0.285 0.487,-0.538 0.707,-0.76c0.22,-0.222 0.393,-0.365 0.518,-0.428c0.126,-0.127 0.457,-0.302 0.992,-0.525c0.536,-0.223 0.866,-0.398 0.992,-0.525l0.852,-0.003l0.852,-0.004c0.063,0.126 0.127,0.221 0.19,0.283l0.285,0.283c0.064,0.126 0.144,0.457 0.241,0.993c0.097,0.536 0.146,0.867 0.146,0.993l0.105,25.179c0.189,-0.127 0.536,-0.318 1.039,-0.572c0.504,-0.255 1.024,-0.509 1.559,-0.764c0.535,-0.254 1.039,-0.493 1.512,-0.716c0.472,-0.223 0.802,-0.398 0.991,-0.525c0.126,-0.127 0.393,-0.317 0.803,-0.571c0.409,-0.254 0.708,-0.445 0.896,-0.572c0.252,-0.19 0.598,-0.46 1.038,-0.809c0.441,-0.349 0.865,-0.698 1.274,-1.046c0.409,-0.349 0.786,-0.635 1.132,-0.857c0.346,-0.222 0.519,-0.333 0.519,-0.333c0.252,-0.254 0.707,-0.698 1.367,-1.331c0.66,-0.634 1.352,-1.315 2.074,-2.044c0.723,-0.729 1.399,-1.41 2.027,-2.044c0.628,-0.634 1.037,-1.109 1.225,-1.425c0.063,0 0.141,-0.142 0.234,-0.427c0.094,-0.284 0.204,-0.427 0.33,-0.427c0,-0.063 0.062,-0.332 0.186,-0.806c0.124,-0.473 0.186,-0.773 0.185,-0.9c0.063,-0.063 0.095,-0.126 0.094,-0.189c0,-0.126 0.031,-0.221 0.094,-0.285c0.062,-0.126 0.157,-0.253 0.282,-0.379c0.188,-0.317 0.486,-0.712 0.895,-1.187c0.408,-0.475 0.675,-0.776 0.8,-0.903c0.126,-0.127 0.503,-0.46 1.132,-0.999c0.629,-0.539 1.101,-0.935 1.415,-1.189l0.378,-0.191c0.252,-0.127 0.409,-0.191 0.472,-0.191c0.189,-0.127 0.488,-0.239 0.898,-0.335c0.41,-0.096 0.678,-0.145 0.804,-0.145l0.378,-0.097c0.064,0 0.127,0.016 0.19,0.047c0.063,0.031 0.126,0.047 0.189,0.046l0.095,0c0.442,-0.002 0.663,0.155 0.665,0.471l0.01,2.555c0.001,0.063 -0.062,0.221 -0.187,0.474c-0.125,0.253 -0.266,0.538 -0.422,0.854c-0.157,0.316 -0.329,0.633 -0.517,0.949c-0.188,0.316 -0.313,0.538 -0.376,0.664c-0.125,0.253 -0.454,0.775 -0.987,1.566c-0.533,0.791 -0.925,1.376 -1.176,1.756c-0.063,0.19 -0.376,0.601 -0.942,1.235c-0.565,0.633 -0.942,1.076 -1.13,1.33c-0.188,0.253 -0.565,0.696 -1.13,1.33c-0.566,0.633 -1.178,1.298 -1.838,1.995c-0.66,0.697 -1.272,1.362 -1.837,1.996c-0.566,0.633 -0.943,1.045 -1.131,1.235c0.127,0.126 0.38,0.314 0.759,0.565c0.38,0.25 0.633,0.439 0.76,0.564c0.127,0.126 0.317,0.299 0.57,0.519c0.254,0.219 0.523,0.471 0.808,0.754c0.285,0.282 0.539,0.549 0.761,0.801c0.222,0.251 0.364,0.409 0.428,0.471c0.126,0.063 0.412,0.551 0.858,1.464c0.445,0.913 0.795,1.59 1.049,2.031c0.064,0.189 0.319,0.693 0.764,1.511c0.445,0.819 0.906,1.669 1.383,2.55c0.477,0.882 0.922,1.732 1.336,2.55c0.414,0.819 0.684,1.323 0.811,1.512c0,0.126 0.112,0.394 0.335,0.803c0.222,0.409 0.492,0.881 0.81,1.416c0.318,0.535 0.651,1.07 1.001,1.605c0.349,0.535 0.619,0.96 0.81,1.275c0.126,0.126 0.317,0.377 0.571,0.755c0.254,0.377 0.444,0.629 0.571,0.755c0.127,0.252 0.381,0.613 0.762,1.085c0.38,0.472 0.603,0.834 0.667,1.086c0.253,0.314 0.65,0.818 1.189,1.509c0.54,0.692 0.872,1.038 0.999,1.038c0.19,0.251 0.602,0.691 1.236,1.32l3.992,3.959c0.633,0.628 1.108,1.036 1.425,1.224c0,0.119 0.07,0.292 0.21,0.521l0.058,0.093c0.139,0.228 0.209,0.402 0.21,0.52l0.002,0.568c-0.125,0.19 -0.297,0.538 -0.516,1.043c-0.219,0.506 -0.328,0.822 -0.327,0.948c-0.126,0.127 -0.33,0.349 -0.613,0.666c-0.283,0.316 -0.597,0.633 -0.943,0.95c-0.345,0.317 -0.675,0.618 -0.99,0.904c-0.314,0.285 -0.566,0.491 -0.754,0.618l-0.568,0.192c-0.378,0.127 -0.661,0.192 -0.851,0.193l-1.136,0.004c-0.189,-0.062 -0.347,-0.124 -0.474,-0.187c-0.063,0 -0.11,-0.015 -0.142,-0.047c-0.032,-0.031 -0.079,-0.047 -0.142,-0.047c-0.063,0.001 -0.126,-0.031 -0.19,-0.093c-0.127,-0.252 -0.46,-0.566 -0.998,-0.943c-0.538,-0.376 -0.87,-0.627 -0.997,-0.753c-0.252,-0.062 -0.696,-0.423 -1.329,-1.083c-0.634,-0.66 -1.046,-1.147 -1.237,-1.462c-0.127,-0.126 -0.349,-0.346 -0.665,-0.66c-0.317,-0.314 -0.634,-0.66 -0.951,-1.037c-0.317,-0.377 -0.634,-0.723 -0.951,-1.037c-0.317,-0.315 -0.507,-0.535 -0.571,-0.661c-0.064,-0.126 -0.238,-0.377 -0.524,-0.755c-0.285,-0.377 -0.587,-0.786 -0.904,-1.227c-0.318,-0.44 -0.635,-0.88 -0.952,-1.321c-0.318,-0.44 -0.54,-0.755 -0.667,-0.944c-0.127,-0.125 -0.317,-0.377 -0.571,-0.754c-0.254,-0.378 -0.444,-0.598 -0.571,-0.661c-0.19,-0.314 -0.54,-0.897 -1.048,-1.747c-0.509,-0.849 -1.017,-1.746 -1.526,-2.691c-0.509,-0.944 -1.017,-1.826 -1.526,-2.644c-0.508,-0.818 -0.857,-1.385 -1.048,-1.7l-0.854,-0.469l0.011,2.556l-0.568,0.002c-0.064,-0.252 -0.128,-0.504 -0.192,-0.757c-0.065,-0.252 -0.145,-0.488 -0.24,-0.709c-0.096,-0.22 -0.175,-0.425 -0.239,-0.614c-0.001,-0.126 -0.034,-0.41 -0.099,-0.851c-0.064,-0.442 -0.114,-0.899 -0.147,-1.372c-0.034,-0.473 -0.083,-0.931 -0.148,-1.372c-0.065,-0.442 -0.098,-0.726 -0.098,-0.852c-0.001,-0.126 -0.065,-0.378 -0.193,-0.756c-0.127,-0.378 -0.192,-0.694 -0.193,-0.946l-0.571,-0.85c-0.127,-0.125 -0.317,-0.345 -0.571,-0.66c-0.254,-0.314 -0.444,-0.471 -0.57,-0.471l0.005,1.136c0.064,0.252 0.145,0.899 0.244,1.94c0.099,1.041 0.183,2.16 0.251,3.359c0.068,1.199 0.12,2.334 0.156,3.407c0.036,1.073 0.055,1.735 0.056,1.988l0.059,14.198l-0.652,2.559l-0.475,-0.471c0,0 -0.032,-0.158 -0.097,-0.473c-0.064,-0.316 -0.113,-0.694 -0.146,-1.136c-0.034,-0.441 -0.067,-0.883 -0.101,-1.324c-0.033,-0.442 -0.05,-0.789 -0.051,-1.042c-0.065,-0.315 -0.131,-1.024 -0.198,-2.129c-0.068,-1.104 -0.137,-2.397 -0.206,-3.88c-0.069,-1.482 -0.155,-3.06 -0.256,-4.732c-0.102,-1.671 -0.187,-3.249 -0.257,-4.731c-0.069,-1.483 -0.122,-2.777 -0.158,-3.881c-0.036,-1.104 -0.055,-1.845 -0.057,-2.224c-0.063,-0.126 -0.127,-0.394 -0.192,-0.804c-0.065,-0.41 -0.114,-0.82 -0.147,-1.23c-0.034,-0.41 -0.083,-0.804 -0.147,-1.182c-0.065,-0.379 -0.129,-0.631 -0.193,-0.757c-0.126,0.001 -0.379,-0.046 -0.758,-0.139c-0.379,-0.093 -0.6,-0.139 -0.663,-0.139c-0.126,0.001 -0.441,0.065 -0.946,0.193c-0.252,0.064 -0.472,0.097 -0.662,0.098c-0.063,0 -0.488,0.112 -1.276,0.336c-0.788,0.225 -1.403,0.401 -1.844,0.529c-0.126,0.126 -0.456,0.301 -0.992,0.524c-0.535,0.224 -0.866,0.399 -0.991,0.525c0,0.19 0.033,0.458 0.098,0.804c0.064,0.347 0.113,0.71 0.146,1.088c0.033,0.379 0.082,0.742 0.147,1.088c0.064,0.347 0.097,0.584 0.097,0.71c0.128,0.315 0.241,0.851 0.338,1.608c0.098,0.757 0.21,1.198 0.337,1.324c0.001,0.189 0.05,0.536 0.147,1.04c0.072,0.378 0.145,0.766 0.217,1.162l0.109,0.598Zm-72.217,5.199c-0.125,0.316 -0.343,0.87 -0.656,1.66c-0.312,0.79 -0.468,1.28 -0.467,1.469c0.001,0.126 -0.014,0.315 -0.045,0.568c-0.03,0.253 -0.045,0.442 -0.045,0.568l0.568,-0.002c0.189,-0.127 0.63,-0.239 1.324,-0.337c0.694,-0.098 1.104,-0.21 1.229,-0.336l-0.001,-0.19l-0.001,-0.284c-0.001,-0.189 -0.145,-0.678 -0.432,-1.465c-0.287,-0.788 -0.431,-1.339 -0.433,-1.655c-0.126,0.001 -0.237,-0.141 -0.333,-0.424c-0.096,-0.284 -0.175,-0.426 -0.238,-0.425l-0.47,0.853Zm106.858,-18.323c0.001,0.126 0.002,0.331 0.003,0.615c0.001,0.284 0.034,0.584 0.098,0.899c0.065,0.315 0.129,0.662 0.194,1.04c0.001,0.253 0.113,0.615 0.336,1.088c0.223,0.472 0.461,0.834 0.714,1.085c0.001,0.063 0.27,0.378 0.809,0.943c0.539,0.566 0.935,0.943 1.188,1.131c0.063,0 0.221,0.078 0.474,0.235c0.253,0.157 0.411,0.235 0.474,0.235l2.84,-0.012l2.272,-0.01c0.063,0 0.236,-0.064 0.52,-0.191c0.283,-0.128 0.582,-0.271 0.897,-0.43c0.315,-0.159 0.63,-0.334 0.945,-0.524c0.314,-0.191 0.535,-0.35 0.66,-0.477c0.126,-0.063 0.315,-0.222 0.566,-0.475c0.252,-0.254 0.44,-0.412 0.566,-0.476c0.062,-0.253 0.234,-0.616 0.516,-1.091c0.282,-0.474 0.423,-0.838 0.422,-1.09l-0.005,-1.23l-0.006,-1.326c0,-0.126 -0.144,-0.457 -0.43,-0.992c-0.286,-0.535 -0.461,-0.866 -0.525,-0.992c-0.126,-0.062 -0.395,-0.235 -0.807,-0.517c-0.411,-0.282 -0.68,-0.423 -0.806,-0.422c-0.064,-0.126 -0.443,-0.235 -1.137,-0.327c-0.695,-0.092 -1.168,-0.137 -1.421,-0.136l-1.23,0.005l-1.325,0.006c-0.316,0.001 -0.758,0.019 -1.325,0.053c-0.568,0.033 -1.152,0.067 -1.751,0.101c-0.6,0.035 -1.136,0.084 -1.609,0.149c-0.473,0.065 -0.741,0.129 -0.804,0.193c-0.126,0 -0.315,0.064 -0.567,0.192c-0.189,0.063 -0.346,0.127 -0.472,0.191c0.001,0.252 -0.045,0.694 -0.137,1.326c-0.092,0.631 -0.137,1.041 -0.137,1.231Z" style="fill:#f00;stroke:#fff;stroke-width:1px;stroke-linejoin:round;stroke-miterlimit:1.41421;"/>
    </g>
</svg>
