<?xml version="1.0" encoding="UTF-8" standalone="no"?>
<!DOCTYPE svg PUBLIC "-//W3C//DTD SVG 1.1//EN" "http://www.w3.org/Graphics/SVG/1.1/DTD/svg11.dtd">
<svg width="567px" height="50px" version="1.1" xmlns="http://www.w3.org/2000/svg" xmlns:xlink="http://www.w3.org/1999/xlink" xml:space="preserve" style="fill-rule:evenodd;clip-rule:evenodd;stroke-linejoin:round;stroke-miterlimit:1.41421;">
    <g id="Ebene-1">
        <path id="path6945" d="M0,1.073l88.316,0l0,26.19l-84.827,0l0,22.699l-3.489,0l0,-26.19l84.826,0l0,-19.21l-84.826,0l0,-3.489" style="fill:#0895ff;fill-rule:nonzero;"/>
        <path id="path6947" d="M198.639,27.263l0,22.699l-3.49,0l0,-26.19l84.825,0l0,-19.21l-84.825,0l0,-3.489l88.315,0l0,26.19l-84.825,0" style="fill:#0895ff;fill-rule:nonzero;"/>
        <path id="path6949" d="M133.346,1.073l0,45.399l-45.03,0l0,3.49l48.714,0l0,-45.4l45.031,0l0,-3.489l-48.715,0" style="fill:#0895ff;fill-rule:nonzero;"/>
        <g>
            <path d="M553.483,0.168c-0.584,0.094 -1.73,0.304 -2.572,0.444c-3.905,0.632 -5.425,1.193 -8.184,2.947c-1.684,1.052 -3.671,2.946 -4.63,4.419c-1.263,1.871 -2.666,5.075 -3.063,7.015c-0.14,0.632 -0.398,1.941 -0.608,2.9c-0.257,1.216 -0.351,3.157 -0.351,6.664c0,3.648 -0.093,5.308 -0.351,6.29c-0.187,0.749 -0.35,1.614 -0.35,1.918c0,0.304 -0.141,0.842 -0.328,1.216c-0.187,0.351 -0.561,1.146 -0.818,1.754c-0.281,0.608 -1.006,1.636 -1.59,2.291c-1.099,1.216 -3.578,3.04 -4.139,3.04c-0.187,0 -0.444,0.14 -0.585,0.327c-0.14,0.164 -0.701,0.375 -1.216,0.468c-0.514,0.094 -0.865,0.257 -0.795,0.374c0.094,0.14 -0.374,0.234 -1.169,0.234c-0.725,0 -1.543,0.117 -1.824,0.257c-0.304,0.164 -2.502,0.328 -5.635,0.421l-5.168,0.14l-0.07,1.053c-0.047,0.584 -0.024,2.034 0.07,3.203l0.164,2.175l5.939,0c3.25,0 6.384,-0.094 6.922,-0.234c0.912,-0.187 2.735,-0.491 5.214,-0.865c0.515,-0.07 1.146,-0.281 1.403,-0.444c0.257,-0.187 0.632,-0.328 0.842,-0.328c0.351,0 1.193,-0.351 2.315,-0.982c0.187,-0.093 0.561,-0.28 0.818,-0.397c0.912,-0.421 3.274,-2.502 4.396,-3.882c1.053,-1.286 2.923,-4.817 3.298,-6.197c0.093,-0.327 0.257,-0.795 0.35,-1.052c0.562,-1.333 0.795,-3.624 0.936,-9.236c0.117,-3.718 0.304,-6.454 0.467,-6.852c0.141,-0.374 0.258,-1.099 0.258,-1.637c0,-0.538 0.163,-1.192 0.35,-1.426c0.187,-0.257 0.351,-0.655 0.351,-0.889c0,-0.725 2.058,-3.835 3.11,-4.7c3.578,-2.923 6.173,-3.624 14.124,-3.858c2.853,-0.094 5.214,-0.211 5.284,-0.281c0.071,-0.07 0.141,-1.543 0.187,-3.273l0.094,-3.157l-6.197,-0.024c-3.414,-0.023 -6.664,0.047 -7.249,0.164Z" style="fill:#2b94fb;fill-rule:nonzero;"/>
            <path d="M328.3,10.574c-3.367,0.491 -4.607,0.912 -7.553,2.525c-2.829,1.544 -4.957,3.601 -7.085,6.852c-0.702,1.029 -1.263,1.964 -1.263,2.057c0,0.094 -0.14,0.491 -0.327,0.889c-0.678,1.613 -1.123,3.601 -1.24,5.682c-0.07,1.216 -0.233,2.198 -0.35,2.198c-0.094,0 -0.164,4.279 -0.141,9.517l0.07,9.541l4.209,0l4.21,-0.024l0.14,-10.499c0.093,-7.132 0.234,-10.733 0.397,-11.177c0.164,-0.374 0.281,-0.959 0.281,-1.333c0,-1.122 1.847,-4.419 3.274,-5.846c1.449,-1.473 2.268,-2.058 3.624,-2.666c0.515,-0.21 1.123,-0.491 1.333,-0.608c0.234,-0.14 0.655,-0.233 0.982,-0.233c0.304,0 1.006,-0.164 1.543,-0.351c1.193,-0.421 6.852,-0.491 7.881,-0.094c0.35,0.141 1.075,0.328 1.59,0.445c2.385,0.514 4.466,1.683 6.267,3.577c0.724,0.772 1.332,1.497 1.332,1.614c0,0.117 0.258,0.608 0.562,1.099c0.327,0.491 0.678,1.309 0.818,1.847c0.14,0.515 0.398,0.982 0.538,1.029c0.234,0.093 0.327,2.876 0.421,11.528l0.117,11.435l0.584,0.163c0.725,0.211 6.945,0.258 7.623,0.07c0.515,-0.14 0.515,-0.14 0.608,-10.803c0.117,-11.294 0.164,-11.785 1.31,-14.31c0.491,-1.076 2.104,-3.508 2.712,-4.093c1.31,-1.262 4.724,-3.156 5.706,-3.156c0.21,0 0.912,-0.164 1.543,-0.351c1.707,-0.515 6.407,-0.468 8.722,0.093c5.542,1.333 8.605,4.233 10.242,9.728c0.374,1.239 0.444,2.666 0.538,12.089l0.094,10.71l0.795,0.14c0.561,0.094 7.225,0 7.763,-0.117c0.023,-0.023 0.047,-4.63 0.047,-10.265c0,-8.418 -0.07,-10.476 -0.351,-11.411c-0.187,-0.632 -0.351,-1.403 -0.351,-1.731c0,-0.795 -0.608,-2.619 -1.473,-4.443c-1.871,-3.858 -5.916,-7.95 -9.4,-9.446c-0.515,-0.234 -1.239,-0.562 -1.637,-0.725c-0.374,-0.164 -0.959,-0.374 -1.286,-0.421c-0.327,-0.07 -0.889,-0.234 -1.286,-0.351c-3.625,-1.263 -15.2,-0.842 -18.941,0.678c-3.367,1.356 -4.934,2.385 -7.179,4.677c-0.982,1.029 -1.894,1.847 -2.034,1.847c-0.117,0 -0.678,-0.538 -1.239,-1.169c-1.099,-1.286 -3.742,-3.367 -5.215,-4.092c-0.514,-0.257 -0.959,-0.538 -1.005,-0.655c-0.047,-0.093 -0.234,-0.164 -0.445,-0.164c-0.187,0 -0.678,-0.14 -1.075,-0.304c-1.333,-0.584 -3.274,-1.052 -5.332,-1.309c-2.595,-0.327 -9.143,-0.281 -11.668,0.117Z" style="fill:#2b94fb;fill-rule:nonzero;"/>
            <path d="M448.257,10.527c-1.099,0.164 -2.221,0.398 -2.502,0.561c-0.28,0.164 -0.724,0.281 -0.982,0.281c-0.28,0 -0.678,0.093 -0.912,0.21c-0.21,0.117 -1.122,0.562 -2.034,0.982c-4.583,2.128 -8.839,7.086 -10.242,11.903c-1.052,3.671 -1.099,4.185 -1.099,14.942l0,10.312l8.605,0l0.117,-11.061l0.117,-11.037l0.678,-1.87c1.66,-4.42 4.724,-7.273 8.956,-8.301c0.444,-0.117 1.239,-0.304 1.754,-0.445c1.496,-0.397 6.313,-0.327 8.184,0.117c3.975,0.959 6.547,2.572 8.418,5.262c1.052,1.543 1.426,2.385 2.034,4.653c0.421,1.59 0.468,2.759 0.585,12.113l0.14,10.382l0.562,0.21c0.865,0.328 7.389,0.281 7.739,-0.07c0.375,-0.374 0.375,-18.964 0.024,-20.531c-0.14,-0.584 -0.327,-1.636 -0.421,-2.338c-0.327,-2.549 -1.567,-5.518 -3.227,-7.717c-1.193,-1.59 -3.648,-4.138 -4.747,-4.957c-1.941,-1.426 -5.822,-2.993 -8.652,-3.484c-2.034,-0.374 -10.826,-0.444 -13.095,-0.117Z" style="fill:#2b94fb;fill-rule:nonzero;"/>
            <path d="M490.605,10.527c-0.187,0.211 -0.257,1.216 -0.21,3.087l0.07,2.782l8.184,0l0,-6.079l-3.882,-0.071c-3.133,-0.046 -3.928,0 -4.162,0.281Z" style="fill:#2b94fb;fill-rule:nonzero;"/>
            <path d="M410.376,13.356l0,2.923l7.693,0l0.07,-2.829c0.047,-1.543 0.024,-2.876 -0.023,-2.923c-0.047,-0.047 -1.824,-0.093 -3.928,-0.093l-3.812,0l0,2.922Z" style="fill:#2b94fb;fill-rule:nonzero;"/>
            <path d="M410.353,23.692c-0.234,0.047 -0.468,0.327 -0.538,0.608c-0.07,0.281 -0.117,6.056 -0.117,12.861c0.023,11.692 0.047,12.346 0.444,12.557c0.468,0.257 7.436,0.327 8.044,0.093c0.328,-0.14 0.374,-1.496 0.374,-12.954c0,-10.008 -0.07,-12.884 -0.28,-13.025c-0.328,-0.187 -7.273,-0.304 -7.927,-0.14Z" style="fill:#2b94fb;fill-rule:nonzero;"/>
            <path d="M490.886,23.715c-0.304,0.047 -0.562,0.211 -0.562,0.351c-0.023,0.164 -0.046,5.94 -0.07,12.861c-0.046,11.762 -0.023,12.604 0.351,12.814c0.444,0.234 7.436,0.304 8.021,0.07c0.327,-0.14 0.374,-1.496 0.374,-12.977c0,-12.09 -0.024,-12.838 -0.421,-13.048c-0.398,-0.211 -6.501,-0.258 -7.693,-0.071Z" style="fill:#2b94fb;fill-rule:nonzero;"/>
        </g>
    </g>
</svg>
