<?xml version="1.0" encoding="UTF-8" standalone="no"?>
<!DOCTYPE svg PUBLIC "-//W3C//DTD SVG 1.1//EN" "http://www.w3.org/Graphics/SVG/1.1/DTD/svg11.dtd">
<svg width="400px" height="67px" version="1.1" xmlns="http://www.w3.org/2000/svg" xmlns:xlink="http://www.w3.org/1999/xlink" xml:space="preserve" style="fill-rule:evenodd;clip-rule:evenodd;stroke-linejoin:round;stroke-miterlimit:1.41421;">
    <defs>
        <radialGradient id="_Radial1" cx="0" cy="0" r="1" gradientUnits="userSpaceOnUse" gradientTransform="matrix(200.977,0.375646,-0.0419643,22.4516,195.028,47.8627)"><stop offset="0" style="stop-color:#787de3;stop-opacity:0.501961"/><stop offset="1" style="stop-color:#e9e9e9;stop-opacity:0"/></radialGradient>
    </defs>
    <g>
        <ellipse cx="200" cy="46.856" rx="196" ry="18.62" style="fill:url(#_Radial1);"/>
        <g>
            <path d="M19.542,46.033l9.257,0l0,-16.389c0,-4.388 -0.754,-10.902 -1.234,-15.223l0.274,0l3.566,10.354l6.857,17.349l4.046,0l6.857,-17.349l3.703,-10.354l0.274,0c-0.48,4.321 -1.303,10.835 -1.303,15.223l0,16.389l9.394,0l0,-44.709l-10.628,0l-7.269,20.092l-2.674,7.817l-0.274,0l-2.675,-7.817l-7.474,-20.092l-10.697,0l0,44.709Z" style="fill:#fff;"/>
            <path d="M89.965,46.856c12.069,0 20.297,-8.777 20.297,-23.383c0,-14.537 -8.228,-22.972 -20.297,-22.972c-12.069,0 -20.297,8.366 -20.297,22.972c0,14.606 8.228,23.383 20.297,23.383l0,0Zm0,-8.709c-6.103,0 -9.943,-5.691 -9.943,-14.674c0,-8.914 3.84,-14.263 9.943,-14.263c6.103,0 9.943,5.349 9.943,14.263c0,8.983 -3.84,14.674 -9.943,14.674l0,0Z" style="fill:#fff;"/>
            <path d="M136.868,46.856c12.069,0 20.297,-8.777 20.297,-23.383c0,-14.537 -8.228,-22.972 -20.297,-22.972c-12.068,0 -20.297,8.366 -20.297,22.972c0,14.606 8.229,23.383 20.297,23.383l0,0Zm0,-8.709c-6.102,0 -9.943,-5.691 -9.943,-14.674c0,-8.914 3.841,-14.263 9.943,-14.263c6.103,0 9.943,5.349 9.943,14.263c0,8.983 -3.84,14.674 -9.943,14.674l0,0Z" style="fill:#fff;"/>
            <path d="M165.6,46.033l9.599,0l0,-15.84c0,-5.28 -0.822,-11.246 -1.234,-16.183l0.275,0l4.388,9.737l11.658,22.286l10.354,0l0,-44.709l-9.6,0l0,15.772c0,5.279 0.822,11.588 1.234,16.319l-0.274,0l-4.389,-9.873l-11.657,-22.218l-10.354,0l0,44.709Z" style="fill:#fff;"/>
            <path d="M211.199,46.033l27.772,0l0,-8.502l-17.692,0l0,-36.207l-10.08,0l0,44.709Z" style="fill:#fff;"/>
            <rect x="246.72" y="1.324" width="10.08" height="44.709" style="fill:#fff;"/>
            <path d="M265.234,23.953c0,15.017 9.601,22.903 21.669,22.903c6.24,0 11.794,-2.4 14.949,-5.418l0,-20.57l-16.32,0l0,8.228l7.405,0l0,7.68c-1.098,0.891 -2.948,1.371 -4.8,1.371c-8.366,0 -12.549,-5.349 -12.549,-14.537c0,-8.983 4.869,-14.4 11.794,-14.4c3.84,0 5.966,1.303 8.161,3.36l5.554,-6.24c-2.949,-3.017 -7.611,-5.829 -13.851,-5.829c-12.137,0 -22.012,8.641 -22.012,23.452l0,0Z" style="fill:#fff;"/>
            <path d="M311.109,46.033l10.08,0l0,-18.651l15.428,0l0,18.651l10.149,0l0,-44.709l-10.149,0l0,17.211l-15.428,0l0,-17.211l-10.08,0l0,44.709Z" style="fill:#fff;"/>
            <path d="M366.034,46.033l10.149,0l0,-36.205l12.275,0l0,-8.504l-34.698,0l0,8.504l12.274,0l0,36.205Z" style="fill:#fff;"/>
            <path d="M19.542,46.033l9.257,0l0,-16.389c0,-4.388 -0.754,-10.902 -1.234,-15.223l0.274,0l3.566,10.354l6.857,17.349l4.046,0l6.857,-17.349l3.703,-10.354l0.274,0c-0.48,4.321 -1.303,10.835 -1.303,15.223l0,16.389l9.394,0l0,-44.709l-10.628,0l-7.269,20.092l-2.674,7.817l-0.274,0l-2.675,-7.817l-7.474,-20.092l-10.697,0l0,44.709Z" style="fill:#fff;fill-rule:nonzero;stroke:#000;stroke-width:1px;"/>
            <path d="M89.965,46.856c12.069,0 20.297,-8.777 20.297,-23.383c0,-14.537 -8.228,-22.972 -20.297,-22.972c-12.069,0 -20.297,8.366 -20.297,22.972c0,14.606 8.228,23.383 20.297,23.383l0,0Zm0,-8.709c-6.103,0 -9.943,-5.691 -9.943,-14.674c0,-8.914 3.84,-14.263 9.943,-14.263c6.103,0 9.943,5.349 9.943,14.263c0,8.983 -3.84,14.674 -9.943,14.674l0,0Z" style="fill:#fff;fill-rule:nonzero;stroke:#000;stroke-width:1px;"/>
            <path d="M136.868,46.856c12.069,0 20.297,-8.777 20.297,-23.383c0,-14.537 -8.228,-22.972 -20.297,-22.972c-12.068,0 -20.297,8.366 -20.297,22.972c0,14.606 8.229,23.383 20.297,23.383l0,0Zm0,-8.709c-6.102,0 -9.943,-5.691 -9.943,-14.674c0,-8.914 3.841,-14.263 9.943,-14.263c6.103,0 9.943,5.349 9.943,14.263c0,8.983 -3.84,14.674 -9.943,14.674l0,0Z" style="fill:#fff;fill-rule:nonzero;stroke:#000;stroke-width:1px;"/>
            <path d="M165.6,46.033l9.599,0l0,-15.84c0,-5.28 -0.822,-11.246 -1.234,-16.183l0.275,0l4.388,9.737l11.658,22.286l10.354,0l0,-44.709l-9.6,0l0,15.772c0,5.279 0.822,11.588 1.234,16.319l-0.274,0l-4.389,-9.873l-11.657,-22.218l-10.354,0l0,44.709Z" style="fill:#fff;fill-rule:nonzero;stroke:#000;stroke-width:1px;"/>
            <path d="M211.199,46.033l27.772,0l0,-8.502l-17.692,0l0,-36.207l-10.08,0l0,44.709Z" style="fill:#fff;fill-rule:nonzero;stroke:#000;stroke-width:1px;"/>
            <rect x="246.72" y="1.324" width="10.08" height="44.709" style="fill:#fff;stroke:#000;stroke-width:1px;"/>
            <path d="M265.234,23.953c0,15.017 9.601,22.903 21.669,22.903c6.24,0 11.794,-2.4 14.949,-5.418l0,-20.57l-16.32,0l0,8.228l7.405,0l0,7.68c-1.098,0.891 -2.948,1.371 -4.8,1.371c-8.366,0 -12.549,-5.349 -12.549,-14.537c0,-8.983 4.869,-14.4 11.794,-14.4c3.84,0 5.966,1.303 8.161,3.36l5.554,-6.24c-2.949,-3.017 -7.611,-5.829 -13.851,-5.829c-12.137,0 -22.012,8.641 -22.012,23.452l0,0Z" style="fill:#fff;fill-rule:nonzero;stroke:#000;stroke-width:1px;"/>
            <path d="M311.109,46.033l10.08,0l0,-18.651l15.428,0l0,18.651l10.149,0l0,-44.709l-10.149,0l0,17.211l-15.428,0l0,-17.211l-10.08,0l0,44.709Z" style="fill:#fff;fill-rule:nonzero;stroke:#000;stroke-width:1px;"/>
            <path d="M366.034,46.033l10.149,0l0,-36.205l12.275,0l0,-8.504l-34.698,0l0,8.504l12.274,0l0,36.205Z" style="fill:#fff;fill-rule:nonzero;stroke:#000;stroke-width:1px;"/>
        </g>
    </g>
</svg>
