<?xml version="1.0" encoding="UTF-8" standalone="no"?>
<!DOCTYPE svg PUBLIC "-//W3C//DTD SVG 1.1//EN" "http://www.w3.org/Graphics/SVG/1.1/DTD/svg11.dtd">
<svg width="554px" height="150px" version="1.1" xmlns="http://www.w3.org/2000/svg" xmlns:xlink="http://www.w3.org/1999/xlink" xml:space="preserve" style="fill-rule:evenodd;clip-rule:evenodd;stroke-linejoin:round;stroke-miterlimit:1.41421;">
    <g>
        <g transform="matrix(1.07269,0,0,1.07269,9.99429,16.6894)">
            <path d="M377.098,47.184l0.628,-2.114l37.828,0l-0.742,2.114c-3.429,0 -6.048,0.762 -7.857,2.286c-1.81,1.524 -3.4,4.704 -4.772,9.542l-14.171,49.6c-1.029,3.504 -1.543,5.847 -1.543,7.028c0,1.372 0.533,2.438 1.6,3.2c1.372,0.991 3.962,1.524 7.771,1.6l-0.571,2.114l-38.457,0l0.629,-2.114c3.848,0 6.667,-0.733 8.457,-2.2c1.79,-1.466 3.409,-4.676 4.857,-9.628l14.286,-49.6c0.876,-3.047 1.314,-5.352 1.314,-6.914c0,-1.409 -0.533,-2.514 -1.6,-3.314c-1.067,-0.8 -3.619,-1.333 -7.657,-1.6Z" style="fill:none;"/>
            <path d="M422.64,47.184l0.629,-2.114l37.828,0l-0.743,2.114c-3.429,0 -6.048,0.762 -7.857,2.286c-1.81,1.524 -3.4,4.704 -4.772,9.542l-14.171,49.6c-1.028,3.504 -1.543,5.847 -1.543,7.028c0,1.372 0.534,2.438 1.6,3.2c1.372,0.991 3.962,1.524 7.772,1.6l-0.572,2.114l-38.456,0l0.628,-2.114c3.848,0 6.667,-0.733 8.457,-2.2c1.791,-1.466 3.41,-4.676 4.857,-9.628l14.286,-49.6c0.876,-3.047 1.314,-5.352 1.314,-6.914c0,-1.409 -0.533,-2.514 -1.6,-3.314c-1.067,-0.8 -3.619,-1.333 -7.657,-1.6Z" style="fill:none;"/>
            <path d="M468.182,47.184l0.629,-2.114l37.828,0l-0.743,2.114c-3.428,0 -6.047,0.762 -7.857,2.286c-1.809,1.524 -3.4,4.704 -4.771,9.542l-14.172,49.6c-1.028,3.504 -1.542,5.847 -1.542,7.028c0,1.372 0.533,2.438 1.6,3.2c1.371,0.991 3.961,1.524 7.771,1.6l-0.572,2.114l-38.456,0l0.628,-2.114c3.848,0 6.667,-0.733 8.457,-2.2c1.791,-1.466 3.41,-4.676 4.858,-9.628l14.285,-49.6c0.876,-3.047 1.314,-5.352 1.314,-6.914c0,-1.409 -0.533,-2.514 -1.6,-3.314c-1.066,-0.8 -3.619,-1.333 -7.657,-1.6Z" style="fill:none;"/>
            <path d="M377.098,47.184l0.628,-2.114l37.828,0l-0.742,2.114c-3.429,0 -6.048,0.762 -7.857,2.286c-1.81,1.524 -3.4,4.704 -4.772,9.542l-14.171,49.6c-1.029,3.504 -1.543,5.847 -1.543,7.028c0,1.372 0.533,2.438 1.6,3.2c1.372,0.991 3.962,1.524 7.771,1.6l-0.571,2.114l-38.457,0l0.629,-2.114c3.848,0 6.667,-0.733 8.457,-2.2c1.79,-1.466 3.409,-4.676 4.857,-9.628l14.286,-49.6c0.876,-3.047 1.314,-5.352 1.314,-6.914c0,-1.409 -0.533,-2.514 -1.6,-3.314c-1.067,-0.8 -3.619,-1.333 -7.657,-1.6Z" style="fill:#f00;fill-rule:nonzero;stroke:#fff;stroke-width:0.93px;"/>
            <path d="M422.64,47.184l0.629,-2.114l37.828,0l-0.743,2.114c-3.429,0 -6.048,0.762 -7.857,2.286c-1.81,1.524 -3.4,4.704 -4.772,9.542l-14.171,49.6c-1.028,3.504 -1.543,5.847 -1.543,7.028c0,1.372 0.534,2.438 1.6,3.2c1.372,0.991 3.962,1.524 7.772,1.6l-0.572,2.114l-38.456,0l0.628,-2.114c3.848,0 6.667,-0.733 8.457,-2.2c1.791,-1.466 3.41,-4.676 4.857,-9.628l14.286,-49.6c0.876,-3.047 1.314,-5.352 1.314,-6.914c0,-1.409 -0.533,-2.514 -1.6,-3.314c-1.067,-0.8 -3.619,-1.333 -7.657,-1.6Z" style="fill:#f00;fill-rule:nonzero;stroke:#fff;stroke-width:0.93px;"/>
            <path d="M468.182,47.184l0.629,-2.114l37.828,0l-0.743,2.114c-3.428,0 -6.047,0.762 -7.857,2.286c-1.809,1.524 -3.4,4.704 -4.771,9.542l-14.172,49.6c-1.028,3.504 -1.542,5.847 -1.542,7.028c0,1.372 0.533,2.438 1.6,3.2c1.371,0.991 3.961,1.524 7.771,1.6l-0.572,2.114l-38.456,0l0.628,-2.114c3.848,0 6.667,-0.733 8.457,-2.2c1.791,-1.466 3.41,-4.676 4.858,-9.628l14.285,-49.6c0.876,-3.047 1.314,-5.352 1.314,-6.914c0,-1.409 -0.533,-2.514 -1.6,-3.314c-1.066,-0.8 -3.619,-1.333 -7.657,-1.6Z" style="fill:#f00;fill-rule:nonzero;stroke:#fff;stroke-width:0.93px;"/>
        </g>
        <g transform="matrix(0.667626,0,0,0.667626,-82.8111,67.1292)">
            <path d="M124.787,122.554l21.943,-82.284l27.428,0l32.914,65.828l65.827,-65.828l27.428,0l-21.942,82.284l-27.428,0l10.971,-38.399l-38.399,38.399l-38.4,0l-21.942,-43.885l-10.972,43.885l-27.428,0Z" style="fill:none;"/>
            <path d="M283.871,122.554l65.827,-82.284l32.914,0l49.371,82.284l-32.914,0l-10.971,-16.456l-54.857,0l10.972,-16.457l32.913,0l-16.456,-27.429l-49.371,60.342l-27.428,0Z" style="fill:none;"/>
            <path d="M459.411,40.27l131.655,0c7.315,0 10.21,3.505 8.686,10.514l-6.857,27.885c-2.438,7.315 -6.705,10.972 -12.8,10.972l-38.399,0l38.399,32.913l-32.914,0l-54.856,-49.37l73.485,0l4.457,-16.457l-87.771,0l-17.599,65.827l-27.429,0l21.943,-82.284Z" style="fill:none;"/>
            <path d="M591.066,122.554l21.943,-82.284l27.428,0l-12.114,45.371l72.456,-45.371l43.885,0l-79.999,46.628l52.571,35.656l-43.885,0l-45.599,-34.513l-9.257,34.513l-27.429,0Z" style="fill:none;"/>
            <path d="M124.787,122.554l21.943,-82.284l27.428,0l32.914,65.828l65.827,-65.828l27.428,0l-21.942,82.284l-27.428,0l10.971,-38.399l-38.399,38.399l-38.4,0l-21.942,-43.885l-10.972,43.885l-27.428,0Z" style="fill:#f00;fill-rule:nonzero;stroke:#fff;stroke-width:1.5px;"/>
            <path d="M283.871,122.554l65.827,-82.284l32.914,0l49.371,82.284l-32.914,0l-10.971,-16.456l-54.857,0l10.972,-16.457l32.913,0l-16.456,-27.429l-49.371,60.342l-27.428,0Z" style="fill:#f00;fill-rule:nonzero;stroke:#fff;stroke-width:1.5px;"/>
            <path d="M459.411,40.27l131.655,0c7.315,0 10.21,3.505 8.686,10.514l-6.857,27.885c-2.438,7.315 -6.705,10.972 -12.8,10.972l-38.399,0l38.399,32.913l-32.914,0l-54.856,-49.37l73.485,0l4.457,-16.457l-87.771,0l-17.599,65.827l-27.429,0l21.943,-82.284Z" style="fill:#f00;fill-rule:nonzero;stroke:#fff;stroke-width:1.5px;"/>
            <path d="M591.066,122.554l21.943,-82.284l27.428,0l-12.114,45.371l72.456,-45.371l43.885,0l-79.999,46.628l52.571,35.656l-43.885,0l-45.599,-34.513l-9.257,34.513l-27.429,0Z" style="fill:#f00;fill-rule:nonzero;stroke:#fff;stroke-width:1.5px;"/>
        </g>
        <g transform="matrix(0.690562,0,0,0.690562,-68.2645,-27.3088)">
            <path d="M133.93,78.669l7.314,-27.428c1.829,-7.314 6.4,-10.971 13.714,-10.971l131.655,0l-3.428,16.457l-116.113,0l-4.457,16.457l102.056,0c9.143,0 12.8,3.657 10.971,10.971l-7.314,27.428c-2.438,7.314 -7.314,10.971 -14.628,10.971l-131.656,0l3.429,-16.456l116.112,0l4.458,-16.457l-102.056,0c-8.533,0 -11.886,-3.657 -10.057,-10.972Z" style="fill:none;"/>
            <path d="M278.842,111.583l16,-60.342c1.828,-7.314 6.4,-10.971 13.714,-10.971l131.655,0l-3.428,16.457l-116.113,0l-4.457,16.457l96.57,0l-3.428,16.457l-97.485,0l-4.457,16.457l116.341,0l-3.2,16.456l-133.941,0c-7.314,0 -9.904,-3.657 -7.771,-10.971Z" style="fill:none;"/>
            <path d="M432.44,111.583l16,-60.342c1.828,-7.314 6.4,-10.971 13.714,-10.971l137.141,0l-3.429,16.457l-121.598,0l-13.257,49.371l94.399,0l5.485,-16.457l-25.371,0l3.429,-16.457l49.371,0l-10.515,38.856c-2.438,7.01 -6.247,10.514 -11.428,10.514l-126.17,0c-7.314,0 -9.904,-3.657 -7.771,-10.971Z" style="fill:none;"/>
            <path d="M582.838,122.554l65.828,-82.284l32.913,0l49.371,82.284l-32.914,0l-10.971,-16.456l-54.856,0l10.971,-16.457l32.914,0l-16.457,-27.429l-49.371,60.342l-27.428,0Z" style="fill:none;"/>
            <path d="M133.93,78.669l7.314,-27.428c1.829,-7.314 6.4,-10.971 13.714,-10.971l131.655,0l-3.428,16.457l-116.113,0l-4.457,16.457l102.056,0c9.143,0 12.8,3.657 10.971,10.971l-7.314,27.428c-2.438,7.314 -7.314,10.971 -14.628,10.971l-131.656,0l3.429,-16.456l116.112,0l4.458,-16.457l-102.056,0c-8.533,0 -11.886,-3.657 -10.057,-10.972Z" style="fill:#17569b;fill-rule:nonzero;stroke:#fff;stroke-width:1.45px;"/>
            <path d="M278.842,111.583l16,-60.342c1.828,-7.314 6.4,-10.971 13.714,-10.971l131.655,0l-3.428,16.457l-116.113,0l-4.457,16.457l96.57,0l-3.428,16.457l-97.485,0l-4.457,16.457l116.341,0l-3.2,16.456l-133.941,0c-7.314,0 -9.904,-3.657 -7.771,-10.971Z" style="fill:#17569b;fill-rule:nonzero;stroke:#fff;stroke-width:1.45px;"/>
            <path d="M432.44,111.583l16,-60.342c1.828,-7.314 6.4,-10.971 13.714,-10.971l137.141,0l-3.429,16.457l-121.598,0l-13.257,49.371l94.399,0l5.485,-16.457l-25.371,0l3.429,-16.457l49.371,0l-10.515,38.856c-2.438,7.01 -6.247,10.514 -11.428,10.514l-126.17,0c-7.314,0 -9.904,-3.657 -7.771,-10.971Z" style="fill:#17569b;fill-rule:nonzero;stroke:#fff;stroke-width:1.45px;"/>
            <path d="M582.838,122.554l65.828,-82.284l32.913,0l49.371,82.284l-32.914,0l-10.971,-16.456l-54.856,0l10.971,-16.457l32.914,0l-16.457,-27.429l-49.371,60.342l-27.428,0Z" style="fill:#17569b;fill-rule:nonzero;stroke:#fff;stroke-width:1.45px;"/>
        </g>
    </g>
</svg>
