<?xml version="1.0" encoding="UTF-8" standalone="no"?>
<!DOCTYPE svg PUBLIC "-//W3C//DTD SVG 1.1//EN" "http://www.w3.org/Graphics/SVG/1.1/DTD/svg11.dtd">
<svg width="628px" height="85px" version="1.1" xmlns="http://www.w3.org/2000/svg" xmlns:xlink="http://www.w3.org/1999/xlink" xml:space="preserve" style="fill-rule:evenodd;clip-rule:evenodd;stroke-linejoin:round;stroke-miterlimit:1.41421;">
    <g>
        <path d="M262.539,16.611l0,-7.119c0,-6.328 3.164,-9.492 9.492,-9.492l42.716,0l0,9.492l-42.716,0l0,7.119l33.223,0c6.328,0 9.493,3.165 9.493,9.493l0,7.119c0,6.329 -3.165,9.492 -9.493,9.492l-42.715,0l0,-9.492l42.715,0l0,-7.119l-33.223,0c-6.328,0 -9.492,-3.164 -9.492,-9.493Z" style="fill:#cbcec7;fill-rule:nonzero;"/>
        <path d="M319.493,33.223l0,-23.731c0,-6.328 3.163,-9.492 9.492,-9.492l40.342,0l0,9.492l-40.342,0l0,23.731l40.342,0l0,9.492l-40.342,0c-6.329,0 -9.492,-3.163 -9.492,-9.492Z" style="fill:#cbcec7;fill-rule:nonzero;"/>
        <rect x="374.073" y="16.611" width="16.611" height="9.492" style="fill:#cbcec7;fill-rule:nonzero;"/>
        <path d="M450.011,33.223c0,6.329 -3.164,9.492 -9.492,9.492l-45.088,0l0,-9.492l45.088,0l0,-9.492l-23.73,0l11.865,-14.239l-33.223,0l0,-9.492l52.207,0l-11.865,14.238l4.746,0c6.328,0 9.492,3.165 9.492,9.493l0,9.492Z" style="fill:#cbcec7;fill-rule:nonzero;"/>
        <path d="M509.338,33.223c0,6.329 -3.164,9.492 -9.492,9.492l-35.596,0c-6.329,0 -9.492,-3.163 -9.492,-9.492l0,-23.731c0,-6.328 3.163,-9.492 9.492,-9.492l35.596,0c6.328,0 9.492,3.164 9.492,9.492l0,23.731Zm-9.492,0l0,-23.731l-35.596,0l0,23.731l35.596,0Z" style="fill:#cbcec7;fill-rule:nonzero;"/>
        <path d="M568.665,33.223c0,6.329 -3.164,9.492 -9.492,9.492l-35.596,0c-6.329,0 -9.493,-3.163 -9.493,-9.492l0,-23.731c0,-6.328 3.164,-9.492 9.493,-9.492l35.596,0c6.328,0 9.492,3.164 9.492,9.492l0,23.731Zm-9.492,0l0,-23.731l-35.596,0l0,23.731l35.596,0Z" style="fill:#cbcec7;fill-rule:nonzero;"/>
        <path d="M627.992,33.223c0,6.329 -3.164,9.492 -9.493,9.492l-35.596,0c-6.328,0 -9.492,-3.163 -9.492,-9.492l0,-23.731c0,-6.328 3.164,-9.492 9.492,-9.492l35.596,0c6.329,0 9.493,3.164 9.493,9.492l0,23.731Zm-9.493,0l0,-23.731l-35.596,0l0,23.731l35.596,0Z" style="fill:#cbcec7;fill-rule:nonzero;"/>
    </g>
    <path d="M0,25.137c0,-6.679 2.383,-12.416 7.15,-17.212c4.767,-4.795 10.091,-7.193 15.971,-7.193l33.397,0l0,10.276l-30.828,0c-4.738,0 -8.492,1.399 -11.261,4.196c-2.769,2.797 -4.153,6.108 -4.153,9.933c0,3.882 1.384,7.208 4.153,9.977c2.769,2.768 6.523,4.153 11.261,4.153l5.138,0c4.053,0 7.207,1.127 9.462,3.382c2.255,2.255 3.383,4.981 3.383,8.178c0,3.14 -1.128,5.852 -3.383,8.135c-2.255,2.284 -5.409,3.426 -9.462,3.426l-30.828,0l0,-10.276l30.828,0c1.713,0 2.569,-0.428 2.569,-1.285c0,-0.856 -0.856,-1.284 -2.569,-1.284l-7.707,0c-5.88,0 -11.204,-2.384 -15.971,-7.151c-4.767,-4.766 -7.15,-10.518 -7.15,-17.255Zm12.845,0c0,-3.139 1.127,-5.851 3.382,-8.135c2.255,-2.283 5.41,-3.425 9.463,-3.425l30.828,0l0,10.276l-30.828,0c-1.713,0 -2.569,0.428 -2.569,1.284c0,0.857 0.856,1.285 2.569,1.285l7.707,0c5.88,0 11.203,2.383 15.97,7.15c4.767,4.767 7.151,10.519 7.151,17.255c0,6.68 -2.384,12.417 -7.151,17.212c-4.767,4.796 -10.09,7.194 -15.97,7.194l-33.397,0l0,-10.276l30.828,0c4.738,0 8.492,-1.399 11.261,-4.196c2.768,-2.798 4.153,-6.109 4.153,-9.934c0,-3.882 -1.385,-7.207 -4.153,-9.976c-2.769,-2.769 -6.523,-4.153 -11.261,-4.153l-5.138,0c-4.053,0 -7.208,-1.128 -9.463,-3.383c-2.255,-2.255 -3.382,-4.981 -3.382,-8.178Z" style="fill:#3b90b9;fill-rule:nonzero;"/>
    <path d="M61.656,23.853c0,-15.414 7.707,-23.121 23.121,-23.121l30.827,0l0,10.276l-30.827,0c-8.564,0 -12.845,4.282 -12.845,12.845l0,28.259c0,8.563 4.281,12.845 12.845,12.845l30.827,0l0,10.276l-30.827,0c-15.414,0 -23.121,-7.707 -23.121,-23.121l0,-28.259Zm12.845,12.845l0,-12.845c0,-6.851 3.425,-10.276 10.276,-10.276l30.827,0l0,10.276l-28.258,0c-1.713,0 -2.569,0.856 -2.569,2.569l23.121,0l0,10.276l-33.397,0Zm0,2.569l33.397,0l0,10.276l-23.121,0c0,1.712 0.856,2.569 2.569,2.569l28.258,0l0,10.276l-30.827,0c-6.851,0 -10.276,-3.426 -10.276,-10.276l0,-12.845Z" style="fill:#3b90b9;fill-rule:nonzero;"/>
    <path d="M120.742,23.853c0,-15.414 7.707,-23.121 23.121,-23.121l30.828,0l0,10.276l-30.828,0c-8.563,0 -12.845,4.282 -12.845,12.845l0,28.259c0,8.563 4.282,12.845 12.845,12.845l20.552,0l0,-28.259l-17.983,0l0,-10.276l28.259,0l0,48.811l-30.828,0c-15.414,0 -23.121,-7.707 -23.121,-23.121l0,-28.259Zm12.845,0c0,-6.851 3.426,-10.276 10.276,-10.276l30.828,0l0,10.276l-28.259,0c-1.712,0 -2.569,0.856 -2.569,2.569l0,23.121c0,1.712 0.857,2.569 2.569,2.569l5.138,0l0,-2.569l-5.138,0l0,-10.276l15.414,0l0,23.121l-17.983,0c-6.85,0 -10.276,-3.426 -10.276,-10.276l0,-28.259Z" style="fill:#3b90b9;fill-rule:nonzero;"/>
    <path d="M202.522,64.957l30.4,0l-20.552,-52.236c-0.571,-1.142 -1.713,-1.713 -3.426,-1.713c-1.427,0 -2.569,0.571 -3.425,1.713l-23.121,62.512l-10.276,0l23.977,-65.938c2.855,-5.709 7.137,-8.563 12.845,-8.563c6.566,0 10.847,2.854 12.845,8.563l24.834,65.938l-44.101,0l0,-10.276Zm0,-2.569l0,-5.566l-7.279,18.411l-10.276,0l22.265,-59.943c0.285,-1.142 0.856,-1.713 1.712,-1.713c0.857,0 1.428,0.571 1.713,1.713l17.983,47.098l-26.118,0Zm6.422,-22.265l-4.709,11.989l9.419,0l-4.71,-11.989Z" style="fill:#3b90b9;fill-rule:nonzero;"/>
    <path d="M277.12,53.339c-0.789,-0.639 -1.895,-0.959 -3.317,-0.959l-5.616,0l0,8.493l5.616,0c1.422,0 2.528,-0.346 3.317,-1.038c0.789,-0.691 1.184,-1.787 1.184,-3.287c0,-1.5 -0.395,-2.57 -1.184,-3.209Zm4.569,10.39c-1.722,1.409 -4.181,2.114 -7.377,2.114l-6.125,0l0,10.37l-5.987,0l0,-28.842l12.562,0c2.896,0 5.205,0.744 6.927,2.231c1.722,1.487 2.583,3.789 2.583,6.907c0,3.405 -0.861,5.812 -2.583,7.22Z" style="fill:#cbcec7;fill-rule:nonzero;"/>
    <path d="M293.752,60.129c-0.711,0.809 -1.158,1.905 -1.34,3.287l8.668,0c-0.091,-1.474 -0.538,-2.592 -1.34,-3.356c-0.803,-0.763 -1.797,-1.144 -2.984,-1.144c-1.292,0 -2.293,0.404 -3.004,1.213Zm7.798,-4.814c1.421,0.666 2.595,1.716 3.522,3.151c0.835,1.265 1.376,2.733 1.624,4.402c0.143,0.979 0.202,2.388 0.176,4.227l-14.597,0c0.078,2.139 0.75,3.639 2.015,4.5c0.77,0.535 1.696,0.803 2.779,0.803c1.148,0 2.08,-0.326 2.798,-0.979c0.391,-0.352 0.737,-0.841 1.037,-1.467l5.694,0c-0.144,1.265 -0.802,2.55 -1.976,3.855c-1.827,2.074 -4.383,3.111 -7.671,3.111c-2.713,0 -5.107,-0.874 -7.181,-2.622c-2.074,-1.748 -3.111,-4.592 -3.111,-8.532c0,-3.691 0.936,-6.522 2.808,-8.492c1.872,-1.97 4.301,-2.955 7.289,-2.955c1.774,0 3.372,0.333 4.794,0.998Z" style="fill:#cbcec7;fill-rule:nonzero;"/>
    <path d="M322.477,54.386c0.072,0.006 0.231,0.016 0.479,0.029l0,5.714c-0.352,-0.039 -0.665,-0.065 -0.939,-0.078c-0.274,-0.013 -0.496,-0.02 -0.665,-0.02c-2.244,0 -3.751,0.731 -4.52,2.192c-0.431,0.822 -0.646,2.087 -0.646,3.796l0,10.194l-5.616,0l0,-21.328l5.322,0l0,3.718c0.861,-1.422 1.611,-2.394 2.251,-2.916c1.043,-0.874 2.4,-1.311 4.07,-1.311c0.104,0 0.192,0.003 0.264,0.01Z" style="fill:#cbcec7;fill-rule:nonzero;"/>
    <path d="M330.568,69.404c0.117,0.991 0.372,1.696 0.763,2.113c0.691,0.744 1.97,1.116 3.835,1.116c1.096,0 1.967,-0.164 2.612,-0.49c0.646,-0.326 0.969,-0.815 0.969,-1.467c0,-0.626 -0.261,-1.103 -0.783,-1.429c-0.521,-0.326 -2.459,-0.887 -5.811,-1.682c-2.413,-0.6 -4.116,-1.351 -5.107,-2.251c-0.992,-0.887 -1.487,-2.165 -1.487,-3.835c0,-1.97 0.773,-3.662 2.318,-5.078c1.546,-1.415 3.721,-2.123 6.526,-2.123c2.661,0 4.83,0.532 6.506,1.595c1.676,1.063 2.639,2.899 2.886,5.508l-5.576,0c-0.079,-0.717 -0.281,-1.285 -0.607,-1.702c-0.613,-0.757 -1.657,-1.135 -3.131,-1.135c-1.213,0 -2.077,0.189 -2.592,0.567c-0.516,0.379 -0.773,0.822 -0.773,1.331c0,0.639 0.274,1.102 0.822,1.389c0.547,0.3 2.485,0.816 5.811,1.546c2.218,0.522 3.881,1.311 4.99,2.368c1.096,1.069 1.643,2.407 1.643,4.011c0,2.113 -0.786,3.839 -2.357,5.176c-1.572,1.337 -4.002,2.005 -7.289,2.005c-3.353,0 -5.828,-0.707 -7.426,-2.123c-1.598,-1.415 -2.397,-3.219 -2.397,-5.41l5.655,0Z" style="fill:#cbcec7;fill-rule:nonzero;"/>
    <path d="M361.836,70.539c0.874,-1.161 1.311,-2.811 1.311,-4.951c0,-2.139 -0.437,-3.786 -1.311,-4.94c-0.874,-1.155 -2.126,-1.732 -3.756,-1.732c-1.631,0 -2.887,0.577 -3.767,1.732c-0.881,1.154 -1.321,2.801 -1.321,4.94c0,2.14 0.44,3.79 1.321,4.951c0.88,1.161 2.136,1.741 3.767,1.741c1.63,0 2.882,-0.58 3.756,-1.741Zm4.462,3.082c-1.8,2.224 -4.533,3.336 -8.199,3.336c-3.665,0 -6.398,-1.112 -8.199,-3.336c-1.8,-2.225 -2.7,-4.902 -2.7,-8.033c0,-3.078 0.9,-5.746 2.7,-8.003c1.801,-2.257 4.534,-3.385 8.199,-3.385c3.666,0 6.399,1.128 8.199,3.385c1.8,2.257 2.7,4.925 2.7,8.003c0,3.131 -0.9,5.808 -2.7,8.033Z" style="fill:#cbcec7;fill-rule:nonzero;"/>
    <path d="M390.219,56.108c1.402,1.154 2.103,3.069 2.103,5.743l0,14.362l-5.713,0l0,-12.973c0,-1.122 -0.15,-1.983 -0.45,-2.583c-0.548,-1.095 -1.592,-1.643 -3.131,-1.643c-1.892,0 -3.19,0.802 -3.894,2.406c-0.365,0.848 -0.548,1.931 -0.548,3.249l0,11.544l-5.557,0l0,-21.289l5.381,0l0,3.111c0.717,-1.095 1.396,-1.885 2.035,-2.367c1.148,-0.861 2.602,-1.292 4.364,-1.292c2.204,0 4.008,0.577 5.41,1.732Z" style="fill:#cbcec7;fill-rule:nonzero;"/>
    <path d="M409.229,65.843c-0.353,0.221 -0.708,0.401 -1.067,0.538c-0.359,0.137 -0.851,0.264 -1.477,0.381l-1.253,0.235c-1.174,0.209 -2.015,0.463 -2.524,0.763c-0.861,0.509 -1.291,1.298 -1.291,2.368c0,0.952 0.264,1.64 0.792,2.064c0.529,0.424 1.171,0.636 1.928,0.636c1.2,0 2.305,-0.352 3.316,-1.056c1.011,-0.705 1.536,-1.99 1.576,-3.855l0,-2.074Zm-3.386,-2.603c1.031,-0.13 1.768,-0.293 2.211,-0.489c0.796,-0.339 1.194,-0.867 1.194,-1.585c0,-0.874 -0.303,-1.477 -0.91,-1.81c-0.606,-0.333 -1.497,-0.499 -2.671,-0.499c-1.317,0 -2.25,0.326 -2.798,0.978c-0.391,0.483 -0.652,1.135 -0.783,1.957l-5.381,0c0.118,-1.865 0.64,-3.398 1.566,-4.598c1.474,-1.879 4.005,-2.818 7.592,-2.818c2.335,0 4.409,0.463 6.222,1.389c1.814,0.927 2.72,2.675 2.72,5.245l0,9.783c0,0.679 0.013,1.5 0.039,2.466c0.039,0.73 0.15,1.226 0.333,1.487c0.183,0.261 0.457,0.476 0.822,0.645l0,0.822l-6.066,0c-0.17,-0.43 -0.287,-0.835 -0.352,-1.213c-0.065,-0.378 -0.118,-0.809 -0.157,-1.291c-0.769,0.835 -1.656,1.546 -2.661,2.133c-1.2,0.691 -2.557,1.037 -4.07,1.037c-1.931,0 -3.525,-0.552 -4.784,-1.654c-1.259,-1.102 -1.888,-2.664 -1.888,-4.686c0,-2.622 1.011,-4.52 3.033,-5.694c1.108,-0.639 2.739,-1.096 4.891,-1.37l1.898,-0.235Z" style="fill:#cbcec7;fill-rule:nonzero;"/>
    <rect x="419.873" y="47.371" width="5.577" height="28.842" style="fill:#cbcec7;fill-rule:nonzero;"/>
    <path d="M445.272,50.384c2.348,-2.374 5.335,-3.561 8.961,-3.561c4.853,0 8.401,1.592 10.645,4.775c1.239,1.787 1.905,3.58 1.996,5.381l-6.027,0c-0.391,-1.383 -0.893,-2.427 -1.507,-3.131c-1.095,-1.252 -2.719,-1.879 -4.872,-1.879c-2.191,0 -3.92,0.884 -5.185,2.652c-1.266,1.767 -1.898,4.269 -1.898,7.504c0,3.235 0.668,5.658 2.005,7.269c1.338,1.611 3.037,2.417 5.098,2.417c2.113,0 3.724,-0.692 4.833,-2.074c0.613,-0.744 1.122,-1.859 1.526,-3.346l5.968,0c-0.522,3.143 -1.855,5.7 -4.001,7.67c-2.146,1.97 -4.895,2.955 -8.248,2.955c-4.148,0 -7.409,-1.331 -9.784,-3.992c-2.374,-2.674 -3.561,-6.34 -3.561,-10.997c0,-5.035 1.35,-8.916 4.051,-11.643Z" style="fill:#cbcec7;fill-rule:nonzero;"/>
    <path d="M484.289,70.539c0.874,-1.161 1.311,-2.811 1.311,-4.951c0,-2.139 -0.437,-3.786 -1.311,-4.94c-0.874,-1.155 -2.127,-1.732 -3.757,-1.732c-1.631,0 -2.886,0.577 -3.767,1.732c-0.88,1.154 -1.321,2.801 -1.321,4.94c0,2.14 0.441,3.79 1.321,4.951c0.881,1.161 2.136,1.741 3.767,1.741c1.63,0 2.883,-0.58 3.757,-1.741Zm4.461,3.082c-1.8,2.224 -4.533,3.336 -8.199,3.336c-3.665,0 -6.398,-1.112 -8.198,-3.336c-1.8,-2.225 -2.701,-4.902 -2.701,-8.033c0,-3.078 0.901,-5.746 2.701,-8.003c1.8,-2.257 4.533,-3.385 8.198,-3.385c3.666,0 6.399,1.128 8.199,3.385c1.8,2.257 2.7,4.925 2.7,8.003c0,3.131 -0.9,5.808 -2.7,8.033Z" style="fill:#cbcec7;fill-rule:nonzero;"/>
    <path d="M522.054,54.963c0.913,0.365 1.741,1.005 2.485,1.918c0.6,0.743 1.004,1.657 1.213,2.739c0.13,0.718 0.196,1.768 0.196,3.151l-0.04,13.442l-5.713,0l0,-13.579c0,-0.809 -0.131,-1.474 -0.392,-1.996c-0.495,-0.992 -1.408,-1.487 -2.739,-1.487c-1.539,0 -2.602,0.639 -3.189,1.917c-0.3,0.679 -0.45,1.494 -0.45,2.446l0,12.699l-5.616,0l0,-12.699c0,-1.265 -0.131,-2.185 -0.392,-2.759c-0.469,-1.03 -1.389,-1.546 -2.759,-1.546c-1.591,0 -2.661,0.516 -3.209,1.546c-0.3,0.587 -0.45,1.461 -0.45,2.622l0,12.836l-5.655,0l0,-21.289l5.42,0l0,3.111c0.692,-1.109 1.344,-1.898 1.957,-2.367c1.083,-0.835 2.485,-1.253 4.207,-1.253c1.631,0 2.948,0.359 3.953,1.077c0.809,0.665 1.422,1.519 1.839,2.563c0.731,-1.252 1.637,-2.172 2.72,-2.759c1.148,-0.587 2.426,-0.881 3.835,-0.881c0.939,0 1.866,0.183 2.779,0.548Z" style="fill:#cbcec7;fill-rule:nonzero;"/>
    <path d="M544.644,61.186c-0.75,-1.266 -1.966,-1.898 -3.649,-1.898c-2.022,0 -3.411,0.958 -4.168,2.876c-0.391,1.017 -0.587,2.309 -0.587,3.874c0,2.479 0.659,4.22 1.976,5.225c0.783,0.587 1.709,0.88 2.779,0.88c1.552,0 2.736,-0.6 3.551,-1.8c0.816,-1.2 1.223,-2.798 1.223,-4.794c0,-1.644 -0.375,-3.098 -1.125,-4.363Zm4.285,-4.012c1.729,1.84 2.593,4.54 2.593,8.101c0,3.757 -0.845,6.62 -2.534,8.59c-1.689,1.97 -3.864,2.955 -6.526,2.955c-1.695,0 -3.104,-0.424 -4.226,-1.272c-0.613,-0.47 -1.213,-1.154 -1.8,-2.055l0,11.115l-5.518,0l0,-29.723l5.342,0l0,3.15c0.6,-0.926 1.239,-1.656 1.917,-2.191c1.239,-0.953 2.714,-1.429 4.422,-1.429c2.492,0 4.602,0.92 6.33,2.759Z" style="fill:#cbcec7;fill-rule:nonzero;"/>
    <path d="M561.11,54.885l0,12.856c0,1.213 0.144,2.126 0.431,2.739c0.508,1.083 1.506,1.624 2.993,1.624c1.905,0 3.209,-0.769 3.914,-2.309c0.365,-0.835 0.548,-1.937 0.548,-3.307l0,-11.603l5.655,0l0,21.328l-5.42,0l0,-3.013c-0.053,0.065 -0.183,0.261 -0.392,0.587c-0.209,0.326 -0.456,0.613 -0.743,0.861c-0.874,0.783 -1.719,1.317 -2.534,1.604c-0.816,0.287 -1.771,0.431 -2.867,0.431c-3.157,0 -5.283,-1.135 -6.379,-3.405c-0.613,-1.252 -0.92,-3.098 -0.92,-5.537l0,-12.856l5.714,0Z" style="fill:#cbcec7;fill-rule:nonzero;"/>
    <path d="M577.84,59.053l0,-3.972l2.974,0l0,-5.949l5.518,0l0,5.949l3.464,0l0,3.972l-3.464,0l0,11.271c0,0.874 0.111,1.418 0.333,1.633c0.222,0.216 0.9,0.323 2.035,0.323c0.17,0 0.349,-0.003 0.538,-0.009c0.189,-0.007 0.375,-0.017 0.558,-0.03l0,4.168l-2.642,0.098c-2.635,0.091 -4.435,-0.365 -5.4,-1.37c-0.627,-0.639 -0.94,-1.624 -0.94,-2.955l0,-13.129l-2.974,0Z" style="fill:#cbcec7;fill-rule:nonzero;"/>
    <path d="M598.787,60.129c-0.711,0.809 -1.158,1.905 -1.34,3.287l8.668,0c-0.091,-1.474 -0.538,-2.592 -1.34,-3.356c-0.803,-0.763 -1.797,-1.144 -2.984,-1.144c-1.292,0 -2.293,0.404 -3.004,1.213Zm7.798,-4.814c1.421,0.666 2.595,1.716 3.522,3.151c0.835,1.265 1.376,2.733 1.624,4.402c0.143,0.979 0.202,2.388 0.176,4.227l-14.597,0c0.078,2.139 0.75,3.639 2.015,4.5c0.77,0.535 1.696,0.803 2.779,0.803c1.148,0 2.08,-0.326 2.798,-0.979c0.391,-0.352 0.737,-0.841 1.037,-1.467l5.694,0c-0.144,1.265 -0.802,2.55 -1.976,3.855c-1.827,2.074 -4.383,3.111 -7.671,3.111c-2.713,0 -5.107,-0.874 -7.181,-2.622c-2.074,-1.748 -3.111,-4.592 -3.111,-8.532c0,-3.691 0.936,-6.522 2.808,-8.492c1.872,-1.97 4.301,-2.955 7.289,-2.955c1.774,0 3.372,0.333 4.794,0.998Z" style="fill:#cbcec7;fill-rule:nonzero;"/>
    <path d="M627.512,54.386c0.072,0.006 0.231,0.016 0.479,0.029l0,5.714c-0.352,-0.039 -0.665,-0.065 -0.939,-0.078c-0.274,-0.013 -0.496,-0.02 -0.665,-0.02c-2.244,0 -3.751,0.731 -4.52,2.192c-0.431,0.822 -0.646,2.087 -0.646,3.796l0,10.194l-5.616,0l0,-21.328l5.322,0l0,3.718c0.861,-1.422 1.611,-2.394 2.251,-2.916c1.043,-0.874 2.4,-1.311 4.07,-1.311c0.104,0 0.192,0.003 0.264,0.01Z" style="fill:#cbcec7;fill-rule:nonzero;"/>
</svg>
