<?xml version="1.0" encoding="UTF-8" standalone="no"?>
<!DOCTYPE svg PUBLIC "-//W3C//DTD SVG 1.1//EN" "http://www.w3.org/Graphics/SVG/1.1/DTD/svg11.dtd">
<svg width="629px" height="156px" version="1.1" xmlns="http://www.w3.org/2000/svg" xmlns:xlink="http://www.w3.org/1999/xlink" xml:space="preserve" style="fill-rule:evenodd;clip-rule:evenodd;stroke-linejoin:round;stroke-miterlimit:1.41421;">
    <defs>
        <linearGradient id="_Linear1" x1="0" y1="0" x2="1" y2="0" gradientUnits="userSpaceOnUse" gradientTransform="matrix(6.43041e-15,105.017,-105.017,6.43041e-15,284.719,9.16728)"><stop offset="0" style="stop-color:#d9dde9;stop-opacity:1"/><stop offset="0.39" style="stop-color:#777489;stop-opacity:1"/><stop offset="0.98" style="stop-color:#d9dde9;stop-opacity:1"/><stop offset="1" style="stop-color:#d9dde9;stop-opacity:1"/></linearGradient>
        <linearGradient id="_Linear2" x1="0" y1="0" x2="1" y2="0" gradientUnits="userSpaceOnUse" gradientTransform="matrix(49.5118,49.5118,-49.5118,49.5118,197.37,48.2288)"><stop offset="0" style="stop-color:#d9dde9;stop-opacity:1"/><stop offset="0.39" style="stop-color:#777489;stop-opacity:1"/><stop offset="0.98" style="stop-color:#d9dde9;stop-opacity:1"/><stop offset="1" style="stop-color:#d9dde9;stop-opacity:1"/></linearGradient>
        <linearGradient id="_Linear3" x1="0" y1="0" x2="1" y2="0" gradientUnits="userSpaceOnUse" gradientTransform="matrix(48.0311,48.0312,-48.0312,48.0311,198.266,49.0072)"><stop offset="0" style="stop-color:#000;stop-opacity:1"/><stop offset="0.11" style="stop-color:#181c4e;stop-opacity:1"/><stop offset="0.22" style="stop-color:#181818;stop-opacity:1"/><stop offset="0.34" style="stop-color:#181c4e;stop-opacity:1"/><stop offset="0.47" style="stop-color:#000;stop-opacity:1"/><stop offset="0.59" style="stop-color:#181c4e;stop-opacity:1"/><stop offset="0.72" style="stop-color:#000;stop-opacity:1"/><stop offset="0.84" style="stop-color:#181c4e;stop-opacity:1"/><stop offset="0.98" style="stop-color:#000;stop-opacity:1"/><stop offset="1" style="stop-color:#000;stop-opacity:1"/></linearGradient>
        <linearGradient id="_Linear4" x1="0" y1="0" x2="1" y2="0" gradientUnits="userSpaceOnUse" gradientTransform="matrix(50.2421,53.4464,-53.4464,50.2421,426.084,59.637)"><stop offset="0" style="stop-color:#d9dde9;stop-opacity:1"/><stop offset="0.39" style="stop-color:#777489;stop-opacity:1"/><stop offset="0.98" style="stop-color:#d9dde9;stop-opacity:1"/><stop offset="1" style="stop-color:#d9dde9;stop-opacity:1"/></linearGradient>
        <linearGradient id="_Linear5" x1="0" y1="0" x2="1" y2="0" gradientUnits="userSpaceOnUse" gradientTransform="matrix(48.2056,51.2801,-51.2801,48.2056,426.786,60.3831)"><stop offset="0" style="stop-color:#000;stop-opacity:1"/><stop offset="0.11" style="stop-color:#181c4e;stop-opacity:1"/><stop offset="0.22" style="stop-color:#181818;stop-opacity:1"/><stop offset="0.34" style="stop-color:#181c4e;stop-opacity:1"/><stop offset="0.47" style="stop-color:#000;stop-opacity:1"/><stop offset="0.59" style="stop-color:#181c4e;stop-opacity:1"/><stop offset="0.72" style="stop-color:#000;stop-opacity:1"/><stop offset="0.84" style="stop-color:#181c4e;stop-opacity:1"/><stop offset="0.98" style="stop-color:#000;stop-opacity:1"/><stop offset="1" style="stop-color:#000;stop-opacity:1"/></linearGradient>
        <linearGradient id="_Linear6" x1="0" y1="0" x2="1" y2="0" gradientUnits="userSpaceOnUse" gradientTransform="matrix(49.8088,49.8086,-49.8086,49.8088,277.075,48.5677)"><stop offset="0" style="stop-color:#d9dde9;stop-opacity:1"/><stop offset="0.39" style="stop-color:#777489;stop-opacity:1"/><stop offset="0.98" style="stop-color:#d9dde9;stop-opacity:1"/><stop offset="1" style="stop-color:#d9dde9;stop-opacity:1"/></linearGradient>
        <linearGradient id="_Linear7" x1="0" y1="0" x2="1" y2="0" gradientUnits="userSpaceOnUse" gradientTransform="matrix(47.9585,47.9585,-47.9585,47.9585,278.195,49.6634)"><stop offset="0" style="stop-color:#000;stop-opacity:1"/><stop offset="0.11" style="stop-color:#181c4e;stop-opacity:1"/><stop offset="0.22" style="stop-color:#181818;stop-opacity:1"/><stop offset="0.34" style="stop-color:#181c4e;stop-opacity:1"/><stop offset="0.47" style="stop-color:#000;stop-opacity:1"/><stop offset="0.59" style="stop-color:#181c4e;stop-opacity:1"/><stop offset="0.72" style="stop-color:#000;stop-opacity:1"/><stop offset="0.84" style="stop-color:#181c4e;stop-opacity:1"/><stop offset="0.98" style="stop-color:#000;stop-opacity:1"/><stop offset="1" style="stop-color:#000;stop-opacity:1"/></linearGradient>
        <linearGradient id="_Linear8" x1="0" y1="0" x2="1" y2="0" gradientUnits="userSpaceOnUse" gradientTransform="matrix(49.5326,49.5324,-49.5324,49.5326,117.804,48.8402)"><stop offset="0" style="stop-color:#d9dde9;stop-opacity:1"/><stop offset="0.39" style="stop-color:#777489;stop-opacity:1"/><stop offset="0.98" style="stop-color:#d9dde9;stop-opacity:1"/><stop offset="1" style="stop-color:#d9dde9;stop-opacity:1"/></linearGradient>
        <linearGradient id="_Linear9" x1="0" y1="0" x2="1" y2="0" gradientUnits="userSpaceOnUse" gradientTransform="matrix(48.1258,48.1258,-48.1258,48.1258,118.656,49.6712)"><stop offset="0" style="stop-color:#000;stop-opacity:1"/><stop offset="0.11" style="stop-color:#181c4e;stop-opacity:1"/><stop offset="0.22" style="stop-color:#181818;stop-opacity:1"/><stop offset="0.34" style="stop-color:#181c4e;stop-opacity:1"/><stop offset="0.47" style="stop-color:#000;stop-opacity:1"/><stop offset="0.59" style="stop-color:#181c4e;stop-opacity:1"/><stop offset="0.72" style="stop-color:#000;stop-opacity:1"/><stop offset="0.84" style="stop-color:#181c4e;stop-opacity:1"/><stop offset="0.98" style="stop-color:#000;stop-opacity:1"/><stop offset="1" style="stop-color:#000;stop-opacity:1"/></linearGradient>
        <linearGradient id="_Linear10" x1="0" y1="0" x2="1" y2="0" gradientUnits="userSpaceOnUse" gradientTransform="matrix(48.8753,48.8754,-48.8754,48.8753,41.5674,52.97)"><stop offset="0" style="stop-color:#d9dde9;stop-opacity:1"/><stop offset="0.39" style="stop-color:#777489;stop-opacity:1"/><stop offset="0.98" style="stop-color:#d9dde9;stop-opacity:1"/><stop offset="1" style="stop-color:#d9dde9;stop-opacity:1"/></linearGradient>
        <linearGradient id="_Linear11" x1="0" y1="0" x2="1" y2="0" gradientUnits="userSpaceOnUse" gradientTransform="matrix(47.5115,47.5115,-47.5115,47.5115,42.2622,53.6673)"><stop offset="0" style="stop-color:#000;stop-opacity:1"/><stop offset="0.11" style="stop-color:#181c4e;stop-opacity:1"/><stop offset="0.22" style="stop-color:#181818;stop-opacity:1"/><stop offset="0.34" style="stop-color:#181c4e;stop-opacity:1"/><stop offset="0.47" style="stop-color:#000;stop-opacity:1"/><stop offset="0.59" style="stop-color:#181c4e;stop-opacity:1"/><stop offset="0.72" style="stop-color:#000;stop-opacity:1"/><stop offset="0.84" style="stop-color:#181c4e;stop-opacity:1"/><stop offset="0.98" style="stop-color:#000;stop-opacity:1"/><stop offset="1" style="stop-color:#000;stop-opacity:1"/></linearGradient>
        <linearGradient id="_Linear12" x1="0" y1="0" x2="1" y2="0" gradientUnits="userSpaceOnUse" gradientTransform="matrix(72.293,0,0,72.293,351.558,78.037)"><stop offset="0" style="stop-color:#d9dde9;stop-opacity:1"/><stop offset="0.39" style="stop-color:#777489;stop-opacity:1"/><stop offset="0.98" style="stop-color:#d9dde9;stop-opacity:1"/><stop offset="1" style="stop-color:#d9dde9;stop-opacity:1"/></linearGradient>
        <linearGradient id="_Linear13" x1="0" y1="0" x2="1" y2="0" gradientUnits="userSpaceOnUse" gradientTransform="matrix(49.0167,49.0165,-49.0165,49.0167,358.002,48.3353)"><stop offset="0" style="stop-color:#000;stop-opacity:1"/><stop offset="0.11" style="stop-color:#181c4e;stop-opacity:1"/><stop offset="0.22" style="stop-color:#181818;stop-opacity:1"/><stop offset="0.34" style="stop-color:#181c4e;stop-opacity:1"/><stop offset="0.47" style="stop-color:#000;stop-opacity:1"/><stop offset="0.59" style="stop-color:#181c4e;stop-opacity:1"/><stop offset="0.72" style="stop-color:#000;stop-opacity:1"/><stop offset="0.84" style="stop-color:#181c4e;stop-opacity:1"/><stop offset="0.98" style="stop-color:#000;stop-opacity:1"/><stop offset="1" style="stop-color:#000;stop-opacity:1"/></linearGradient>
        <linearGradient id="_Linear14" x1="0" y1="0" x2="1" y2="0" gradientUnits="userSpaceOnUse" gradientTransform="matrix(50.9102,50.9102,-50.9102,50.9102,468.211,47.1878)"><stop offset="0" style="stop-color:#d9dde9;stop-opacity:1"/><stop offset="0.39" style="stop-color:#777489;stop-opacity:1"/><stop offset="0.98" style="stop-color:#d9dde9;stop-opacity:1"/><stop offset="1" style="stop-color:#d9dde9;stop-opacity:1"/></linearGradient>
        <linearGradient id="_Linear15" x1="0" y1="0" x2="1" y2="0" gradientUnits="userSpaceOnUse" gradientTransform="matrix(49.0173,49.0172,-49.0172,49.0173,469.357,48.3353)"><stop offset="0" style="stop-color:#000;stop-opacity:1"/><stop offset="0.11" style="stop-color:#181c4e;stop-opacity:1"/><stop offset="0.22" style="stop-color:#181818;stop-opacity:1"/><stop offset="0.34" style="stop-color:#181c4e;stop-opacity:1"/><stop offset="0.47" style="stop-color:#000;stop-opacity:1"/><stop offset="0.59" style="stop-color:#181c4e;stop-opacity:1"/><stop offset="0.72" style="stop-color:#000;stop-opacity:1"/><stop offset="0.84" style="stop-color:#181c4e;stop-opacity:1"/><stop offset="0.98" style="stop-color:#000;stop-opacity:1"/><stop offset="1" style="stop-color:#000;stop-opacity:1"/></linearGradient>
    </defs>
    <g>
        <path d="M534.056,36.457l-0.229,-0.132l-184.484,0l-19.022,-32.721l-90.947,0l-19.027,32.721l-185.241,0l-35.106,19.884l0,43.654l34.88,19.759l0.228,0.127l498.717,0l34.85,-19.741l0.254,-0.145l0,-43.652l-34.873,-19.754Z" style="fill-rule:nonzero;"/>
        <path d="M1,56.792l0,42.489l34.37,19.468l498.19,0l34.369,-19.468l0,-42.487l-34.369,-19.47l-184.793,0l-19.023,-32.72l-89.796,0l-19.025,32.72l-185.553,0l-34.37,19.468Z" style="fill:#ced1dd;fill-rule:nonzero;"/>
        <path id="path14" d="M345.724,41.89l-19.023,-32.722l-0.252,0l-83.458,0l-0.25,0l-19.025,32.723l-185.939,0l-32.212,18.073l0,36.148l32.212,18.072l493.885,0l32.211,-18.072l0,-36.148l-32.211,-18.072l-185.938,-0.002Z" style="fill:url(#_Linear1);fill-rule:nonzero;"/>
        <path id="path16" d="M310.46,18.073l-7.131,21.726l3.521,0l7.146,-20.979c0.26,-0.959 1.043,-1.659 1.963,-1.659c0.931,0 1.713,0.7 1.974,1.659l6.041,17.746l-9.479,0l0,3.232l14.105,0l-7.132,-21.726c-0.684,-2.396 -2.893,-4.146 -5.51,-4.146c-2.607,-0.001 -4.812,1.749 -5.498,4.147Zm4.178,13.492l1.248,-3.706l1.301,3.706l-2.549,0Zm-0.517,-10.638l-6.387,18.872l4.117,0l2.643,-7.822l0,3.697l8.295,0l-4.926,-14.747c-0.25,-0.821 -0.996,-3.182 -1.873,-3.182c-0.881,0 -1.627,2.36 -1.869,3.182Zm-22.549,-2.885l12.344,0l0,-3.53l-12.639,0c-3.408,0 -6.172,2.771 -6.172,6.18l0,12.936c0,3.409 2.764,6.172 6.172,6.172l12.639,0l0,-16.47l-9.992,0l0,3.234l6.461,0l0,9.702l-8.813,0c-1.627,0 -2.936,-1.315 -2.936,-2.938l0,-12.35c-0.002,-1.619 1.309,-2.936 2.936,-2.936Zm2.351,9.406l0,3.531l2.055,0l0,0.882l-2.055,0c-0.486,0 -0.883,-0.396 -0.883,-0.882l0,-7.648c0,-0.486 0.396,-0.883 0.883,-0.883l9.992,0l0,-3.524l-11.461,0c-1.627,0 -2.945,1.316 -2.945,2.938l0,10.585c0,1.622 1.318,2.938 2.945,2.938l7.055,0l0,-7.938l-5.586,0.001Zm-22.631,-9.406l12.344,0l0,-3.53l-12.641,0c-3.408,0 -6.17,2.771 -6.17,6.18l0,12.792c0,3.408 2.762,6.179 6.17,6.179l12.641,0l0,-3.531l-12.344,0c-1.621,0 -2.938,-1.314 -2.938,-2.938l0,-12.214c0,-1.621 1.317,-2.938 2.938,-2.938Zm9.695,8.523l0,-3.234l-8.227,0c0,-0.486 0.395,-0.883 0.883,-0.883l9.992,0l0,-3.524l-11.461,0c-1.621,0 -2.936,1.316 -2.936,2.938l0,4.703l11.749,0Zm0,1.179l0,3.234l-8.227,0c0,0.485 0.395,0.882 0.883,0.882l9.992,0l0,3.522l-11.461,0c-1.621,0 -2.936,-1.314 -2.936,-2.938l0,-4.703l11.749,0.003Zm-30.203,4.407l-7.412,0l0,3.233l11.459,0c2.123,-0.076 3.82,-1.827 3.82,-3.966c0,-2.189 -1.773,-3.972 -3.965,-3.972l-4.459,0c-1.803,-0.686 -3.334,-2.474 -3.334,-4.559c0,-2.679 2.467,-4.848 5.145,-4.848l11.027,0l0,-3.528l-11.469,0c-4.541,0 -8.225,3.69 -8.225,8.233c0,4.55 3.979,8.234 8.521,8.234l0,-0.038l0.023,0.038l2.625,0c0.32,0 0.586,0.259 0.586,0.586c0,0.326 -0.268,0.586 -0.586,0.586l-3.756,0l0,0.001Zm4.862,-9.993l7.42,0l0,-3.234l-11.316,0l-0.152,0c-2.123,0.076 -3.818,1.827 -3.818,3.966c0,2.198 1.779,3.973 3.973,3.973l4.459,0c1.803,0.692 3.326,2.473 3.326,4.558c0,2.68 -2.465,4.849 -5.146,4.849l-11.018,0l0,3.53l11.459,0c4.545,0 8.234,-3.683 8.234,-8.232c0,-4.543 -3.979,-8.234 -8.523,-8.234l0,0.046l-0.029,-0.045l-2.619,0c-0.328,0 -0.586,-0.259 -0.586,-0.586c0,-0.319 0.258,-0.586 0.586,-0.586l3.75,-0.005Z" style="fill:#202066;fill-rule:nonzero;"/>
        <g>
            <path id="polygon37" d="M261.669,52.037l0,52.173l-17.568,0l0,-19.273l-33.672,-19.162l0,38.435l-17.569,0l0,-52.173l18.301,0l32.94,18.74l0,-18.74l17.568,0Z" style="fill:url(#_Linear2);fill-rule:nonzero;"/>
            <path id="polygon37_1_" d="M260.698,52.76l0,50.493l-17.072,0l0,-18.654l-32.723,-18.545l0,37.199l-17.073,0l0,-50.493l17.784,0l32.012,18.134l0,-18.134l17.072,0Z" style="fill:url(#_Linear3);fill-rule:nonzero;"/>
        </g>
        <g>
            <rect id="rect58" x="434.251" y="51.783" width="18.262" height="52.509" style="fill:url(#_Linear4);"/>
            <rect id="rect58_1_" x="434.716" y="52.76" width="17.332" height="50.559" style="fill:url(#_Linear5);"/>
        </g>
        <g>
            <path id="polygon79" d="M321.921,62.284l-30.004,0l0,10.502l36.004,0l-17.252,10.502l-18.752,0l0,10.502l48.756,0l-17.252,10.502l-49.506,0l0,-40.506l18.002,-12.003l47.256,0l-17.252,10.501Z" style="fill:url(#_Linear6);fill-rule:nonzero;"/>
            <path id="polygon79_1_" d="M321.378,62.87l-28.89,0l0,10.112l34.668,0l-16.612,10.112l-18.056,0l0,10.11l46.945,0l-16.609,10.114l-47.671,0l0,-39.002l17.335,-11.556l45.502,0l-16.612,10.11Z" style="fill:url(#_Linear7);fill-rule:nonzero;"/>
        </g>
        <g>
            <path id="polygon100" d="M162.399,62.482l-29.836,0l0,10.439l35.803,0l-17.156,10.445l-18.647,0l0,10.442l48.484,0l-17.157,10.443l-49.23,0l0,-40.279l17.903,-11.935l46.992,0l-17.156,10.445Z" style="fill:url(#_Linear8);fill-rule:nonzero;"/>
            <path id="polygon100_1_" d="M161.984,62.923l-28.988,0l0,10.149l34.787,0l-16.67,10.147l-18.117,0l0,10.145l47.108,0l-16.668,10.145l-47.835,0l0,-39.137l17.395,-11.594l45.658,0l-16.67,10.145Z" style="fill:url(#_Linear9);fill-rule:nonzero;"/>
        </g>
        <g>
            <path id="polygon121" d="M30.562,63.976l17.908,-11.939l54.472,0l-17.163,10.449l-37.309,0l0,31.337l33.578,0l0,-12.685l-20.893,0l17.162,-10.445l21.641,0l0,21.638l-17.91,11.94l-51.486,0l0,-40.295Z" style="fill:url(#_Linear10);fill-rule:nonzero;"/>
            <path id="polygon121_1_" d="M31.563,64.364l17.408,-11.604l52.951,0l-16.684,10.155l-36.267,0l0,30.465l32.64,0l0,-12.332l-20.309,0l16.683,-10.154l21.036,0l0,21.035l-17.41,11.605l-50.048,0l0,-39.17Z" style="fill:url(#_Linear11);fill-rule:nonzero;"/>
        </g>
        <g>
            <path d="M423.089,93.638l-17.502,10.654l-54.029,0l17.502,-10.654l34.244,0l0,-10.652l-51.746,0l0,-20.547l17.502,-10.656l54.791,0l-17.502,10.656l-35.767,0l0,9.89l52.507,0l0,21.309Z" style="fill:#c2c4d2;fill-rule:nonzero;"/>
            <path id="polygon142" d="M403.304,93.638l0,-10.652l-51.746,0l0,-20.547l17.502,-10.656l54.791,0l-17.502,10.656l-35.767,0l0,9.89l52.507,0l0,21.309l-17.502,10.654l-54.029,0l17.502,-10.654l34.244,0Z" style="fill:url(#_Linear12);fill-rule:nonzero;"/>
            <path id="polygon142_1_" d="M402.724,93.058l0,-10.256l-49.822,0l0,-19.785l16.851,-10.257l52.754,0l-16.851,10.257l-34.438,0l0,9.525l50.557,0l0,20.516l-16.852,10.26l-52.021,0l16.851,-10.26l32.971,0Z" style="fill:url(#_Linear13);fill-rule:nonzero;"/>
        </g>
        <g>
            <path d="M534.447,93.638l-17.502,10.654l-54.031,0l17.503,-10.654l34.245,0l0,-10.652l-51.748,0l0,-20.547l17.503,-10.656l54.79,0l-17.502,10.656l-35.766,0l0,9.89l52.508,0l0,21.309Z" style="fill:#c2c4d2;fill-rule:nonzero;"/>
            <path id="polygon163" d="M514.662,93.638l0,-10.652l-51.748,0l0,-20.547l17.503,-10.656l54.79,0l-17.502,10.656l-35.766,0l0,9.89l52.508,0l0,21.309l-17.502,10.654l-54.031,0l17.503,-10.654l34.245,0Z" style="fill:url(#_Linear14);fill-rule:nonzero;"/>
            <path id="polygon163_1_" d="M514.082,93.058l0,-10.256l-49.825,0l0,-19.785l16.854,-10.257l52.754,0l-16.854,10.257l-34.435,0l0,9.525l50.556,0l0,20.516l-16.853,10.26l-52.022,0l16.854,-10.26l32.971,0Z" style="fill:url(#_Linear15);fill-rule:nonzero;"/>
        </g>
        <g>
            <path d="M428.426,55.341c0.172,0.097 0.328,0.146 0.467,0.145c0.148,-0.001 0.353,0.128 0.614,0.387c0.261,0.259 0.391,0.462 0.392,0.611c0,0.074 0.038,0.148 0.112,0.222c0,0.074 0.019,0.148 0.057,0.222c0.037,0.074 0.056,0.149 0.056,0.223l-0.22,0.446c0.001,0.297 -0.053,0.687 -0.163,1.17c-0.109,0.483 -0.201,0.724 -0.275,0.725c0,0 -0.074,0.13 -0.221,0.39c-0.147,0.261 -0.332,0.521 -0.553,0.782c-0.222,0.26 -0.443,0.521 -0.665,0.782c-0.222,0.261 -0.369,0.428 -0.443,0.503c-0.074,0.074 -0.129,0.167 -0.166,0.279c-0.037,0.111 -0.092,0.241 -0.165,0.39c-0.074,0.223 -0.184,0.409 -0.332,0.558l0.075,18.036l0.668,-0.003c0.074,0 0.278,-0.038 0.612,-0.114c0.334,-0.076 0.667,-0.133 1.001,-0.171c0.334,-0.039 0.649,-0.096 0.946,-0.171c0.296,-0.076 0.445,-0.113 0.445,-0.113c0.519,-0.077 1.427,-0.248 2.725,-0.513c1.298,-0.265 2.707,-0.531 4.228,-0.797c1.52,-0.266 2.929,-0.513 4.227,-0.741c1.298,-0.228 2.207,-0.38 2.726,-0.457l0.999,-0.561l-0.078,-18.703c0,-0.148 0.184,-0.502 0.553,-1.06c0.368,-0.558 0.663,-1.023 0.884,-1.395l2.994,-3.019c0.148,0 0.482,-0.15 1,-0.449c0.518,-0.299 0.926,-0.487 1.222,-0.562l0.446,-0.002l0.334,-0.001c0.222,-0.001 0.557,0.072 1.002,0.218c0.223,0.073 0.409,0.147 0.558,0.221l0.09,21.598l0.684,3.671l0.077,18.481c0.077,0.741 0.156,1.984 0.238,3.728c0.071,1.526 0.129,3.123 0.172,4.791l0.036,1.439c0.043,1.668 0.101,3.265 0.172,4.79c0.081,1.744 0.161,2.95 0.238,3.618c0,0.074 0.038,0.334 0.114,0.779c0.076,0.445 0.134,0.945 0.173,1.502c0.04,0.556 0.098,1.076 0.174,1.558c0.076,0.482 0.114,0.76 0.115,0.834l0.012,3.006c0.001,0.139 -0.079,0.426 -0.241,0.859l-0.066,0.177c-0.162,0.434 -0.242,0.72 -0.241,0.859c-0.074,0.149 -0.147,0.557 -0.218,1.226c-0.071,0.668 -0.124,1.373 -0.158,2.116c-0.034,0.742 -0.087,1.429 -0.159,2.06c-0.071,0.631 -0.144,0.984 -0.218,1.059c0.001,0.296 -0.053,0.668 -0.162,1.114c-0.11,0.445 -0.238,0.743 -0.386,0.892c-0.074,0.074 -0.185,0.112 -0.334,0.113c-0.148,0.074 -0.37,0.112 -0.667,0.114l-0.026,-6.235c0.001,0.223 -0.016,0.65 -0.05,1.281c-0.035,0.631 -0.088,1.299 -0.159,2.004c-0.071,0.706 -0.143,1.374 -0.214,2.005c-0.072,0.631 -0.144,1.059 -0.218,1.282c0.001,0.222 -0.09,0.557 -0.274,1.003c-0.184,0.446 -0.35,0.669 -0.498,0.67c0,0.074 -0.037,0.148 -0.11,0.223l0,0.111l-0.111,0.001l-0.223,0.001c-0.074,0 -0.112,-0.111 -0.113,-0.334c0,-0.148 -0.077,-0.631 -0.228,-1.446c-0.152,-0.816 -0.229,-1.335 -0.23,-1.558c-0.149,-0.296 -0.3,-0.889 -0.452,-1.779c-0.152,-0.89 -0.229,-1.484 -0.23,-1.781l-1.336,0.006c-0.149,0 -0.353,-0.073 -0.614,-0.22c-0.26,-0.148 -0.391,-0.296 -0.391,-0.444c-0.149,0.001 -0.279,-0.24 -0.393,-0.722c-0.113,-0.482 -0.207,-0.834 -0.283,-1.057c-0.149,-0.296 -0.281,-0.833 -0.396,-1.612c-0.115,-0.779 -0.172,-1.243 -0.173,-1.391c-0.075,-0.297 -0.152,-0.89 -0.23,-1.78c-0.078,-0.891 -0.137,-1.855 -0.179,-2.894c-0.041,-1.039 -0.101,-2.022 -0.179,-2.95c-0.078,-0.927 -0.155,-1.576 -0.231,-1.947c-0.002,-0.52 -0.045,-1.781 -0.127,-3.785c-0.072,-1.753 -0.131,-3.62 -0.176,-5.601l-0.036,-1.711c-0.045,-1.981 -0.104,-3.848 -0.176,-5.601c-0.083,-2.004 -0.125,-3.265 -0.127,-3.785c-0.001,-0.222 -0.021,-0.631 -0.061,-1.224c-0.04,-0.594 -0.098,-1.187 -0.174,-1.781c-0.077,-0.593 -0.135,-1.187 -0.175,-1.78c-0.039,-0.594 -0.06,-1.002 -0.061,-1.225l-1.558,0.007l-1.447,0.006c-0.372,0.001 -1.021,0.078 -1.948,0.231c-0.927,0.152 -1.502,0.229 -1.725,0.229c0.001,0.149 -0.091,0.298 -0.276,0.447c-0.185,0.149 -0.277,0.298 -0.276,0.446c-0.073,0.446 -0.144,1.226 -0.213,2.339c-0.07,1.114 -0.121,2.32 -0.152,3.619c-0.032,1.299 -0.083,2.524 -0.152,3.675c-0.069,1.151 -0.14,1.949 -0.213,2.394c0.001,0.149 -0.034,0.557 -0.106,1.225c-0.071,0.669 -0.124,1.43 -0.157,2.283c-0.034,0.854 -0.086,1.671 -0.157,2.45c-0.071,0.78 -0.106,1.355 -0.104,1.726c0.001,0.223 -0.016,0.631 -0.051,1.225c-0.034,0.594 -0.087,1.225 -0.159,1.894c-0.071,0.668 -0.124,1.281 -0.159,1.837c-0.035,0.557 -0.052,0.91 -0.051,1.058c-0.074,0.223 -0.147,0.539 -0.219,0.947c-0.064,0.358 -0.113,0.729 -0.148,1.115l-0.028,0.333c-0.035,0.385 -0.084,0.757 -0.147,1.114c-0.073,0.409 -0.109,0.687 -0.108,0.836c-0.001,-0.278 -0.085,-0.817 -0.252,-1.617l-0.068,-0.327c-0.167,-0.799 -0.251,-1.338 -0.252,-1.616l-0.006,-1.448l-0.006,-1.558c-0.002,-0.371 0.032,-1.207 0.101,-2.506c0.068,-1.299 0.118,-2.709 0.149,-4.231c0.031,-1.522 0.08,-2.913 0.149,-4.176c0.069,-1.262 0.103,-2.078 0.102,-2.449l-0.043,-10.131l-0.89,0.003c0,0.149 0.02,0.409 0.059,0.779c0.038,0.371 0.077,0.779 0.116,1.225c0.039,0.445 0.078,0.871 0.117,1.279c0.038,0.409 0.058,0.687 0.059,0.835c-0.147,0.298 -0.275,0.818 -0.383,1.56c-0.109,0.743 -0.236,1.226 -0.384,1.449l-0.223,0.001l-0.334,0.002c-0.074,-0.074 -0.205,-0.259 -0.392,-0.555c-0.186,-0.296 -0.28,-0.482 -0.28,-0.556c-0.001,-0.222 0.016,-0.594 0.051,-1.113c0.035,-0.52 0.051,-1.058 0.049,-1.615c-0.003,-0.557 0.014,-1.076 0.049,-1.559c0.035,-0.482 0.052,-0.835 0.051,-1.058c-0.148,0.001 -0.575,-0.034 -1.281,-0.106c-0.705,-0.071 -1.132,-0.106 -1.28,-0.106c-0.223,0.001 -0.631,0.096 -1.224,0.284c-0.593,0.188 -1.001,0.319 -1.223,0.395l0.015,3.562c0.075,0.223 0.17,0.76 0.285,1.613c0.115,0.853 0.249,1.836 0.402,2.949c0.153,1.113 0.288,2.207 0.403,3.283c0.116,1.075 0.212,1.91 0.289,2.503c0.001,0.297 0.059,0.835 0.174,1.614c0.114,0.779 0.248,1.613 0.4,2.503c0.152,0.89 0.286,1.762 0.401,2.615c0.114,0.853 0.173,1.428 0.174,1.725c0,0.148 0.058,0.538 0.172,1.168c0.114,0.63 0.246,1.298 0.398,2.002c0.151,0.705 0.302,1.391 0.454,2.058c0.151,0.668 0.264,1.112 0.339,1.335l0.01,2.449c-0.074,0.075 -0.147,0.186 -0.221,0.335c-0.073,0.149 -0.166,0.279 -0.277,0.391c-0.11,0.112 -0.203,0.205 -0.277,0.279c-0.147,0.298 -0.35,0.67 -0.607,1.116c-0.258,0.446 -0.461,0.744 -0.609,0.893c-0.074,0.149 -0.277,0.391 -0.609,0.726c-0.333,0.336 -0.684,0.69 -1.054,1.063c-0.369,0.372 -0.739,0.726 -1.108,1.062c-0.37,0.335 -0.592,0.578 -0.665,0.726l0.113,27.054l-0.552,1.115c-0.15,-0.222 -0.319,-0.704 -0.508,-1.445c-0.188,-0.741 -0.283,-1.261 -0.284,-1.558c-0.001,-0.222 -0.04,-0.63 -0.117,-1.224c-0.076,-0.593 -0.135,-1.205 -0.174,-1.836c-0.04,-0.631 -0.098,-1.224 -0.175,-1.781c-0.076,-0.556 -0.115,-0.945 -0.116,-1.168c-0.003,-0.742 -0.046,-2.022 -0.127,-3.84c-0.072,-1.591 -0.13,-3.253 -0.173,-4.986l-0.036,-1.494c-0.044,-1.733 -0.102,-3.395 -0.173,-4.986c-0.082,-1.818 -0.162,-3.098 -0.239,-3.84c-0.149,-0.148 -0.355,-0.537 -0.617,-1.166c-0.263,-0.63 -0.394,-1.094 -0.396,-1.39c-0.149,-0.148 -0.317,-0.5 -0.505,-1.056c-0.188,-0.556 -0.282,-0.982 -0.284,-1.279c0,-0.149 -0.058,-0.538 -0.172,-1.168c-0.114,-0.631 -0.246,-1.335 -0.398,-2.114c-0.152,-0.779 -0.285,-1.52 -0.399,-2.225c-0.114,-0.705 -0.209,-1.242 -0.285,-1.613c-0.002,-0.446 -0.079,-1.225 -0.233,-2.337c-0.153,-1.113 -0.23,-1.781 -0.231,-2.003c-0.152,-0.89 -0.343,-2.355 -0.575,-4.395c-0.231,-2.041 -0.481,-4.155 -0.75,-6.343c-0.269,-2.189 -0.518,-4.21 -0.749,-6.065c-0.23,-1.854 -0.421,-3.115 -0.572,-3.783c-0.002,-0.371 -0.022,-0.89 -0.062,-1.558c-0.04,-0.668 -0.099,-1.354 -0.176,-2.059c-0.077,-0.705 -0.135,-1.317 -0.175,-1.836c-0.039,-0.52 -0.059,-0.853 -0.059,-1.002l-0.03,-7.014l-0.028,-6.68c0,-0.148 0.072,-0.705 0.216,-1.67c0.145,-0.966 0.216,-1.708 0.214,-2.228c0.146,-0.372 0.293,-0.781 0.44,-1.226l0.219,-0.892c0.147,-0.298 0.46,-0.911 0.938,-1.841c0.479,-0.93 0.791,-1.618 0.938,-2.064c0.074,-0.074 0.258,-0.335 0.553,-0.781c0.295,-0.447 0.48,-0.744 0.553,-0.893l1.331,-1.342c0.148,-0.074 0.444,-0.261 0.888,-0.56c0.444,-0.299 0.703,-0.485 0.777,-0.56l1.333,-0.673c0.297,-0.15 0.63,-0.263 1.001,-0.339c0.139,0 0.294,-0.05 0.466,-0.148l0.069,-0.041c0.171,-0.099 0.326,-0.148 0.465,-0.149c0.14,0 0.295,0.048 0.467,0.145l0.07,0.04Zm99.178,-15.198c0.083,0.072 0.264,0.159 0.542,0.262c0.298,0.11 0.484,0.24 0.559,0.388l0.558,0.443c0.075,0.148 0.168,0.314 0.281,0.5c0.112,0.185 0.205,0.388 0.28,0.611c0.076,0.296 0.151,0.556 0.226,0.778c0.15,0.222 0.355,0.574 0.617,1.055c0.262,0.482 0.467,0.796 0.616,0.944c0.224,0.296 0.765,0.85 1.622,1.663c0.857,0.813 1.769,1.7 2.738,2.661l4.696,4.656c0.074,0 0.316,0.166 0.725,0.498c0.41,0.332 0.857,0.702 1.341,1.108c0.484,0.406 0.95,0.794 1.397,1.163c0.446,0.369 0.744,0.591 0.893,0.664c0.149,0.148 0.429,0.425 0.838,0.832c0.41,0.406 0.82,0.831 1.23,1.275c0.411,0.443 0.802,0.869 1.175,1.275c0.373,0.407 0.633,0.684 0.783,0.832c0.074,0.148 0.205,0.37 0.392,0.666c0.187,0.296 0.28,0.519 0.281,0.667c-0.147,0.223 -0.258,0.447 -0.331,0.67c-0.074,0.148 -0.147,0.316 -0.221,0.501c-0.073,0.186 -0.11,0.353 -0.109,0.502c0.001,0.148 -0.036,0.278 -0.11,0.39c-0.073,0.112 -0.147,0.242 -0.221,0.391c-0.073,0.223 -0.146,0.408 -0.22,0.557c-0.148,0.149 -0.37,0.354 -0.665,0.615c-0.296,0.261 -0.61,0.56 -0.943,0.895c-0.333,0.335 -0.628,0.652 -0.887,0.95c-0.258,0.298 -0.424,0.484 -0.498,0.559c-0.148,0.075 -0.537,0.262 -1.167,0.561c-0.63,0.3 -1.056,0.487 -1.278,0.562l-0.891,0.004l-1.002,0.004c-0.148,-0.074 -0.409,-0.258 -0.781,-0.553c-0.373,-0.296 -0.782,-0.609 -1.229,-0.942c-0.447,-0.332 -0.875,-0.645 -1.284,-0.94c-0.41,-0.296 -0.689,-0.48 -0.837,-0.554c-0.447,-0.369 -1.117,-0.83 -2.01,-1.383c-0.893,-0.553 -1.414,-0.903 -1.563,-1.051c-0.223,-0.148 -0.818,-0.442 -1.785,-0.883c-0.967,-0.442 -1.636,-0.699 -2.007,-0.771c-0.298,-0.147 -0.893,-0.368 -1.784,-0.661c-0.892,-0.293 -1.487,-0.513 -1.785,-0.66l-1.001,0.004l0.025,6.012l-1.002,0.004l-0.028,-6.569l-1.002,0.005c-0.073,0.297 -0.256,0.817 -0.55,1.561c-0.294,0.743 -0.477,1.226 -0.551,1.449l-0.554,0.559c-0.149,-0.148 -0.28,-0.444 -0.393,-0.889c-0.113,-0.445 -0.244,-0.704 -0.393,-0.778c-0.001,-0.296 -0.096,-0.816 -0.285,-1.557c-0.189,-0.741 -0.283,-1.223 -0.284,-1.446c-0.224,-0.148 -0.799,-0.294 -1.728,-0.438c-0.928,-0.145 -1.504,-0.291 -1.727,-0.438l-6.68,0.027c-0.222,0.076 -0.482,0.188 -0.778,0.338l-1.111,0.561c-0.222,0.075 -0.648,0.263 -1.278,0.562c-0.63,0.3 -1.018,0.487 -1.167,0.562l-0.554,0.559c-0.074,0.148 -0.202,0.371 -0.387,0.669c-0.184,0.298 -0.276,0.521 -0.275,0.669l0.025,6.012c0.149,0.296 0.336,0.592 0.56,0.888c0.149,0.222 0.28,0.445 0.393,0.667c0.112,0.222 0.205,0.407 0.28,0.555c0.15,0.297 0.374,0.685 0.673,1.166c0.299,0.482 0.523,0.759 0.672,0.833c0.074,0.148 0.261,0.388 0.559,0.721c0.298,0.333 0.615,0.684 0.951,1.054c0.335,0.369 0.652,0.721 0.951,1.053c0.298,0.333 0.484,0.574 0.559,0.722c0.075,0.222 0.318,0.518 0.728,0.887c0.409,0.37 0.838,0.776 1.285,1.22c0.447,0.443 0.876,0.868 1.286,1.275c0.41,0.406 0.689,0.72 0.839,0.942c0.149,0.148 0.409,0.37 0.782,0.665c0.372,0.295 0.782,0.646 1.229,1.053c0.447,0.406 0.894,0.775 1.34,1.107c0.447,0.332 0.782,0.535 1.005,0.608c0.149,0.148 0.521,0.462 1.117,0.942c0.596,0.48 0.969,0.831 1.118,1.053c0.223,0.148 0.521,0.332 0.893,0.553c0.372,0.221 0.763,0.442 1.172,0.663c0.409,0.221 0.781,0.424 1.116,0.608c0.334,0.184 0.539,0.313 0.613,0.387c0.15,0.148 0.707,0.442 1.674,0.884c0.967,0.441 1.599,0.735 1.896,0.882c0.149,0.074 0.317,0.147 0.502,0.221c0.186,0.073 0.354,0.147 0.502,0.221l0.669,0.219l2.338,-0.009l2.004,-0.009c0.074,0 0.167,-0.075 0.277,-0.224c0.111,-0.148 0.24,-0.297 0.388,-0.447l0.441,-1.003c0.148,-0.224 0.276,-0.632 0.385,-1.227c0.109,-0.594 0.163,-1.002 0.162,-1.225c0.073,-0.149 0.165,-0.427 0.275,-0.836c0.109,-0.409 0.2,-0.854 0.272,-1.337c0.073,-0.483 0.126,-0.928 0.162,-1.337c0.035,-0.408 0.053,-0.687 0.052,-0.835c-0.001,-0.297 0.09,-0.706 0.273,-1.226c0.184,-0.52 0.275,-0.855 0.274,-1.003c0.074,-0.149 0.166,-0.409 0.275,-0.78c0.11,-0.372 0.239,-0.558 0.388,-0.559c0.073,-0.149 0.276,-0.409 0.609,-0.782c0.332,-0.372 0.702,-0.745 1.109,-1.118c0.406,-0.372 0.757,-0.726 1.053,-1.062c0.295,-0.335 0.517,-0.577 0.665,-0.726c0.148,-0.075 0.333,-0.15 0.555,-0.225c0.445,-0.15 0.705,-0.226 0.779,-0.226c0.148,-0.075 0.315,-0.15 0.5,-0.225c0.185,-0.075 0.352,-0.187 0.499,-0.336c0.223,-0.149 0.445,-0.261 0.667,-0.337c0.149,0.148 0.41,0.37 0.782,0.665c0.372,0.295 0.559,0.517 0.56,0.666l0.017,4.23c0.001,0.149 -0.071,0.687 -0.216,1.616c-0.144,0.928 -0.215,1.652 -0.213,2.171c-0.148,0.15 -0.295,0.521 -0.441,1.116c-0.146,0.594 -0.293,0.966 -0.441,1.115c0.001,0.222 -0.164,0.706 -0.495,1.449c-0.33,0.744 -0.532,1.264 -0.605,1.561c0.001,0.223 -0.183,0.669 -0.551,1.339c-0.369,0.669 -0.627,1.041 -0.775,1.116c0,0.149 -0.128,0.465 -0.386,0.948c-0.258,0.484 -0.46,0.8 -0.608,0.949c-0.296,0.224 -0.665,0.652 -1.108,1.285c-0.443,0.633 -0.738,1.024 -0.886,1.173l-0.998,1.006c-0.148,0.149 -0.536,0.466 -1.165,0.951c-0.629,0.485 -1.091,0.84 -1.387,1.063c-0.148,0.075 -0.315,0.15 -0.5,0.225c-0.185,0.075 -0.352,0.187 -0.5,0.336l-0.666,0.448c-0.074,0.075 -0.259,0.168 -0.555,0.281c-0.297,0.113 -0.612,0.244 -0.945,0.394c-0.333,0.149 -0.648,0.281 -0.945,0.393c-0.296,0.113 -0.481,0.169 -0.556,0.17c-0.147,0.149 -0.407,0.28 -0.777,0.392c-0.371,0.113 -0.556,0.244 -0.555,0.392l-0.441,1.004c-0.148,0.149 -0.277,0.298 -0.388,0.447c-0.111,0.149 -0.203,0.224 -0.278,0.224c0,-0.074 -0.057,-0.334 -0.17,-0.779c-0.113,-0.444 -0.244,-0.741 -0.393,-0.889c-0.001,-0.222 -0.076,-0.333 -0.224,-0.333l-0.112,0.001c-0.074,0 -0.222,0.112 -0.444,0.336c0.003,0.519 -0.031,1.447 -0.099,2.783c-0.069,1.337 -0.118,2.784 -0.149,4.343c-0.031,1.559 -0.08,3.006 -0.149,4.343c-0.069,1.336 -0.102,2.264 -0.1,2.783c0.001,0.223 -0.07,0.873 -0.214,1.949c-0.144,1.077 -0.215,1.875 -0.213,2.395c-0.147,0.372 -0.293,0.929 -0.438,1.672c-0.146,0.743 -0.218,1.188 -0.217,1.337c0,0.074 -0.092,0.26 -0.276,0.558c-0.185,0.297 -0.277,0.483 -0.276,0.557l-0.098,-23.49c-0.223,0.001 -0.817,-0.164 -1.784,-0.494c-0.966,-0.33 -1.635,-0.568 -2.007,-0.715l-3.57,-1.767c-0.148,-0.073 -0.483,-0.276 -1.004,-0.608c-0.521,-0.332 -1.061,-0.682 -1.619,-1.051l-2.847,-1.88c-0.149,-0.074 -0.372,-0.24 -0.67,-0.499c-0.298,-0.258 -0.614,-0.517 -0.949,-0.775c-0.335,-0.258 -0.633,-0.498 -0.894,-0.72c-0.261,-0.221 -0.428,-0.369 -0.503,-0.443l-9.055,-8.98l-0.672,-0.888c-0.149,-0.222 -0.317,-0.463 -0.504,-0.722c-0.187,-0.259 -0.354,-0.462 -0.504,-0.61c-0.149,-0.222 -0.373,-0.574 -0.672,-1.055c-0.299,-0.481 -0.523,-0.795 -0.672,-0.943l-0.561,-1c0,-0.148 -0.076,-0.482 -0.227,-1.001c-0.15,-0.519 -0.3,-0.852 -0.449,-1c-0.001,-0.149 -0.077,-0.594 -0.228,-1.335c-0.076,-0.297 -0.151,-0.63 -0.227,-1.001l-0.009,-2.115l-0.008,-2.004c-0.002,-0.297 0.071,-0.724 0.217,-1.282c0.146,-0.557 0.219,-0.984 0.217,-1.281c0.148,-0.297 0.368,-0.762 0.662,-1.394c0.295,-0.632 0.608,-1.265 0.939,-1.897c0.331,-0.632 0.626,-1.209 0.883,-1.729c0.258,-0.521 0.424,-0.855 0.497,-1.004c0.148,-0.075 0.481,-0.392 0.998,-0.951c0.517,-0.559 1.09,-1.155 1.718,-1.788c0.629,-0.634 1.238,-1.267 1.829,-1.9c0.592,-0.634 1.072,-1.1 1.442,-1.398c0.148,-0.149 0.462,-0.373 0.943,-0.672c0.482,-0.299 0.833,-0.523 1.055,-0.672c0.297,-0.076 0.889,-0.338 1.778,-0.787c0.889,-0.449 1.482,-0.749 1.778,-0.898c0.37,-0.15 1,-0.376 1.89,-0.676c0.889,-0.301 1.482,-0.526 1.778,-0.676c0.223,-0.001 0.631,-0.021 1.225,-0.06c0.593,-0.04 1.242,-0.098 1.947,-0.176c0.705,-0.077 1.373,-0.135 2.003,-0.175c0.631,-0.04 1.058,-0.06 1.28,-0.061c-0.075,-0.296 -0.114,-0.816 -0.117,-1.558c-0.003,-0.742 0.032,-1.225 0.105,-1.448c-0.001,-0.297 0.182,-0.724 0.551,-1.282c0.369,-0.559 0.627,-0.986 0.774,-1.284c0.148,-0.223 0.628,-0.708 1.441,-1.453c0.814,-0.746 1.331,-1.268 1.553,-1.565l2.222,-1.123l0.779,-0.003l0.556,-0.003l0.016,0.014Zm-43.438,0.43l0.024,5.566c0,0 -0.018,0.205 -0.053,0.613c-0.036,0.408 -0.09,0.854 -0.162,1.337c-0.072,0.482 -0.126,0.946 -0.161,1.392c-0.035,0.445 -0.053,0.705 -0.052,0.779l0.009,2.338c0.001,0.149 0.022,0.761 0.064,1.837c0.041,1.076 0.083,2.264 0.126,3.562c0.042,1.299 0.103,2.505 0.182,3.618c0.079,1.113 0.119,1.743 0.119,1.892c0.001,0.223 0.096,0.742 0.285,1.557c0.189,0.816 0.284,1.298 0.284,1.447c0.15,0.37 0.376,1.074 0.677,2.112c0.301,1.038 0.527,1.779 0.677,2.224c0.076,0.371 0.264,0.982 0.565,1.834c0.3,0.853 0.619,1.761 0.957,2.724c0.338,0.964 0.658,1.871 0.958,2.724c0.301,0.852 0.489,1.426 0.564,1.723c0.075,0.222 0.263,0.704 0.563,1.445c0.3,0.741 0.487,1.26 0.563,1.556c0.15,0.371 0.412,0.834 0.785,1.389c0.373,0.555 0.56,0.907 0.561,1.055c0.148,-0.001 0.52,0.165 1.115,0.496c0.596,0.332 0.967,0.497 1.116,0.497c0.149,0.147 0.316,0.277 0.502,0.387c0.186,0.111 0.28,0.203 0.28,0.277c-0.147,0.446 -0.217,1.263 -0.213,2.451c0.005,1.187 0.083,2.003 0.233,2.448c0,0 0.113,0.241 0.337,0.722c0.225,0.482 0.487,1.056 0.787,1.723c0.3,0.666 0.636,1.333 1.01,1.999c0.374,0.667 0.673,1.185 0.897,1.555c0.075,0.148 0.319,0.834 0.733,2.057c0.413,1.223 0.864,2.557 1.352,4.002c0.489,1.445 0.94,2.798 1.353,4.058c0.414,1.26 0.658,1.927 0.732,2.001c0.151,0.519 0.375,0.963 0.674,1.333c0.149,0.296 0.336,0.593 0.56,0.889l0.01,2.449c-0.147,0.149 -0.35,0.539 -0.607,1.171c-0.257,0.632 -0.459,1.097 -0.607,1.395l-2.993,3.018c-0.148,0.001 -0.371,0.076 -0.667,0.225c-0.296,0.15 -0.519,0.225 -0.667,0.226l-1.447,0.006l-1.559,0.006c-0.074,0.001 -0.446,-0.239 -1.116,-0.719c-0.67,-0.479 -1.117,-0.793 -1.34,-0.94c-0.001,-0.149 -0.095,-0.445 -0.282,-0.89c-0.188,-0.444 -0.282,-0.741 -0.282,-0.889l-0.009,-2.004l-0.449,-0.889c-0.149,-0.222 -0.261,-0.463 -0.337,-0.722c-0.075,-0.26 -0.187,-0.463 -0.336,-0.611c-0.523,-0.814 -1.16,-2.222 -1.91,-4.223c-0.751,-2.001 -1.539,-4.038 -2.364,-6.113c-0.901,-2.446 -1.877,-5.039 -2.927,-7.781l-4.899,0.02c0.001,0.223 -0.071,0.631 -0.217,1.226c-0.146,0.594 -0.219,1.003 -0.218,1.225c-0.148,0.001 -0.278,0.094 -0.388,0.28c-0.111,0.186 -0.203,0.279 -0.277,0.28c0.001,0.297 -0.034,0.835 -0.105,1.614c-0.071,0.78 -0.123,1.615 -0.157,2.506c-0.033,0.891 -0.085,1.763 -0.156,2.617c-0.07,0.854 -0.105,1.429 -0.104,1.726c-0.147,0.298 -0.274,0.892 -0.382,1.783c-0.108,0.891 -0.235,1.485 -0.382,1.783c0.001,0.223 -0.109,0.631 -0.329,1.226c-0.22,0.595 -0.33,1.003 -0.329,1.226l-0.069,-16.477c-0.222,0.001 -0.538,-0.072 -0.947,-0.219c-0.409,-0.146 -0.818,-0.293 -1.226,-0.44c-0.409,-0.147 -0.799,-0.256 -1.171,-0.329c-0.371,-0.073 -0.594,-0.072 -0.668,0.003c-0.147,0.297 -0.331,0.595 -0.553,0.893c-0.368,0.669 -0.626,1.19 -0.773,1.562c-0.147,0.297 -0.349,0.836 -0.605,1.617c-0.257,0.78 -0.459,1.245 -0.607,1.394c0.001,0.074 -0.017,0.26 -0.053,0.557c-0.036,0.297 -0.09,0.612 -0.163,0.947c-0.073,0.334 -0.127,0.65 -0.163,0.947c-0.036,0.297 -0.054,0.482 -0.053,0.557c0,0.148 -0.092,0.352 -0.276,0.613c-0.185,0.261 -0.277,0.465 -0.276,0.614c-0.222,0.149 -0.518,0.391 -0.888,0.727c-0.369,0.335 -0.739,0.708 -1.108,1.118c-0.37,0.41 -0.739,0.782 -1.109,1.118c-0.37,0.335 -0.592,0.503 -0.666,0.504l-2.221,1.345l-0.445,0.002l-0.334,0.001c-0.149,0.001 -0.353,-0.091 -0.614,-0.276c-0.26,-0.184 -0.465,-0.35 -0.614,-0.498c-0.075,-0.074 -0.149,-0.185 -0.224,-0.333c-0.15,-0.296 -0.225,-0.519 -0.225,-0.667l-0.003,-0.668l-0.003,-0.557c-0.001,-0.223 0.072,-0.668 0.217,-1.337c0.146,-0.668 0.219,-1.04 0.218,-1.114c0.148,-0.298 0.368,-0.837 0.662,-1.617c0.293,-0.781 0.587,-1.598 0.88,-2.453c0.293,-0.855 0.568,-1.654 0.825,-2.397c0.257,-0.743 0.459,-1.227 0.606,-1.45l-0.004,-1.113c-0.223,0.001 -0.706,-0.053 -1.448,-0.161c-0.743,-0.109 -1.263,-0.236 -1.56,-0.383c-0.001,-0.149 -0.076,-0.371 -0.226,-0.667c-0.15,-0.297 -0.225,-0.519 -0.225,-0.668l-0.001,-0.111l-0.002,-0.557c0,-0.074 0.072,-0.408 0.218,-1.002c0.073,-0.298 0.146,-0.558 0.22,-0.781l4.213,-4.248c0.074,0 0.259,-0.038 0.556,-0.114c0.296,-0.075 0.611,-0.169 0.945,-0.282c0.333,-0.113 0.648,-0.225 0.945,-0.338c0.296,-0.112 0.481,-0.206 0.555,-0.28c0,-0.149 0.183,-0.595 0.551,-1.339c0.368,-0.743 0.626,-1.301 0.773,-1.673c0.072,-0.446 0.273,-1.189 0.603,-2.229c0.329,-1.041 0.696,-2.155 1.099,-3.345c0.403,-1.189 0.751,-2.285 1.044,-3.288c0.293,-1.003 0.512,-1.728 0.659,-2.174c0.074,-0.075 0.166,-0.298 0.276,-0.669c0.096,-0.325 0.192,-0.679 0.287,-1.061l0.124,-0.496c0.082,-0.327 0.164,-0.644 0.246,-0.951c0.11,-0.409 0.201,-0.687 0.275,-0.836c0.073,-0.297 0.182,-0.724 0.329,-1.282c0.146,-0.557 0.292,-1.096 0.438,-1.616c0.146,-0.52 0.274,-0.984 0.384,-1.393c0.11,-0.409 0.164,-0.65 0.164,-0.724c0,-0.075 0.015,-0.761 0.047,-2.06c0.032,-1.299 0.063,-2.71 0.094,-4.231c0.03,-1.522 0.043,-2.932 0.038,-4.231c-0.006,-1.299 -0.009,-2.023 -0.009,-2.171c0.147,-0.149 0.313,-0.539 0.496,-1.171c0.183,-0.632 0.311,-1.022 0.385,-1.171c-0.001,-0.074 0.183,-0.446 0.552,-1.115c0.368,-0.67 0.626,-1.116 0.773,-1.34c0,-0.148 0.165,-0.446 0.498,-0.892c0.332,-0.447 0.572,-0.708 0.72,-0.783c-0.001,-0.148 0.054,-0.297 0.165,-0.446c0.111,-0.149 0.203,-0.297 0.277,-0.446c0.296,-0.224 0.758,-0.523 1.387,-0.897c0.63,-0.373 1.018,-0.635 1.166,-0.784c0.148,-0.075 0.371,-0.15 0.667,-0.225c0.445,-0.15 0.816,-0.226 1.113,-0.227l0.556,-0.003l0.668,-0.003l0.447,0.444Zm125.143,36.232l-0.891,0.004l0.036,8.573l-1.002,0.004l-1.146,-7.9c-0.446,0.002 -1.188,-0.069 -2.228,-0.213c-1.04,-0.145 -1.745,-0.29 -2.117,-0.437c-0.148,0.001 -0.446,-0.054 -0.891,-0.163c-0.446,-0.11 -0.706,-0.201 -0.781,-0.275c-0.297,-0.148 -0.762,-0.368 -1.394,-0.662c-0.632,-0.295 -1.023,-0.516 -1.172,-0.664l-0.783,-0.776c-0.223,-0.221 -0.428,-0.406 -0.614,-0.554c-0.186,-0.147 -0.317,-0.258 -0.391,-0.332c-0.001,-0.149 -0.169,-0.463 -0.505,-0.944c-0.336,-0.481 -0.579,-0.796 -0.728,-0.944c-0.149,-0.222 -0.355,-0.648 -0.617,-1.277c-0.263,-0.63 -0.394,-1.019 -0.395,-1.168c-0.149,-0.148 -0.318,-0.518 -0.506,-1.111c-0.188,-0.593 -0.282,-0.964 -0.283,-1.112l-0.015,-3.785l-0.013,-3.006c-0.001,-0.297 0.182,-0.817 0.55,-1.561c0.368,-0.744 0.626,-1.227 0.773,-1.451c-0.222,0.001 -0.631,-0.034 -1.225,-0.106c-0.594,-0.072 -1.188,-0.125 -1.782,-0.159c-0.594,-0.035 -1.188,-0.088 -1.782,-0.16c-0.594,-0.072 -1.002,-0.107 -1.225,-0.106c-0.148,0 -0.371,-0.073 -0.669,-0.22c-0.297,-0.147 -0.52,-0.295 -0.669,-0.443c-0.149,0.001 -0.354,-0.165 -0.615,-0.498c-0.261,-0.333 -0.466,-0.499 -0.614,-0.499c-0.001,-0.074 -0.076,-0.333 -0.226,-0.778c-0.075,-0.222 -0.15,-0.408 -0.225,-0.556l-0.006,-1.447l-0.007,-1.559c0,-0.074 0.073,-0.445 0.218,-1.114c0.146,-0.668 0.218,-1.114 0.217,-1.337c0.148,-0.297 0.35,-0.799 0.606,-1.505c0.257,-0.706 0.514,-1.45 0.77,-2.23l1.155,-3.512c0.072,-0.371 0.441,-1.096 1.104,-2.175c0.663,-1.079 1.105,-1.953 1.325,-2.622c0.147,-0.298 0.405,-0.893 0.772,-1.785c0.367,-0.892 0.771,-1.859 1.212,-2.9c0.441,-1.04 0.846,-2.026 1.213,-2.955c0.367,-0.929 0.624,-1.58 0.771,-1.951c0.367,-0.893 0.865,-1.767 1.492,-2.623c0.627,-0.856 1.273,-1.712 1.938,-2.569c0.664,-0.856 1.291,-1.768 1.881,-2.735c0.59,-0.968 1.031,-2.008 1.323,-3.123c0.074,-0.075 0.221,-0.298 0.442,-0.67c0.221,-0.372 0.461,-0.763 0.719,-1.172c0.258,-0.409 0.516,-0.818 0.774,-1.228c0.258,-0.409 0.461,-0.725 0.609,-0.949c-0.001,-0.074 0.128,-0.353 0.386,-0.836c0.258,-0.484 0.46,-0.874 0.607,-1.172c0.222,-0.223 0.573,-0.614 1.053,-1.173c0.48,-0.559 0.794,-0.875 0.942,-0.95c0.148,-0.298 0.535,-0.763 1.164,-1.397c0.628,-0.633 1.016,-1.025 1.164,-1.174c0.074,0 0.333,-0.187 0.777,-0.56c0.443,-0.373 0.739,-0.634 0.887,-0.783c0.074,0 0.334,-0.075 0.778,-0.226c0.149,-0.074 0.334,-0.149 0.556,-0.225l2.115,-0.008l2.004,-0.009l1.342,1.331c0.149,0.073 0.354,0.332 0.615,0.776c0.262,0.445 0.467,0.741 0.616,0.889c0.001,0.148 0.133,0.593 0.396,1.334c0.263,0.741 0.469,1.297 0.619,1.667c0.149,0.222 0.412,0.796 0.787,1.723c0.375,0.926 0.562,1.5 0.563,1.723c0.001,0.148 0.058,0.426 0.171,0.834c0.113,0.408 0.245,0.834 0.395,1.279c0.15,0.445 0.282,0.871 0.395,1.279c0.113,0.407 0.17,0.722 0.171,0.945c0,0.149 0.095,0.538 0.283,1.168c0.188,0.63 0.283,1.094 0.284,1.39c0.076,0.445 0.227,1.057 0.453,1.836c0.226,0.778 0.452,1.575 0.678,2.39c0.226,0.816 0.415,1.557 0.566,2.225c0.151,0.667 0.264,1.075 0.339,1.223c0.002,0.371 0.171,0.834 0.507,1.389c0.336,0.556 0.506,1.093 0.508,1.613c0.15,0.519 0.32,1.241 0.51,2.168c0.189,0.927 0.284,1.465 0.285,1.614l0.017,4.007c0,0.149 -0.092,0.353 -0.276,0.614c-0.185,0.26 -0.351,0.465 -0.499,0.614c-0.147,0.224 -0.442,0.67 -0.885,1.34c-0.442,0.67 -0.701,1.042 -0.774,1.117c-0.148,0.149 -0.537,0.466 -1.165,0.951c-0.629,0.485 -1.018,0.802 -1.165,0.951c-0.149,0.001 -0.464,0.076 -0.946,0.227c-0.482,0.15 -0.834,0.226 -1.057,0.227l-0.222,0.001l-0.334,0.001c-0.074,0 -0.26,-0.073 -0.558,-0.22c-0.297,-0.148 -0.483,-0.221 -0.557,-0.221c-0.149,-0.148 -0.262,-0.333 -0.337,-0.555c-0.15,-0.445 -0.225,-0.704 -0.226,-0.778c-0.149,-0.148 -0.28,-0.445 -0.393,-0.889c-0.113,-0.445 -0.244,-0.704 -0.393,-0.778c-0.001,-0.297 -0.096,-0.76 -0.284,-1.391c-0.188,-0.63 -0.283,-1.019 -0.283,-1.167c-0.001,-0.223 -0.021,-0.613 -0.061,-1.169c-0.039,-0.557 -0.097,-1.169 -0.174,-1.836c-0.077,-0.668 -0.136,-1.299 -0.175,-1.892c-0.04,-0.594 -0.06,-0.965 -0.061,-1.113c-0.15,-0.445 -0.263,-0.853 -0.339,-1.224c-0.075,-0.37 -0.151,-0.723 -0.227,-1.056c-0.075,-0.334 -0.114,-0.575 -0.114,-0.723c-0.152,-0.742 -0.471,-1.631 -0.958,-2.668c-0.486,-1.037 -0.805,-1.741 -0.955,-2.112c-0.075,-0.296 -0.264,-0.982 -0.565,-2.057c-0.301,-1.075 -0.49,-1.798 -0.566,-2.169c-0.15,-0.37 -0.319,-0.852 -0.507,-1.445c-0.188,-0.593 -0.394,-1.186 -0.619,-1.779c-0.3,-0.666 -0.563,-1.37 -0.789,-2.112l-0.668,0.003c0.001,0.223 0.022,0.668 0.062,1.336c0.04,0.668 0.061,1.391 0.064,2.171c0.004,0.779 0.025,1.503 0.065,2.17c0.04,0.668 0.06,1.113 0.061,1.336c0.002,0.297 -0.089,0.873 -0.271,1.727c-0.182,0.854 -0.309,1.393 -0.383,1.616c0,-0.149 -0.095,-0.482 -0.282,-1.001c-0.188,-0.519 -0.282,-0.852 -0.283,-1.001c-0.075,-0.222 -0.151,-0.574 -0.227,-1.057c-0.076,-0.482 -0.134,-1.001 -0.173,-1.557c-0.04,-0.557 -0.098,-1.095 -0.174,-1.614c-0.076,-0.519 -0.152,-0.89 -0.227,-1.112l-0.993,2.342l0.046,11.021l-0.663,1.005l-0.895,-0.998l-0.038,-9.018c-0.148,0.149 -0.351,0.41 -0.609,0.782c-0.258,0.372 -0.535,0.763 -0.83,1.172c-0.295,0.41 -0.553,0.801 -0.774,1.173c-0.222,0.372 -0.369,0.669 -0.442,0.892c-0.074,0.149 -0.294,0.614 -0.662,1.395c-0.368,0.78 -0.772,1.691 -1.213,2.732c-0.441,1.041 -0.901,2.082 -1.379,3.123c-0.478,1.041 -0.827,1.859 -1.047,2.454c-0.073,0.297 -0.258,0.613 -0.553,0.949c-0.296,0.335 -0.48,0.651 -0.553,0.948c-0.146,0.446 -0.348,1.041 -0.605,1.784c-0.256,0.743 -0.513,1.487 -0.77,2.23c-0.256,0.743 -0.495,1.431 -0.715,2.063c-0.22,0.631 -0.367,0.985 -0.441,1.059c0.001,0.149 0.095,0.519 0.283,1.112c0.188,0.593 0.283,1.001 0.284,1.224c0.222,-0.001 0.686,0.015 1.392,0.05c0.705,0.034 1.447,0.049 2.226,0.046c0.78,-0.003 1.522,-0.006 2.227,-0.009c0.705,-0.003 1.243,-0.043 1.614,-0.118c0.074,-0.001 0.297,-0.02 0.668,-0.059c0.37,-0.039 0.797,-0.096 1.279,-0.172c0.482,-0.076 0.946,-0.134 1.391,-0.173c0.445,-0.039 0.742,-0.059 0.89,-0.059c0.297,-0.076 0.705,-0.17 1.224,-0.284c0.519,-0.113 1.038,-0.208 1.557,-0.285c0.52,-0.076 0.965,-0.152 1.335,-0.228c0.371,-0.076 0.594,-0.114 0.668,-0.114l5.233,-0.022l4.341,-0.018c0.224,0.148 0.8,0.368 1.729,0.661c0.929,0.293 1.579,0.513 1.951,0.66c0.149,0.147 0.54,0.536 1.174,1.164c0.633,0.628 1.025,1.09 1.174,1.386c0.076,0.223 0.281,0.63 0.618,1.223c0.336,0.592 0.505,0.999 0.506,1.222l0.027,6.569c0.001,0.074 -0.072,0.334 -0.219,0.78c-0.147,0.446 -0.22,0.743 -0.219,0.891c-0.074,0.149 -0.184,0.391 -0.331,0.725c-0.147,0.335 -0.331,0.688 -0.552,1.06c-0.221,0.372 -0.442,0.744 -0.663,1.117c-0.222,0.372 -0.369,0.669 -0.442,0.892c-0.073,0.223 -0.184,0.446 -0.331,0.669c-0.148,0.149 -0.277,0.317 -0.388,0.503c-0.11,0.186 -0.202,0.353 -0.276,0.502c-0.296,0.298 -0.665,0.727 -1.108,1.285c-0.443,0.559 -0.738,0.912 -0.886,1.061c0,0.149 -0.129,0.354 -0.387,0.614c-0.259,0.261 -0.462,0.466 -0.61,0.615c-0.148,0.149 -0.407,0.373 -0.777,0.672c-0.37,0.298 -0.758,0.615 -1.165,0.951c-0.406,0.335 -0.776,0.634 -1.109,0.895c-0.333,0.261 -0.537,0.429 -0.61,0.504c-0.148,0.149 -0.463,0.373 -0.944,0.671c-0.481,0.299 -0.796,0.523 -0.944,0.672c-0.148,0.001 -0.407,0.132 -0.777,0.393c-0.37,0.262 -0.796,0.523 -1.277,0.785c-0.482,0.262 -0.926,0.523 -1.333,0.785c-0.407,0.261 -0.648,0.429 -0.722,0.504c-0.074,0 -0.222,0.112 -0.443,0.336c-0.074,0.074 -0.111,0.149 -0.111,0.223l0.007,1.67c0.001,0.222 0.04,0.76 0.118,1.614c0.078,0.853 0.137,1.762 0.179,2.726c0.041,0.965 0.1,1.856 0.178,2.672c0.077,0.816 0.116,1.298 0.117,1.447l0.033,7.904c0.001,0.148 -0.035,0.427 -0.108,0.835c-0.072,0.409 -0.126,0.836 -0.161,1.281c-0.036,0.446 -0.09,0.873 -0.162,1.281c-0.073,0.409 -0.109,0.65 -0.108,0.725c-0.15,-0.222 -0.282,-0.704 -0.396,-1.446c-0.114,-0.742 -0.247,-1.261 -0.396,-1.557c-0.077,-0.594 -0.174,-1.651 -0.292,-3.172c-0.117,-1.521 -0.236,-3.153 -0.354,-4.897c-0.119,-1.744 -0.218,-3.376 -0.299,-4.897c-0.081,-1.522 -0.122,-2.579 -0.125,-3.173l-0.678,-2.558Zm-47.721,-2.57c0.1,0.543 0.199,1.059 0.299,1.545c0.114,0.556 0.171,0.946 0.172,1.168c0.149,0.148 0.299,0.574 0.45,1.279c0.152,0.704 0.228,1.131 0.228,1.279l0.005,1.114c0.001,0.148 -0.072,0.464 -0.219,0.947c-0.146,0.483 -0.293,0.799 -0.441,0.948c0,0.074 -0.129,0.335 -0.386,0.781c-0.258,0.446 -0.461,0.744 -0.609,0.893l-1.33,1.342c-0.074,0.074 -0.333,0.261 -0.777,0.56c-0.445,0.298 -0.741,0.485 -0.889,0.56c-0.148,0.149 -0.296,0.242 -0.444,0.28c-0.148,0.038 -0.296,0.094 -0.445,0.169c-0.222,0.075 -0.37,0.113 -0.444,0.113c-0.223,0.075 -0.408,0.15 -0.556,0.225c-0.074,0.075 -0.185,0.112 -0.334,0.113l-0.222,0.001c-0.297,0.001 -0.557,-0.035 -0.78,-0.108c-0.223,-0.074 -0.409,-0.147 -0.558,-0.221c-0.148,0.001 -0.26,-0.036 -0.334,-0.11c-0.149,-0.147 -0.224,-0.295 -0.225,-0.444c0,-0.074 -0.076,-0.408 -0.226,-1.001c-0.151,-0.593 -0.302,-1.075 -0.452,-1.445c-0.076,-0.445 -0.209,-1.113 -0.398,-2.003c-0.189,-0.89 -0.36,-1.817 -0.512,-2.781c-0.153,-0.964 -0.324,-1.854 -0.513,-2.67c-0.189,-0.815 -0.321,-1.334 -0.396,-1.557c0,-0.074 -0.038,-0.278 -0.114,-0.612c-0.075,-0.333 -0.133,-0.723 -0.172,-1.168c-0.038,-0.445 -0.096,-0.89 -0.172,-1.335c-0.076,-0.445 -0.115,-0.816 -0.116,-1.113c-0.001,-0.223 -0.04,-0.594 -0.116,-1.113c-0.076,-0.519 -0.153,-1.038 -0.229,-1.557c-0.077,-0.52 -0.153,-0.983 -0.229,-1.391c-0.076,-0.408 -0.114,-0.649 -0.114,-0.723c-0.002,-0.446 -0.023,-1.114 -0.064,-2.004c-0.041,-0.891 -0.1,-1.837 -0.179,-2.838c-0.078,-1.002 -0.138,-1.892 -0.178,-2.672c-0.04,-0.779 -0.061,-1.28 -0.062,-1.502l-0.057,-13.583l-0.056,-13.471c-0.001,-0.148 0.072,-0.445 0.219,-0.891c0.147,-0.446 0.22,-0.706 0.219,-0.78c0.148,-0.149 0.296,-0.41 0.443,-0.782c0.073,-0.223 0.146,-0.408 0.22,-0.557c0.148,-0.149 0.369,-0.373 0.665,-0.671c0.296,-0.298 0.591,-0.615 0.887,-0.95c0.295,-0.335 0.572,-0.633 0.831,-0.894c0.259,-0.261 0.462,-0.429 0.61,-0.504c0.148,-0.149 0.537,-0.354 1.167,-0.617c0.629,-0.262 1.018,-0.468 1.166,-0.617l1.002,-0.004l1.002,-0.004c0.075,0.148 0.15,0.259 0.224,0.333l0.335,0.332c0.075,0.148 0.17,0.538 0.284,1.168c0.114,0.631 0.171,1.02 0.172,1.168l0.123,29.614c0.222,-0.149 0.629,-0.373 1.222,-0.673c0.592,-0.299 1.204,-0.599 1.833,-0.898c0.63,-0.3 1.222,-0.58 1.778,-0.843c0.556,-0.262 0.944,-0.467 1.166,-0.617c0.148,-0.149 0.463,-0.373 0.944,-0.672c0.481,-0.299 0.833,-0.523 1.055,-0.672c0.296,-0.224 0.703,-0.541 1.22,-0.951c0.518,-0.411 1.018,-0.821 1.498,-1.231c0.481,-0.411 0.925,-0.746 1.332,-1.008c0.407,-0.261 0.611,-0.392 0.611,-0.392c0.295,-0.298 0.831,-0.82 1.608,-1.566c0.776,-0.745 1.589,-1.546 2.439,-2.403c0.85,-0.857 1.644,-1.659 2.383,-2.404c0.74,-0.745 1.22,-1.304 1.441,-1.676c0.074,0 0.166,-0.168 0.276,-0.502c0.11,-0.335 0.239,-0.502 0.388,-0.503c-0.001,-0.074 0.072,-0.39 0.218,-0.947c0.146,-0.557 0.219,-0.91 0.219,-1.058c0.073,-0.075 0.11,-0.149 0.11,-0.224c-0.001,-0.148 0.036,-0.26 0.11,-0.334c0.073,-0.149 0.184,-0.298 0.332,-0.447c0.221,-0.372 0.572,-0.837 1.052,-1.396c0.48,-0.559 0.794,-0.912 0.942,-1.061c0.148,-0.149 0.591,-0.541 1.331,-1.175c0.739,-0.634 1.294,-1.1 1.664,-1.399l0.444,-0.224c0.297,-0.15 0.482,-0.225 0.556,-0.225c0.222,-0.149 0.574,-0.281 1.056,-0.394c0.482,-0.113 0.797,-0.17 0.946,-0.171l0.445,-0.113c0.074,-0.001 0.148,0.018 0.222,0.054c0.075,0.037 0.149,0.056 0.223,0.055l0.112,0c0.519,-0.002 0.78,0.182 0.781,0.553l0.013,3.006c0,0.074 -0.073,0.26 -0.22,0.558c-0.148,0.297 -0.313,0.632 -0.497,1.004c-0.184,0.372 -0.387,0.744 -0.608,1.116c-0.221,0.372 -0.368,0.632 -0.442,0.781c-0.147,0.297 -0.534,0.911 -1.161,1.842c-0.627,0.93 -1.088,1.618 -1.383,2.065c-0.074,0.223 -0.443,0.707 -1.108,1.452c-0.664,0.745 -1.108,1.266 -1.329,1.564c-0.221,0.298 -0.665,0.819 -1.33,1.564c-0.664,0.745 -1.385,1.528 -2.161,2.347c-0.776,0.82 -1.496,1.602 -2.161,2.347c-0.665,0.745 -1.108,1.23 -1.33,1.453c0.149,0.148 0.447,0.369 0.894,0.664c0.446,0.295 0.744,0.517 0.893,0.665c0.149,0.148 0.373,0.351 0.671,0.609c0.298,0.259 0.614,0.554 0.95,0.887c0.335,0.333 0.633,0.647 0.894,0.943c0.261,0.295 0.429,0.48 0.504,0.554c0.148,0.074 0.485,0.647 1.009,1.722c0.524,1.074 0.935,1.87 1.234,2.388c0.075,0.222 0.375,0.815 0.898,1.778c0.524,0.962 1.066,1.962 1.627,2.999c0.561,1.037 1.085,2.036 1.571,2.999c0.487,0.963 0.805,1.555 0.954,1.778c0.001,0.148 0.132,0.463 0.394,0.944c0.262,0.482 0.579,1.037 0.953,1.666c0.374,0.63 0.766,1.259 1.177,1.888c0.411,0.629 0.728,1.129 0.952,1.499c0.15,0.148 0.373,0.444 0.672,0.888c0.299,0.444 0.523,0.74 0.672,0.888c0.15,0.296 0.448,0.721 0.896,1.276c0.447,0.555 0.709,0.981 0.785,1.277c0.298,0.37 0.764,0.962 1.399,1.776c0.634,0.814 1.025,1.22 1.174,1.22c0.224,0.295 0.708,0.813 1.453,1.552l4.696,4.656c0.745,0.74 1.304,1.22 1.676,1.441c0,0.139 0.083,0.343 0.247,0.612l0.068,0.109c0.164,0.269 0.246,0.473 0.247,0.612l0.003,0.668c-0.148,0.224 -0.35,0.633 -0.607,1.228c-0.258,0.594 -0.386,0.966 -0.385,1.115c-0.148,0.149 -0.388,0.409 -0.721,0.782c-0.332,0.372 -0.702,0.745 -1.108,1.118c-0.407,0.373 -0.795,0.727 -1.165,1.062c-0.37,0.336 -0.666,0.578 -0.888,0.728l-0.667,0.225c-0.444,0.15 -0.778,0.226 -1.001,0.227l-1.336,0.006c-0.223,-0.074 -0.408,-0.147 -0.557,-0.221c-0.074,0.001 -0.13,-0.018 -0.167,-0.055c-0.038,-0.037 -0.093,-0.055 -0.168,-0.055c-0.074,0.001 -0.148,-0.036 -0.223,-0.11c-0.149,-0.296 -0.541,-0.666 -1.173,-1.109c-0.633,-0.442 -1.024,-0.737 -1.173,-0.885c-0.297,-0.073 -0.819,-0.498 -1.564,-1.274c-0.746,-0.776 -1.23,-1.35 -1.455,-1.72c-0.149,-0.147 -0.409,-0.406 -0.782,-0.776c-0.373,-0.369 -0.746,-0.776 -1.119,-1.22c-0.373,-0.443 -0.745,-0.85 -1.118,-1.22c-0.373,-0.369 -0.596,-0.628 -0.671,-0.776c-0.075,-0.148 -0.28,-0.444 -0.616,-0.888c-0.336,-0.444 -0.691,-0.925 -1.064,-1.443c-0.373,-0.518 -0.746,-1.036 -1.12,-1.554c-0.373,-0.518 -0.634,-0.888 -0.784,-1.11c-0.149,-0.148 -0.373,-0.444 -0.671,-0.888c-0.299,-0.444 -0.523,-0.703 -0.672,-0.777c-0.224,-0.37 -0.635,-1.055 -1.233,-2.054c-0.598,-1 -1.196,-2.055 -1.794,-3.166c-0.599,-1.11 -1.197,-2.147 -1.795,-3.109c-0.597,-0.963 -1.008,-1.629 -1.233,-1.999l-1.004,-0.553l0.013,3.006l-0.668,0.003c-0.076,-0.297 -0.151,-0.593 -0.227,-0.89c-0.075,-0.296 -0.169,-0.574 -0.282,-0.834c-0.112,-0.259 -0.206,-0.5 -0.281,-0.722c-0.001,-0.148 -0.039,-0.482 -0.115,-1.002c-0.077,-0.519 -0.135,-1.057 -0.174,-1.613c-0.04,-0.557 -0.098,-1.094 -0.174,-1.614c-0.076,-0.519 -0.115,-0.853 -0.115,-1.001c-0.001,-0.149 -0.077,-0.445 -0.227,-0.89c-0.15,-0.445 -0.226,-0.815 -0.227,-1.112l-0.672,-0.999c-0.149,-0.148 -0.373,-0.407 -0.672,-0.777c-0.298,-0.37 -0.521,-0.555 -0.67,-0.554l0.006,1.336c0.075,0.297 0.171,1.057 0.288,2.281c0.116,1.224 0.214,2.541 0.294,3.951c0.081,1.41 0.142,2.746 0.184,4.007c0.043,1.262 0.064,2.041 0.066,2.338l0.069,16.7l-0.766,3.009l-0.559,-0.554c0,0 -0.038,-0.186 -0.114,-0.557c-0.076,-0.37 -0.133,-0.816 -0.173,-1.335c-0.039,-0.519 -0.078,-1.039 -0.118,-1.558c-0.039,-0.519 -0.059,-0.928 -0.06,-1.224c-0.076,-0.371 -0.154,-1.206 -0.233,-2.504c-0.08,-1.299 -0.161,-2.82 -0.242,-4.564c-0.082,-1.744 -0.182,-3.599 -0.302,-5.565c-0.119,-1.967 -0.22,-3.822 -0.301,-5.566c-0.082,-1.744 -0.144,-3.265 -0.186,-4.564c-0.043,-1.298 -0.065,-2.17 -0.067,-2.616c-0.075,-0.148 -0.15,-0.463 -0.226,-0.945c-0.077,-0.482 -0.134,-0.964 -0.174,-1.447c-0.039,-0.482 -0.096,-0.946 -0.172,-1.391c-0.076,-0.445 -0.152,-0.741 -0.227,-0.889c-0.148,0 -0.445,-0.054 -0.891,-0.164c-0.446,-0.109 -0.706,-0.164 -0.78,-0.163c-0.149,0 -0.519,0.076 -1.112,0.227c-0.297,0.075 -0.557,0.114 -0.779,0.115c-0.075,0 -0.575,0.132 -1.502,0.396c-0.926,0.263 -1.649,0.47 -2.168,0.621c-0.148,0.149 -0.537,0.355 -1.166,0.617c-0.63,0.262 -1.019,0.468 -1.167,0.617c0.001,0.223 0.04,0.538 0.115,0.946c0.076,0.408 0.134,0.835 0.173,1.28c0.039,0.445 0.096,0.871 0.172,1.279c0.076,0.408 0.114,0.686 0.115,0.835c0.15,0.37 0.282,1.001 0.397,1.891c0.116,0.89 0.248,1.409 0.397,1.557c0.001,0.222 0.058,0.63 0.172,1.224c0.085,0.445 0.171,0.9 0.256,1.366l0.128,0.704Zm-84.937,6.115c-0.147,0.372 -0.404,1.022 -0.772,1.951c-0.367,0.93 -0.55,1.506 -0.549,1.728c0.001,0.149 -0.017,0.372 -0.053,0.669c-0.036,0.297 -0.053,0.519 -0.053,0.668l0.668,-0.003c0.222,-0.149 0.741,-0.281 1.557,-0.396c0.816,-0.115 1.298,-0.247 1.446,-0.396l-0.001,-0.223l-0.002,-0.334c0,-0.222 -0.17,-0.797 -0.508,-1.723c-0.338,-0.926 -0.507,-1.575 -0.509,-1.946c-0.148,0 -0.279,-0.166 -0.392,-0.5c-0.112,-0.333 -0.206,-0.5 -0.28,-0.499l-0.552,1.004Zm125.68,-21.551c0.001,0.148 0.002,0.389 0.003,0.723c0.001,0.334 0.04,0.687 0.116,1.057c0.076,0.371 0.151,0.779 0.228,1.224c0.001,0.297 0.132,0.723 0.395,1.279c0.262,0.555 0.542,0.981 0.84,1.277c0,0.074 0.317,0.444 0.951,1.109c0.633,0.665 1.099,1.109 1.397,1.33c0.074,0 0.26,0.092 0.558,0.276c0.297,0.184 0.483,0.276 0.558,0.276l3.34,-0.014l2.671,-0.011c0.075,0 0.278,-0.075 0.612,-0.225c0.333,-0.15 0.685,-0.318 1.055,-0.506c0.371,-0.187 0.741,-0.392 1.111,-0.616c0.37,-0.225 0.629,-0.411 0.777,-0.56c0.148,-0.075 0.37,-0.262 0.666,-0.56c0.295,-0.298 0.517,-0.484 0.665,-0.559c0.073,-0.297 0.276,-0.725 0.607,-1.283c0.332,-0.558 0.497,-0.986 0.496,-1.283l-0.006,-1.447l-0.006,-1.558c-0.001,-0.149 -0.17,-0.538 -0.506,-1.167c-0.337,-0.63 -0.543,-1.019 -0.618,-1.167c-0.148,-0.073 -0.465,-0.276 -0.948,-0.608c-0.484,-0.332 -0.8,-0.498 -0.949,-0.497c-0.075,-0.148 -0.52,-0.276 -1.337,-0.384c-0.817,-0.108 -1.374,-0.161 -1.671,-0.16l-1.447,0.006l-1.559,0.006c-0.371,0.002 -0.891,0.023 -1.558,0.062c-0.668,0.04 -1.355,0.08 -2.059,0.12c-0.705,0.04 -1.336,0.099 -1.892,0.175c-0.557,0.077 -0.872,0.152 -0.946,0.227c-0.148,0.001 -0.371,0.076 -0.667,0.225c-0.222,0.076 -0.407,0.151 -0.556,0.225c0.002,0.297 -0.052,0.817 -0.16,1.56c-0.108,0.742 -0.162,1.225 -0.161,1.448Z"/>
            <path d="M426.073,52.989c0.173,0.097 0.328,0.145 0.467,0.145c0.149,-0.001 0.354,0.128 0.614,0.387c0.261,0.258 0.392,0.462 0.393,0.61c0,0.075 0.037,0.149 0.112,0.223c0,0.074 0.019,0.148 0.056,0.222c0.038,0.074 0.057,0.148 0.057,0.223l-0.221,0.446c0.002,0.297 -0.053,0.687 -0.162,1.169c-0.109,0.483 -0.201,0.725 -0.275,0.725c0,0 -0.074,0.13 -0.221,0.391c-0.148,0.26 -0.332,0.521 -0.554,0.781c-0.221,0.261 -0.443,0.522 -0.664,0.783c-0.222,0.26 -0.37,0.428 -0.444,0.502c-0.073,0.075 -0.129,0.168 -0.165,0.279c-0.037,0.112 -0.092,0.242 -0.166,0.391c-0.073,0.223 -0.184,0.409 -0.331,0.558l0.075,18.035l0.668,-0.002c0.074,-0.001 0.278,-0.039 0.612,-0.114c0.333,-0.076 0.667,-0.133 1.001,-0.171c0.334,-0.039 0.649,-0.096 0.946,-0.171c0.296,-0.076 0.444,-0.114 0.444,-0.114c0.52,-0.076 1.428,-0.247 2.726,-0.512c1.298,-0.265 2.707,-0.531 4.227,-0.797c1.521,-0.266 2.93,-0.513 4.228,-0.741c1.298,-0.228 2.206,-0.381 2.726,-0.457l0.999,-0.561l-0.078,-18.703c-0.001,-0.149 0.184,-0.502 0.552,-1.06c0.369,-0.558 0.664,-1.024 0.885,-1.396l2.994,-3.018c0.148,-0.001 0.481,-0.151 1,-0.45c0.518,-0.299 0.925,-0.486 1.222,-0.561l0.445,-0.002l0.334,-0.002c0.223,-0.001 0.557,0.072 1.003,0.219c0.223,0.073 0.409,0.147 0.558,0.22l0.09,21.598l0.683,3.671l0.077,18.481c0.078,0.742 0.157,1.985 0.239,3.729c0.071,1.526 0.128,3.123 0.172,4.791l0.035,1.438c0.044,1.668 0.101,3.265 0.173,4.791c0.081,1.744 0.16,2.95 0.237,3.618c0.001,0.074 0.039,0.333 0.115,0.778c0.076,0.445 0.134,0.946 0.173,1.503c0.04,0.556 0.097,1.075 0.174,1.558c0.076,0.482 0.114,0.76 0.115,0.834l0.012,3.006c0.001,0.139 -0.08,0.425 -0.241,0.859l-0.067,0.177c-0.161,0.434 -0.241,0.72 -0.241,0.859c-0.073,0.149 -0.146,0.557 -0.217,1.225c-0.072,0.669 -0.124,1.374 -0.158,2.116c-0.034,0.743 -0.087,1.43 -0.159,2.061c-0.071,0.631 -0.144,0.984 -0.218,1.058c0.001,0.297 -0.053,0.669 -0.162,1.114c-0.11,0.446 -0.239,0.744 -0.386,0.893c-0.074,0.074 -0.185,0.112 -0.334,0.112c-0.148,0.075 -0.37,0.113 -0.667,0.114l-0.026,-6.234c0.001,0.223 -0.016,0.649 -0.051,1.28c-0.034,0.632 -0.087,1.3 -0.158,2.005c-0.072,0.706 -0.143,1.374 -0.215,2.005c-0.071,0.631 -0.144,1.058 -0.217,1.281c0.001,0.223 -0.09,0.557 -0.274,1.003c-0.184,0.446 -0.35,0.67 -0.498,0.67c0,0.075 -0.037,0.149 -0.111,0.224l0.001,0.111l-0.112,0l-0.222,0.001c-0.074,0.001 -0.112,-0.111 -0.113,-0.333c-0.001,-0.149 -0.077,-0.631 -0.229,-1.447c-0.152,-0.815 -0.228,-1.335 -0.229,-1.557c-0.15,-0.297 -0.3,-0.89 -0.453,-1.78c-0.152,-0.89 -0.228,-1.483 -0.23,-1.78l-1.336,0.005c-0.148,0.001 -0.352,-0.072 -0.613,-0.22c-0.26,-0.147 -0.391,-0.295 -0.391,-0.443c-0.149,0 -0.28,-0.24 -0.393,-0.722c-0.113,-0.482 -0.208,-0.834 -0.283,-1.057c-0.149,-0.296 -0.282,-0.834 -0.396,-1.612c-0.115,-0.779 -0.172,-1.243 -0.173,-1.391c-0.075,-0.297 -0.152,-0.89 -0.23,-1.781c-0.078,-0.89 -0.138,-1.855 -0.179,-2.894c-0.042,-1.039 -0.101,-2.022 -0.179,-2.949c-0.079,-0.928 -0.156,-1.577 -0.231,-1.948c-0.002,-0.519 -0.045,-1.781 -0.127,-3.784c-0.073,-1.754 -0.131,-3.62 -0.176,-5.601l-0.037,-1.712c-0.045,-1.98 -0.103,-3.847 -0.175,-5.6c-0.083,-2.004 -0.125,-3.265 -0.127,-3.785c-0.001,-0.223 -0.022,-0.631 -0.061,-1.224c-0.04,-0.594 -0.098,-1.188 -0.175,-1.781c-0.076,-0.593 -0.134,-1.187 -0.174,-1.781c-0.04,-0.593 -0.06,-1.001 -0.061,-1.224l-1.558,0.007l-1.448,0.006c-0.371,0.001 -1.02,0.078 -1.947,0.23c-0.927,0.153 -1.502,0.229 -1.725,0.23c0.001,0.149 -0.091,0.297 -0.276,0.447c-0.185,0.149 -0.277,0.298 -0.277,0.446c-0.072,0.446 -0.143,1.225 -0.213,2.339c-0.069,1.114 -0.12,2.32 -0.152,3.619c-0.031,1.299 -0.082,2.524 -0.151,3.675c-0.07,1.15 -0.141,1.948 -0.213,2.394c0.001,0.149 -0.035,0.557 -0.106,1.225c-0.072,0.668 -0.124,1.429 -0.158,2.283c-0.033,0.854 -0.085,1.671 -0.156,2.45c-0.071,0.78 -0.106,1.355 -0.104,1.726c0,0.223 -0.016,0.631 -0.051,1.225c-0.035,0.594 -0.088,1.225 -0.159,1.893c-0.072,0.669 -0.125,1.281 -0.159,1.838c-0.035,0.557 -0.052,0.909 -0.052,1.058c-0.073,0.223 -0.146,0.539 -0.218,0.947c-0.064,0.358 -0.113,0.729 -0.148,1.115l-0.028,0.332c-0.035,0.386 -0.084,0.758 -0.148,1.115c-0.072,0.409 -0.108,0.687 -0.108,0.836c-0.001,-0.279 -0.085,-0.818 -0.251,-1.617l-0.069,-0.327c-0.166,-0.799 -0.25,-1.338 -0.251,-1.617l-0.006,-1.447l-0.007,-1.559c-0.001,-0.371 0.032,-1.206 0.101,-2.505c0.069,-1.299 0.119,-2.71 0.15,-4.231c0.03,-1.522 0.08,-2.914 0.149,-4.176c0.069,-1.262 0.103,-2.078 0.101,-2.45l-0.042,-10.131l-0.891,0.004c0.001,0.149 0.021,0.408 0.059,0.779c0.039,0.371 0.078,0.779 0.117,1.224c0.039,0.446 0.078,0.872 0.116,1.28c0.039,0.408 0.059,0.686 0.06,0.835c-0.148,0.297 -0.275,0.818 -0.384,1.56c-0.108,0.743 -0.236,1.226 -0.383,1.449l-0.223,0.001l-0.334,0.001c-0.074,-0.073 -0.205,-0.258 -0.392,-0.555c-0.187,-0.296 -0.28,-0.481 -0.281,-0.555c0,-0.223 0.017,-0.594 0.051,-1.114c0.035,-0.519 0.052,-1.057 0.049,-1.614c-0.002,-0.557 0.014,-1.076 0.05,-1.559c0.035,-0.483 0.052,-0.835 0.051,-1.058c-0.149,0.001 -0.576,-0.035 -1.281,-0.106c-0.705,-0.071 -1.132,-0.106 -1.281,-0.106c-0.222,0.001 -0.63,0.096 -1.223,0.284c-0.593,0.188 -1.001,0.319 -1.223,0.394l0.015,3.563c0.075,0.222 0.17,0.76 0.285,1.613c0.115,0.853 0.249,1.836 0.402,2.949c0.153,1.112 0.287,2.207 0.403,3.282c0.116,1.076 0.212,1.911 0.289,2.504c0.001,0.297 0.059,0.835 0.174,1.614c0.114,0.779 0.248,1.613 0.4,2.503c0.152,0.89 0.285,1.762 0.4,2.615c0.115,0.853 0.173,1.428 0.174,1.725c0.001,0.148 0.058,0.537 0.172,1.168c0.114,0.63 0.247,1.298 0.398,2.002c0.152,0.705 0.303,1.391 0.454,2.058c0.152,0.667 0.265,1.112 0.34,1.334l0.01,2.45c-0.074,0.074 -0.148,0.186 -0.221,0.335c-0.074,0.148 -0.166,0.279 -0.277,0.39c-0.111,0.112 -0.203,0.205 -0.277,0.28c-0.147,0.297 -0.35,0.669 -0.608,1.116c-0.258,0.446 -0.46,0.744 -0.608,0.893c-0.074,0.149 -0.277,0.391 -0.61,0.726c-0.332,0.336 -0.683,0.69 -1.053,1.062c-0.369,0.373 -0.739,0.727 -1.109,1.063c-0.369,0.335 -0.591,0.577 -0.665,0.726l0.113,27.053l-0.552,1.116c-0.149,-0.222 -0.318,-0.704 -0.507,-1.445c-0.188,-0.742 -0.283,-1.261 -0.285,-1.558c-0.001,-0.222 -0.039,-0.631 -0.116,-1.224c-0.077,-0.593 -0.135,-1.205 -0.175,-1.836c-0.039,-0.631 -0.098,-1.224 -0.174,-1.781c-0.077,-0.556 -0.115,-0.946 -0.116,-1.168c-0.003,-0.743 -0.046,-2.023 -0.128,-3.841c-0.071,-1.591 -0.129,-3.253 -0.173,-4.985l-0.036,-1.495c-0.043,-1.733 -0.101,-3.395 -0.173,-4.985c-0.081,-1.818 -0.161,-3.098 -0.238,-3.84c-0.149,-0.148 -0.355,-0.537 -0.617,-1.167c-0.263,-0.63 -0.395,-1.093 -0.396,-1.39c-0.149,-0.148 -0.317,-0.499 -0.505,-1.055c-0.188,-0.556 -0.283,-0.983 -0.284,-1.279c-0.001,-0.149 -0.058,-0.538 -0.172,-1.169c-0.114,-0.63 -0.247,-1.335 -0.398,-2.113c-0.152,-0.779 -0.285,-1.521 -0.399,-2.225c-0.115,-0.705 -0.21,-1.243 -0.285,-1.613c-0.002,-0.446 -0.08,-1.225 -0.233,-2.337c-0.153,-1.113 -0.23,-1.781 -0.231,-2.003c-0.152,-0.891 -0.344,-2.356 -0.575,-4.396c-0.231,-2.04 -0.481,-4.154 -0.75,-6.343c-0.269,-2.188 -0.519,-4.209 -0.749,-6.064c-0.23,-1.855 -0.421,-3.116 -0.572,-3.783c-0.002,-0.371 -0.023,-0.89 -0.063,-1.558c-0.039,-0.668 -0.098,-1.354 -0.175,-2.059c-0.077,-0.705 -0.136,-1.317 -0.175,-1.836c-0.039,-0.52 -0.059,-0.854 -0.06,-1.002l-0.029,-7.014l-0.028,-6.68c0,-0.148 0.071,-0.705 0.216,-1.671c0.144,-0.965 0.215,-1.708 0.213,-2.227c0.147,-0.372 0.294,-0.781 0.44,-1.227l0.219,-0.891c0.148,-0.298 0.46,-0.911 0.939,-1.841c0.479,-0.93 0.791,-1.618 0.938,-2.064c0.074,-0.074 0.258,-0.335 0.553,-0.781c0.295,-0.447 0.479,-0.745 0.553,-0.893l1.33,-1.342c0.149,-0.075 0.445,-0.262 0.889,-0.56c0.444,-0.299 0.703,-0.486 0.777,-0.56l1.333,-0.674c0.296,-0.149 0.63,-0.262 1.001,-0.338c0.139,-0.001 0.294,-0.05 0.465,-0.149l0.069,-0.04c0.172,-0.099 0.327,-0.149 0.466,-0.149c0.139,-0.001 0.295,0.048 0.467,0.145l0.069,0.04Zm99.178,-15.198c0.083,0.072 0.264,0.159 0.543,0.262c0.297,0.11 0.483,0.239 0.558,0.387l0.559,0.443c0.075,0.149 0.168,0.315 0.28,0.5c0.112,0.185 0.206,0.389 0.281,0.611c0.076,0.297 0.151,0.556 0.226,0.779c0.149,0.222 0.355,0.574 0.617,1.055c0.262,0.481 0.467,0.796 0.616,0.944c0.224,0.296 0.764,0.85 1.621,1.663c0.857,0.813 1.77,1.7 2.739,2.66l4.695,4.657c0.075,-0.001 0.317,0.165 0.726,0.498c0.41,0.332 0.857,0.701 1.341,1.107c0.484,0.407 0.949,0.794 1.396,1.164c0.447,0.369 0.745,0.59 0.894,0.664c0.149,0.148 0.428,0.425 0.838,0.831c0.41,0.407 0.82,0.832 1.23,1.276c0.41,0.443 0.802,0.868 1.174,1.275c0.373,0.407 0.634,0.684 0.783,0.832c0.075,0.148 0.206,0.37 0.393,0.666c0.186,0.296 0.28,0.518 0.281,0.667c-0.148,0.223 -0.258,0.446 -0.331,0.669c-0.074,0.149 -0.148,0.316 -0.221,0.502c-0.073,0.186 -0.11,0.353 -0.109,0.502c0,0.148 -0.036,0.278 -0.11,0.39c-0.074,0.111 -0.147,0.242 -0.221,0.39c-0.073,0.223 -0.147,0.409 -0.22,0.558c-0.148,0.149 -0.37,0.354 -0.666,0.615c-0.295,0.261 -0.61,0.559 -0.942,0.895c-0.333,0.335 -0.628,0.652 -0.887,0.95c-0.259,0.298 -0.425,0.484 -0.499,0.558c-0.148,0.075 -0.537,0.262 -1.166,0.562c-0.63,0.299 -1.056,0.487 -1.278,0.562l-0.891,0.004l-1.002,0.004c-0.149,-0.074 -0.409,-0.258 -0.782,-0.554c-0.372,-0.295 -0.781,-0.609 -1.228,-0.941c-0.447,-0.332 -0.875,-0.646 -1.284,-0.941c-0.41,-0.295 -0.689,-0.479 -0.838,-0.553c-0.447,-0.369 -1.116,-0.83 -2.009,-1.383c-0.893,-0.553 -1.414,-0.903 -1.563,-1.051c-0.224,-0.148 -0.819,-0.442 -1.785,-0.884c-0.967,-0.441 -1.636,-0.698 -2.008,-0.77c-0.297,-0.148 -0.892,-0.368 -1.784,-0.661c-0.892,-0.293 -1.486,-0.513 -1.784,-0.661l-1.002,0.005l0.025,6.011l-1.002,0.005l-0.027,-6.569l-1.002,0.004c-0.073,0.298 -0.256,0.818 -0.55,1.561c-0.294,0.744 -0.477,1.227 -0.551,1.45l-0.554,0.559c-0.149,-0.148 -0.28,-0.444 -0.393,-0.889c-0.114,-0.445 -0.245,-0.704 -0.393,-0.778c-0.002,-0.297 -0.097,-0.816 -0.285,-1.557c-0.189,-0.742 -0.284,-1.224 -0.285,-1.446c-0.223,-0.148 -0.799,-0.294 -1.727,-0.439c-0.928,-0.144 -1.504,-0.29 -1.728,-0.438l-6.679,0.028c-0.223,0.075 -0.482,0.188 -0.778,0.337l-1.111,0.562c-0.223,0.075 -0.649,0.262 -1.278,0.562c-0.63,0.299 -1.019,0.486 -1.167,0.561l-0.554,0.559c-0.074,0.149 -0.203,0.372 -0.387,0.67c-0.184,0.298 -0.276,0.521 -0.276,0.669l0.025,6.012c0.15,0.296 0.337,0.592 0.561,0.888c0.149,0.222 0.28,0.444 0.392,0.667c0.113,0.222 0.206,0.407 0.281,0.555c0.15,0.296 0.374,0.685 0.673,1.166c0.299,0.481 0.523,0.759 0.671,0.832c0.075,0.149 0.262,0.389 0.56,0.722c0.298,0.332 0.615,0.684 0.951,1.053c0.335,0.37 0.652,0.721 0.95,1.054c0.299,0.333 0.485,0.573 0.56,0.721c0.075,0.223 0.318,0.519 0.727,0.888c0.41,0.369 0.839,0.776 1.286,1.219c0.447,0.444 0.876,0.869 1.285,1.275c0.41,0.407 0.69,0.721 0.839,0.943c0.149,0.148 0.41,0.369 0.782,0.665c0.373,0.295 0.783,0.646 1.23,1.052c0.447,0.407 0.893,0.776 1.34,1.108c0.447,0.332 0.782,0.535 1.005,0.608c0.149,0.148 0.521,0.462 1.117,0.942c0.596,0.48 0.968,0.831 1.118,1.053c0.223,0.147 0.521,0.332 0.893,0.553c0.372,0.221 0.762,0.442 1.171,0.663c0.41,0.221 0.781,0.423 1.116,0.608c0.335,0.184 0.54,0.313 0.614,0.387c0.149,0.147 0.707,0.442 1.674,0.883c0.967,0.442 1.599,0.736 1.896,0.883c0.149,0.074 0.316,0.147 0.502,0.221c0.186,0.073 0.353,0.147 0.502,0.22l0.669,0.22l2.338,-0.01l2.004,-0.008c0.074,0 0.166,-0.075 0.277,-0.224c0.111,-0.149 0.24,-0.298 0.388,-0.447l0.441,-1.004c0.148,-0.223 0.276,-0.632 0.385,-1.226c0.109,-0.594 0.162,-1.003 0.162,-1.225c0.073,-0.149 0.165,-0.428 0.274,-0.836c0.11,-0.409 0.201,-0.855 0.273,-1.337c0.072,-0.483 0.126,-0.929 0.162,-1.337c0.035,-0.409 0.052,-0.687 0.052,-0.835c-0.001,-0.297 0.09,-0.706 0.273,-1.226c0.183,-0.52 0.275,-0.855 0.274,-1.003c0.074,-0.149 0.165,-0.409 0.275,-0.781c0.11,-0.371 0.239,-0.557 0.388,-0.558c0.073,-0.149 0.276,-0.409 0.609,-0.782c0.332,-0.372 0.702,-0.745 1.108,-1.118c0.407,-0.373 0.758,-0.727 1.053,-1.062c0.296,-0.335 0.518,-0.577 0.665,-0.726c0.149,-0.075 0.334,-0.15 0.556,-0.225c0.445,-0.151 0.704,-0.226 0.779,-0.226c0.148,-0.075 0.314,-0.15 0.5,-0.225c0.185,-0.075 0.351,-0.187 0.499,-0.336c0.222,-0.149 0.444,-0.262 0.667,-0.337c0.149,0.148 0.41,0.37 0.782,0.665c0.372,0.295 0.559,0.517 0.559,0.666l0.018,4.23c0.001,0.149 -0.071,0.687 -0.216,1.615c-0.145,0.929 -0.216,1.653 -0.214,2.172c-0.147,0.149 -0.294,0.521 -0.44,1.115c-0.146,0.595 -0.293,0.966 -0.441,1.116c0.001,0.222 -0.164,0.705 -0.495,1.449c-0.331,0.743 -0.533,1.264 -0.606,1.561c0.001,0.223 -0.182,0.669 -0.551,1.338c-0.368,0.67 -0.626,1.042 -0.774,1.117c0,0.148 -0.128,0.464 -0.386,0.948c-0.258,0.483 -0.461,0.8 -0.608,0.949c-0.296,0.224 -0.666,0.652 -1.108,1.285c-0.443,0.632 -0.738,1.023 -0.886,1.172l-0.998,1.007c-0.148,0.149 -0.536,0.466 -1.165,0.951c-0.629,0.485 -1.091,0.839 -1.387,1.063c-0.148,0.075 -0.315,0.15 -0.5,0.225c-0.186,0.075 -0.352,0.187 -0.5,0.336l-0.666,0.448c-0.074,0.075 -0.259,0.168 -0.555,0.281c-0.297,0.112 -0.612,0.243 -0.945,0.393c-0.334,0.15 -0.648,0.281 -0.945,0.394c-0.296,0.113 -0.482,0.169 -0.556,0.169c-0.148,0.149 -0.407,0.28 -0.777,0.393c-0.371,0.113 -0.556,0.244 -0.556,0.392l-0.441,1.004c-0.147,0.149 -0.277,0.298 -0.387,0.447c-0.111,0.149 -0.204,0.223 -0.278,0.224c0,-0.074 -0.057,-0.334 -0.17,-0.779c-0.113,-0.445 -0.244,-0.741 -0.393,-0.889c-0.001,-0.223 -0.076,-0.334 -0.225,-0.333l-0.111,0.001c-0.074,0 -0.222,0.112 -0.444,0.335c0.002,0.52 -0.031,1.448 -0.1,2.784c-0.068,1.336 -0.118,2.784 -0.148,4.343c-0.031,1.558 -0.081,3.006 -0.149,4.342c-0.069,1.337 -0.102,2.264 -0.1,2.784c0.001,0.223 -0.071,0.872 -0.214,1.949c-0.144,1.077 -0.215,1.875 -0.213,2.395c-0.147,0.371 -0.293,0.929 -0.439,1.672c-0.145,0.742 -0.217,1.188 -0.217,1.336c0.001,0.075 -0.091,0.261 -0.276,0.558c-0.184,0.298 -0.276,0.484 -0.276,0.558l-0.098,-23.491c-0.222,0.001 -0.817,-0.163 -1.783,-0.493c-0.966,-0.33 -1.635,-0.569 -2.007,-0.715l-3.57,-1.767c-0.149,-0.074 -0.484,-0.276 -1.005,-0.608c-0.52,-0.332 -1.06,-0.682 -1.618,-1.051l-2.847,-1.881c-0.149,-0.073 -0.372,-0.239 -0.67,-0.498c-0.298,-0.258 -0.615,-0.517 -0.95,-0.775c-0.335,-0.259 -0.633,-0.499 -0.893,-0.72c-0.261,-0.222 -0.429,-0.37 -0.503,-0.443l-9.056,-8.981l-0.671,-0.887c-0.15,-0.222 -0.318,-0.463 -0.504,-0.722c-0.187,-0.259 -0.355,-0.462 -0.504,-0.61c-0.149,-0.222 -0.373,-0.574 -0.672,-1.055c-0.299,-0.481 -0.523,-0.796 -0.672,-0.944l-0.561,-0.999c-0.001,-0.149 -0.076,-0.482 -0.227,-1.001c-0.15,-0.519 -0.3,-0.853 -0.449,-1c-0.001,-0.149 -0.077,-0.594 -0.229,-1.335c-0.075,-0.297 -0.151,-0.631 -0.226,-1.001l-0.009,-2.116l-0.009,-2.004c-0.001,-0.297 0.072,-0.724 0.218,-1.281c0.146,-0.557 0.218,-0.984 0.217,-1.281c0.147,-0.298 0.368,-0.762 0.662,-1.395c0.294,-0.632 0.607,-1.264 0.939,-1.896c0.331,-0.632 0.625,-1.209 0.883,-1.729c0.258,-0.521 0.423,-0.856 0.497,-1.005c0.148,-0.074 0.481,-0.391 0.998,-0.95c0.517,-0.559 1.09,-1.155 1.718,-1.788c0.628,-0.634 1.238,-1.267 1.829,-1.901c0.591,-0.633 1.072,-1.099 1.442,-1.397c0.147,-0.149 0.462,-0.373 0.943,-0.672c0.481,-0.299 0.833,-0.523 1.055,-0.673c0.297,-0.075 0.889,-0.337 1.778,-0.787c0.889,-0.449 1.481,-0.748 1.778,-0.898c0.37,-0.15 1,-0.375 1.889,-0.675c0.89,-0.301 1.483,-0.526 1.779,-0.676c0.223,-0.001 0.631,-0.021 1.224,-0.061c0.594,-0.039 1.243,-0.098 1.948,-0.175c0.705,-0.077 1.372,-0.135 2.003,-0.175c0.631,-0.04 1.058,-0.06 1.28,-0.061c-0.075,-0.297 -0.115,-0.816 -0.118,-1.558c-0.003,-0.743 0.032,-1.225 0.106,-1.448c-0.002,-0.297 0.182,-0.724 0.551,-1.283c0.369,-0.558 0.627,-0.986 0.774,-1.283c0.147,-0.224 0.628,-0.708 1.441,-1.454c0.813,-0.745 1.331,-1.267 1.552,-1.565l2.222,-1.122l0.78,-0.004l0.556,-0.002l0.015,0.014Zm-43.437,0.43l0.023,5.566c0,0 -0.017,0.204 -0.053,0.613c-0.035,0.408 -0.089,0.854 -0.161,1.336c-0.072,0.483 -0.126,0.947 -0.161,1.393c-0.036,0.445 -0.053,0.705 -0.053,0.779l0.01,2.338c0.001,0.149 0.022,0.761 0.063,1.837c0.042,1.076 0.084,2.263 0.127,3.562c0.042,1.299 0.103,2.504 0.182,3.617c0.079,1.113 0.118,1.744 0.119,1.893c0.001,0.222 0.096,0.741 0.285,1.557c0.189,0.816 0.283,1.298 0.284,1.446c0.15,0.371 0.376,1.075 0.677,2.113c0.301,1.038 0.527,1.779 0.677,2.224c0.076,0.37 0.264,0.982 0.564,1.834c0.301,0.852 0.62,1.76 0.958,2.724c0.338,0.963 0.657,1.871 0.958,2.723c0.3,0.853 0.488,1.427 0.564,1.724c0.075,0.222 0.262,0.704 0.562,1.445c0.3,0.741 0.488,1.259 0.564,1.556c0.15,0.37 0.411,0.833 0.785,1.388c0.373,0.555 0.56,0.907 0.561,1.056c0.148,-0.001 0.52,0.165 1.115,0.496c0.595,0.332 0.967,0.497 1.116,0.496c0.149,0.148 0.316,0.277 0.502,0.388c0.186,0.111 0.279,0.203 0.28,0.277c-0.147,0.446 -0.218,1.263 -0.213,2.45c0.005,1.188 0.083,2.004 0.233,2.449c0,0 0.112,0.24 0.337,0.722c0.225,0.481 0.487,1.056 0.787,1.722c0.299,0.667 0.636,1.334 1.01,2c0.374,0.666 0.673,1.185 0.897,1.555c0.075,0.148 0.319,0.834 0.732,2.057c0.414,1.222 0.865,2.557 1.353,4.002c0.489,1.445 0.939,2.798 1.353,4.058c0.413,1.26 0.657,1.927 0.732,2.001c0.151,0.519 0.375,0.963 0.674,1.333c0.149,0.296 0.336,0.592 0.56,0.888l0.01,2.45c-0.148,0.149 -0.35,0.539 -0.607,1.171c-0.257,0.632 -0.46,1.097 -0.607,1.394l-2.993,3.019c-0.149,0 -0.371,0.075 -0.667,0.225c-0.297,0.15 -0.519,0.225 -0.667,0.226l-1.448,0.006l-1.558,0.006c-0.074,0 -0.447,-0.239 -1.117,-0.719c-0.67,-0.48 -1.116,-0.793 -1.339,-0.941c-0.001,-0.148 -0.095,-0.445 -0.283,-0.889c-0.187,-0.445 -0.281,-0.741 -0.282,-0.89l-0.008,-2.004l-0.449,-0.888c-0.149,-0.222 -0.262,-0.463 -0.337,-0.723c-0.075,-0.259 -0.187,-0.463 -0.337,-0.61c-0.522,-0.815 -1.159,-2.222 -1.91,-4.223c-0.75,-2.001 -1.538,-4.039 -2.363,-6.114c-0.901,-2.445 -1.877,-5.039 -2.927,-7.781l-4.899,0.021c0.001,0.223 -0.072,0.631 -0.217,1.225c-0.146,0.595 -0.219,1.003 -0.218,1.226c-0.148,0.001 -0.278,0.094 -0.389,0.28c-0.11,0.186 -0.202,0.279 -0.277,0.279c0.002,0.297 -0.033,0.836 -0.104,1.615c-0.071,0.78 -0.123,1.615 -0.157,2.506c-0.033,0.891 -0.085,1.763 -0.156,2.617c-0.071,0.854 -0.105,1.429 -0.104,1.726c-0.147,0.297 -0.275,0.892 -0.382,1.783c-0.108,0.891 -0.235,1.485 -0.382,1.783c0,0.222 -0.109,0.631 -0.329,1.226c-0.221,0.594 -0.33,1.003 -0.329,1.226l-0.069,-16.477c-0.223,0.001 -0.538,-0.072 -0.947,-0.219c-0.409,-0.147 -0.818,-0.293 -1.227,-0.44c-0.409,-0.147 -0.799,-0.257 -1.17,-0.329c-0.371,-0.073 -0.594,-0.072 -0.668,0.003c-0.147,0.297 -0.332,0.595 -0.553,0.893c-0.368,0.669 -0.626,1.19 -0.773,1.561c-0.147,0.298 -0.349,0.837 -0.605,1.617c-0.257,0.781 -0.459,1.245 -0.607,1.394c0,0.075 -0.017,0.26 -0.053,0.557c-0.036,0.297 -0.09,0.613 -0.163,0.947c-0.073,0.335 -0.127,0.65 -0.163,0.947c-0.036,0.297 -0.054,0.483 -0.054,0.557c0.001,0.149 -0.091,0.353 -0.275,0.614c-0.185,0.26 -0.277,0.465 -0.276,0.613c-0.222,0.15 -0.518,0.392 -0.888,0.728c-0.37,0.335 -0.739,0.708 -1.108,1.118c-0.37,0.409 -0.739,0.782 -1.109,1.117c-0.37,0.336 -0.592,0.504 -0.666,0.504l-2.221,1.346l-0.445,0.001l-0.334,0.002c-0.149,0 -0.353,-0.092 -0.614,-0.276c-0.26,-0.184 -0.465,-0.351 -0.614,-0.498c-0.075,-0.074 -0.149,-0.185 -0.224,-0.333c-0.15,-0.297 -0.225,-0.519 -0.226,-0.668l-0.003,-0.668l-0.002,-0.556c-0.001,-0.223 0.072,-0.668 0.217,-1.337c0.146,-0.669 0.219,-1.04 0.218,-1.114c0.147,-0.298 0.368,-0.837 0.661,-1.617c0.294,-0.781 0.588,-1.599 0.881,-2.453c0.293,-0.855 0.568,-1.654 0.825,-2.397c0.257,-0.744 0.459,-1.227 0.606,-1.45l-0.004,-1.114c-0.223,0.001 -0.706,-0.052 -1.448,-0.161c-0.743,-0.108 -1.263,-0.236 -1.561,-0.383c0,-0.148 -0.076,-0.371 -0.225,-0.667c-0.15,-0.296 -0.225,-0.518 -0.226,-0.667l0,-0.111l-0.002,-0.557c-0.001,-0.074 0.072,-0.408 0.218,-1.003c0.073,-0.297 0.146,-0.557 0.219,-0.78l4.213,-4.248c0.075,0 0.26,-0.038 0.557,-0.114c0.296,-0.075 0.611,-0.169 0.945,-0.282c0.333,-0.113 0.648,-0.225 0.945,-0.338c0.296,-0.113 0.481,-0.206 0.555,-0.281c-0.001,-0.148 0.183,-0.594 0.551,-1.338c0.368,-0.744 0.626,-1.301 0.773,-1.673c0.072,-0.446 0.273,-1.189 0.603,-2.229c0.329,-1.041 0.696,-2.156 1.099,-3.345c0.403,-1.189 0.751,-2.285 1.044,-3.289c0.293,-1.003 0.512,-1.727 0.659,-2.173c0.074,-0.075 0.166,-0.298 0.275,-0.669c0.096,-0.326 0.192,-0.679 0.288,-1.061l0.123,-0.496c0.082,-0.328 0.165,-0.645 0.247,-0.951c0.109,-0.409 0.201,-0.688 0.275,-0.836c0.073,-0.297 0.182,-0.725 0.328,-1.282c0.146,-0.557 0.293,-1.096 0.439,-1.616c0.146,-0.52 0.274,-0.985 0.384,-1.393c0.109,-0.409 0.164,-0.651 0.164,-0.725c-0.001,-0.074 0.015,-0.761 0.047,-2.06c0.031,-1.299 0.063,-2.709 0.093,-4.231c0.031,-1.521 0.044,-2.932 0.038,-4.23c-0.005,-1.299 -0.008,-2.023 -0.009,-2.171c0.148,-0.149 0.314,-0.54 0.497,-1.171c0.182,-0.632 0.311,-1.022 0.384,-1.171c0,-0.074 0.184,-0.446 0.552,-1.116c0.369,-0.669 0.627,-1.116 0.774,-1.339c-0.001,-0.148 0.165,-0.446 0.497,-0.893c0.332,-0.446 0.573,-0.707 0.721,-0.782c-0.001,-0.148 0.054,-0.297 0.165,-0.446c0.111,-0.149 0.203,-0.298 0.276,-0.446c0.296,-0.224 0.759,-0.523 1.388,-0.897c0.63,-0.374 1.018,-0.635 1.166,-0.784c0.148,-0.075 0.37,-0.15 0.667,-0.225c0.445,-0.151 0.815,-0.227 1.112,-0.228l0.557,-0.002l0.668,-0.003l0.447,0.444Zm125.142,36.232l-0.89,0.004l0.036,8.572l-1.002,0.004l-1.147,-7.899c-0.445,0.001 -1.187,-0.07 -2.227,-0.214c-1.04,-0.144 -1.746,-0.289 -2.117,-0.436c-0.149,0 -0.446,-0.054 -0.892,-0.164c-0.445,-0.109 -0.706,-0.201 -0.78,-0.275c-0.298,-0.147 -0.762,-0.368 -1.395,-0.662c-0.632,-0.294 -1.022,-0.515 -1.171,-0.663l-0.783,-0.776c-0.223,-0.222 -0.428,-0.406 -0.615,-0.554c-0.186,-0.148 -0.316,-0.258 -0.391,-0.332c0,-0.149 -0.169,-0.464 -0.505,-0.945c-0.336,-0.481 -0.578,-0.795 -0.727,-0.943c-0.149,-0.222 -0.355,-0.648 -0.618,-1.278c-0.262,-0.629 -0.394,-1.019 -0.394,-1.167c-0.149,-0.148 -0.318,-0.518 -0.506,-1.111c-0.188,-0.593 -0.282,-0.964 -0.283,-1.112l-0.016,-3.786l-0.012,-3.005c-0.001,-0.297 0.182,-0.818 0.55,-1.561c0.368,-0.744 0.626,-1.228 0.773,-1.451c-0.222,0.001 -0.631,-0.034 -1.225,-0.106c-0.594,-0.072 -1.188,-0.125 -1.782,-0.16c-0.594,-0.034 -1.188,-0.088 -1.782,-0.159c-0.594,-0.072 -1.002,-0.107 -1.225,-0.107c-0.148,0.001 -0.371,-0.072 -0.669,-0.219c-0.297,-0.148 -0.521,-0.295 -0.67,-0.443c-0.148,0.001 -0.353,-0.165 -0.614,-0.498c-0.261,-0.333 -0.466,-0.499 -0.615,-0.499c0,-0.074 -0.075,-0.333 -0.225,-0.778c-0.076,-0.223 -0.151,-0.408 -0.225,-0.556l-0.007,-1.447l-0.006,-1.559c0,-0.074 0.072,-0.445 0.218,-1.114c0.146,-0.669 0.218,-1.114 0.217,-1.337c0.147,-0.297 0.349,-0.799 0.606,-1.505c0.257,-0.707 0.514,-1.45 0.77,-2.23l1.154,-3.512c0.073,-0.372 0.441,-1.097 1.105,-2.176c0.663,-1.079 1.105,-1.953 1.325,-2.622c0.147,-0.297 0.404,-0.892 0.772,-1.784c0.367,-0.892 0.771,-1.859 1.212,-2.9c0.441,-1.041 0.845,-2.026 1.213,-2.955c0.367,-0.929 0.624,-1.58 0.771,-1.952c0.367,-0.892 0.864,-1.766 1.492,-2.622c0.627,-0.856 1.273,-1.713 1.937,-2.569c0.665,-0.856 1.292,-1.768 1.882,-2.735c0.589,-0.968 1.03,-2.009 1.323,-3.123c0.073,-0.075 0.221,-0.298 0.442,-0.67c0.221,-0.372 0.461,-0.763 0.719,-1.172c0.258,-0.409 0.516,-0.819 0.774,-1.228c0.258,-0.409 0.461,-0.726 0.608,-0.949c0,-0.074 0.129,-0.353 0.387,-0.836c0.257,-0.484 0.46,-0.874 0.607,-1.172c0.222,-0.224 0.573,-0.615 1.053,-1.173c0.48,-0.559 0.794,-0.876 0.942,-0.951c0.147,-0.297 0.535,-0.763 1.163,-1.396c0.629,-0.634 1.017,-1.025 1.164,-1.174c0.075,0 0.334,-0.187 0.777,-0.56c0.444,-0.373 0.74,-0.634 0.888,-0.783c0.074,0 0.333,-0.076 0.778,-0.226c0.148,-0.075 0.333,-0.15 0.556,-0.225l2.115,-0.009l2.004,-0.008l1.342,1.33c0.148,0.074 0.354,0.333 0.615,0.777c0.262,0.444 0.467,0.74 0.616,0.888c0.001,0.149 0.133,0.593 0.395,1.335c0.263,0.741 0.47,1.296 0.62,1.667c0.149,0.222 0.411,0.796 0.786,1.722c0.375,0.927 0.563,1.501 0.564,1.724c0.001,0.148 0.058,0.426 0.171,0.834c0.113,0.408 0.244,0.834 0.395,1.279c0.15,0.444 0.282,0.871 0.395,1.278c0.113,0.408 0.17,0.723 0.171,0.946c0,0.148 0.095,0.538 0.283,1.168c0.188,0.63 0.283,1.093 0.284,1.39c0.076,0.445 0.227,1.057 0.453,1.835c0.226,0.779 0.452,1.576 0.678,2.391c0.226,0.816 0.415,1.557 0.566,2.224c0.151,0.668 0.264,1.075 0.339,1.224c0.001,0.371 0.17,0.834 0.507,1.389c0.336,0.555 0.505,1.093 0.507,1.612c0.151,0.519 0.321,1.242 0.51,2.169c0.19,0.927 0.285,1.465 0.286,1.613l0.016,4.008c0.001,0.149 -0.091,0.353 -0.276,0.614c-0.184,0.26 -0.35,0.465 -0.498,0.614c-0.147,0.223 -0.443,0.67 -0.885,1.34c-0.443,0.67 -0.701,1.042 -0.775,1.116c-0.148,0.149 -0.536,0.466 -1.165,0.951c-0.629,0.486 -1.017,0.803 -1.165,0.952c-0.148,0 -0.463,0.076 -0.945,0.226c-0.482,0.151 -0.834,0.226 -1.057,0.227l-0.222,0.001l-0.334,0.002c-0.075,0 -0.261,-0.073 -0.558,-0.221c-0.298,-0.147 -0.483,-0.22 -0.558,-0.22c-0.149,-0.148 -0.261,-0.333 -0.336,-0.555c-0.15,-0.445 -0.226,-0.704 -0.226,-0.779c-0.149,-0.147 -0.28,-0.444 -0.393,-0.889c-0.113,-0.445 -0.244,-0.704 -0.393,-0.777c-0.001,-0.297 -0.096,-0.761 -0.284,-1.391c-0.188,-0.63 -0.283,-1.019 -0.283,-1.168c-0.001,-0.222 -0.022,-0.612 -0.061,-1.168c-0.039,-0.557 -0.098,-1.169 -0.175,-1.837c-0.077,-0.667 -0.135,-1.298 -0.175,-1.892c-0.039,-0.593 -0.059,-0.964 -0.06,-1.113c-0.15,-0.444 -0.263,-0.852 -0.339,-1.223c-0.076,-0.371 -0.151,-0.723 -0.227,-1.057c-0.076,-0.333 -0.114,-0.574 -0.114,-0.723c-0.152,-0.741 -0.471,-1.631 -0.958,-2.668c-0.487,-1.037 -0.805,-1.741 -0.955,-2.111c-0.075,-0.297 -0.264,-0.982 -0.565,-2.057c-0.302,-1.075 -0.49,-1.798 -0.566,-2.169c-0.15,-0.37 -0.319,-0.852 -0.507,-1.445c-0.188,-0.593 -0.395,-1.186 -0.62,-1.779c-0.299,-0.667 -0.562,-1.371 -0.788,-2.112l-0.668,0.003c0.001,0.223 0.021,0.668 0.061,1.336c0.04,0.667 0.062,1.391 0.065,2.17c0.003,0.78 0.025,1.503 0.065,2.171c0.04,0.668 0.06,1.113 0.061,1.336c0.001,0.297 -0.089,0.872 -0.271,1.727c-0.182,0.854 -0.31,1.393 -0.383,1.615c-0.001,-0.148 -0.095,-0.482 -0.283,-1c-0.187,-0.519 -0.281,-0.853 -0.282,-1.001c-0.075,-0.222 -0.151,-0.575 -0.227,-1.057c-0.076,-0.482 -0.134,-1.001 -0.174,-1.558c-0.039,-0.556 -0.097,-1.094 -0.173,-1.613c-0.077,-0.52 -0.152,-0.89 -0.228,-1.113l-0.992,2.342l0.046,11.022l-0.664,1.005l-0.894,-0.998l-0.038,-9.018c-0.148,0.149 -0.351,0.41 -0.609,0.782c-0.258,0.372 -0.535,0.763 -0.83,1.172c-0.295,0.41 -0.554,0.8 -0.775,1.172c-0.221,0.372 -0.368,0.67 -0.441,0.893c-0.074,0.149 -0.295,0.613 -0.662,1.394c-0.368,0.781 -0.773,1.692 -1.214,2.733c-0.441,1.041 -0.9,2.082 -1.378,3.123c-0.478,1.041 -0.828,1.859 -1.048,2.454c-0.073,0.297 -0.257,0.613 -0.552,0.948c-0.296,0.336 -0.48,0.652 -0.553,0.949c-0.147,0.446 -0.348,1.041 -0.605,1.784c-0.257,0.743 -0.513,1.486 -0.77,2.23c-0.257,0.743 -0.495,1.431 -0.715,2.062c-0.22,0.632 -0.367,0.985 -0.441,1.06c0.001,0.148 0.095,0.519 0.283,1.112c0.188,0.593 0.282,1.001 0.283,1.223c0.223,0 0.687,0.016 1.392,0.05c0.705,0.034 1.448,0.05 2.227,0.047c0.779,-0.004 1.522,-0.007 2.227,-0.01c0.705,-0.003 1.243,-0.042 1.614,-0.118c0.074,0 0.296,-0.019 0.667,-0.058c0.371,-0.039 0.798,-0.096 1.28,-0.172c0.482,-0.077 0.946,-0.134 1.391,-0.173c0.445,-0.039 0.742,-0.059 0.89,-0.06c0.297,-0.075 0.705,-0.17 1.224,-0.283c0.519,-0.114 1.038,-0.209 1.557,-0.285c0.519,-0.076 0.964,-0.152 1.335,-0.228c0.371,-0.076 0.593,-0.114 0.668,-0.114l5.232,-0.022l4.342,-0.018c0.223,0.147 0.8,0.368 1.729,0.661c0.929,0.293 1.579,0.512 1.951,0.659c0.149,0.148 0.54,0.536 1.173,1.164c0.634,0.629 1.026,1.091 1.175,1.387c0.075,0.223 0.281,0.63 0.618,1.222c0.336,0.593 0.505,1 0.506,1.223l0.027,6.568c0,0.075 -0.073,0.335 -0.219,0.781c-0.147,0.446 -0.22,0.743 -0.219,0.891c-0.074,0.149 -0.184,0.391 -0.331,0.725c-0.147,0.335 -0.331,0.688 -0.552,1.06c-0.222,0.372 -0.443,0.744 -0.664,1.116c-0.221,0.372 -0.368,0.67 -0.441,0.893c-0.074,0.223 -0.184,0.446 -0.332,0.669c-0.147,0.149 -0.277,0.317 -0.387,0.503c-0.111,0.186 -0.203,0.353 -0.276,0.502c-0.296,0.298 -0.665,0.726 -1.108,1.285c-0.443,0.558 -0.739,0.912 -0.887,1.061c0.001,0.149 -0.128,0.353 -0.387,0.614c-0.258,0.261 -0.462,0.466 -0.609,0.615c-0.148,0.149 -0.407,0.373 -0.777,0.671c-0.37,0.299 -0.758,0.616 -1.165,0.951c-0.407,0.336 -0.777,0.635 -1.11,0.896c-0.332,0.261 -0.536,0.429 -0.61,0.503c-0.148,0.149 -0.462,0.373 -0.943,0.672c-0.481,0.299 -0.796,0.523 -0.944,0.672c-0.148,0.001 -0.407,0.132 -0.777,0.393c-0.37,0.261 -0.796,0.523 -1.278,0.785c-0.481,0.261 -0.925,0.523 -1.332,0.785c-0.407,0.261 -0.648,0.429 -0.722,0.504c-0.074,0 -0.222,0.112 -0.444,0.335c-0.074,0.075 -0.11,0.149 -0.11,0.224l0.007,1.669c0.001,0.223 0.04,0.761 0.118,1.614c0.078,0.854 0.137,1.763 0.178,2.727c0.041,0.965 0.101,1.855 0.178,2.671c0.078,0.817 0.117,1.299 0.118,1.447l0.033,7.905c0,0.148 -0.036,0.427 -0.108,0.835c-0.073,0.409 -0.126,0.836 -0.162,1.281c-0.035,0.446 -0.089,0.873 -0.161,1.281c-0.073,0.409 -0.109,0.65 -0.109,0.724c-0.149,-0.222 -0.281,-0.704 -0.395,-1.445c-0.115,-0.742 -0.247,-1.261 -0.397,-1.557c-0.076,-0.594 -0.173,-1.651 -0.291,-3.172c-0.118,-1.521 -0.236,-3.154 -0.355,-4.897c-0.118,-1.744 -0.218,-3.376 -0.298,-4.898c-0.081,-1.521 -0.122,-2.578 -0.125,-3.172l-0.679,-2.558Zm-47.72,-2.57c0.1,0.543 0.199,1.058 0.299,1.545c0.113,0.556 0.171,0.946 0.171,1.168c0.15,0.148 0.3,0.574 0.451,1.279c0.151,0.704 0.227,1.131 0.228,1.279l0.005,1.113c0,0.149 -0.073,0.465 -0.219,0.948c-0.146,0.483 -0.294,0.799 -0.441,0.948c0,0.074 -0.129,0.334 -0.387,0.781c-0.258,0.446 -0.461,0.744 -0.608,0.893l-1.331,1.341c-0.074,0.075 -0.333,0.262 -0.777,0.56c-0.444,0.299 -0.74,0.486 -0.888,0.561c-0.148,0.149 -0.296,0.242 -0.444,0.28c-0.148,0.038 -0.297,0.094 -0.445,0.169c-0.222,0.075 -0.37,0.113 -0.445,0.113c-0.222,0.075 -0.407,0.15 -0.555,0.225c-0.074,0.074 -0.185,0.112 -0.334,0.113l-0.223,0.001c-0.296,0.001 -0.556,-0.035 -0.779,-0.109c-0.223,-0.073 -0.409,-0.146 -0.558,-0.22c-0.148,0.001 -0.26,-0.036 -0.334,-0.11c-0.149,-0.148 -0.224,-0.296 -0.225,-0.444c0,-0.074 -0.076,-0.408 -0.227,-1.001c-0.151,-0.593 -0.301,-1.075 -0.451,-1.446c-0.076,-0.445 -0.209,-1.112 -0.398,-2.002c-0.189,-0.89 -0.36,-1.817 -0.513,-2.781c-0.152,-0.964 -0.323,-1.854 -0.512,-2.67c-0.189,-0.816 -0.321,-1.335 -0.396,-1.557c0,-0.074 -0.038,-0.278 -0.114,-0.612c-0.076,-0.334 -0.133,-0.723 -0.172,-1.168c-0.039,-0.445 -0.096,-0.89 -0.172,-1.335c-0.076,-0.445 -0.115,-0.816 -0.116,-1.113c-0.001,-0.223 -0.04,-0.594 -0.116,-1.113c-0.077,-0.519 -0.153,-1.039 -0.229,-1.558c-0.077,-0.519 -0.153,-0.983 -0.229,-1.39c-0.076,-0.408 -0.114,-0.649 -0.114,-0.724c-0.002,-0.445 -0.024,-1.113 -0.064,-2.003c-0.041,-0.891 -0.101,-1.837 -0.179,-2.839c-0.079,-1.001 -0.138,-1.892 -0.178,-2.671c-0.041,-0.779 -0.061,-1.28 -0.062,-1.503l-0.057,-13.582l-0.056,-13.471c-0.001,-0.148 0.072,-0.445 0.219,-0.891c0.146,-0.446 0.219,-0.706 0.219,-0.781c0.148,-0.149 0.295,-0.409 0.442,-0.781c0.074,-0.223 0.147,-0.409 0.221,-0.557c0.147,-0.149 0.369,-0.373 0.665,-0.671c0.295,-0.298 0.591,-0.615 0.886,-0.95c0.296,-0.335 0.573,-0.633 0.832,-0.894c0.258,-0.261 0.462,-0.429 0.61,-0.504c0.148,-0.149 0.537,-0.355 1.166,-0.617c0.63,-0.262 1.019,-0.468 1.167,-0.617l1.002,-0.004l1.002,-0.005c0.075,0.149 0.149,0.26 0.224,0.333l0.335,0.333c0.075,0.148 0.169,0.537 0.283,1.168c0.114,0.63 0.172,1.02 0.172,1.168l0.124,29.614c0.222,-0.149 0.629,-0.374 1.222,-0.673c0.592,-0.299 1.203,-0.599 1.833,-0.898c0.63,-0.3 1.222,-0.581 1.778,-0.843c0.555,-0.262 0.944,-0.468 1.166,-0.617c0.148,-0.149 0.462,-0.373 0.944,-0.672c0.481,-0.299 0.832,-0.523 1.055,-0.672c0.295,-0.224 0.702,-0.541 1.22,-0.952c0.518,-0.41 1.017,-0.82 1.498,-1.231c0.481,-0.41 0.925,-0.746 1.332,-1.007c0.407,-0.262 0.611,-0.392 0.611,-0.392c0.295,-0.299 0.831,-0.82 1.607,-1.566c0.777,-0.745 1.59,-1.547 2.44,-2.404c0.85,-0.857 1.644,-1.658 2.383,-2.403c0.739,-0.746 1.219,-1.304 1.441,-1.676c0.074,-0.001 0.166,-0.168 0.276,-0.502c0.11,-0.335 0.239,-0.502 0.387,-0.503c0,-0.074 0.073,-0.39 0.219,-0.947c0.146,-0.557 0.219,-0.91 0.218,-1.059c0.074,-0.074 0.111,-0.149 0.111,-0.223c-0.001,-0.148 0.036,-0.26 0.11,-0.334c0.073,-0.149 0.184,-0.298 0.332,-0.447c0.221,-0.372 0.571,-0.837 1.052,-1.396c0.48,-0.559 0.794,-0.913 0.941,-1.062c0.148,-0.149 0.592,-0.54 1.332,-1.174c0.739,-0.634 1.294,-1.1 1.664,-1.399l0.444,-0.224c0.296,-0.15 0.482,-0.225 0.556,-0.225c0.222,-0.15 0.574,-0.281 1.056,-0.394c0.482,-0.114 0.797,-0.171 0.945,-0.171l0.445,-0.114c0.075,0 0.149,0.018 0.223,0.055c0.075,0.037 0.149,0.055 0.223,0.055l0.111,-0.001c0.52,-0.002 0.78,0.183 0.782,0.554l0.013,3.006c0,0.074 -0.074,0.26 -0.221,0.557c-0.147,0.298 -0.313,0.633 -0.497,1.004c-0.184,0.372 -0.386,0.744 -0.607,1.116c-0.221,0.372 -0.369,0.633 -0.442,0.781c-0.147,0.298 -0.535,0.912 -1.162,1.842c-0.627,0.931 -1.088,1.619 -1.383,2.066c-0.073,0.223 -0.442,0.707 -1.107,1.452c-0.665,0.745 -1.108,1.266 -1.329,1.564c-0.222,0.298 -0.665,0.819 -1.33,1.564c-0.665,0.745 -1.385,1.527 -2.161,2.347c-0.776,0.82 -1.496,1.602 -2.161,2.347c-0.665,0.745 -1.108,1.229 -1.33,1.453c0.149,0.148 0.447,0.369 0.893,0.664c0.447,0.295 0.745,0.517 0.894,0.664c0.149,0.148 0.372,0.351 0.67,0.61c0.298,0.258 0.615,0.554 0.95,0.887c0.336,0.332 0.634,0.646 0.895,0.942c0.261,0.296 0.429,0.481 0.503,0.555c0.149,0.073 0.485,0.647 1.009,1.721c0.524,1.074 0.936,1.87 1.235,2.389c0.075,0.222 0.375,0.815 0.898,1.777c0.524,0.963 1.066,1.963 1.627,2.999c0.561,1.037 1.085,2.037 1.571,3c0.487,0.963 0.804,1.555 0.954,1.777c0,0.149 0.132,0.464 0.393,0.945c0.262,0.481 0.58,1.037 0.954,1.666c0.373,0.629 0.766,1.258 1.177,1.888c0.41,0.629 0.728,1.128 0.952,1.499c0.149,0.147 0.373,0.443 0.672,0.888c0.299,0.444 0.523,0.74 0.672,0.887c0.149,0.297 0.448,0.722 0.896,1.277c0.447,0.555 0.709,0.98 0.784,1.277c0.299,0.37 0.765,0.962 1.399,1.775c0.635,0.814 1.026,1.221 1.174,1.22c0.224,0.296 0.709,0.814 1.454,1.553l4.696,4.656c0.745,0.739 1.304,1.219 1.676,1.441c0,0.139 0.083,0.343 0.247,0.612l0.068,0.109c0.164,0.269 0.246,0.473 0.247,0.612l0.003,0.668c-0.148,0.223 -0.35,0.632 -0.608,1.227c-0.257,0.595 -0.385,0.967 -0.385,1.115c-0.147,0.149 -0.388,0.41 -0.72,0.783c-0.332,0.372 -0.702,0.745 -1.109,1.118c-0.406,0.372 -0.795,0.727 -1.164,1.062c-0.37,0.336 -0.666,0.578 -0.888,0.727l-0.667,0.226c-0.445,0.15 -0.778,0.226 -1.001,0.227l-1.336,0.005c-0.223,-0.073 -0.409,-0.146 -0.558,-0.22c-0.074,0 -0.129,-0.018 -0.167,-0.055c-0.037,-0.037 -0.093,-0.055 -0.167,-0.055c-0.074,0 -0.149,-0.036 -0.223,-0.11c-0.15,-0.297 -0.541,-0.666 -1.174,-1.109c-0.632,-0.443 -1.023,-0.738 -1.172,-0.886c-0.298,-0.073 -0.819,-0.497 -1.564,-1.273c-0.746,-0.777 -1.231,-1.35 -1.455,-1.72c-0.149,-0.148 -0.41,-0.406 -0.782,-0.776c-0.373,-0.37 -0.746,-0.776 -1.119,-1.22c-0.373,-0.444 -0.746,-0.85 -1.118,-1.22c-0.373,-0.37 -0.597,-0.628 -0.671,-0.777c-0.075,-0.148 -0.281,-0.444 -0.617,-0.888c-0.335,-0.444 -0.69,-0.924 -1.063,-1.442c-0.373,-0.518 -0.747,-1.036 -1.12,-1.554c-0.373,-0.518 -0.635,-0.888 -0.784,-1.111c-0.149,-0.147 -0.373,-0.443 -0.672,-0.887c-0.298,-0.444 -0.522,-0.703 -0.671,-0.777c-0.224,-0.37 -0.635,-1.055 -1.233,-2.054c-0.598,-1 -1.196,-2.055 -1.795,-3.166c-0.598,-1.111 -1.196,-2.147 -1.794,-3.11c-0.598,-0.962 -1.009,-1.628 -1.233,-1.999l-1.004,-0.552l0.012,3.006l-0.668,0.003c-0.075,-0.297 -0.151,-0.593 -0.226,-0.89c-0.076,-0.297 -0.169,-0.575 -0.282,-0.834c-0.112,-0.259 -0.206,-0.5 -0.281,-0.722c-0.001,-0.149 -0.039,-0.483 -0.116,-1.002c-0.076,-0.519 -0.134,-1.057 -0.173,-1.613c-0.04,-0.557 -0.098,-1.095 -0.174,-1.614c-0.077,-0.519 -0.115,-0.853 -0.116,-1.002c0,-0.148 -0.076,-0.445 -0.226,-0.889c-0.15,-0.445 -0.226,-0.816 -0.227,-1.113l-0.673,-0.999c-0.149,-0.148 -0.372,-0.406 -0.671,-0.776c-0.298,-0.37 -0.522,-0.555 -0.67,-0.554l0.005,1.336c0.076,0.296 0.172,1.057 0.288,2.281c0.117,1.224 0.215,2.541 0.295,3.951c0.08,1.41 0.141,2.746 0.184,4.007c0.042,1.262 0.064,2.041 0.065,2.338l0.07,16.699l-0.767,3.01l-0.559,-0.555c0,0 -0.038,-0.185 -0.113,-0.556c-0.076,-0.371 -0.134,-0.816 -0.173,-1.335c-0.039,-0.52 -0.079,-1.039 -0.118,-1.558c-0.039,-0.52 -0.059,-0.928 -0.061,-1.225c-0.075,-0.371 -0.153,-1.205 -0.233,-2.504c-0.079,-1.298 -0.16,-2.819 -0.241,-4.563c-0.082,-1.744 -0.182,-3.599 -0.302,-5.566c-0.12,-1.966 -0.22,-3.821 -0.302,-5.565c-0.081,-1.744 -0.143,-3.265 -0.186,-4.564c-0.042,-1.299 -0.064,-2.171 -0.066,-2.616c-0.075,-0.148 -0.151,-0.463 -0.227,-0.945c-0.076,-0.482 -0.134,-0.965 -0.173,-1.447c-0.039,-0.482 -0.097,-0.946 -0.173,-1.391c-0.076,-0.445 -0.151,-0.741 -0.226,-0.89c-0.148,0.001 -0.446,-0.053 -0.891,-0.163c-0.446,-0.109 -0.706,-0.164 -0.78,-0.164c-0.149,0.001 -0.52,0.077 -1.113,0.228c-0.296,0.075 -0.556,0.113 -0.779,0.114c-0.074,0.001 -0.574,0.133 -1.501,0.396c-0.927,0.264 -1.649,0.471 -2.168,0.622c-0.148,0.149 -0.537,0.354 -1.167,0.617c-0.629,0.262 -1.018,0.468 -1.166,0.617c0.001,0.223 0.039,0.538 0.115,0.946c0.076,0.408 0.134,0.834 0.173,1.279c0.038,0.446 0.096,0.872 0.172,1.28c0.076,0.408 0.114,0.686 0.115,0.835c0.15,0.37 0.282,1 0.397,1.891c0.115,0.89 0.247,1.409 0.396,1.557c0.001,0.222 0.059,0.63 0.172,1.223c0.086,0.445 0.171,0.901 0.257,1.367l0.128,0.704Zm-84.938,6.115c-0.147,0.371 -0.404,1.022 -0.771,1.951c-0.367,0.929 -0.55,1.505 -0.549,1.728c0,0.148 -0.017,0.371 -0.053,0.668c-0.036,0.297 -0.054,0.52 -0.053,0.668l0.668,-0.002c0.222,-0.15 0.741,-0.282 1.557,-0.396c0.816,-0.115 1.298,-0.247 1.446,-0.396l-0.001,-0.223l-0.002,-0.334c-0.001,-0.222 -0.17,-0.797 -0.508,-1.723c-0.338,-0.927 -0.508,-1.575 -0.509,-1.947c-0.149,0.001 -0.279,-0.165 -0.392,-0.499c-0.113,-0.333 -0.206,-0.5 -0.28,-0.5l-0.553,1.005Zm125.681,-21.552c0,0.149 0.001,0.39 0.003,0.724c0.001,0.334 0.04,0.686 0.115,1.057c0.076,0.371 0.152,0.779 0.228,1.224c0.001,0.297 0.133,0.723 0.395,1.279c0.262,0.555 0.542,0.981 0.841,1.276c0,0.075 0.317,0.444 0.951,1.11c0.633,0.665 1.099,1.108 1.397,1.33c0.074,0 0.26,0.092 0.558,0.276c0.297,0.184 0.483,0.276 0.557,0.276l3.34,-0.014l2.672,-0.011c0.074,0 0.278,-0.076 0.612,-0.225c0.333,-0.15 0.685,-0.319 1.055,-0.506c0.37,-0.187 0.741,-0.393 1.111,-0.617c0.37,-0.224 0.629,-0.411 0.777,-0.56c0.148,-0.075 0.37,-0.261 0.666,-0.559c0.295,-0.298 0.517,-0.485 0.665,-0.56c0.073,-0.297 0.275,-0.724 0.607,-1.282c0.332,-0.558 0.497,-0.986 0.496,-1.283l-0.006,-1.447l-0.007,-1.559c0,-0.148 -0.169,-0.537 -0.506,-1.167c-0.336,-0.629 -0.542,-1.018 -0.617,-1.166c-0.149,-0.074 -0.465,-0.276 -0.949,-0.608c-0.483,-0.332 -0.8,-0.498 -0.948,-0.497c-0.075,-0.149 -0.521,-0.277 -1.338,-0.384c-0.817,-0.108 -1.373,-0.162 -1.67,-0.161l-1.448,0.007l-1.558,0.006c-0.371,0.002 -0.891,0.022 -1.559,0.062c-0.667,0.04 -1.354,0.08 -2.059,0.12c-0.705,0.04 -1.335,0.098 -1.892,0.175c-0.556,0.077 -0.871,0.152 -0.945,0.227c-0.149,0 -0.371,0.075 -0.667,0.225c-0.222,0.075 -0.408,0.15 -0.556,0.225c0.001,0.297 -0.052,0.817 -0.16,1.559c-0.109,0.743 -0.162,1.226 -0.161,1.448Z" style="fill:#f00;stroke:#fff;stroke-width:1px;"/>
        </g>
    </g>
</svg>
