<?xml version="1.0" encoding="UTF-8" standalone="no"?>
<!DOCTYPE svg PUBLIC "-//W3C//DTD SVG 1.1//EN" "http://www.w3.org/Graphics/SVG/1.1/DTD/svg11.dtd">
<svg width="847px" height="126px" version="1.1" xmlns="http://www.w3.org/2000/svg" xmlns:xlink="http://www.w3.org/1999/xlink" xml:space="preserve" style="fill-rule:evenodd;clip-rule:evenodd;stroke-linejoin:round;stroke-miterlimit:1.41421;">
    <g transform="matrix(1,0,0,1,-284.477,-307.4)">
        <path d="M375.749,397.033c0,-7.654 -2.186,-10.752 -7.653,-10.752c-5.467,0 -7.654,3.098 -7.654,10.57c0.182,17.494 -1.093,18.77 -16.583,18.77l-12.574,0c-12.939,0 -16.401,-2.005 -16.766,-9.294c-0.182,-2.369 -0.364,-7.836 -0.364,-11.116l0,-22.78c0,-12.938 0,-12.938 -7.836,-16.583c-4.738,-2.186 -5.467,-4.191 -5.467,-14.214c0,-15.125 1.64,-17.13 14.943,-17.13l28.064,0c14.578,0 16.401,1.276 16.765,12.028c0.182,7.471 2.187,10.205 7.654,10.205c5.102,0 7.471,-3.098 7.471,-10.388l0.183,-8.382c0.182,-15.854 -2.552,-18.77 -17.312,-18.77l-56.31,0c-13.303,0 -16.583,3.28 -16.583,16.401l0,87.654c0,14.943 2.733,17.494 18.223,17.494l53.394,0c8.747,0 11.298,-0.547 14.032,-2.551c3.098,-2.369 4.373,-5.832 4.373,-11.845l0,-19.317Z" style="fill:none;"/>
        <path d="M484.542,327.238c0,-14.943 -2.733,-18.041 -16.036,-18.041l-61.413,0c-12.938,0 -16.583,3.462 -16.583,15.49l0,89.84c0,12.392 3.463,16.219 15.126,16.219l60.865,0c8.747,0 11.481,-0.547 14.032,-2.734c2.916,-2.551 4.009,-5.831 4.009,-13.303l0,-87.471Zm-43.007,-2.551c11.845,0 13.85,1.64 14.032,10.934c0.182,8.018 0.911,9.293 7.29,11.48c5.467,1.823 6.378,3.463 6.378,14.214l0,39.363c0,12.756 -2.187,14.76 -14.397,14.76l-36.082,0c-11.663,0 -13.12,-1.822 -13.12,-16.765l0,-58.861c0,-13.121 1.822,-15.125 13.667,-15.125l22.232,0Z" style="fill:none;"/>
        <path d="M630.51,327.785c0,-15.855 -2.733,-18.588 -18.041,-18.588l-92.391,0c-15.49,0 -18.588,2.916 -18.588,17.859l0,86.924c0,12.757 3.462,16.766 14.396,16.766c10.934,0 14.397,-4.009 14.397,-16.401l0,-41.367l0,-4.738c-0.183,-7.471 -1.276,-9.84 -6.379,-11.845c-5.831,-2.369 -6.742,-3.827 -6.742,-11.845l0,-5.832c0,-11.662 2.369,-14.214 13.121,-14.214l18.769,0c11.117,0 12.939,2.187 12.939,15.855l0,81.457c0,7.108 2.187,10.206 7.836,10.206c5.103,0 7.654,-3.463 7.654,-10.57l0,-81.276c0,-13.849 1.64,-15.672 13.667,-15.672l8.93,0c13.849,0 15.125,1.094 15.125,15.672l0,81.094c0,7.471 2.187,10.752 7.471,10.752c5.103,0 7.836,-3.463 7.836,-10.388l0,-93.849Z" style="fill:none;"/>
        <path d="M728.187,327.602c0,-10.751 -0.729,-13.303 -4.92,-16.036c-2.734,-1.822 -6.014,-2.369 -14.397,-2.369l-42.824,0c-15.49,0 -18.77,2.916 -18.77,16.036l0,88.565c0,8.018 0.546,10.934 2.915,13.303c2.37,2.369 6.196,3.645 11.117,3.645c11.48,0 14.578,-3.645 14.578,-17.312l0,-25.513c0,-14.396 1.276,-15.854 13.85,-15.854l19.863,0c15.672,0 18.588,-2.733 18.588,-16.948l0,-27.517Zm-28.975,-2.915c12.027,0 13.485,1.822 13.485,14.943c0,15.307 -1.275,17.13 -13.485,17.13l-23.872,0c-11.117,0 -12.757,-2.187 -12.757,-16.219c0,-13.485 1.823,-15.854 13.303,-15.854l23.326,0Z" style="fill:none;"/>
        <path d="M831.877,318.491c0,-6.925 -2.369,-9.841 -7.654,-9.841c-5.284,0 -7.653,2.916 -7.653,9.841l0,83.28c0,11.298 -2.187,13.485 -13.303,13.485l-16.583,0c-14.397,0 -16.219,-1.458 -16.401,-13.667l0,-6.561l0,-20.774c0,-13.85 -0.729,-15.49 -5.832,-17.677l-3.098,-1.458c-3.28,-1.275 -4.373,-4.191 -4.373,-11.48l0,-5.832l0,-19.316c0,-6.925 -2.187,-9.841 -7.654,-9.841c-5.285,0 -7.654,3.098 -7.654,9.841l0,94.943c0,14.761 3.098,17.312 20.592,17.312l47.563,0c19.317,0 22.05,-2.005 22.05,-16.401l0,-95.854Z" style="fill:none;"/>
        <path d="M908.597,370.062c0,-9.111 -0.911,-11.116 -5.649,-13.12l-2.369,-0.911c-4.556,-1.823 -5.103,-3.645 -5.103,-16.766c0,-12.392 2.005,-14.761 12.574,-14.761l13.121,0c5.649,0 7.836,-0.182 9.658,-1.093c2.187,-0.911 3.645,-3.645 3.645,-6.743c0,-5.467 -3.098,-7.471 -12.027,-7.471l-67.426,0c-7.836,0 -11.116,2.369 -11.116,7.654c0,5.467 3.28,7.653 10.751,7.653l9.112,0c10.023,0 11.663,0.365 14.032,2.734c2.004,2.187 2.369,3.827 2.369,12.938l0,75.809c0,10.934 3.644,14.761 14.214,14.761c10.569,0 14.214,-3.827 14.214,-14.761l0,-45.923Z" style="fill:none;"/>
        <path d="M975.112,390.473c0,-17.13 1.093,-18.588 14.214,-18.588l23.872,0c4.921,0 8.201,-3.098 8.201,-7.654c0,-3.098 -1.822,-6.014 -4.556,-6.925c-2.004,-0.546 -3.462,-0.729 -9.84,-0.729l-28.793,0l-5.467,0c-8.929,0 -10.752,-2.551 -10.752,-14.761c0,-15.307 1.64,-17.312 13.303,-17.312l36.264,0c6.743,0 9.659,-2.186 9.659,-7.471c0,-5.103 -3.28,-7.836 -9.659,-7.836l-48.473,0c-13.486,0 -16.401,3.28 -16.401,17.494l0,88.93c0,11.845 3.644,15.125 16.401,15.125l46.469,0c8.383,0 11.845,-2.187 11.845,-7.836c0,-5.649 -3.28,-7.654 -12.027,-7.654l-18.953,0c-14.031,0 -15.307,-1.458 -15.307,-15.307l0,-9.476Z" style="fill:none;"/>
        <path d="M1130.19,370.245c0,-9.841 -0.729,-11.299 -7.29,-13.85c-5.284,-2.187 -6.013,-3.827 -6.013,-12.938l0,-17.677c0,-13.667 -3.098,-16.583 -18.406,-16.583l-44.464,0c-15.308,0 -18.041,2.916 -18.041,18.588l0,88.2c0,10.934 3.644,14.761 14.76,14.761c10.752,0 13.85,-3.827 13.85,-16.583l0,-28.429c0,-11.48 2.187,-13.667 12.939,-13.667l23.143,0c12.392,0 14.214,2.005 14.214,16.219l0,32.802c0,7.653 2.187,10.934 7.472,10.934c5.467,0 7.836,-3.281 7.836,-10.752l0,-51.025Zm-41.367,-45.558c10.752,0 12.574,2.551 12.574,16.218c0,13.85 -1.64,15.855 -12.574,15.855l-26.424,0c-9.111,0 -11.116,-2.734 -11.116,-15.126c0,-14.214 1.64,-16.947 11.116,-16.947l26.424,0Z" style="fill:none;"/>
        <path d="M375.749,397.033c0,-7.654 -2.186,-10.752 -7.653,-10.752c-5.467,0 -7.654,3.098 -7.654,10.57c0.182,17.494 -1.093,18.77 -16.583,18.77l-12.574,0c-12.939,0 -16.401,-2.005 -16.766,-9.294c-0.182,-2.369 -0.364,-7.836 -0.364,-11.116l0,-22.78c0,-12.938 0,-12.938 -7.836,-16.583c-4.738,-2.186 -5.467,-4.191 -5.467,-14.214c0,-15.125 1.64,-17.13 14.943,-17.13l28.064,0c14.578,0 16.401,1.276 16.765,12.028c0.182,7.471 2.187,10.205 7.654,10.205c5.102,0 7.471,-3.098 7.471,-10.388l0.183,-8.382c0.182,-15.854 -2.552,-18.77 -17.312,-18.77l-56.31,0c-13.303,0 -16.583,3.28 -16.583,16.401l0,87.654c0,14.943 2.733,17.494 18.223,17.494l53.394,0c8.747,0 11.298,-0.547 14.032,-2.551c3.098,-2.369 4.373,-5.832 4.373,-11.845l0,-19.317Z" style="fill:#f2f2f2;fill-rule:nonzero;stroke:#000;stroke-width:2.5px;"/>
        <path d="M484.542,327.238c0,-14.943 -2.733,-18.041 -16.036,-18.041l-61.413,0c-12.938,0 -16.583,3.462 -16.583,15.49l0,89.84c0,12.392 3.463,16.219 15.126,16.219l60.865,0c8.747,0 11.481,-0.547 14.032,-2.734c2.916,-2.551 4.009,-5.831 4.009,-13.303l0,-87.471Zm-43.007,-2.551c11.845,0 13.85,1.64 14.032,10.934c0.182,8.018 0.911,9.293 7.29,11.48c5.467,1.823 6.378,3.463 6.378,14.214l0,39.363c0,12.756 -2.187,14.76 -14.397,14.76l-36.082,0c-11.663,0 -13.12,-1.822 -13.12,-16.765l0,-58.861c0,-13.121 1.822,-15.125 13.667,-15.125l22.232,0Z" style="fill:#f2f2f2;fill-rule:nonzero;stroke:#000;stroke-width:2.5px;"/>
        <path d="M630.51,327.785c0,-15.855 -2.733,-18.588 -18.041,-18.588l-92.391,0c-15.49,0 -18.588,2.916 -18.588,17.859l0,86.924c0,12.757 3.462,16.766 14.396,16.766c10.934,0 14.397,-4.009 14.397,-16.401l0,-41.367l0,-4.738c-0.183,-7.471 -1.276,-9.84 -6.379,-11.845c-5.831,-2.369 -6.742,-3.827 -6.742,-11.845l0,-5.832c0,-11.662 2.369,-14.214 13.121,-14.214l18.769,0c11.117,0 12.939,2.187 12.939,15.855l0,81.457c0,7.108 2.187,10.206 7.836,10.206c5.103,0 7.654,-3.463 7.654,-10.57l0,-81.276c0,-13.849 1.64,-15.672 13.667,-15.672l8.93,0c13.849,0 15.125,1.094 15.125,15.672l0,81.094c0,7.471 2.187,10.752 7.471,10.752c5.103,0 7.836,-3.463 7.836,-10.388l0,-93.849Z" style="fill:#f2f2f2;fill-rule:nonzero;stroke:#000;stroke-width:2.5px;"/>
        <path d="M728.187,327.602c0,-10.751 -0.729,-13.303 -4.92,-16.036c-2.734,-1.822 -6.014,-2.369 -14.397,-2.369l-42.824,0c-15.49,0 -18.77,2.916 -18.77,16.036l0,88.565c0,8.018 0.546,10.934 2.915,13.303c2.37,2.369 6.196,3.645 11.117,3.645c11.48,0 14.578,-3.645 14.578,-17.312l0,-25.513c0,-14.396 1.276,-15.854 13.85,-15.854l19.863,0c15.672,0 18.588,-2.733 18.588,-16.948l0,-27.517Zm-28.975,-2.915c12.027,0 13.485,1.822 13.485,14.943c0,15.307 -1.275,17.13 -13.485,17.13l-23.872,0c-11.117,0 -12.757,-2.187 -12.757,-16.219c0,-13.485 1.823,-15.854 13.303,-15.854l23.326,0Z" style="fill:#f2f2f2;fill-rule:nonzero;stroke:#000;stroke-width:2.5px;"/>
        <path d="M831.877,318.491c0,-6.925 -2.369,-9.841 -7.654,-9.841c-5.284,0 -7.653,2.916 -7.653,9.841l0,83.28c0,11.298 -2.187,13.485 -13.303,13.485l-16.583,0c-14.397,0 -16.219,-1.458 -16.401,-13.667l0,-6.561l0,-20.774c0,-13.85 -0.729,-15.49 -5.832,-17.677l-3.098,-1.458c-3.28,-1.275 -4.373,-4.191 -4.373,-11.48l0,-5.832l0,-19.316c0,-6.925 -2.187,-9.841 -7.654,-9.841c-5.285,0 -7.654,3.098 -7.654,9.841l0,94.943c0,14.761 3.098,17.312 20.592,17.312l47.563,0c19.317,0 22.05,-2.005 22.05,-16.401l0,-95.854Z" style="fill:#f2f2f2;fill-rule:nonzero;stroke:#000;stroke-width:2.5px;"/>
        <path d="M908.597,370.062c0,-9.111 -0.911,-11.116 -5.649,-13.12l-2.369,-0.911c-4.556,-1.823 -5.103,-3.645 -5.103,-16.766c0,-12.392 2.005,-14.761 12.574,-14.761l13.121,0c5.649,0 7.836,-0.182 9.658,-1.093c2.187,-0.911 3.645,-3.645 3.645,-6.743c0,-5.467 -3.098,-7.471 -12.027,-7.471l-67.426,0c-7.836,0 -11.116,2.369 -11.116,7.654c0,5.467 3.28,7.653 10.751,7.653l9.112,0c10.023,0 11.663,0.365 14.032,2.734c2.004,2.187 2.369,3.827 2.369,12.938l0,75.809c0,10.934 3.644,14.761 14.214,14.761c10.569,0 14.214,-3.827 14.214,-14.761l0,-45.923Z" style="fill:#f2f2f2;fill-rule:nonzero;stroke:#000;stroke-width:2.5px;"/>
        <path d="M975.112,390.473c0,-17.13 1.093,-18.588 14.214,-18.588l23.872,0c4.921,0 8.201,-3.098 8.201,-7.654c0,-3.098 -1.822,-6.014 -4.556,-6.925c-2.004,-0.546 -3.462,-0.729 -9.84,-0.729l-28.793,0l-5.467,0c-8.929,0 -10.752,-2.551 -10.752,-14.761c0,-15.307 1.64,-17.312 13.303,-17.312l36.264,0c6.743,0 9.659,-2.186 9.659,-7.471c0,-5.103 -3.28,-7.836 -9.659,-7.836l-48.473,0c-13.486,0 -16.401,3.28 -16.401,17.494l0,88.93c0,11.845 3.644,15.125 16.401,15.125l46.469,0c8.383,0 11.845,-2.187 11.845,-7.836c0,-5.649 -3.28,-7.654 -12.027,-7.654l-18.953,0c-14.031,0 -15.307,-1.458 -15.307,-15.307l0,-9.476Z" style="fill:#f2f2f2;fill-rule:nonzero;stroke:#000;stroke-width:2.5px;"/>
        <path d="M1130.19,370.245c0,-9.841 -0.729,-11.299 -7.29,-13.85c-5.284,-2.187 -6.013,-3.827 -6.013,-12.938l0,-17.677c0,-13.667 -3.098,-16.583 -18.406,-16.583l-44.464,0c-15.308,0 -18.041,2.916 -18.041,18.588l0,88.2c0,10.934 3.644,14.761 14.76,14.761c10.752,0 13.85,-3.827 13.85,-16.583l0,-28.429c0,-11.48 2.187,-13.667 12.939,-13.667l23.143,0c12.392,0 14.214,2.005 14.214,16.219l0,32.802c0,7.653 2.187,10.934 7.472,10.934c5.467,0 7.836,-3.281 7.836,-10.752l0,-51.025Zm-41.367,-45.558c10.752,0 12.574,2.551 12.574,16.218c0,13.85 -1.64,15.855 -12.574,15.855l-26.424,0c-9.111,0 -11.116,-2.734 -11.116,-15.126c0,-14.214 1.64,-16.947 11.116,-16.947l26.424,0Z" style="fill:#f2f2f2;fill-rule:nonzero;stroke:#000;stroke-width:2.5px;"/>
    </g>
</svg>
