<?xml version="1.0" encoding="UTF-8" standalone="no"?>
<!DOCTYPE svg PUBLIC "-//W3C//DTD SVG 1.1//EN" "http://www.w3.org/Graphics/SVG/1.1/DTD/svg11.dtd">
<svg version="1.1" xmlns="http://www.w3.org/2000/svg" xmlns:xlink="http://www.w3.org/1999/xlink" xml:space="preserve" style="fill-rule:evenodd;clip-rule:evenodd;stroke-linejoin:round;stroke-miterlimit:1.41421;">
    <g transform="matrix(0.785668,0,0,0.785668,-11.0771,-12.1749)">
        <g transform="matrix(1,0,0,1,10,68)">
            <path d="M56.528,-14.798L41.656,-14.798L41.656,-7.547L26.932,-7.547L26.932,-14.798L19.533,-14.798L19.533,-37.143L26.932,-37.143L26.932,-44.394L41.656,-44.394L41.656,-37.143L56.528,-37.143L56.528,-44.394L49.129,-44.394L49.129,-51.867L19.533,-51.867L19.533,-44.394L12.06,-44.394L12.06,-37.143L4.735,-37.143L4.735,-14.798L12.06,-14.798L12.06,-7.547L19.533,-7.547L19.533,0L49.129,0L49.129,-7.547L56.528,-7.547L56.528,-14.798Z" style="fill:none;"/>
            <path d="M117.792,-44.394L110.393,-44.394L110.393,-51.867L73.324,-51.867L73.324,-44.394L65.999,-44.394L65.999,-7.547L73.324,-7.547L73.324,0L110.393,0L110.393,-7.547L117.792,-7.547L117.792,-44.394ZM80.723,-7.547L80.723,-44.394L102.92,-44.394L102.92,-7.547L80.723,-7.547Z" style="fill:none;"/>
            <path d="M179.056,-51.867L164.184,-51.867L164.184,-44.394L156.859,-44.394L156.859,-37.143L149.46,-37.143L149.46,-44.394L141.987,-44.394L141.987,-51.867L127.263,-51.867L127.263,0L141.987,0L141.987,-22.271L149.46,-22.271L149.46,-14.946L156.859,-14.946L156.859,-22.271L164.184,-22.271L164.184,0L179.056,0L179.056,-51.867Z" style="fill:none;"/>
            <path d="M240.32,-44.394L232.921,-44.394L232.921,-51.867L188.527,-51.867L188.527,0L203.251,0L203.251,-14.798L232.921,-14.798L232.921,-22.271L240.32,-22.271L240.32,-44.394ZM203.251,-22.271L203.251,-44.394L225.448,-44.394L225.448,-22.271L203.251,-22.271Z" style="fill:none;"/>
            <path d="M301.583,-51.867L286.711,-51.867L286.711,-7.547L264.514,-7.547L264.514,-51.867L249.79,-51.867L249.79,-7.547L257.115,-7.547L257.115,0L294.184,0L294.184,-7.547L301.583,-7.547L301.583,-51.867Z" style="fill:none;"/>
            <path d="M359.147,-51.867L314.679,-51.867L314.679,-44.394L329.551,-44.394L329.551,0L344.349,0L344.349,-44.394L359.147,-44.394L359.147,-51.867Z" style="fill:none;"/>
            <path d="M424.111,-7.547L387.042,-7.547L387.042,-22.271L416.712,-22.271L416.712,-29.596L387.042,-29.596L387.042,-44.394L424.111,-44.394L424.111,-51.867L372.318,-51.867L372.318,0L424.111,0L424.111,-7.547Z" style="fill:none;"/>
            <path d="M485.374,-7.547L477.975,-7.547L477.975,-14.798L470.502,-14.798L470.502,-22.271L485.374,-22.271L485.374,-44.394L477.975,-44.394L477.975,-51.867L433.581,-51.867L433.581,0L448.305,0L448.305,-14.798L455.778,-14.798L455.778,-7.547L463.177,-7.547L463.177,0L485.374,0L485.374,-7.547ZM463.177,-29.596L463.177,-22.271L448.305,-22.271L448.305,-44.394L470.502,-44.394L470.502,-29.596L463.177,-29.596Z" style="fill:none;"/>
        </g>
        <g transform="matrix(1,0,0,1,10,68)">
            <path d="M56.528,-14.798L41.656,-14.798L41.656,-7.547L26.932,-7.547L26.932,-14.798L19.533,-14.798L19.533,-37.143L26.932,-37.143L26.932,-44.394L41.656,-44.394L41.656,-37.143L56.528,-37.143L56.528,-44.394L49.129,-44.394L49.129,-51.867L19.533,-51.867L19.533,-44.394L12.06,-44.394L12.06,-37.143L4.735,-37.143L4.735,-14.798L12.06,-14.798L12.06,-7.547L19.533,-7.547L19.533,0L49.129,0L49.129,-7.547L56.528,-7.547L56.528,-14.798Z" style="fill:none;"/>
            <path d="M117.792,-44.394L110.393,-44.394L110.393,-51.867L73.324,-51.867L73.324,-44.394L65.999,-44.394L65.999,-7.547L73.324,-7.547L73.324,0L110.393,0L110.393,-7.547L117.792,-7.547L117.792,-44.394ZM80.723,-7.547L80.723,-44.394L102.92,-44.394L102.92,-7.547L80.723,-7.547Z" style="fill:none;"/>
            <path d="M179.056,-51.867L164.184,-51.867L164.184,-44.394L156.859,-44.394L156.859,-37.143L149.46,-37.143L149.46,-44.394L141.987,-44.394L141.987,-51.867L127.263,-51.867L127.263,0L141.987,0L141.987,-22.271L149.46,-22.271L149.46,-14.946L156.859,-14.946L156.859,-22.271L164.184,-22.271L164.184,0L179.056,0L179.056,-51.867Z" style="fill:none;"/>
            <path d="M240.32,-44.394L232.921,-44.394L232.921,-51.867L188.527,-51.867L188.527,0L203.251,0L203.251,-14.798L232.921,-14.798L232.921,-22.271L240.32,-22.271L240.32,-44.394ZM203.251,-22.271L203.251,-44.394L225.448,-44.394L225.448,-22.271L203.251,-22.271Z" style="fill:none;"/>
            <path d="M301.583,-51.867L286.711,-51.867L286.711,-7.547L264.514,-7.547L264.514,-51.867L249.79,-51.867L249.79,-7.547L257.115,-7.547L257.115,0L294.184,0L294.184,-7.547L301.583,-7.547L301.583,-51.867Z" style="fill:none;"/>
            <path d="M359.147,-51.867L314.679,-51.867L314.679,-44.394L329.551,-44.394L329.551,0L344.349,0L344.349,-44.394L359.147,-44.394L359.147,-51.867Z" style="fill:none;"/>
            <path d="M424.111,-7.547L387.042,-7.547L387.042,-22.271L416.712,-22.271L416.712,-29.596L387.042,-29.596L387.042,-44.394L424.111,-44.394L424.111,-51.867L372.318,-51.867L372.318,0L424.111,0L424.111,-7.547Z" style="fill:none;"/>
            <path d="M485.374,-7.547L477.975,-7.547L477.975,-14.798L470.502,-14.798L470.502,-22.271L485.374,-22.271L485.374,-44.394L477.975,-44.394L477.975,-51.867L433.581,-51.867L433.581,0L448.305,0L448.305,-14.798L455.778,-14.798L455.778,-7.547L463.177,-7.547L463.177,0L485.374,0L485.374,-7.547ZM463.177,-29.596L463.177,-22.271L448.305,-22.271L448.305,-44.394L470.502,-44.394L470.502,-29.596L463.177,-29.596Z" style="fill:none;"/>
            <path d="M56.528,-14.798L41.656,-14.798L41.656,-7.547L26.932,-7.547L26.932,-14.798L19.533,-14.798L19.533,-37.143L26.932,-37.143L26.932,-44.394L41.656,-44.394L41.656,-37.143L56.528,-37.143L56.528,-44.394L49.129,-44.394L49.129,-51.867L19.533,-51.867L19.533,-44.394L12.06,-44.394L12.06,-37.143L4.735,-37.143L4.735,-14.798L12.06,-14.798L12.06,-7.547L19.533,-7.547L19.533,0L49.129,0L49.129,-7.547L56.528,-7.547L56.528,-14.798Z" style="fill:white;fill-rule:nonzero;stroke:black;stroke-width:1.27px;"/>
            <path d="M117.792,-44.394L110.393,-44.394L110.393,-51.867L73.324,-51.867L73.324,-44.394L65.999,-44.394L65.999,-7.547L73.324,-7.547L73.324,0L110.393,0L110.393,-7.547L117.792,-7.547L117.792,-44.394ZM80.723,-7.547L80.723,-44.394L102.92,-44.394L102.92,-7.547L80.723,-7.547Z" style="fill:white;fill-rule:nonzero;stroke:black;stroke-width:1.27px;"/>
            <path d="M179.056,-51.867L164.184,-51.867L164.184,-44.394L156.859,-44.394L156.859,-37.143L149.46,-37.143L149.46,-44.394L141.987,-44.394L141.987,-51.867L127.263,-51.867L127.263,0L141.987,0L141.987,-22.271L149.46,-22.271L149.46,-14.946L156.859,-14.946L156.859,-22.271L164.184,-22.271L164.184,0L179.056,0L179.056,-51.867Z" style="fill:white;fill-rule:nonzero;stroke:black;stroke-width:1.27px;"/>
            <path d="M240.32,-44.394L232.921,-44.394L232.921,-51.867L188.527,-51.867L188.527,0L203.251,0L203.251,-14.798L232.921,-14.798L232.921,-22.271L240.32,-22.271L240.32,-44.394ZM203.251,-22.271L203.251,-44.394L225.448,-44.394L225.448,-22.271L203.251,-22.271Z" style="fill:white;fill-rule:nonzero;stroke:black;stroke-width:1.27px;"/>
            <path d="M301.583,-51.867L286.711,-51.867L286.711,-7.547L264.514,-7.547L264.514,-51.867L249.79,-51.867L249.79,-7.547L257.115,-7.547L257.115,0L294.184,0L294.184,-7.547L301.583,-7.547L301.583,-51.867Z" style="fill:white;fill-rule:nonzero;stroke:black;stroke-width:1.27px;"/>
            <path d="M359.147,-51.867L314.679,-51.867L314.679,-44.394L329.551,-44.394L329.551,0L344.349,0L344.349,-44.394L359.147,-44.394L359.147,-51.867Z" style="fill:white;fill-rule:nonzero;stroke:black;stroke-width:1.27px;"/>
            <path d="M424.111,-7.547L387.042,-7.547L387.042,-22.271L416.712,-22.271L416.712,-29.596L387.042,-29.596L387.042,-44.394L424.111,-44.394L424.111,-51.867L372.318,-51.867L372.318,0L424.111,0L424.111,-7.547Z" style="fill:white;fill-rule:nonzero;stroke:black;stroke-width:1.27px;"/>
            <path d="M485.374,-7.547L477.975,-7.547L477.975,-14.798L470.502,-14.798L470.502,-22.271L485.374,-22.271L485.374,-44.394L477.975,-44.394L477.975,-51.867L433.581,-51.867L433.581,0L448.305,0L448.305,-14.798L455.778,-14.798L455.778,-7.547L463.177,-7.547L463.177,0L485.374,0L485.374,-7.547ZM463.177,-29.596L463.177,-22.271L448.305,-22.271L448.305,-44.394L470.502,-44.394L470.502,-29.596L463.177,-29.596Z" style="fill:white;fill-rule:nonzero;stroke:black;stroke-width:1.27px;"/>
        </g>
    </g>
</svg>
