<?xml version="1.0" encoding="UTF-8" standalone="no"?>
<!DOCTYPE svg PUBLIC "-//W3C//DTD SVG 1.1//EN" "http://www.w3.org/Graphics/SVG/1.1/DTD/svg11.dtd">
<svg width="705px" height="236px" version="1.1" xmlns="http://www.w3.org/2000/svg" xmlns:xlink="http://www.w3.org/1999/xlink" xml:space="preserve" style="fill-rule:evenodd;clip-rule:evenodd;stroke-linejoin:round;stroke-miterlimit:1.41421;">
    <rect id="rect3604" x="0" y="0" width="566.928" height="234.744" style="fill:#003e99;"/>
    <path id="path2830" d="M37.19,201.467l43.064,-169.511l39.932,0l20.749,73.991l21.531,-73.991l37.583,0l35.233,124.883l85.965,-0.162c9.022,-0.088 9.577,-18.748 -0.669,-18.744l-50.063,-0.668c-21.497,0.207 -44.167,-23.05 -43.063,-54.023c0.229,-28.412 25.004,-50.786 56.698,-50.778l127.689,-0.114l32.494,44.238l31.709,-44.629l52.85,0.392l-57.938,81.428l62.637,88.292l-52.572,-0.16l-36.456,-50.664l-34.681,50.662l-53.633,-0.049l61.072,-87.299l-26.622,-38.757l-110.999,0.162c-12.114,0.111 -11.669,19.169 0.095,18.812l46.769,0.716c19.767,0.127 47.604,20.668 46.91,52.735c0.301,37.279 -33.274,54.313 -49.44,53.401l-122.419,0.163l-20.357,-76.271l-20.357,76.108l-38.644,0l-21.255,-75.718l-18.677,75.833l-45.135,-0.278l0,0Z" style="fill:#fff;fill-rule:nonzero;"/>
    <path d="M596.797,201.951c4.716,-11.21 15.848,-23.076 33.397,-35.6c15.229,-10.9 25.086,-18.708 29.57,-23.424c6.88,-7.344 10.321,-15.384 10.321,-24.12c0,-7.112 -1.972,-13.026 -5.914,-17.742c-3.943,-4.716 -9.587,-7.074 -16.931,-7.074c-10.05,0 -16.891,3.75 -20.525,11.248c-2.087,4.33 -3.324,11.21 -3.711,20.642l-32.121,0c0.541,-14.302 3.131,-25.86 7.769,-34.673c8.814,-16.776 24.468,-25.163 46.965,-25.163c17.78,0 31.928,4.928 42.442,14.785c10.513,9.856 15.77,22.902 15.77,39.137c0,12.446 -3.711,23.501 -11.132,33.164c-4.87,6.417 -12.872,13.568 -24.004,21.453l-13.22,9.393c-8.271,5.875 -13.934,10.127 -16.988,12.756c-3.054,2.628 -5.624,5.682 -7.711,9.161l73.403,0l0,29.106l-115.149,0c0.309,-12.06 2.899,-23.076 7.769,-33.049l0,0Z" style="fill-rule:nonzero;stroke:#fff;stroke-width:1px;"/>
</svg>
