<?xml version="1.0" encoding="UTF-8" standalone="no"?>
<!DOCTYPE svg PUBLIC "-//W3C//DTD SVG 1.1//EN" "http://www.w3.org/Graphics/SVG/1.1/DTD/svg11.dtd">
<svg width="721px" height="344px" version="1.1" xmlns="http://www.w3.org/2000/svg" xmlns:xlink="http://www.w3.org/1999/xlink" xml:space="preserve" style="fill-rule:evenodd;clip-rule:evenodd;stroke-linejoin:round;stroke-miterlimit:1.41421;">
    <defs>
        <linearGradient id="_Linear1" x1="0" y1="0" x2="1" y2="0" gradientUnits="userSpaceOnUse" gradientTransform="matrix(-3.83752,171.196,-171.196,-3.83752,68.6555,14.7224)"><stop offset="0" style="stop-color:#0a0e10;stop-opacity:1"/><stop offset="0.18" style="stop-color:#343a43;stop-opacity:1"/><stop offset="0.39" style="stop-color:#5c6374;stop-opacity:1"/><stop offset="1" style="stop-color:#6d7489;stop-opacity:1"/></linearGradient>
        <linearGradient id="_Linear2" x1="0" y1="0" x2="1" y2="0" gradientUnits="userSpaceOnUse" gradientTransform="matrix(1.94193e-14,-317.141,317.141,1.94193e-14,604.806,322.846)"><stop offset="0" style="stop-color:#f9ee51;stop-opacity:1"/><stop offset="1" style="stop-color:#cd3b4a;stop-opacity:1"/></linearGradient>
        <linearGradient id="_Linear3" x1="0" y1="0" x2="1" y2="0" gradientUnits="userSpaceOnUse" gradientTransform="matrix(-3.83752,171.196,-171.196,-3.83752,74.159,14.7224)"><stop offset="0" style="stop-color:#0a0e10;stop-opacity:1"/><stop offset="0.18" style="stop-color:#343a43;stop-opacity:1"/><stop offset="0.39" style="stop-color:#5c6374;stop-opacity:1"/><stop offset="1" style="stop-color:#6d7489;stop-opacity:1"/></linearGradient>
        <linearGradient id="_Linear4" x1="0" y1="0" x2="1" y2="0" gradientUnits="userSpaceOnUse" gradientTransform="matrix(1.94193e-14,-317.141,317.141,1.94193e-14,604.806,322.846)"><stop offset="0" style="stop-color:#f9ee51;stop-opacity:1"/><stop offset="1" style="stop-color:#cd3b4a;stop-opacity:1"/></linearGradient>
        <linearGradient id="_Linear5" x1="0" y1="0" x2="1" y2="0" gradientUnits="userSpaceOnUse" gradientTransform="matrix(-3.83752,171.196,-171.196,-3.83752,85.2143,14.7224)"><stop offset="0" style="stop-color:#0a0e10;stop-opacity:1"/><stop offset="0.18" style="stop-color:#343a43;stop-opacity:1"/><stop offset="0.39" style="stop-color:#5c6374;stop-opacity:1"/><stop offset="1" style="stop-color:#6d7489;stop-opacity:1"/></linearGradient>
        <linearGradient id="_Linear6" x1="0" y1="0" x2="1" y2="0" gradientUnits="userSpaceOnUse" gradientTransform="matrix(1.94193e-14,-317.141,317.141,1.94193e-14,604.806,322.846)"><stop offset="0" style="stop-color:#f9ee51;stop-opacity:1"/><stop offset="1" style="stop-color:#cd3b4a;stop-opacity:1"/></linearGradient>
        <linearGradient id="_Linear7" x1="0" y1="0" x2="1" y2="0" gradientUnits="userSpaceOnUse" gradientTransform="matrix(-3.83752,171.196,-171.196,-3.83752,96.2695,14.7224)"><stop offset="0" style="stop-color:#0a0e10;stop-opacity:1"/><stop offset="0.18" style="stop-color:#343a43;stop-opacity:1"/><stop offset="0.39" style="stop-color:#5c6374;stop-opacity:1"/><stop offset="1" style="stop-color:#6d7489;stop-opacity:1"/></linearGradient>
        <linearGradient id="_Linear8" x1="0" y1="0" x2="1" y2="0" gradientUnits="userSpaceOnUse" gradientTransform="matrix(1.94193e-14,-317.141,317.141,1.94193e-14,604.806,322.846)"><stop offset="0" style="stop-color:#f9ee51;stop-opacity:1"/><stop offset="1" style="stop-color:#cd3b4a;stop-opacity:1"/></linearGradient>
        <linearGradient id="_Linear9" x1="0" y1="0" x2="1" y2="0" gradientUnits="userSpaceOnUse" gradientTransform="matrix(-3.83752,171.196,-171.196,-3.83752,114.066,14.7224)"><stop offset="0" style="stop-color:#0a0e10;stop-opacity:1"/><stop offset="0.18" style="stop-color:#343a43;stop-opacity:1"/><stop offset="0.39" style="stop-color:#5c6374;stop-opacity:1"/><stop offset="1" style="stop-color:#6d7489;stop-opacity:1"/></linearGradient>
        <linearGradient id="_Linear10" x1="0" y1="0" x2="1" y2="0" gradientUnits="userSpaceOnUse" gradientTransform="matrix(1.94193e-14,-317.141,317.141,1.94193e-14,604.806,322.846)"><stop offset="0" style="stop-color:#f9ee51;stop-opacity:1"/><stop offset="1" style="stop-color:#cd3b4a;stop-opacity:1"/></linearGradient>
        <linearGradient id="_Linear11" x1="0" y1="0" x2="1" y2="0" gradientUnits="userSpaceOnUse" gradientTransform="matrix(94.1905,168.599,-168.599,94.1905,76.0348,140.757)"><stop offset="0" style="stop-color:#2f2617;stop-opacity:1"/><stop offset="0.04" style="stop-color:#735328;stop-opacity:1"/><stop offset="0.09" style="stop-color:#ac7937;stop-opacity:1"/><stop offset="0.27" style="stop-color:#c1873c;stop-opacity:1"/><stop offset="0.62" style="stop-color:#edbe5a;stop-opacity:1"/><stop offset="1" style="stop-color:#facf63;stop-opacity:1"/></linearGradient>
        <linearGradient id="_Linear12" x1="0" y1="0" x2="1" y2="0" gradientUnits="userSpaceOnUse" gradientTransform="matrix(-96.4576,190.493,-190.493,-96.4576,220.09,132.353)"><stop offset="0" style="stop-color:#2f2617;stop-opacity:1"/><stop offset="0.06" style="stop-color:#735328;stop-opacity:1"/><stop offset="0.13" style="stop-color:#ac7937;stop-opacity:1"/><stop offset="0.36" style="stop-color:#c1873c;stop-opacity:1"/><stop offset="0.67" style="stop-color:#edbe5a;stop-opacity:1"/><stop offset="1" style="stop-color:#facf63;stop-opacity:1"/></linearGradient>
        <linearGradient id="_Linear13" x1="0" y1="0" x2="1" y2="0" gradientUnits="userSpaceOnUse" gradientTransform="matrix(103.104,190.493,-190.493,103.104,360.224,132.619)"><stop offset="0" style="stop-color:#2f2617;stop-opacity:1"/><stop offset="0.06" style="stop-color:#735328;stop-opacity:1"/><stop offset="0.13" style="stop-color:#ac7937;stop-opacity:1"/><stop offset="0.38" style="stop-color:#c1873c;stop-opacity:1"/><stop offset="0.68" style="stop-color:#edbe5a;stop-opacity:1"/><stop offset="1" style="stop-color:#facf63;stop-opacity:1"/></linearGradient>
        <linearGradient id="_Linear14" x1="0" y1="0" x2="1" y2="0" gradientUnits="userSpaceOnUse" gradientTransform="matrix(-119.274,190.493,-190.493,-119.274,498.916,135.12)"><stop offset="0" style="stop-color:#2f2617;stop-opacity:1"/><stop offset="0.06" style="stop-color:#735328;stop-opacity:1"/><stop offset="0.12" style="stop-color:#ac7937;stop-opacity:1"/><stop offset="0.36" style="stop-color:#c1873c;stop-opacity:1"/><stop offset="0.67" style="stop-color:#edbe5a;stop-opacity:1"/><stop offset="1" style="stop-color:#facf63;stop-opacity:1"/></linearGradient>
        <linearGradient id="_Linear15" x1="0" y1="0" x2="1" y2="0" gradientUnits="userSpaceOnUse" gradientTransform="matrix(129.141,179.814,-179.814,129.141,627.688,143.032)"><stop offset="0" style="stop-color:#2f2617;stop-opacity:1"/><stop offset="0.06" style="stop-color:#735328;stop-opacity:1"/><stop offset="0.13" style="stop-color:#ac7937;stop-opacity:1"/><stop offset="0.38" style="stop-color:#c1873c;stop-opacity:1"/><stop offset="0.68" style="stop-color:#edbe5a;stop-opacity:1"/><stop offset="1" style="stop-color:#facf63;stop-opacity:1"/></linearGradient>
    </defs>
    <g>
        <g>
            <path d="M71.275,161.482l31.724,-19.034l0,-76.932l-31.724,0l0,95.966Zm-46.794,165.364l3.173,-7.534l0,-290.676l-7.932,-9.914l98.743,0l26.966,16.259l0,135.226l-73.363,40.845l0,69.001l9.914,0l-57.501,46.793Z" style="fill-rule:nonzero;"/>
            <path d="M153.931,30.181l0,145.022l-73.363,40.845l0,55.505l11.15,0l3.18,8.947l-73.016,59.42l-9.219,-6.909l6.491,-15.416l0,-285.977l-11.849,-14.81l3.166,-6.586l110.358,0l33.102,19.959Zm-134.209,-11.459l7.932,9.914l0,290.676l-3.173,7.534l57.501,-46.793l-9.914,0l0,-69.001l73.363,-40.845l0,-135.226l-26.966,-16.259l-98.743,0Zm83.277,123.726l-31.724,19.034l0,-95.966l31.724,0l0,76.932Zm-23.224,-68.432l0,72.454l14.724,-8.835l0,-63.619l-14.724,0Z" style="fill:#0a0000;"/>
            <path d="M262.771,19.722l17.845,17.845l0,181.226l-65.431,47.984l-55.122,-44.018l0,-184.002l17.052,-19.035l85.656,0Zm-57.104,47.191l0,123.725l26.57,22.604l0,-146.329l-26.57,0Z" style="fill-rule:nonzero;"/>
            <path d="M289.116,34.047l0,189.054l-74.151,54.378l-63.402,-50.63l0,-191.342l21.755,-24.285l92.974,0l22.824,22.825Zm-112.001,-14.325l-17.052,19.035l0,184.002l55.122,44.018l65.431,-47.984l0,-181.226l-17.845,-17.845l-85.656,0Zm55.122,193.52l-26.57,-22.604l0,-123.725l26.57,0l0,146.329Zm-18.07,-137.829l0,111.296l9.57,8.141l0,-119.437l-9.57,0Z" style="fill:#0a0000;"/>
            <path d="M404.733,20.722l15.069,18.639l0,69.793l-30.931,17.052l30.931,17.449l0,80.104l-48.38,31.328l0,-88.432l-26.569,-16.655l0,106.673l-45.604,-32.914l0,-187.174l12.293,-15.863l93.191,0Zm-59.88,44.811l0,38.466l26.569,-15.862l0,-22.604l-26.569,0Z" style="fill-rule:nonzero;"/>
            <path d="M428.302,36.354l0,77.82l-21.98,12.118l21.98,12.398l0,89.691l-59.865,38.765l-5.515,-2.998l0,-92.789l-9.569,-5.999l0,100.467l-6.051,3.096l-56.553,-40.816l0,-194.431l16.627,-21.454l101.415,0l19.511,24.132Zm-116.76,-15.632l-12.293,15.863l0,187.174l45.604,32.914l0,-106.673l26.569,16.655l0,88.432l48.38,-31.328l0,-80.104l-30.931,-17.449l30.931,-17.052l0,-69.793l-15.069,-18.639l-93.191,0Zm59.88,67.415l-26.569,15.862l0,-38.466l26.569,0l0,22.604Zm-18.069,-14.104l0,14.992l9.569,-5.713l0,-9.279l-9.569,0Z" style="fill:#0a0000;"/>
            <path d="M519.315,260.242l-48.38,-36.483l0,-147.915l-34.5,0l0,-55.122l117.777,0l0,55.122l-34.897,0l0,184.398Z" style="fill-rule:nonzero;"/>
            <path d="M562.712,84.344l-34.897,0l0,185.093l-6.276,3.128l-59.104,-44.57l0,-143.651l-34.5,0l0,-72.122l134.777,0l0,72.122Zm-126.277,-63.622l0,55.122l34.5,0l0,147.915l48.38,36.483l0,-184.398l34.897,0l0,-55.122l-117.777,0Z" style="fill:#0a0000;"/>
            <path d="M696.553,321.312l3.173,7.534l-120.95,-96.759l0,-40.053l47.587,0l0,7.932l22.603,17.845l0,-34.104l-70.19,-39.656l0,-113.415l-7.931,-9.914l98.742,0l26.966,16.259l0,40.052l-47.587,0l0,-9.517l-26.569,0l0,59.087l74.156,40.052l0,154.657Z" style="fill-rule:nonzero;"/>
            <path d="M705.053,32.181l0,53.352l-64.587,0l0,-9.517l-9.569,0l0,45.517l74.156,40.052l0,158.01l6.481,15.393l-9.12,6.894l-132.138,-105.71l0,-52.638l61.105,0l-61.105,-34.522l0,-115.394l-11.848,-14.81l3.165,-6.586l110.359,0l33.101,19.959Zm-134.208,-11.459l7.931,9.914l0,113.415l70.19,39.656l0,34.104l-22.603,-17.845l0,-7.932l-47.587,0l0,40.053l120.95,96.759l-3.173,-7.534l0,-154.657l-74.156,-40.052l0,-59.087l26.569,0l0,9.517l47.587,0l0,-40.052l-26.966,-16.259l-98.742,0Zm64.018,175.124l5.603,4.424l0,-11.603l-5.603,-3.166l0,10.345Z" style="fill:#0a0000;"/>
        </g>
        <g>
            <path d="M66.275,157.482l31.724,-19.034l0,-76.932l-31.724,0l0,95.966Zm-46.794,165.364l3.173,-7.534l0,-290.676l-7.932,-9.914l98.743,0l26.966,16.259l0,135.226l-73.363,40.845l0,69.001l9.914,0l-57.501,46.793Z" style="fill:url(#_Linear1);fill-rule:nonzero;"/>
            <path d="M148.931,26.181l0,145.022l-73.363,40.845l0,55.505l11.15,0l3.18,8.947l-73.016,59.42l-9.219,-6.909l6.491,-15.416l0,-285.977l-11.849,-14.81l3.166,-6.586l110.358,0l33.102,19.959Zm-134.209,-11.459l7.932,9.914l0,290.676l-3.173,7.534l57.501,-46.793l-9.914,0l0,-69.001l73.363,-40.845l0,-135.226l-26.966,-16.259l-98.743,0Zm83.277,123.726l-31.724,19.034l0,-95.966l31.724,0l0,76.932Zm-23.224,-68.432l0,72.454l14.724,-8.835l0,-63.619l-14.724,0Z" style="fill:url(#_Linear2);"/>
            <path d="M262.521,14.722l17.845,17.845l0,181.226l-65.431,47.984l-55.122,-44.018l0,-184.002l17.052,-19.035l85.656,0Zm-57.104,47.191l0,123.725l26.57,22.604l0,-146.329l-26.57,0Z" style="fill:url(#_Linear3);fill-rule:nonzero;"/>
            <path d="M288.866,29.047l0,189.054l-74.151,54.378l-63.402,-50.63l0,-191.342l21.755,-24.285l92.974,0l22.824,22.825Zm-112.001,-14.325l-17.052,19.035l0,184.002l55.122,44.018l65.431,-47.984l0,-181.226l-17.845,-17.845l-85.656,0Zm55.122,193.52l-26.57,-22.604l0,-123.725l26.57,0l0,146.329Zm-18.07,-137.829l0,111.296l9.57,8.141l0,-119.437l-9.57,0Z" style="fill:url(#_Linear4);"/>
            <path d="M405.233,14.722l15.069,18.639l0,69.793l-30.931,17.052l30.931,17.449l0,80.104l-48.38,31.328l0,-88.432l-26.569,-16.655l0,106.673l-45.604,-32.914l0,-187.174l12.293,-15.863l93.191,0Zm-59.88,44.811l0,38.466l26.569,-15.862l0,-22.604l-26.569,0Z" style="fill:url(#_Linear5);fill-rule:nonzero;"/>
            <path d="M428.802,30.354l0,77.82l-21.98,12.118l21.98,12.398l0,89.691l-59.865,38.766l-5.515,-2.999l0,-92.789l-9.569,-5.999l0,100.467l-6.051,3.096l-56.553,-40.816l0,-194.431l16.627,-21.454l101.415,0l19.511,24.132Zm-116.76,-15.632l-12.293,15.863l0,187.174l45.604,32.914l0,-106.673l26.569,16.655l0,88.432l48.38,-31.328l0,-80.104l-30.931,-17.449l30.931,-17.052l0,-69.793l-15.069,-18.639l-93.191,0Zm59.88,67.415l-26.569,15.862l0,-38.466l26.569,0l0,22.604Zm-18.069,-14.104l0,14.992l9.569,-5.713l0,-9.279l-9.569,0Z" style="fill:url(#_Linear6);"/>
            <path d="M522.565,254.242l-48.38,-36.483l0,-147.915l-34.5,0l0,-55.122l117.777,0l0,55.122l-34.897,0l0,184.398Z" style="fill:url(#_Linear7);fill-rule:nonzero;"/>
            <path d="M565.962,78.344l-34.897,0l0,185.093l-6.276,3.128l-59.104,-44.57l0,-143.651l-34.5,0l0,-72.122l134.777,0l0,72.122Zm-126.277,-63.622l0,55.122l34.5,0l0,147.915l48.38,36.483l0,-184.398l34.897,0l0,-55.122l-117.777,0Z" style="fill:url(#_Linear8);"/>
            <path d="M702.553,315.312l3.173,7.534l-120.95,-96.759l0,-40.053l47.587,0l0,7.932l22.603,17.845l0,-34.104l-70.19,-39.656l0,-113.415l-7.931,-9.914l98.742,0l26.966,16.259l0,40.052l-47.587,0l0,-9.517l-26.569,0l0,59.087l74.156,40.052l0,154.657Z" style="fill:url(#_Linear9);fill-rule:nonzero;"/>
            <path d="M711.053,26.181l0,53.352l-64.587,0l0,-9.517l-9.569,0l0,45.517l74.156,40.052l0,158.01l6.481,15.393l-9.12,6.894l-132.138,-105.71l0,-52.638l61.105,0l-61.105,-34.522l0,-115.394l-11.848,-14.81l3.165,-6.586l110.359,0l33.101,19.959Zm-134.208,-11.459l7.931,9.914l0,113.415l70.19,39.656l0,34.104l-22.603,-17.845l0,-7.932l-47.587,0l0,40.053l120.95,96.759l-3.173,-7.534l0,-154.657l-74.156,-40.052l0,-59.087l26.569,0l0,9.517l47.587,0l0,-40.052l-26.966,-16.259l-98.742,0Zm64.018,175.124l5.603,4.424l0,-11.603l-5.603,-3.166l0,10.345Z" style="fill:url(#_Linear10);"/>
        </g>
        <path d="M140.431,100.57l0,65.637l-73.363,40.845l0,69.001l9.914,0l-57.501,46.793l3.173,-7.534l0,-149.619l43.621,-24.12l0,15.909l31.724,-19.034l0,-14.416l42.432,-23.462Z" style="fill:url(#_Linear11);"/>
        <path d="M140.431,166.207l-73.363,40.845l0,69.001l9.914,0l-57.501,46.793l3.173,-7.534l0,-149.619l43.621,-24.12l0,15.909l31.724,-19.034l0,-14.416l42.432,-23.462l0,65.637Zm-41.632,-41.704l0,13.945l-0.026,0.204l-0.078,0.19l-0.123,0.164l-0.161,0.128l-31.725,19.034l-0.222,0.092l-0.24,0.021l-0.234,-0.051l-0.21,-0.119l-0.164,-0.175l-0.105,-0.216l-0.036,-0.238l0,-14.552l-42.021,23.235l0,149.147l-0.016,0.158l-0.047,0.152l-1.929,4.58l53.269,-43.349l-7.663,0l-0.247,-0.04l-0.223,-0.113l-0.177,-0.177l-0.114,-0.223l-0.039,-0.247l0,-69.001l0.028,-0.21l0.082,-0.195l0.131,-0.167l0.17,-0.127l72.952,-40.617l0,-63.81l-40.832,22.577Z"/>
        <path d="M159.813,99.298l45.604,25.504l0,60.836l26.57,22.604l0,-68.581l48.379,27.056l0,47.076l-65.431,47.984l-55.122,-44.018l0,-118.461Z" style="fill:url(#_Linear12);"/>
        <path d="M205.417,124.802l0,60.836l26.57,22.604l0,-68.581l48.379,27.056l0,47.076l-65.431,47.984l-55.122,-44.018l0,-118.461l45.604,25.504Zm-44.804,92.572l54.342,43.395l64.611,-47.381l0,-46.202l-46.779,-26.161l0,67.217l-0.026,0.2l-0.075,0.187l-0.119,0.163l-0.156,0.128l-0.183,0.084l-0.199,0.036l-0.201,-0.014l-0.191,-0.065l-0.169,-0.11l-26.569,-22.604l-0.119,-0.125l-0.089,-0.148l-0.055,-0.164l-0.019,-0.172l0,-60.367l-44.004,-24.609l0,116.712Z"/>
        <path d="M420.5,100.57l0,2.85l-30.931,17.052l30.931,17.449l0,80.104l-48.379,31.328l0,-88.432l-26.57,-16.656l0,106.674l-45.603,-32.914l0,-51.508l120.552,-65.947Z" style="fill:url(#_Linear13);"/>
        <path d="M420.5,103.42l-30.931,17.052l30.931,17.449l0,80.104l-48.379,31.328l0,-88.432l-26.57,-16.656l0,106.674l-45.603,-32.914l0,-51.508l120.552,-65.947l0,2.85Zm-119.752,63.571l0,50.625l44.003,31.759l0,-105.11l0.029,-0.21l0.082,-0.196l0.132,-0.167l0.17,-0.126l0.198,-0.078l0.211,-0.022l0.21,0.034l0.193,0.088l26.57,16.655l0.156,0.128l0.119,0.162l0.074,0.188l0.026,0.2l0,86.961l46.779,-30.292l0,-79.202l-30.524,-17.219l-0.169,-0.128l-0.13,-0.167l-0.081,-0.196l-0.027,-0.21l0.029,-0.21l0.083,-0.194l0.132,-0.167l0.17,-0.125l30.517,-16.824l0,-1.029l-118.952,65.072Z"/>
        <path d="M474.727,120.363l48.379,29.655l0,106.991l-48.379,-36.483l0,-100.163Z" style="fill:url(#_Linear14);"/>
        <path d="M523.106,150.018l0,106.991l-48.379,-36.483l0,-100.163l48.379,29.655Zm-47.579,70.109l46.779,35.277l0,-104.938l-46.779,-28.675l0,98.336Z"/>
        <path d="M650.152,132.353l52.401,28.302l0,154.657l3.173,7.534l-120.95,-96.759l0,-40.053l47.587,0l0,7.932l22.603,17.845l0,-34.104l-45.304,-25.596l40.49,-19.758Z" style="fill:url(#_Linear15);"/>
        <path d="M702.553,160.655l0,154.657l3.173,7.534l-120.95,-96.759l0,-40.053l47.587,0l0,7.932l22.603,17.845l0,-34.104l-45.304,-25.596l40.49,-19.758l52.401,28.302Zm-91.173,-8.492l43.98,24.847l0.168,0.127l0.129,0.167l0.082,0.194l0.027,0.209l0,34.104l-0.031,0.221l-0.091,0.203l-0.143,0.171l-0.186,0.124l-0.212,0.069l-0.223,0.007l-0.217,-0.055l-0.192,-0.113l-22.604,-17.845l-0.164,-0.175l-0.104,-0.215l-0.036,-0.237l0,-7.132l-45.987,0l0,38.868l118.19,94.552l-1.95,-4.632l-0.047,-0.152l-0.016,-0.158l0,-154.18l-51.619,-27.88l-38.754,18.911Z"/>
    </g>
</svg>
