<?xml version="1.0" encoding="UTF-8" standalone="no"?>
<!DOCTYPE svg PUBLIC "-//W3C//DTD SVG 1.1//EN" "http://www.w3.org/Graphics/SVG/1.1/DTD/svg11.dtd">
<svg width="598px" height="109px" version="1.1" xmlns="http://www.w3.org/2000/svg" xmlns:xlink="http://www.w3.org/1999/xlink" xml:space="preserve" style="fill-rule:evenodd;clip-rule:evenodd;stroke-linejoin:round;stroke-miterlimit:1.41421;">
    <path id="path10" d="M295.971,15.019l4.352,-6.971l-66.25,0c-5.084,0.076 -9.82,1.502 -14.135,4.274l-5.084,3.736c-2.234,-2.696 -4.43,-4.584 -6.588,-5.854c-2.695,-1.502 -5.699,-2.156 -9.127,-2.156l-112.201,0l-3.66,11.169l-1.808,-11.168l-24.538,0l-0.885,2.079l-2.311,-0.809c-12.943,-4.43 -25.383,-3.081 -37.131,4.198c-5.971,3.813 -10.477,8.59 -13.25,14.443c-2.85,5.855 -3.814,12.364 -3.158,19.76c0.461,4.43 2.002,8.551 4.699,12.287c2.695,3.736 6.123,6.74 10.398,8.897c6.201,3.235 12.941,4.198 19.99,3.081l21.84,0l5.469,-12.133l2.004,12.133l131.266,-0.153c2.852,0 5.701,-0.694 8.59,-1.964c2.85,-1.271 5.314,-3.082 7.549,-5.316c3.66,3.891 8.012,6.51 13.096,7.55c6.895,1.656 13.559,0.462 19.836,-3.505l0.811,-0.617l-0.617,3.968l26.73,0l0.656,-4.622c1.578,-0.23 2.85,-1.039 3.967,-2.389l72.682,0c11.17,0 19.373,-2.85 24.381,-8.589l5.393,8.589l77.768,0l0,-10.937l13.98,10.938l96.102,0l0,-49.842l-104.114,0l0,10.784l-13.789,-10.784l-55.387,0l-6.818,12.942l-7.549,-13.02l-83.159,0l0,0.001Z" style="fill:#1f00cc;fill-rule:nonzero;"/>
    <path d="M237.809,16.753c-5.469,-1.271 -10.477,0 -15.33,3.736c-4.852,3.582 -8.012,8.743 -9.668,15.253c-1.424,6.432 -0.73,12.518 1.889,17.871c2.773,5.547 6.74,8.898 12.209,10.092c5.393,1.271 10.4,0 15.254,-3.659c4.854,-3.736 8.088,-8.897 9.59,-15.407c1.502,-6.432 0.811,-12.44 -1.887,-17.871c-2.697,-5.47 -6.74,-8.821 -12.057,-10.015Zm-186.23,46.489l-10.014,0l1.424,-3.158l-0.385,0.23c-3.659,2.004 -7.395,3.198 -11.516,3.429c-3.736,0.192 -7.281,-0.385 -10.631,-1.888c-3.312,-1.502 -6.086,-3.427 -8.242,-6.123c-2.158,-2.696 -3.429,-5.777 -3.736,-9.129c-1.117,-11.516 3.004,-20.337 12.44,-26.114c9.552,-5.893 19.529,-7.087 29.851,-3.352l-1.462,9.437c-3.582,-1.579 -7.857,-2.08 -12.711,-1.348c-5.084,0.654 -9.322,2.31 -12.635,5.238c-3.658,3.235 -5.584,6.817 -5.969,10.785c-0.309,2.849 0.307,5.391 1.578,7.856c1.502,2.62 3.737,4.276 6.895,5.085l7.857,-0.54l0.732,-4.698l-7.473,0l1.348,-8.821l17.873,0l-2.619,17.141l18.104,-40.944l11.824,0l6.356,37.939l12.362,-37.939l9.592,0l4.699,25.652l10.938,-25.652l11.673,0l1.965,46.914l-9.592,0l-1.271,-29.041l-12.557,29.041l-6.508,0l-5.393,-26.191l-8.396,26.191l-16.41,0l-2.465,-13.981l-11.092,0l-6.434,13.981Zm224.787,-4.197c0,-1.349 -0.539,-2.389 -1.35,-3.275c-0.885,-0.885 -2.002,-1.424 -3.311,-1.424c-1.271,0 -2.389,0.539 -3.275,1.424c-0.885,0.887 -1.348,1.965 -1.348,3.275c0,1.271 0.463,2.311 1.348,3.234c0.887,0.887 2.004,1.426 3.275,1.426c1.27,0 2.387,-0.539 3.311,-1.426c0.811,-0.924 1.35,-1.963 1.35,-3.234Zm-136.352,-42.754l26.694,0l-1.58,10.092l-16.908,0l-1.272,8.396l14.828,0l-1.578,10.091l-14.676,0l-1.347,8.397l16.947,0l-1.733,9.976l-26.884,0l7.509,-46.952Zm124.065,15.367l9.59,-15.367l11.209,0l-17.332,27.386l-2.928,19.566l-9.744,0l3.619,-22.187l-11.477,-24.765l11.092,0l5.971,15.367Zm-64.67,-15.059c1.809,0 3.658,0.616 5.545,1.81c2.119,1.27 3.66,2.889 4.894,4.778c2.849,5.084 1.578,10.4 -3.891,16.023c2.734,2.619 4.314,5.392 4.623,8.32c0.267,2.695 -0.309,5.238 -1.889,7.856c-1.502,2.272 -3.389,4.121 -5.854,5.624c-2.504,1.502 -4.892,2.233 -7.203,2.233l-21.57,0l7.396,-46.644l17.949,0Zm75.068,39.672c0.693,0.693 1.117,1.656 1.117,2.773c0,1.04 -0.461,1.965 -1.117,2.773c-0.654,0.654 -1.656,1.04 -2.771,1.04c-1.117,0 -2.08,-0.386 -2.773,-1.04c-0.811,-0.809 -1.195,-1.732 -1.195,-2.773c0,-1.117 0.387,-2.08 1.195,-2.773c0.654,-0.809 1.656,-1.194 2.773,-1.194c1.154,0 2.117,0.347 2.771,1.194Zm-2.386,0.077l1.271,0.308c0.461,0.154 0.615,0.578 0.577,1.04c0,1.04 -0.615,1.502 -1.656,1.502l1.58,2.388l-0.809,0l-1.426,-2.388l-1.039,0l0,2.388l-0.732,0l0,-5.238l2.234,0Zm-0.617,2.234c1.117,0 1.734,-0.269 1.734,-0.885c0,-0.463 -0.348,-0.771 -1.195,-0.771l-1.424,0l0,1.656l0.885,0Zm58.044,-7.819l0,-27.384l21.84,0c6.586,0 11.633,1.617 15.137,4.93l-3.004,-4.93l10.861,0l12.557,21.568l11.903,-21.566l10.092,0l-19.066,32.932l-6.355,0l-13.25,-21.84c0.502,1.656 0.732,3.428 0.732,5.316c0,10.976 -7.203,16.523 -21.57,16.523l-16.6,0l0,0.076l-10.631,0l-13.789,-24.42l-9.514,17.063l9.514,0l0,7.318l-23.342,0l19.605,-33.009l8.318,0l16.562,27.423Zm110.006,-0.039l0,-27.384l6.432,0l25.152,19.681l0,-19.681l8.629,0l0,32.931l-6.471,0l-24.921,-19.913l0,19.913l-5.469,0l0,0.077l-10.746,0l-13.789,-24.419l-9.36,16.985l9.436,0l0,7.357l-13.481,0l0,0.077l-9.861,0l19.529,-33.008l8.358,0l16.562,27.384Zm71.45,-27.424c3.545,0 5.778,0.616 7.049,1.887c1.272,1.041 2.004,3.198 2.004,6.434l0,3.89l-9.514,0l0,-4.507l-18.412,0l0,17.295l18.412,0l0,-5.085l9.514,0.154l0,4.583c0,3.159 -0.733,5.317 -2.004,6.51c-1.272,1.195 -3.697,1.811 -7.049,1.811l-19.373,0c-3.391,0 -5.702,-0.616 -6.973,-1.811c-1.309,-1.194 -2.002,-3.351 -2.002,-6.51l0,-16.33c0,-3.082 0.693,-5.239 2.041,-6.434c1.271,-1.269 3.582,-1.847 6.934,-1.887l19.373,0Zm12.21,0.04l35.203,0l0,7.471l-25.689,0l0,4.738l15.061,0l0,7.242l-15.061,0l0,5.854l26.113,0l0,7.626l-35.627,0l0,-32.931Zm-286.183,2.772c2.619,1.04 4.275,3.429 5.162,6.972c0.885,3.582 0.693,7.318 -0.617,11.285c-1.271,3.891 -3.35,6.818 -6.047,8.667c-2.773,2.003 -5.393,2.388 -7.857,1.271c-2.619,-1.04 -4.352,-3.429 -5.238,-6.972c-0.963,-3.659 -0.617,-7.396 0.654,-11.285c1.271,-3.813 3.352,-6.818 6.047,-8.821c2.657,-1.887 5.355,-2.311 7.896,-1.117Zm-42.022,9.092c1.502,0 2.774,-0.463 3.813,-1.349c0.926,-0.848 1.502,-1.81 1.656,-3.005c0.154,-1.193 -0.116,-2.195 -0.809,-3.004c-0.809,-0.887 -2.002,-1.348 -3.582,-1.348l-6.279,0l-1.502,8.666l0.039,0.04l-0.039,0l5.36,5.474l5.499,5.657c-1.039,-0.963 -2.464,-1.502 -4.275,-1.502l-8.088,0l-1.502,9.437l8.475,0c2.157,0 3.737,-0.54 4.852,-1.425c1.118,-0.924 1.735,-1.965 1.811,-3.236c0.079,-1.271 -0.384,-2.426 -1.271,-3.313l-5.501,-5.618l-5.321,-5.474l6.664,0Zm156.458,-4.393l-12.481,0l0,17.795l8.82,0c5.008,0 8.59,-0.655 10.477,-2.003c1.965,-1.309 3.004,-3.812 3.004,-7.241c0,-5.7 -3.312,-8.551 -9.82,-8.551Zm-283.757,9.283l-1.81,-9.051l-4.121,9.051l5.931,0Z" style="fill:#fff;"/>
    <g>
        <path d="M458.466,38.528c0.119,0.067 0.227,0.101 0.324,0.1c0.102,0 0.244,0.089 0.425,0.269c0.181,0.179 0.272,0.32 0.272,0.423c0,0.052 0.026,0.103 0.078,0.154c0,0.052 0.013,0.103 0.039,0.154c0.026,0.052 0.039,0.103 0.04,0.155l-0.154,0.309c0.001,0.206 -0.036,0.476 -0.112,0.811c-0.076,0.335 -0.139,0.503 -0.191,0.503c0,0 -0.051,0.09 -0.153,0.271c-0.102,0.18 -0.23,0.361 -0.384,0.542c-0.154,0.18 -0.307,0.361 -0.461,0.542c-0.153,0.181 -0.256,0.297 -0.307,0.349c-0.051,0.051 -0.09,0.116 -0.115,0.193c-0.026,0.077 -0.064,0.168 -0.115,0.271c-0.051,0.154 -0.127,0.283 -0.23,0.387l0.052,12.506l0.464,-0.002c0.051,0 0.192,-0.027 0.424,-0.079c0.231,-0.053 0.463,-0.092 0.694,-0.119c0.232,-0.026 0.45,-0.066 0.656,-0.118c0.205,-0.053 0.308,-0.079 0.308,-0.079c0.36,-0.053 0.99,-0.171 1.89,-0.355c0.9,-0.184 1.877,-0.368 2.932,-0.553c1.054,-0.184 2.031,-0.356 2.931,-0.514c0.9,-0.158 1.53,-0.263 1.89,-0.316l0.693,-0.389l-0.054,-12.97c0,-0.103 0.127,-0.348 0.383,-0.735c0.256,-0.387 0.46,-0.709 0.614,-0.967l2.075,-2.093c0.103,-0.001 0.334,-0.105 0.694,-0.312c0.359,-0.207 0.642,-0.337 0.847,-0.389l0.309,-0.002l0.232,-0.001c0.154,0 0.386,0.05 0.695,0.152c0.155,0.051 0.284,0.102 0.387,0.153l0.062,14.976l0.474,2.546l0.054,12.815c0.053,0.514 0.108,1.376 0.165,2.585c0.049,1.058 0.089,2.166 0.119,3.322l0.025,0.998c0.03,1.156 0.07,2.264 0.119,3.322c0.057,1.209 0.112,2.045 0.165,2.508c0,0.052 0.027,0.232 0.08,0.54c0.052,0.309 0.092,0.656 0.12,1.042c0.027,0.386 0.067,0.746 0.12,1.08c0.053,0.334 0.079,0.527 0.08,0.579l0.008,2.084c0.001,0.097 -0.055,0.295 -0.167,0.596l-0.046,0.123c-0.112,0.3 -0.168,0.499 -0.167,0.595c-0.051,0.103 -0.102,0.387 -0.151,0.85c-0.05,0.463 -0.086,0.952 -0.11,1.467c-0.023,0.515 -0.06,0.991 -0.11,1.429c-0.049,0.438 -0.1,0.682 -0.151,0.734c0.001,0.206 -0.037,0.463 -0.112,0.772c-0.076,0.309 -0.166,0.516 -0.268,0.619c-0.051,0.052 -0.128,0.078 -0.231,0.078c-0.103,0.052 -0.257,0.078 -0.463,0.079l-0.018,-4.323c0,0.155 -0.011,0.451 -0.035,0.888c-0.024,0.438 -0.061,0.901 -0.11,1.39c-0.05,0.489 -0.099,0.953 -0.149,1.39c-0.049,0.438 -0.1,0.734 -0.15,0.889c0,0.154 -0.063,0.386 -0.191,0.695c-0.127,0.31 -0.242,0.465 -0.345,0.465c0,0.052 -0.025,0.103 -0.077,0.155l0.001,0.077l-0.077,0l-0.155,0.001c-0.051,0 -0.077,-0.077 -0.078,-0.231c0,-0.103 -0.053,-0.438 -0.159,-1.003c-0.105,-0.566 -0.158,-0.926 -0.158,-1.08c-0.104,-0.206 -0.209,-0.617 -0.314,-1.234c-0.106,-0.617 -0.159,-1.029 -0.16,-1.235l-0.926,0.004c-0.103,0.001 -0.245,-0.05 -0.426,-0.153c-0.18,-0.102 -0.271,-0.204 -0.271,-0.307c-0.103,0 -0.194,-0.167 -0.272,-0.501c-0.079,-0.334 -0.144,-0.578 -0.196,-0.732c-0.104,-0.206 -0.196,-0.579 -0.275,-1.119c-0.08,-0.54 -0.12,-0.861 -0.12,-0.964c-0.052,-0.206 -0.106,-0.617 -0.16,-1.235c-0.054,-0.617 -0.095,-1.286 -0.124,-2.006c-0.029,-0.721 -0.07,-1.403 -0.124,-2.046c-0.054,-0.643 -0.108,-1.093 -0.16,-1.35c-0.002,-0.36 -0.031,-1.235 -0.088,-2.624c-0.05,-1.216 -0.091,-2.511 -0.122,-3.884l-0.026,-1.187c-0.031,-1.373 -0.071,-2.668 -0.121,-3.883c-0.058,-1.39 -0.087,-2.265 -0.088,-2.625c-0.001,-0.154 -0.015,-0.437 -0.043,-0.849c-0.027,-0.412 -0.067,-0.823 -0.121,-1.235c-0.053,-0.411 -0.093,-0.823 -0.121,-1.234c-0.027,-0.412 -0.041,-0.695 -0.042,-0.849l-1.08,0.004l-1.004,0.004c-0.257,0.001 -0.707,0.055 -1.35,0.16c-0.643,0.106 -1.042,0.159 -1.196,0.16c0,0.103 -0.064,0.206 -0.192,0.309c-0.128,0.104 -0.192,0.207 -0.192,0.31c-0.05,0.309 -0.099,0.85 -0.147,1.622c-0.049,0.772 -0.084,1.609 -0.106,2.509c-0.022,0.901 -0.057,1.75 -0.105,2.548c-0.048,0.798 -0.097,1.352 -0.147,1.661c0,0.103 -0.024,0.386 -0.074,0.849c-0.049,0.464 -0.086,0.991 -0.109,1.583c-0.023,0.592 -0.06,1.159 -0.109,1.699c-0.049,0.541 -0.073,0.94 -0.072,1.197c0.001,0.154 -0.011,0.438 -0.035,0.849c-0.024,0.412 -0.061,0.85 -0.11,1.313c-0.05,0.464 -0.087,0.888 -0.111,1.274c-0.024,0.387 -0.036,0.631 -0.035,0.734c-0.051,0.155 -0.102,0.374 -0.152,0.657c-0.044,0.248 -0.078,0.505 -0.102,0.773l-0.02,0.23c-0.024,0.268 -0.058,0.525 -0.102,0.773c-0.051,0.284 -0.076,0.477 -0.075,0.58c-0.001,-0.193 -0.059,-0.567 -0.174,-1.121l-0.048,-0.227c-0.115,-0.554 -0.174,-0.928 -0.174,-1.121l-0.005,-1.004l-0.004,-1.08c-0.001,-0.258 0.022,-0.837 0.07,-1.738c0.048,-0.901 0.082,-1.879 0.103,-2.934c0.022,-1.055 0.056,-2.02 0.104,-2.895c0.048,-0.875 0.071,-1.442 0.07,-1.699l-0.029,-7.025l-0.618,0.003c0.001,0.103 0.014,0.283 0.041,0.54c0.027,0.257 0.054,0.54 0.081,0.849c0.027,0.308 0.054,0.604 0.081,0.887c0.027,0.283 0.04,0.476 0.041,0.579c-0.102,0.206 -0.191,0.567 -0.266,1.082c-0.075,0.515 -0.164,0.85 -0.266,1.005l-0.154,0l-0.232,0.001c-0.052,-0.051 -0.142,-0.179 -0.272,-0.385c-0.129,-0.205 -0.194,-0.333 -0.194,-0.385c-0.001,-0.154 0.011,-0.412 0.035,-0.772c0.024,-0.36 0.036,-0.733 0.034,-1.119c-0.002,-0.386 0.01,-0.747 0.034,-1.081c0.024,-0.335 0.036,-0.58 0.036,-0.734c-0.103,0.001 -0.399,-0.024 -0.888,-0.073c-0.49,-0.05 -0.786,-0.074 -0.889,-0.074c-0.154,0.001 -0.437,0.066 -0.848,0.197c-0.411,0.13 -0.694,0.221 -0.848,0.273l0.01,2.471c0.052,0.154 0.118,0.527 0.198,1.118c0.08,0.592 0.173,1.273 0.279,2.045c0.106,0.771 0.199,1.53 0.279,2.276c0.081,0.746 0.148,1.325 0.201,1.736c0.001,0.206 0.041,0.579 0.12,1.119c0.08,0.54 0.172,1.119 0.278,1.736c0.105,0.617 0.198,1.222 0.277,1.813c0.08,0.592 0.12,0.99 0.121,1.196c0.001,0.103 0.04,0.373 0.119,0.81c0.079,0.437 0.171,0.9 0.276,1.389c0.105,0.488 0.21,0.964 0.315,1.427c0.105,0.462 0.183,0.771 0.236,0.925l0.007,1.698c-0.052,0.052 -0.103,0.129 -0.154,0.233c-0.051,0.103 -0.115,0.193 -0.192,0.271c-0.077,0.077 -0.141,0.142 -0.192,0.193c-0.102,0.207 -0.242,0.465 -0.421,0.774c-0.179,0.31 -0.32,0.516 -0.422,0.62c-0.051,0.103 -0.192,0.271 -0.423,0.503c-0.23,0.233 -0.474,0.478 -0.73,0.737c-0.256,0.258 -0.513,0.503 -0.769,0.736c-0.256,0.233 -0.41,0.401 -0.461,0.504l0.078,18.759l-0.383,0.774c-0.103,-0.154 -0.22,-0.488 -0.351,-1.002c-0.131,-0.515 -0.197,-0.875 -0.198,-1.08c0,-0.155 -0.027,-0.438 -0.08,-0.849c-0.054,-0.412 -0.094,-0.836 -0.121,-1.274c-0.028,-0.437 -0.068,-0.849 -0.121,-1.234c-0.054,-0.386 -0.08,-0.656 -0.081,-0.811c-0.002,-0.514 -0.032,-1.402 -0.088,-2.663c-0.05,-1.103 -0.09,-2.255 -0.12,-3.457l-0.025,-1.036c-0.03,-1.202 -0.07,-2.354 -0.12,-3.457c-0.057,-1.261 -0.112,-2.148 -0.166,-2.663c-0.103,-0.102 -0.246,-0.372 -0.428,-0.809c-0.182,-0.436 -0.273,-0.758 -0.274,-0.963c-0.103,-0.103 -0.22,-0.347 -0.35,-0.732c-0.131,-0.386 -0.196,-0.681 -0.197,-0.887c0,-0.103 -0.04,-0.373 -0.119,-0.81c-0.079,-0.438 -0.171,-0.926 -0.276,-1.466c-0.106,-0.54 -0.198,-1.054 -0.277,-1.543c-0.079,-0.489 -0.145,-0.861 -0.198,-1.118c-0.001,-0.309 -0.055,-0.849 -0.161,-1.621c-0.106,-0.772 -0.159,-1.235 -0.16,-1.389c-0.106,-0.617 -0.239,-1.633 -0.399,-3.048c-0.16,-1.414 -0.334,-2.88 -0.52,-4.398c-0.186,-1.517 -0.36,-2.919 -0.519,-4.205c-0.16,-1.286 -0.292,-2.16 -0.397,-2.623c-0.001,-0.258 -0.016,-0.618 -0.043,-1.081c-0.028,-0.463 -0.069,-0.939 -0.122,-1.428c-0.054,-0.488 -0.094,-0.913 -0.121,-1.273c-0.028,-0.36 -0.041,-0.591 -0.042,-0.694l-0.02,-4.864l-0.019,-4.632c-0.001,-0.103 0.049,-0.489 0.149,-1.158c0.1,-0.67 0.15,-1.185 0.148,-1.545c0.102,-0.258 0.204,-0.541 0.305,-0.851l0.152,-0.618c0.102,-0.206 0.319,-0.632 0.651,-1.276c0.332,-0.645 0.549,-1.122 0.65,-1.431c0.052,-0.052 0.179,-0.233 0.384,-0.542c0.205,-0.31 0.332,-0.516 0.383,-0.619l0.923,-0.931c0.103,-0.052 0.308,-0.181 0.616,-0.388c0.308,-0.207 0.487,-0.337 0.539,-0.388l0.924,-0.467c0.206,-0.104 0.437,-0.182 0.694,-0.235c0.096,0 0.204,-0.035 0.323,-0.103l0.048,-0.028c0.119,-0.069 0.226,-0.103 0.323,-0.103c0.096,-0.001 0.204,0.033 0.324,0.1l0.048,0.028Zm68.771,-10.539c0.058,0.05 0.183,0.111 0.377,0.182c0.206,0.076 0.335,0.166 0.387,0.269l0.387,0.307c0.052,0.103 0.117,0.218 0.194,0.346c0.078,0.129 0.143,0.27 0.195,0.424c0.053,0.206 0.105,0.386 0.157,0.54c0.103,0.154 0.246,0.398 0.428,0.732c0.181,0.333 0.324,0.551 0.427,0.654c0.155,0.205 0.53,0.59 1.124,1.153c0.594,0.564 1.227,1.179 1.899,1.845l3.256,3.229c0.052,0 0.219,0.115 0.503,0.345c0.284,0.231 0.594,0.487 0.93,0.768c0.336,0.282 0.658,0.551 0.968,0.807c0.31,0.256 0.517,0.41 0.62,0.461c0.103,0.102 0.297,0.294 0.581,0.576c0.284,0.282 0.569,0.577 0.853,0.884c0.284,0.308 0.556,0.603 0.814,0.885c0.259,0.282 0.44,0.474 0.543,0.576c0.052,0.103 0.143,0.257 0.272,0.463c0.13,0.205 0.195,0.359 0.195,0.462c-0.102,0.155 -0.179,0.309 -0.229,0.464c-0.051,0.103 -0.102,0.219 -0.153,0.348c-0.051,0.129 -0.077,0.245 -0.076,0.348c0,0.103 -0.025,0.193 -0.076,0.27c-0.051,0.078 -0.102,0.168 -0.153,0.271c-0.051,0.155 -0.102,0.284 -0.153,0.387c-0.103,0.103 -0.257,0.245 -0.462,0.426c-0.205,0.181 -0.423,0.388 -0.653,0.621c-0.231,0.232 -0.436,0.452 -0.615,0.658c-0.179,0.207 -0.295,0.336 -0.346,0.388c-0.103,0.052 -0.372,0.182 -0.809,0.389c-0.437,0.208 -0.732,0.338 -0.886,0.39l-0.618,0.003l-0.694,0.002c-0.104,-0.051 -0.284,-0.179 -0.542,-0.383c-0.259,-0.205 -0.543,-0.423 -0.852,-0.653c-0.31,-0.23 -0.607,-0.448 -0.891,-0.652c-0.284,-0.205 -0.477,-0.333 -0.58,-0.384c-0.31,-0.256 -0.775,-0.576 -1.394,-0.959c-0.619,-0.384 -0.981,-0.627 -1.084,-0.729c-0.155,-0.102 -0.567,-0.306 -1.238,-0.612c-0.67,-0.306 -1.134,-0.485 -1.392,-0.535c-0.206,-0.102 -0.618,-0.255 -1.237,-0.458c-0.618,-0.203 -1.03,-0.356 -1.237,-0.458l-0.695,0.003l0.018,4.168l-0.695,0.003l-0.019,-4.554l-0.695,0.003c-0.05,0.206 -0.177,0.566 -0.381,1.082c-0.204,0.515 -0.331,0.851 -0.382,1.005l-0.384,0.388c-0.104,-0.103 -0.195,-0.308 -0.273,-0.617c-0.079,-0.308 -0.169,-0.488 -0.273,-0.539c0,-0.206 -0.066,-0.566 -0.197,-1.08c-0.131,-0.514 -0.197,-0.848 -0.197,-1.003c-0.155,-0.102 -0.554,-0.203 -1.198,-0.304c-0.644,-0.1 -1.043,-0.201 -1.198,-0.303l-4.632,0.019c-0.154,0.052 -0.334,0.13 -0.539,0.234l-0.771,0.389c-0.154,0.052 -0.449,0.182 -0.886,0.39c-0.436,0.207 -0.706,0.337 -0.809,0.389l-0.384,0.388c-0.051,0.103 -0.141,0.258 -0.268,0.464c-0.128,0.206 -0.192,0.361 -0.192,0.464l0.018,4.169c0.104,0.205 0.233,0.411 0.388,0.616c0.104,0.154 0.195,0.308 0.273,0.462c0.077,0.154 0.142,0.282 0.194,0.385c0.104,0.205 0.259,0.475 0.467,0.809c0.207,0.333 0.362,0.526 0.465,0.577c0.052,0.102 0.182,0.269 0.388,0.5c0.207,0.231 0.427,0.474 0.66,0.731c0.232,0.256 0.452,0.499 0.659,0.73c0.207,0.231 0.336,0.398 0.388,0.5c0.052,0.155 0.22,0.36 0.504,0.616c0.285,0.256 0.582,0.538 0.892,0.845c0.31,0.308 0.607,0.603 0.891,0.884c0.284,0.282 0.478,0.5 0.582,0.654c0.103,0.103 0.284,0.256 0.542,0.461c0.258,0.205 0.543,0.448 0.852,0.73c0.31,0.282 0.62,0.538 0.93,0.768c0.31,0.23 0.542,0.371 0.697,0.422c0.103,0.102 0.361,0.32 0.774,0.653c0.413,0.333 0.672,0.576 0.775,0.73c0.155,0.102 0.362,0.23 0.62,0.383c0.258,0.154 0.528,0.307 0.812,0.46c0.284,0.153 0.542,0.294 0.774,0.421c0.232,0.128 0.374,0.218 0.426,0.269c0.103,0.102 0.49,0.307 1.16,0.613c0.67,0.306 1.109,0.51 1.315,0.612c0.103,0.051 0.219,0.102 0.348,0.153c0.129,0.051 0.245,0.102 0.348,0.153l0.464,0.152l1.621,-0.007l1.39,-0.005c0.051,-0.001 0.115,-0.052 0.192,-0.156c0.077,-0.103 0.167,-0.206 0.269,-0.31l0.306,-0.696c0.102,-0.154 0.191,-0.438 0.267,-0.85c0.075,-0.412 0.112,-0.695 0.112,-0.85c0.051,-0.103 0.114,-0.296 0.19,-0.579c0.076,-0.284 0.139,-0.593 0.19,-0.928c0.05,-0.334 0.087,-0.643 0.111,-0.926c0.025,-0.284 0.037,-0.477 0.037,-0.58c-0.001,-0.205 0.062,-0.489 0.189,-0.85c0.127,-0.36 0.191,-0.592 0.19,-0.695c0.051,-0.103 0.115,-0.284 0.191,-0.541c0.076,-0.258 0.166,-0.387 0.269,-0.388c0.051,-0.103 0.191,-0.283 0.422,-0.542c0.23,-0.258 0.487,-0.516 0.769,-0.775c0.282,-0.258 0.525,-0.504 0.73,-0.736c0.205,-0.233 0.359,-0.401 0.461,-0.504c0.103,-0.052 0.231,-0.104 0.385,-0.156c0.309,-0.104 0.489,-0.156 0.54,-0.157c0.103,-0.052 0.218,-0.104 0.347,-0.156c0.128,-0.052 0.244,-0.129 0.346,-0.233c0.154,-0.103 0.308,-0.181 0.463,-0.233c0.103,0.102 0.284,0.256 0.542,0.461c0.258,0.205 0.387,0.358 0.388,0.461l0.012,2.934c0,0.103 -0.049,0.476 -0.15,1.12c-0.1,0.644 -0.149,1.146 -0.148,1.506c-0.102,0.103 -0.204,0.361 -0.305,0.773c-0.102,0.412 -0.203,0.67 -0.306,0.774c0.001,0.154 -0.114,0.489 -0.343,1.005c-0.23,0.515 -0.37,0.876 -0.42,1.082c0,0.154 -0.127,0.464 -0.382,0.928c-0.256,0.464 -0.435,0.722 -0.538,0.774c0.001,0.103 -0.088,0.322 -0.267,0.658c-0.179,0.335 -0.319,0.554 -0.422,0.658c-0.205,0.155 -0.461,0.452 -0.768,0.891c-0.307,0.438 -0.512,0.709 -0.614,0.813l-0.692,0.697c-0.103,0.104 -0.372,0.324 -0.808,0.66c-0.436,0.336 -0.757,0.582 -0.962,0.737c-0.103,0.052 -0.218,0.104 -0.347,0.156c-0.128,0.052 -0.244,0.13 -0.346,0.233l-0.462,0.311c-0.051,0.052 -0.18,0.117 -0.385,0.195c-0.206,0.078 -0.424,0.169 -0.655,0.273c-0.231,0.103 -0.45,0.194 -0.655,0.273c-0.206,0.078 -0.334,0.117 -0.386,0.117c-0.102,0.103 -0.282,0.194 -0.539,0.272c-0.257,0.079 -0.385,0.169 -0.385,0.272l-0.306,0.696c-0.102,0.104 -0.192,0.207 -0.269,0.31c-0.077,0.103 -0.141,0.155 -0.192,0.155c0,-0.051 -0.04,-0.231 -0.118,-0.54c-0.079,-0.308 -0.17,-0.513 -0.273,-0.616c-0.001,-0.154 -0.052,-0.231 -0.155,-0.231l-0.078,0c-0.051,0.001 -0.154,0.078 -0.307,0.233c0.001,0.361 -0.022,1.004 -0.07,1.931c-0.047,0.926 -0.082,1.93 -0.103,3.011c-0.021,1.081 -0.055,2.084 -0.103,3.011c-0.048,0.927 -0.071,1.57 -0.069,1.93c0.001,0.155 -0.049,0.605 -0.149,1.352c-0.1,0.747 -0.149,1.3 -0.147,1.66c-0.102,0.258 -0.204,0.644 -0.304,1.16c-0.101,0.515 -0.151,0.824 -0.151,0.927c0,0.051 -0.063,0.18 -0.191,0.386c-0.128,0.207 -0.192,0.336 -0.192,0.387l-0.068,-16.289c-0.154,0.001 -0.566,-0.113 -1.236,-0.342c-0.67,-0.229 -1.134,-0.394 -1.392,-0.496l-2.475,-1.225c-0.104,-0.051 -0.336,-0.191 -0.697,-0.421c-0.361,-0.231 -0.735,-0.473 -1.122,-0.729l-1.974,-1.304c-0.104,-0.051 -0.258,-0.167 -0.465,-0.346c-0.207,-0.179 -0.426,-0.358 -0.658,-0.537c-0.233,-0.18 -0.439,-0.346 -0.62,-0.5c-0.181,-0.153 -0.297,-0.256 -0.349,-0.307l-6.279,-6.227l-0.466,-0.616c-0.103,-0.154 -0.22,-0.32 -0.349,-0.5c-0.13,-0.18 -0.246,-0.321 -0.349,-0.423c-0.104,-0.154 -0.259,-0.398 -0.467,-0.732c-0.207,-0.333 -0.362,-0.551 -0.466,-0.654l-0.389,-0.693c0,-0.103 -0.052,-0.334 -0.157,-0.694c-0.104,-0.36 -0.208,-0.591 -0.312,-0.694c0,-0.103 -0.053,-0.411 -0.158,-0.925c-0.052,-0.206 -0.105,-0.437 -0.157,-0.694l-0.006,-1.467l-0.006,-1.39c-0.001,-0.206 0.049,-0.502 0.151,-0.888c0.101,-0.387 0.151,-0.683 0.15,-0.889c0.102,-0.206 0.256,-0.528 0.46,-0.967c0.204,-0.438 0.42,-0.876 0.65,-1.315c0.23,-0.438 0.434,-0.838 0.613,-1.199c0.178,-0.361 0.293,-0.593 0.344,-0.696c0.103,-0.052 0.334,-0.272 0.692,-0.659c0.359,-0.388 0.756,-0.801 1.192,-1.24c0.435,-0.44 0.858,-0.879 1.268,-1.318c0.41,-0.439 0.743,-0.762 1,-0.969c0.102,-0.104 0.32,-0.259 0.654,-0.466c0.334,-0.207 0.577,-0.363 0.731,-0.466c0.206,-0.053 0.617,-0.235 1.233,-0.546c0.617,-0.311 1.027,-0.519 1.233,-0.623c0.257,-0.104 0.694,-0.26 1.31,-0.468c0.617,-0.209 1.028,-0.365 1.234,-0.469c0.154,0 0.437,-0.014 0.849,-0.042c0.411,-0.027 0.861,-0.068 1.35,-0.121c0.489,-0.054 0.952,-0.094 1.389,-0.122c0.438,-0.027 0.733,-0.042 0.888,-0.042c-0.053,-0.206 -0.08,-0.566 -0.082,-1.081c-0.002,-0.514 0.022,-0.849 0.073,-1.004c-0.001,-0.205 0.127,-0.502 0.382,-0.889c0.256,-0.387 0.435,-0.684 0.537,-0.89c0.102,-0.155 0.435,-0.491 0.999,-1.008c0.564,-0.517 0.923,-0.878 1.077,-1.085l1.54,-0.778l0.541,-0.003l0.386,-0.001l0.01,0.009Zm-30.12,0.298l0.016,3.86c0,0 -0.012,0.142 -0.036,0.425c-0.025,0.283 -0.062,0.592 -0.112,0.927c-0.05,0.334 -0.088,0.656 -0.112,0.965c-0.025,0.309 -0.037,0.489 -0.037,0.541l0.007,1.621c0.001,0.103 0.015,0.527 0.044,1.274c0.029,0.746 0.058,1.569 0.088,2.47c0.029,0.9 0.071,1.736 0.126,2.508c0.055,0.772 0.082,1.209 0.083,1.312c0,0.154 0.066,0.514 0.197,1.08c0.131,0.566 0.197,0.9 0.197,1.003c0.104,0.257 0.261,0.745 0.47,1.465c0.208,0.719 0.365,1.233 0.469,1.542c0.053,0.257 0.183,0.681 0.392,1.272c0.208,0.591 0.429,1.22 0.664,1.888c0.234,0.669 0.455,1.298 0.664,1.889c0.208,0.591 0.338,0.989 0.391,1.195c0.052,0.154 0.182,0.488 0.39,1.002c0.208,0.514 0.338,0.874 0.39,1.079c0.104,0.257 0.286,0.578 0.545,0.963c0.259,0.385 0.388,0.629 0.389,0.732c0.103,-0.001 0.361,0.114 0.773,0.344c0.413,0.23 0.671,0.344 0.774,0.344c0.103,0.103 0.219,0.192 0.348,0.269c0.129,0.076 0.194,0.14 0.194,0.192c-0.102,0.309 -0.151,0.876 -0.147,1.699c0.003,0.823 0.057,1.389 0.161,1.698c0,0 0.078,0.167 0.234,0.501c0.156,0.333 0.337,0.731 0.545,1.194c0.208,0.462 0.442,0.924 0.701,1.386c0.259,0.463 0.466,0.822 0.622,1.079c0.052,0.102 0.221,0.578 0.508,1.426c0.286,0.848 0.599,1.773 0.938,2.775c0.338,1.002 0.651,1.94 0.938,2.814c0.287,0.874 0.456,1.336 0.507,1.387c0.105,0.36 0.261,0.668 0.467,0.925c0.104,0.205 0.234,0.411 0.389,0.616l0.007,1.698c-0.102,0.104 -0.243,0.374 -0.421,0.813c-0.178,0.438 -0.319,0.76 -0.421,0.966l-2.075,2.093c-0.103,0.001 -0.257,0.053 -0.463,0.157c-0.205,0.103 -0.359,0.156 -0.462,0.156l-1.004,0.004l-1.081,0.005c-0.051,0 -0.309,-0.166 -0.774,-0.499c-0.464,-0.332 -0.774,-0.55 -0.929,-0.652c0,-0.103 -0.066,-0.309 -0.196,-0.617c-0.129,-0.308 -0.195,-0.514 -0.195,-0.617l-0.006,-1.389l-0.311,-0.617c-0.104,-0.154 -0.182,-0.321 -0.234,-0.5c-0.052,-0.18 -0.13,-0.322 -0.233,-0.424c-0.363,-0.565 -0.804,-1.541 -1.325,-2.928c-0.52,-1.388 -1.067,-2.801 -1.639,-4.239c-0.624,-1.696 -1.301,-3.495 -2.03,-5.396l-3.396,0.014c0,0.155 -0.05,0.438 -0.151,0.85c-0.101,0.412 -0.152,0.696 -0.151,0.85c-0.103,0 -0.193,0.065 -0.269,0.194c-0.077,0.129 -0.141,0.194 -0.193,0.194c0.001,0.206 -0.023,0.579 -0.072,1.12c-0.049,0.54 -0.085,1.119 -0.109,1.737c-0.023,0.618 -0.059,1.223 -0.108,1.815c-0.049,0.592 -0.073,0.991 -0.072,1.197c-0.102,0.206 -0.19,0.618 -0.265,1.236c-0.075,0.618 -0.163,1.03 -0.265,1.236c0.001,0.155 -0.075,0.438 -0.228,0.85c-0.153,0.413 -0.229,0.696 -0.228,0.851l-0.048,-11.426c-0.154,0.001 -0.373,-0.05 -0.657,-0.151c-0.283,-0.102 -0.567,-0.204 -0.85,-0.306c-0.284,-0.101 -0.554,-0.178 -0.812,-0.228c-0.257,-0.05 -0.412,-0.05 -0.463,0.002c-0.102,0.206 -0.23,0.413 -0.383,0.619c-0.256,0.464 -0.434,0.825 -0.536,1.083c-0.102,0.207 -0.242,0.58 -0.42,1.121c-0.178,0.542 -0.318,0.864 -0.421,0.967c0.001,0.052 -0.012,0.18 -0.037,0.386c-0.025,0.206 -0.062,0.425 -0.113,0.657c-0.05,0.232 -0.088,0.451 -0.113,0.657c-0.025,0.206 -0.037,0.334 -0.037,0.386c0.001,0.103 -0.063,0.245 -0.191,0.425c-0.128,0.181 -0.192,0.323 -0.191,0.426c-0.154,0.103 -0.359,0.271 -0.616,0.504c-0.256,0.233 -0.512,0.491 -0.769,0.775c-0.256,0.284 -0.512,0.543 -0.768,0.775c-0.257,0.233 -0.411,0.349 -0.462,0.35l-1.54,0.933l-0.309,0.001l-0.232,0.001c-0.102,0 -0.244,-0.064 -0.425,-0.191c-0.181,-0.128 -0.323,-0.244 -0.426,-0.346c-0.052,-0.051 -0.103,-0.128 -0.155,-0.231c-0.104,-0.205 -0.156,-0.36 -0.157,-0.463l-0.002,-0.463l-0.001,-0.386c-0.001,-0.154 0.049,-0.463 0.15,-0.927c0.101,-0.463 0.152,-0.721 0.152,-0.772c0.102,-0.207 0.254,-0.58 0.458,-1.122c0.204,-0.541 0.407,-1.108 0.611,-1.701c0.203,-0.592 0.394,-1.146 0.572,-1.662c0.178,-0.515 0.318,-0.85 0.42,-1.005l-0.003,-0.772c-0.155,0 -0.489,-0.037 -1.004,-0.112c-0.515,-0.075 -0.876,-0.163 -1.082,-0.265c-0.001,-0.103 -0.053,-0.258 -0.157,-0.463c-0.103,-0.205 -0.155,-0.36 -0.156,-0.463l0,-0.077l-0.002,-0.386c0,-0.051 0.051,-0.283 0.152,-0.695c0.05,-0.206 0.101,-0.387 0.152,-0.541l2.921,-2.946c0.052,0 0.18,-0.026 0.386,-0.079c0.205,-0.052 0.424,-0.117 0.655,-0.196c0.231,-0.078 0.45,-0.156 0.655,-0.234c0.206,-0.078 0.334,-0.143 0.386,-0.194c-0.001,-0.103 0.127,-0.413 0.382,-0.928c0.255,-0.516 0.433,-0.903 0.535,-1.161c0.05,-0.309 0.19,-0.824 0.418,-1.545c0.229,-0.722 0.483,-1.495 0.763,-2.32c0.279,-0.824 0.521,-1.584 0.724,-2.28c0.203,-0.696 0.355,-1.198 0.457,-1.507c0.051,-0.052 0.114,-0.207 0.191,-0.464c0.066,-0.226 0.133,-0.471 0.199,-0.736l0.086,-0.344c0.057,-0.227 0.114,-0.447 0.171,-0.659c0.076,-0.284 0.139,-0.477 0.19,-0.58c0.051,-0.206 0.127,-0.502 0.228,-0.889c0.101,-0.386 0.203,-0.76 0.304,-1.12c0.102,-0.361 0.19,-0.683 0.266,-0.967c0.076,-0.283 0.114,-0.45 0.114,-0.502c0,-0.051 0.011,-0.527 0.033,-1.428c0.022,-0.901 0.043,-1.879 0.065,-2.934c0.021,-1.055 0.03,-2.033 0.026,-2.934c-0.004,-0.9 -0.006,-1.402 -0.006,-1.505c0.102,-0.103 0.217,-0.374 0.344,-0.812c0.127,-0.438 0.215,-0.709 0.266,-0.812c0,-0.051 0.128,-0.309 0.383,-0.773c0.256,-0.465 0.434,-0.774 0.537,-0.929c-0.001,-0.103 0.114,-0.309 0.345,-0.619c0.23,-0.31 0.396,-0.491 0.499,-0.543c0,-0.102 0.038,-0.206 0.115,-0.309c0.076,-0.103 0.14,-0.206 0.191,-0.309c0.206,-0.156 0.526,-0.363 0.963,-0.622c0.436,-0.259 0.706,-0.44 0.808,-0.544c0.103,-0.052 0.257,-0.104 0.463,-0.156c0.308,-0.104 0.565,-0.157 0.771,-0.158l0.386,-0.001l0.463,-0.002l0.31,0.307Zm86.776,25.124l-0.618,0.003l0.025,5.944l-0.695,0.003l-0.794,-5.478c-0.309,0.002 -0.824,-0.048 -1.545,-0.148c-0.721,-0.1 -1.21,-0.2 -1.468,-0.302c-0.103,0 -0.309,-0.038 -0.618,-0.114c-0.309,-0.075 -0.49,-0.139 -0.541,-0.19c-0.207,-0.102 -0.529,-0.255 -0.967,-0.459c-0.439,-0.204 -0.709,-0.358 -0.813,-0.46l-0.542,-0.538c-0.155,-0.154 -0.297,-0.282 -0.427,-0.385c-0.129,-0.102 -0.219,-0.179 -0.271,-0.23c0,-0.103 -0.117,-0.321 -0.35,-0.655c-0.233,-0.333 -0.401,-0.551 -0.504,-0.654c-0.104,-0.154 -0.247,-0.449 -0.429,-0.886c-0.182,-0.437 -0.273,-0.706 -0.273,-0.809c-0.104,-0.103 -0.221,-0.36 -0.351,-0.771c-0.13,-0.411 -0.196,-0.668 -0.196,-0.771l-0.011,-2.625l-0.009,-2.084c-0.001,-0.206 0.127,-0.567 0.382,-1.083c0.255,-0.515 0.434,-0.851 0.536,-1.005c-0.154,0 -0.438,-0.024 -0.85,-0.074c-0.412,-0.05 -0.823,-0.087 -1.235,-0.111c-0.412,-0.024 -0.824,-0.061 -1.236,-0.11c-0.412,-0.05 -0.695,-0.075 -0.849,-0.074c-0.103,0 -0.258,-0.05 -0.464,-0.152c-0.207,-0.102 -0.361,-0.205 -0.465,-0.307c-0.103,0 -0.245,-0.115 -0.426,-0.346c-0.181,-0.231 -0.323,-0.346 -0.426,-0.346c0,-0.051 -0.052,-0.231 -0.156,-0.539c-0.053,-0.154 -0.105,-0.283 -0.156,-0.386l-0.005,-1.003l-0.004,-1.081c0,-0.051 0.05,-0.309 0.151,-0.773c0.101,-0.463 0.151,-0.772 0.151,-0.927c0.102,-0.206 0.242,-0.554 0.42,-1.044c0.178,-0.489 0.356,-1.005 0.534,-1.546l0.8,-2.435c0.051,-0.257 0.306,-0.76 0.766,-1.509c0.46,-0.748 0.766,-1.354 0.919,-1.818c0.102,-0.206 0.28,-0.618 0.535,-1.237c0.255,-0.619 0.535,-1.289 0.841,-2.011c0.305,-0.721 0.586,-1.405 0.84,-2.049c0.255,-0.644 0.433,-1.095 0.535,-1.353c0.255,-0.619 0.6,-1.225 1.035,-1.819c0.435,-0.593 0.883,-1.187 1.343,-1.781c0.461,-0.594 0.896,-1.226 1.305,-1.897c0.409,-0.671 0.714,-1.392 0.917,-2.165c0.051,-0.052 0.154,-0.207 0.307,-0.465c0.153,-0.258 0.319,-0.529 0.498,-0.812c0.179,-0.284 0.358,-0.568 0.537,-0.852c0.179,-0.284 0.32,-0.503 0.422,-0.658c0,-0.051 0.089,-0.245 0.268,-0.58c0.179,-0.335 0.319,-0.606 0.421,-0.812c0.154,-0.155 0.397,-0.426 0.73,-0.814c0.333,-0.387 0.551,-0.607 0.653,-0.659c0.103,-0.206 0.371,-0.529 0.807,-0.968c0.436,-0.439 0.705,-0.711 0.807,-0.814c0.052,0 0.231,-0.13 0.539,-0.388c0.308,-0.259 0.513,-0.44 0.615,-0.543c0.052,-0.001 0.232,-0.053 0.54,-0.157c0.103,-0.052 0.231,-0.104 0.385,-0.156l1.467,-0.006l1.39,-0.006l0.93,0.923c0.103,0.051 0.245,0.23 0.427,0.538c0.181,0.308 0.324,0.514 0.427,0.616c0,0.103 0.092,0.411 0.274,0.925c0.182,0.514 0.326,0.9 0.43,1.157c0.103,0.153 0.285,0.552 0.545,1.194c0.26,0.642 0.39,1.04 0.391,1.195c0,0.103 0.04,0.296 0.118,0.578c0.079,0.283 0.17,0.579 0.274,0.887c0.104,0.308 0.196,0.604 0.274,0.887c0.078,0.282 0.118,0.501 0.118,0.655c0.001,0.103 0.066,0.373 0.197,0.81c0.13,0.437 0.196,0.758 0.197,0.964c0.053,0.309 0.157,0.733 0.314,1.273c0.157,0.539 0.313,1.092 0.47,1.658c0.157,0.565 0.288,1.079 0.393,1.542c0.104,0.463 0.183,0.745 0.235,0.848c0.001,0.257 0.118,0.579 0.351,0.964c0.233,0.385 0.351,0.757 0.352,1.118c0.105,0.359 0.222,0.861 0.354,1.504c0.131,0.642 0.197,1.015 0.197,1.118l0.012,2.779c0.001,0.103 -0.063,0.245 -0.191,0.426c-0.128,0.18 -0.243,0.322 -0.346,0.426c-0.102,0.154 -0.307,0.464 -0.613,0.929c-0.307,0.464 -0.486,0.722 -0.538,0.774c-0.102,0.103 -0.371,0.323 -0.807,0.659c-0.437,0.337 -0.706,0.557 -0.808,0.66c-0.103,0 -0.322,0.053 -0.656,0.157c-0.334,0.104 -0.578,0.157 -0.733,0.158l-0.154,0l-0.232,0.001c-0.051,0 -0.18,-0.051 -0.386,-0.153c-0.207,-0.102 -0.335,-0.153 -0.387,-0.152c-0.103,-0.103 -0.181,-0.231 -0.233,-0.385c-0.104,-0.309 -0.157,-0.489 -0.157,-0.54c-0.103,-0.103 -0.194,-0.308 -0.273,-0.617c-0.078,-0.308 -0.169,-0.488 -0.272,-0.539c-0.001,-0.206 -0.066,-0.527 -0.197,-0.964c-0.13,-0.437 -0.196,-0.707 -0.196,-0.81c-0.001,-0.154 -0.015,-0.424 -0.042,-0.81c-0.028,-0.386 -0.068,-0.811 -0.121,-1.274c-0.054,-0.462 -0.094,-0.9 -0.122,-1.311c-0.027,-0.412 -0.041,-0.669 -0.042,-0.772c-0.104,-0.309 -0.182,-0.591 -0.235,-0.848c-0.052,-0.258 -0.105,-0.502 -0.157,-0.733c-0.053,-0.232 -0.079,-0.399 -0.079,-0.502c-0.106,-0.514 -0.327,-1.131 -0.664,-1.85c-0.338,-0.719 -0.559,-1.207 -0.663,-1.464c-0.052,-0.205 -0.183,-0.681 -0.392,-1.426c-0.209,-0.746 -0.339,-1.247 -0.392,-1.504c-0.104,-0.257 -0.221,-0.591 -0.351,-1.002c-0.131,-0.411 -0.274,-0.822 -0.43,-1.234c-0.208,-0.462 -0.39,-0.95 -0.547,-1.464l-0.463,0.002c0.001,0.154 0.015,0.463 0.043,0.926c0.027,0.463 0.042,0.965 0.044,1.505c0.003,0.541 0.018,1.042 0.045,1.506c0.028,0.463 0.042,0.771 0.043,0.926c0.001,0.206 -0.062,0.605 -0.188,1.197c-0.126,0.592 -0.215,0.966 -0.266,1.121c0,-0.103 -0.065,-0.335 -0.196,-0.694c-0.13,-0.36 -0.195,-0.591 -0.196,-0.694c-0.052,-0.155 -0.104,-0.399 -0.157,-0.733c-0.053,-0.334 -0.093,-0.694 -0.12,-1.08c-0.028,-0.386 -0.068,-0.759 -0.121,-1.119c-0.053,-0.36 -0.105,-0.617 -0.157,-0.772l-0.688,1.624l0.031,7.643l-0.46,0.697l-0.62,-0.692l-0.026,-6.253c-0.103,0.103 -0.244,0.284 -0.423,0.542c-0.179,0.258 -0.371,0.529 -0.575,0.813c-0.205,0.284 -0.384,0.555 -0.537,0.813c-0.154,0.258 -0.256,0.464 -0.307,0.618c-0.051,0.104 -0.204,0.426 -0.459,0.967c-0.255,0.542 -0.535,1.173 -0.841,1.895c-0.306,0.722 -0.624,1.444 -0.956,2.166c-0.331,0.722 -0.574,1.289 -0.726,1.701c-0.051,0.206 -0.179,0.426 -0.384,0.658c-0.204,0.232 -0.332,0.452 -0.383,0.658c-0.101,0.309 -0.241,0.721 -0.419,1.237c-0.178,0.515 -0.356,1.031 -0.534,1.546c-0.178,0.515 -0.343,0.992 -0.496,1.43c-0.153,0.438 -0.254,0.683 -0.306,0.735c0.001,0.103 0.066,0.36 0.197,0.771c0.13,0.411 0.195,0.694 0.196,0.848c0.154,0 0.476,0.011 0.965,0.035c0.489,0.024 1.004,0.034 1.544,0.032c0.541,-0.002 1.055,-0.004 1.544,-0.006c0.489,-0.002 0.862,-0.03 1.119,-0.082c0.052,0 0.206,-0.014 0.463,-0.041c0.258,-0.026 0.553,-0.066 0.888,-0.119c0.334,-0.053 0.655,-0.093 0.964,-0.12c0.309,-0.027 0.515,-0.041 0.618,-0.041c0.205,-0.052 0.488,-0.118 0.848,-0.197c0.36,-0.078 0.72,-0.144 1.08,-0.197c0.36,-0.053 0.669,-0.106 0.926,-0.158c0.257,-0.053 0.411,-0.079 0.463,-0.08l3.628,-0.015l3.011,-0.012c0.154,0.102 0.554,0.255 1.198,0.458c0.644,0.203 1.095,0.356 1.353,0.457c0.103,0.103 0.375,0.372 0.814,0.808c0.439,0.435 0.711,0.756 0.815,0.961c0.052,0.154 0.194,0.437 0.428,0.848c0.233,0.41 0.35,0.693 0.351,0.847l0.019,4.555c0,0.052 -0.051,0.232 -0.152,0.541c-0.102,0.309 -0.153,0.515 -0.152,0.618c-0.051,0.104 -0.128,0.271 -0.23,0.503c-0.102,0.232 -0.229,0.477 -0.383,0.735c-0.153,0.258 -0.306,0.516 -0.46,0.774c-0.153,0.258 -0.255,0.464 -0.306,0.619c-0.051,0.155 -0.127,0.309 -0.23,0.464c-0.102,0.103 -0.192,0.22 -0.268,0.349c-0.077,0.129 -0.141,0.245 -0.192,0.348c-0.205,0.207 -0.461,0.504 -0.768,0.891c-0.307,0.387 -0.512,0.632 -0.615,0.736c0.001,0.103 -0.089,0.245 -0.268,0.425c-0.179,0.181 -0.32,0.323 -0.423,0.427c-0.102,0.103 -0.282,0.258 -0.538,0.465c-0.257,0.207 -0.526,0.427 -0.808,0.66c-0.282,0.233 -0.539,0.44 -0.77,0.621c-0.23,0.181 -0.371,0.297 -0.423,0.349c-0.102,0.103 -0.32,0.258 -0.654,0.466c-0.334,0.207 -0.552,0.362 -0.654,0.466c-0.103,0 -0.283,0.091 -0.54,0.272c-0.256,0.181 -0.551,0.363 -0.885,0.544c-0.334,0.182 -0.642,0.363 -0.924,0.544c-0.282,0.182 -0.449,0.298 -0.5,0.35c-0.052,0 -0.155,0.078 -0.308,0.233c-0.052,0.052 -0.077,0.103 -0.077,0.155l0.005,1.158c0.001,0.154 0.028,0.527 0.082,1.119c0.054,0.591 0.095,1.222 0.124,1.89c0.028,0.669 0.069,1.287 0.123,1.853c0.054,0.566 0.081,0.9 0.081,1.003l0.023,5.481c0.001,0.103 -0.024,0.296 -0.074,0.579c-0.051,0.284 -0.088,0.58 -0.113,0.889c-0.024,0.309 -0.061,0.605 -0.112,0.888c-0.05,0.283 -0.075,0.451 -0.075,0.502c-0.103,-0.154 -0.195,-0.488 -0.274,-1.002c-0.079,-0.515 -0.171,-0.875 -0.275,-1.08c-0.053,-0.412 -0.12,-1.145 -0.202,-2.199c-0.082,-1.055 -0.164,-2.187 -0.246,-3.396c-0.082,-1.209 -0.151,-2.341 -0.207,-3.396c-0.056,-1.055 -0.085,-1.788 -0.086,-2.2l-0.471,-1.774Zm-33.09,-1.782c0.069,0.377 0.138,0.734 0.207,1.072c0.079,0.385 0.118,0.655 0.119,0.81c0.103,0.102 0.208,0.398 0.313,0.886c0.105,0.489 0.157,0.784 0.158,0.887l0.003,0.772c0,0.103 -0.05,0.322 -0.152,0.657c-0.101,0.335 -0.203,0.554 -0.306,0.658c0,0.051 -0.089,0.232 -0.268,0.541c-0.179,0.31 -0.319,0.516 -0.422,0.619l-0.922,0.931c-0.052,0.051 -0.231,0.181 -0.539,0.388c-0.308,0.207 -0.513,0.337 -0.616,0.389c-0.103,0.103 -0.205,0.168 -0.308,0.194c-0.103,0.026 -0.206,0.065 -0.308,0.117c-0.155,0.052 -0.257,0.078 -0.309,0.078c-0.154,0.053 -0.282,0.105 -0.385,0.156c-0.051,0.052 -0.128,0.078 -0.231,0.079l-0.155,0c-0.206,0.001 -0.386,-0.024 -0.541,-0.075c-0.154,-0.051 -0.283,-0.101 -0.386,-0.153c-0.103,0.001 -0.18,-0.024 -0.232,-0.076c-0.103,-0.102 -0.155,-0.205 -0.156,-0.308c0,-0.051 -0.052,-0.283 -0.157,-0.694c-0.105,-0.411 -0.209,-0.745 -0.313,-1.002c-0.053,-0.309 -0.145,-0.772 -0.276,-1.389c-0.131,-0.617 -0.25,-1.26 -0.355,-1.928c-0.106,-0.669 -0.225,-1.286 -0.356,-1.852c-0.131,-0.565 -0.222,-0.925 -0.274,-1.079c-0.001,-0.052 -0.027,-0.193 -0.079,-0.425c-0.053,-0.231 -0.092,-0.501 -0.119,-0.81c-0.027,-0.308 -0.067,-0.617 -0.12,-0.926c-0.053,-0.308 -0.08,-0.565 -0.081,-0.771c0,-0.155 -0.027,-0.412 -0.08,-0.772c-0.053,-0.36 -0.106,-0.72 -0.159,-1.08c-0.053,-0.36 -0.106,-0.681 -0.158,-0.964c-0.053,-0.283 -0.079,-0.45 -0.08,-0.502c-0.001,-0.309 -0.016,-0.772 -0.044,-1.389c-0.028,-0.618 -0.07,-1.274 -0.124,-1.968c-0.054,-0.695 -0.096,-1.312 -0.124,-1.853c-0.028,-0.54 -0.042,-0.887 -0.042,-1.042l-0.04,-9.418l-0.039,-9.341c0,-0.103 0.05,-0.309 0.152,-0.618c0.102,-0.309 0.152,-0.49 0.152,-0.541c0.103,-0.103 0.205,-0.284 0.307,-0.542c0.051,-0.154 0.101,-0.283 0.152,-0.386c0.103,-0.104 0.257,-0.259 0.462,-0.465c0.205,-0.207 0.41,-0.427 0.615,-0.659c0.204,-0.233 0.397,-0.439 0.576,-0.62c0.179,-0.181 0.32,-0.297 0.423,-0.349c0.103,-0.104 0.372,-0.246 0.809,-0.428c0.437,-0.182 0.706,-0.325 0.809,-0.428l0.695,-0.003l0.694,-0.003c0.052,0.103 0.104,0.18 0.156,0.231l0.232,0.23c0.052,0.103 0.118,0.373 0.197,0.81c0.079,0.437 0.118,0.707 0.119,0.81l0.086,20.535c0.153,-0.103 0.436,-0.259 0.847,-0.467c0.411,-0.207 0.834,-0.415 1.271,-0.623c0.437,-0.207 0.847,-0.402 1.233,-0.584c0.385,-0.181 0.655,-0.324 0.809,-0.428c0.102,-0.103 0.32,-0.258 0.654,-0.466c0.333,-0.207 0.577,-0.362 0.731,-0.466c0.205,-0.155 0.488,-0.375 0.847,-0.66c0.359,-0.284 0.705,-0.569 1.038,-0.853c0.334,-0.285 0.641,-0.517 0.924,-0.699c0.282,-0.181 0.423,-0.272 0.423,-0.272c0.205,-0.206 0.577,-0.568 1.115,-1.085c0.538,-0.517 1.102,-1.073 1.692,-1.667c0.589,-0.594 1.14,-1.15 1.652,-1.667c0.513,-0.517 0.846,-0.904 0.999,-1.162c0.052,0 0.115,-0.116 0.192,-0.348c0.076,-0.232 0.166,-0.348 0.268,-0.349c0,-0.051 0.051,-0.27 0.152,-0.656c0.101,-0.387 0.152,-0.632 0.151,-0.734c0.052,-0.052 0.077,-0.104 0.077,-0.155c0,-0.103 0.025,-0.18 0.076,-0.232c0.051,-0.103 0.128,-0.206 0.231,-0.31c0.153,-0.258 0.396,-0.581 0.729,-0.968c0.333,-0.387 0.551,-0.633 0.653,-0.736c0.103,-0.103 0.41,-0.375 0.923,-0.814c0.513,-0.44 0.897,-0.763 1.154,-0.97l0.308,-0.156c0.206,-0.104 0.334,-0.156 0.385,-0.156c0.154,-0.104 0.399,-0.195 0.733,-0.273c0.334,-0.079 0.552,-0.118 0.655,-0.119l0.309,-0.078c0.051,0 0.103,0.012 0.154,0.038c0.052,0.025 0.104,0.038 0.155,0.038l0.077,-0.001c0.36,-0.001 0.541,0.127 0.542,0.384l0.009,2.084c0,0.052 -0.051,0.181 -0.153,0.387c-0.102,0.206 -0.217,0.438 -0.344,0.696c-0.128,0.258 -0.268,0.516 -0.422,0.774c-0.153,0.258 -0.255,0.439 -0.306,0.542c-0.102,0.206 -0.371,0.632 -0.806,1.277c-0.434,0.645 -0.754,1.122 -0.959,1.432c-0.05,0.155 -0.306,0.49 -0.767,1.007c-0.461,0.516 -0.769,0.878 -0.922,1.085c-0.154,0.206 -0.461,0.568 -0.922,1.084c-0.461,0.517 -0.961,1.059 -1.499,1.628c-0.538,0.568 -1.037,1.11 -1.498,1.627c-0.461,0.517 -0.769,0.852 -0.923,1.008c0.104,0.102 0.31,0.256 0.62,0.46c0.31,0.205 0.516,0.358 0.62,0.461c0.103,0.102 0.258,0.243 0.464,0.422c0.207,0.18 0.427,0.385 0.659,0.615c0.233,0.231 0.44,0.449 0.621,0.654c0.181,0.205 0.297,0.333 0.349,0.384c0.103,0.051 0.336,0.449 0.699,1.194c0.364,0.745 0.649,1.297 0.856,1.656c0.053,0.154 0.26,0.565 0.623,1.233c0.363,0.667 0.739,1.361 1.128,2.08c0.389,0.718 0.752,1.412 1.09,2.079c0.337,0.668 0.558,1.079 0.661,1.233c0.001,0.103 0.092,0.321 0.273,0.655c0.182,0.334 0.402,0.719 0.661,1.155c0.259,0.437 0.531,0.873 0.816,1.309c0.285,0.436 0.505,0.783 0.661,1.04c0.103,0.102 0.258,0.307 0.465,0.615c0.208,0.308 0.363,0.513 0.466,0.616c0.104,0.205 0.311,0.5 0.621,0.885c0.311,0.385 0.492,0.68 0.545,0.886c0.207,0.256 0.53,0.666 0.97,1.231c0.44,0.564 0.711,0.846 0.814,0.846c0.155,0.205 0.491,0.564 1.008,1.076l3.256,3.229c0.517,0.512 0.904,0.845 1.162,0.999c0,0.096 0.057,0.238 0.171,0.424l0.047,0.076c0.114,0.186 0.171,0.328 0.172,0.424l0.002,0.464c-0.103,0.154 -0.243,0.438 -0.421,0.851c-0.179,0.412 -0.268,0.67 -0.267,0.773c-0.103,0.103 -0.269,0.284 -0.5,0.542c-0.23,0.258 -0.487,0.517 -0.769,0.775c-0.282,0.259 -0.551,0.505 -0.807,0.737c-0.256,0.233 -0.462,0.401 -0.616,0.505l-0.462,0.156c-0.308,0.104 -0.54,0.157 -0.694,0.157l-0.927,0.004c-0.154,-0.051 -0.283,-0.102 -0.386,-0.153c-0.052,0 -0.09,-0.012 -0.116,-0.038c-0.026,-0.025 -0.065,-0.038 -0.116,-0.038c-0.052,0 -0.103,-0.025 -0.155,-0.077c-0.104,-0.205 -0.375,-0.461 -0.814,-0.768c-0.438,-0.307 -0.71,-0.512 -0.813,-0.614c-0.206,-0.051 -0.567,-0.345 -1.084,-0.884c-0.517,-0.538 -0.853,-0.935 -1.009,-1.192c-0.103,-0.102 -0.284,-0.282 -0.543,-0.538c-0.258,-0.256 -0.516,-0.538 -0.775,-0.846c-0.259,-0.308 -0.517,-0.59 -0.776,-0.846c-0.258,-0.256 -0.413,-0.436 -0.465,-0.539c-0.052,-0.102 -0.194,-0.307 -0.427,-0.615c-0.233,-0.308 -0.479,-0.642 -0.738,-1.001c-0.259,-0.359 -0.517,-0.718 -0.776,-1.077c-0.259,-0.36 -0.44,-0.616 -0.544,-0.77c-0.103,-0.103 -0.259,-0.308 -0.466,-0.616c-0.207,-0.308 -0.362,-0.487 -0.465,-0.538c-0.156,-0.257 -0.441,-0.732 -0.855,-1.425c-0.415,-0.693 -0.83,-1.425 -1.245,-2.195c-0.415,-0.77 -0.829,-1.489 -1.244,-2.156c-0.414,-0.668 -0.699,-1.13 -0.855,-1.386l-0.696,-0.383l0.008,2.084l-0.463,0.002c-0.052,-0.206 -0.104,-0.411 -0.157,-0.617c-0.052,-0.206 -0.117,-0.398 -0.195,-0.578c-0.078,-0.18 -0.143,-0.347 -0.195,-0.501c-0.001,-0.103 -0.027,-0.335 -0.08,-0.695c-0.053,-0.36 -0.093,-0.733 -0.121,-1.119c-0.027,-0.385 -0.067,-0.758 -0.12,-1.118c-0.053,-0.36 -0.08,-0.592 -0.08,-0.695c-0.001,-0.103 -0.053,-0.308 -0.157,-0.617c-0.105,-0.308 -0.157,-0.565 -0.158,-0.771l-0.466,-0.693c-0.103,-0.103 -0.259,-0.282 -0.465,-0.538c-0.207,-0.257 -0.362,-0.385 -0.465,-0.385l0.004,0.927c0.052,0.205 0.118,0.733 0.199,1.582c0.081,0.848 0.149,1.762 0.205,2.739c0.055,0.978 0.098,1.904 0.127,2.779c0.029,0.875 0.045,1.415 0.045,1.621l0.049,11.58l-0.532,2.086l-0.388,-0.384c0,0 -0.026,-0.129 -0.078,-0.386c-0.053,-0.257 -0.093,-0.565 -0.12,-0.926c-0.027,-0.36 -0.054,-0.72 -0.082,-1.08c-0.027,-0.36 -0.041,-0.643 -0.042,-0.849c-0.052,-0.257 -0.106,-0.836 -0.162,-1.736c-0.055,-0.901 -0.111,-1.956 -0.167,-3.165c-0.057,-1.209 -0.126,-2.495 -0.209,-3.859c-0.083,-1.364 -0.153,-2.65 -0.209,-3.859c-0.057,-1.209 -0.1,-2.264 -0.129,-3.165c-0.03,-0.9 -0.045,-1.505 -0.047,-1.814c-0.051,-0.102 -0.104,-0.321 -0.157,-0.655c-0.053,-0.335 -0.093,-0.669 -0.12,-1.003c-0.027,-0.335 -0.067,-0.656 -0.119,-0.965c-0.053,-0.308 -0.106,-0.514 -0.157,-0.617c-0.103,0.001 -0.309,-0.037 -0.619,-0.113c-0.309,-0.076 -0.489,-0.114 -0.54,-0.114c-0.103,0.001 -0.36,0.053 -0.772,0.158c-0.205,0.052 -0.385,0.079 -0.54,0.079c-0.051,0.001 -0.398,0.092 -1.041,0.275c-0.642,0.183 -1.144,0.326 -1.503,0.431c-0.103,0.103 -0.373,0.246 -0.809,0.428c-0.437,0.182 -0.707,0.324 -0.809,0.428c0.001,0.154 0.027,0.373 0.08,0.656c0.053,0.283 0.092,0.578 0.119,0.887c0.027,0.309 0.067,0.604 0.12,0.887c0.053,0.283 0.079,0.476 0.08,0.579c0.104,0.257 0.195,0.694 0.275,1.311c0.08,0.617 0.172,0.977 0.275,1.08c0.001,0.154 0.04,0.437 0.119,0.849c0.059,0.308 0.119,0.624 0.178,0.947l0.089,0.488Zm-58.897,4.24c-0.102,0.258 -0.281,0.709 -0.535,1.353c-0.255,0.645 -0.382,1.044 -0.381,1.199c0,0.103 -0.012,0.257 -0.037,0.463c-0.025,0.206 -0.037,0.36 -0.037,0.463l0.464,-0.002c0.154,-0.103 0.514,-0.195 1.079,-0.274c0.566,-0.08 0.9,-0.171 1.003,-0.275l-0.001,-0.154l-0.001,-0.232c0,-0.154 -0.118,-0.552 -0.352,-1.195c-0.234,-0.642 -0.352,-1.092 -0.353,-1.349c-0.103,0 -0.194,-0.115 -0.272,-0.347c-0.078,-0.231 -0.143,-0.346 -0.194,-0.346l-0.383,0.696Zm87.149,-14.944c0,0.103 0.001,0.27 0.002,0.502c0.001,0.232 0.027,0.476 0.08,0.733c0.052,0.257 0.105,0.54 0.158,0.849c0.001,0.206 0.092,0.501 0.274,0.886c0.181,0.386 0.376,0.681 0.582,0.886c0.001,0.051 0.22,0.308 0.66,0.769c0.439,0.461 0.762,0.769 0.969,0.922c0.051,0 0.18,0.064 0.386,0.192c0.207,0.127 0.336,0.191 0.387,0.191l2.316,-0.01l1.853,-0.007c0.051,-0.001 0.193,-0.053 0.424,-0.157c0.231,-0.103 0.475,-0.22 0.732,-0.35c0.257,-0.13 0.513,-0.272 0.77,-0.428c0.257,-0.155 0.436,-0.285 0.539,-0.388c0.103,-0.052 0.256,-0.181 0.461,-0.388c0.205,-0.207 0.359,-0.336 0.462,-0.388c0.051,-0.206 0.191,-0.502 0.421,-0.889c0.23,-0.387 0.344,-0.684 0.344,-0.89l-0.005,-1.003l-0.004,-1.081c-0.001,-0.103 -0.117,-0.373 -0.351,-0.809c-0.233,-0.437 -0.376,-0.706 -0.428,-0.809c-0.103,-0.051 -0.322,-0.192 -0.658,-0.422c-0.335,-0.23 -0.555,-0.345 -0.657,-0.344c-0.052,-0.103 -0.362,-0.192 -0.928,-0.267c-0.566,-0.075 -0.953,-0.112 -1.158,-0.111l-1.004,0.004l-1.081,0.005c-0.257,0.001 -0.617,0.015 -1.08,0.043c-0.463,0.028 -0.939,0.055 -1.428,0.083c-0.489,0.028 -0.926,0.068 -1.312,0.121c-0.386,0.054 -0.604,0.106 -0.656,0.158c-0.103,0 -0.257,0.052 -0.462,0.156c-0.154,0.052 -0.283,0.104 -0.386,0.156c0.001,0.206 -0.036,0.566 -0.111,1.081c-0.075,0.515 -0.112,0.85 -0.111,1.004Z"/>
        <path d="M456.835,36.897c0.119,0.067 0.227,0.101 0.323,0.1c0.103,0 0.245,0.089 0.426,0.269c0.181,0.179 0.272,0.32 0.272,0.423c0,0.051 0.026,0.103 0.078,0.154c0,0.052 0.013,0.103 0.039,0.154c0.026,0.052 0.039,0.103 0.039,0.155l-0.153,0.309c0.001,0.206 -0.036,0.476 -0.112,0.811c-0.076,0.335 -0.14,0.502 -0.191,0.503c0,0 -0.051,0.09 -0.153,0.27c-0.102,0.181 -0.23,0.362 -0.384,0.542c-0.154,0.181 -0.307,0.362 -0.461,0.543c-0.154,0.181 -0.256,0.297 -0.307,0.348c-0.052,0.052 -0.09,0.117 -0.115,0.194c-0.026,0.077 -0.064,0.167 -0.115,0.271c-0.051,0.154 -0.127,0.283 -0.23,0.387l0.052,12.506l0.463,-0.002c0.052,0 0.193,-0.027 0.425,-0.079c0.231,-0.053 0.463,-0.092 0.694,-0.119c0.232,-0.027 0.45,-0.066 0.656,-0.118c0.205,-0.053 0.308,-0.079 0.308,-0.079c0.36,-0.053 0.99,-0.171 1.89,-0.355c0.9,-0.184 1.877,-0.368 2.931,-0.553c1.055,-0.184 2.032,-0.356 2.932,-0.514c0.9,-0.158 1.53,-0.264 1.89,-0.317l0.693,-0.388l-0.054,-12.97c0,-0.103 0.127,-0.348 0.383,-0.735c0.256,-0.387 0.46,-0.709 0.613,-0.967l2.076,-2.093c0.103,-0.001 0.334,-0.105 0.694,-0.312c0.359,-0.207 0.642,-0.337 0.847,-0.39l0.309,-0.001l0.232,-0.001c0.154,0 0.386,0.05 0.695,0.152c0.155,0.05 0.283,0.101 0.387,0.152l0.062,14.977l0.474,2.546l0.053,12.814c0.054,0.515 0.109,1.377 0.166,2.586c0.049,1.058 0.089,2.165 0.119,3.322l0.025,0.998c0.03,1.156 0.07,2.264 0.119,3.322c0.057,1.209 0.112,2.045 0.165,2.508c0,0.051 0.027,0.231 0.079,0.54c0.053,0.309 0.093,0.656 0.121,1.042c0.027,0.386 0.067,0.746 0.12,1.08c0.053,0.334 0.079,0.527 0.08,0.579l0.008,2.084c0.001,0.096 -0.055,0.295 -0.167,0.596l-0.046,0.122c-0.112,0.301 -0.168,0.499 -0.167,0.596c-0.051,0.103 -0.102,0.386 -0.151,0.85c-0.05,0.463 -0.086,0.952 -0.11,1.467c-0.023,0.515 -0.06,0.991 -0.11,1.429c-0.049,0.437 -0.1,0.682 -0.151,0.734c0.001,0.206 -0.037,0.463 -0.113,0.772c-0.075,0.309 -0.165,0.516 -0.267,0.619c-0.051,0.052 -0.129,0.078 -0.231,0.078c-0.103,0.052 -0.257,0.078 -0.463,0.079l-0.018,-4.323c0,0.155 -0.011,0.45 -0.035,0.888c-0.024,0.438 -0.061,0.901 -0.11,1.39c-0.05,0.489 -0.099,0.953 -0.149,1.39c-0.05,0.438 -0.1,0.734 -0.151,0.889c0.001,0.154 -0.062,0.386 -0.19,0.695c-0.127,0.31 -0.242,0.465 -0.345,0.465c0,0.051 -0.025,0.103 -0.077,0.155l0.001,0.077l-0.078,0l-0.154,0.001c-0.051,0 -0.077,-0.077 -0.078,-0.231c-0.001,-0.103 -0.053,-0.438 -0.159,-1.003c-0.105,-0.566 -0.158,-0.926 -0.159,-1.08c-0.103,-0.206 -0.208,-0.617 -0.314,-1.234c-0.105,-0.618 -0.158,-1.029 -0.159,-1.235l-0.926,0.004c-0.103,0 -0.245,-0.05 -0.426,-0.153c-0.18,-0.102 -0.271,-0.204 -0.271,-0.307c-0.103,0 -0.194,-0.167 -0.272,-0.501c-0.079,-0.334 -0.144,-0.578 -0.197,-0.733c-0.103,-0.205 -0.195,-0.578 -0.274,-1.118c-0.08,-0.54 -0.12,-0.861 -0.12,-0.964c-0.053,-0.206 -0.106,-0.617 -0.16,-1.235c-0.054,-0.617 -0.095,-1.286 -0.124,-2.006c-0.029,-0.721 -0.07,-1.403 -0.124,-2.046c-0.054,-0.643 -0.108,-1.093 -0.16,-1.35c-0.002,-0.36 -0.031,-1.235 -0.088,-2.625c-0.051,-1.215 -0.091,-2.51 -0.122,-3.883l-0.026,-1.187c-0.031,-1.373 -0.071,-2.668 -0.121,-3.884c-0.058,-1.389 -0.087,-2.264 -0.089,-2.624c0,-0.154 -0.014,-0.437 -0.042,-0.849c-0.027,-0.412 -0.068,-0.823 -0.121,-1.235c-0.053,-0.411 -0.093,-0.823 -0.121,-1.234c-0.027,-0.412 -0.041,-0.695 -0.042,-0.849l-1.081,0.004l-1.003,0.004c-0.257,0.001 -0.708,0.055 -1.35,0.16c-0.643,0.106 -1.042,0.159 -1.196,0.16c0,0.103 -0.064,0.206 -0.192,0.309c-0.128,0.104 -0.192,0.207 -0.192,0.31c-0.05,0.309 -0.099,0.85 -0.147,1.622c-0.049,0.772 -0.084,1.608 -0.106,2.509c-0.022,0.901 -0.057,1.75 -0.105,2.548c-0.048,0.798 -0.097,1.352 -0.147,1.661c0,0.103 -0.025,0.386 -0.074,0.849c-0.05,0.464 -0.086,0.991 -0.109,1.583c-0.024,0.592 -0.06,1.158 -0.109,1.699c-0.049,0.541 -0.073,0.94 -0.072,1.197c0,0.154 -0.011,0.437 -0.035,0.849c-0.024,0.412 -0.061,0.85 -0.111,1.313c-0.049,0.463 -0.086,0.888 -0.11,1.274c-0.024,0.386 -0.036,0.631 -0.036,0.734c-0.05,0.155 -0.101,0.373 -0.151,0.657c-0.044,0.248 -0.078,0.505 -0.103,0.773l-0.019,0.23c-0.024,0.268 -0.058,0.525 -0.102,0.773c-0.051,0.284 -0.076,0.477 -0.075,0.58c-0.001,-0.193 -0.059,-0.567 -0.175,-1.122l-0.047,-0.226c-0.116,-0.554 -0.174,-0.928 -0.174,-1.121l-0.005,-1.004l-0.004,-1.081c-0.001,-0.257 0.022,-0.836 0.07,-1.737c0.047,-0.901 0.082,-1.879 0.103,-2.934c0.022,-1.055 0.056,-2.02 0.104,-2.895c0.048,-0.875 0.071,-1.442 0.07,-1.699l-0.029,-7.025l-0.618,0.003c0.001,0.103 0.014,0.283 0.041,0.54c0.027,0.257 0.054,0.54 0.081,0.849c0.027,0.308 0.054,0.604 0.081,0.887c0.027,0.283 0.04,0.476 0.041,0.579c-0.102,0.206 -0.191,0.567 -0.266,1.082c-0.075,0.515 -0.164,0.85 -0.266,1.005l-0.154,0l-0.232,0.001c-0.052,-0.051 -0.142,-0.179 -0.272,-0.385c-0.129,-0.205 -0.194,-0.333 -0.194,-0.385c-0.001,-0.154 0.011,-0.412 0.035,-0.772c0.024,-0.36 0.036,-0.734 0.034,-1.12c-0.002,-0.386 0.01,-0.746 0.034,-1.08c0.024,-0.335 0.036,-0.58 0.036,-0.734c-0.103,0 -0.399,-0.024 -0.889,-0.074c-0.489,-0.049 -0.785,-0.073 -0.888,-0.073c-0.154,0.001 -0.437,0.066 -0.848,0.197c-0.411,0.13 -0.694,0.221 -0.848,0.273l0.01,2.471c0.052,0.154 0.118,0.527 0.198,1.118c0.08,0.592 0.172,1.273 0.279,2.045c0.106,0.771 0.199,1.53 0.279,2.276c0.081,0.746 0.147,1.325 0.201,1.736c0,0.206 0.041,0.579 0.12,1.119c0.08,0.54 0.172,1.119 0.278,1.736c0.105,0.617 0.198,1.221 0.277,1.813c0.08,0.591 0.12,0.99 0.121,1.196c0,0.103 0.04,0.373 0.119,0.81c0.079,0.437 0.171,0.9 0.276,1.389c0.105,0.488 0.21,0.964 0.315,1.426c0.105,0.463 0.183,0.772 0.235,0.926l0.008,1.698c-0.052,0.052 -0.103,0.129 -0.154,0.232c-0.051,0.104 -0.115,0.194 -0.192,0.271c-0.077,0.078 -0.141,0.143 -0.192,0.194c-0.102,0.207 -0.242,0.464 -0.421,0.774c-0.179,0.31 -0.32,0.516 -0.422,0.619c-0.051,0.104 -0.192,0.271 -0.423,0.504c-0.23,0.233 -0.474,0.478 -0.73,0.736c-0.256,0.259 -0.513,0.504 -0.769,0.737c-0.256,0.233 -0.41,0.401 -0.461,0.504l0.078,18.759l-0.383,0.774c-0.103,-0.154 -0.22,-0.488 -0.351,-1.003c-0.131,-0.514 -0.197,-0.874 -0.198,-1.08c0,-0.154 -0.027,-0.437 -0.08,-0.848c-0.054,-0.412 -0.094,-0.836 -0.122,-1.274c-0.027,-0.437 -0.067,-0.849 -0.121,-1.234c-0.053,-0.386 -0.079,-0.656 -0.08,-0.811c-0.002,-0.514 -0.032,-1.402 -0.088,-2.663c-0.05,-1.103 -0.09,-2.255 -0.12,-3.457l-0.025,-1.036c-0.031,-1.202 -0.071,-2.354 -0.12,-3.457c-0.057,-1.261 -0.112,-2.148 -0.166,-2.663c-0.103,-0.102 -0.246,-0.372 -0.428,-0.809c-0.182,-0.436 -0.273,-0.758 -0.274,-0.964c-0.103,-0.102 -0.22,-0.346 -0.35,-0.731c-0.131,-0.386 -0.196,-0.682 -0.197,-0.887c-0.001,-0.103 -0.04,-0.373 -0.119,-0.811c-0.079,-0.437 -0.171,-0.925 -0.277,-1.465c-0.105,-0.54 -0.197,-1.054 -0.276,-1.543c-0.079,-0.489 -0.145,-0.861 -0.198,-1.119c-0.001,-0.308 -0.055,-0.849 -0.161,-1.62c-0.106,-0.772 -0.16,-1.235 -0.16,-1.389c-0.106,-0.617 -0.239,-1.633 -0.399,-3.048c-0.16,-1.414 -0.334,-2.88 -0.52,-4.398c-0.187,-1.517 -0.36,-2.919 -0.519,-4.205c-0.16,-1.286 -0.293,-2.161 -0.397,-2.623c-0.001,-0.258 -0.016,-0.618 -0.044,-1.081c-0.027,-0.463 -0.068,-0.939 -0.121,-1.428c-0.054,-0.488 -0.094,-0.913 -0.121,-1.273c-0.028,-0.36 -0.041,-0.592 -0.042,-0.695l-0.02,-4.863l-0.02,-4.632c0,-0.103 0.05,-0.489 0.15,-1.159c0.1,-0.669 0.149,-1.184 0.148,-1.544c0.102,-0.258 0.204,-0.541 0.305,-0.851l0.152,-0.618c0.102,-0.206 0.319,-0.632 0.651,-1.276c0.332,-0.645 0.549,-1.122 0.65,-1.431c0.051,-0.052 0.179,-0.233 0.384,-0.542c0.204,-0.31 0.332,-0.516 0.383,-0.619l0.923,-0.931c0.103,-0.052 0.308,-0.181 0.616,-0.388c0.308,-0.207 0.487,-0.337 0.539,-0.389l0.924,-0.467c0.205,-0.103 0.437,-0.182 0.694,-0.234c0.096,-0.001 0.204,-0.035 0.323,-0.103l0.048,-0.028c0.119,-0.069 0.226,-0.103 0.323,-0.104c0.096,0 0.204,0.033 0.324,0.101l0.048,0.028Zm68.771,-10.539c0.058,0.05 0.183,0.11 0.377,0.182c0.206,0.076 0.335,0.166 0.387,0.269l0.387,0.307c0.052,0.102 0.117,0.218 0.194,0.346c0.078,0.129 0.143,0.27 0.195,0.424c0.052,0.206 0.105,0.386 0.157,0.54c0.103,0.154 0.246,0.398 0.427,0.731c0.182,0.334 0.324,0.552 0.428,0.655c0.155,0.205 0.53,0.59 1.124,1.153c0.594,0.564 1.227,1.179 1.899,1.845l3.256,3.229c0.051,0 0.219,0.115 0.503,0.345c0.284,0.231 0.594,0.487 0.93,0.768c0.335,0.282 0.658,0.551 0.968,0.807c0.31,0.256 0.517,0.409 0.62,0.46c0.103,0.103 0.297,0.295 0.581,0.577c0.284,0.282 0.569,0.577 0.853,0.884c0.284,0.308 0.556,0.603 0.814,0.885c0.259,0.282 0.44,0.474 0.543,0.576c0.052,0.103 0.143,0.257 0.272,0.462c0.13,0.206 0.195,0.36 0.195,0.463c-0.102,0.155 -0.179,0.309 -0.23,0.464c-0.051,0.103 -0.102,0.219 -0.153,0.348c-0.05,0.129 -0.076,0.245 -0.075,0.348c0,0.103 -0.025,0.193 -0.076,0.27c-0.051,0.078 -0.103,0.168 -0.154,0.271c-0.05,0.155 -0.101,0.284 -0.152,0.387c-0.103,0.103 -0.257,0.245 -0.462,0.426c-0.205,0.181 -0.423,0.388 -0.653,0.621c-0.231,0.232 -0.436,0.452 -0.615,0.658c-0.18,0.207 -0.295,0.336 -0.346,0.388c-0.103,0.052 -0.372,0.181 -0.809,0.389c-0.437,0.208 -0.732,0.338 -0.886,0.39l-0.618,0.002l-0.695,0.003c-0.103,-0.051 -0.283,-0.179 -0.542,-0.383c-0.258,-0.205 -0.542,-0.423 -0.851,-0.653c-0.31,-0.23 -0.607,-0.448 -0.891,-0.653c-0.284,-0.204 -0.477,-0.332 -0.581,-0.383c-0.309,-0.256 -0.774,-0.576 -1.393,-0.959c-0.619,-0.384 -0.981,-0.627 -1.084,-0.729c-0.155,-0.102 -0.567,-0.307 -1.238,-0.613c-0.67,-0.306 -1.134,-0.484 -1.392,-0.534c-0.206,-0.102 -0.618,-0.255 -1.237,-0.458c-0.618,-0.204 -1.031,-0.356 -1.237,-0.458l-0.695,0.003l0.018,4.168l-0.695,0.003l-0.019,-4.554l-0.695,0.002c-0.05,0.207 -0.178,0.567 -0.381,1.083c-0.204,0.515 -0.331,0.85 -0.382,1.005l-0.384,0.388c-0.104,-0.103 -0.195,-0.308 -0.273,-0.617c-0.079,-0.308 -0.17,-0.488 -0.273,-0.539c-0.001,-0.206 -0.066,-0.566 -0.197,-1.08c-0.131,-0.514 -0.197,-0.848 -0.197,-1.003c-0.155,-0.102 -0.554,-0.203 -1.198,-0.304c-0.644,-0.1 -1.043,-0.201 -1.198,-0.303l-4.632,0.019c-0.154,0.052 -0.334,0.13 -0.539,0.234l-0.771,0.389c-0.154,0.052 -0.449,0.182 -0.886,0.39c-0.437,0.207 -0.706,0.337 -0.809,0.389l-0.384,0.388c-0.051,0.103 -0.141,0.258 -0.269,0.464c-0.127,0.206 -0.191,0.361 -0.191,0.464l0.018,4.169c0.104,0.205 0.233,0.41 0.388,0.616c0.104,0.154 0.195,0.308 0.272,0.462c0.078,0.154 0.143,0.282 0.195,0.385c0.104,0.205 0.259,0.475 0.467,0.809c0.207,0.333 0.362,0.526 0.465,0.577c0.052,0.102 0.181,0.269 0.388,0.5c0.207,0.231 0.427,0.474 0.66,0.73c0.232,0.257 0.452,0.5 0.659,0.731c0.207,0.231 0.336,0.398 0.388,0.5c0.052,0.154 0.22,0.36 0.504,0.616c0.284,0.256 0.582,0.538 0.892,0.845c0.31,0.308 0.607,0.602 0.891,0.884c0.284,0.282 0.478,0.5 0.582,0.654c0.103,0.103 0.284,0.256 0.542,0.461c0.258,0.205 0.542,0.448 0.852,0.73c0.31,0.282 0.62,0.538 0.93,0.768c0.31,0.23 0.542,0.371 0.697,0.422c0.103,0.102 0.361,0.32 0.774,0.653c0.413,0.332 0.672,0.576 0.775,0.73c0.155,0.102 0.362,0.23 0.62,0.383c0.257,0.154 0.528,0.307 0.812,0.46c0.284,0.153 0.542,0.294 0.774,0.421c0.232,0.128 0.374,0.218 0.425,0.269c0.104,0.102 0.491,0.307 1.161,0.613c0.67,0.306 1.109,0.51 1.315,0.612c0.103,0.051 0.219,0.102 0.348,0.153c0.129,0.051 0.245,0.102 0.348,0.153l0.464,0.152l1.621,-0.007l1.39,-0.006c0.051,0 0.115,-0.052 0.192,-0.155c0.077,-0.103 0.166,-0.206 0.269,-0.31l0.306,-0.696c0.102,-0.155 0.191,-0.438 0.266,-0.85c0.076,-0.412 0.113,-0.695 0.113,-0.85c0.051,-0.103 0.114,-0.296 0.19,-0.58c0.076,-0.283 0.139,-0.592 0.189,-0.927c0.05,-0.334 0.088,-0.643 0.112,-0.927c0.025,-0.283 0.037,-0.476 0.037,-0.579c-0.001,-0.206 0.062,-0.489 0.189,-0.85c0.127,-0.361 0.19,-0.592 0.19,-0.695c0.051,-0.103 0.115,-0.284 0.191,-0.542c0.076,-0.257 0.165,-0.386 0.268,-0.387c0.051,-0.103 0.192,-0.283 0.423,-0.542c0.23,-0.258 0.486,-0.516 0.768,-0.775c0.282,-0.258 0.526,-0.504 0.731,-0.736c0.205,-0.233 0.358,-0.401 0.461,-0.504c0.103,-0.052 0.231,-0.104 0.385,-0.156c0.309,-0.104 0.489,-0.157 0.54,-0.157c0.103,-0.052 0.218,-0.104 0.347,-0.156c0.128,-0.052 0.244,-0.129 0.346,-0.233c0.154,-0.103 0.308,-0.181 0.462,-0.233c0.104,0.102 0.285,0.256 0.543,0.461c0.258,0.204 0.387,0.358 0.388,0.461l0.012,2.934c0,0.103 -0.05,0.476 -0.15,1.12c-0.1,0.644 -0.149,1.146 -0.148,1.506c-0.102,0.103 -0.204,0.361 -0.306,0.773c-0.101,0.412 -0.203,0.67 -0.305,0.773c0.001,0.155 -0.114,0.49 -0.343,1.005c-0.23,0.516 -0.37,0.877 -0.42,1.083c0,0.154 -0.127,0.464 -0.383,0.928c-0.255,0.464 -0.434,0.722 -0.537,0.774c0.001,0.103 -0.088,0.322 -0.267,0.658c-0.179,0.335 -0.319,0.554 -0.422,0.657c-0.205,0.156 -0.461,0.453 -0.768,0.891c-0.307,0.439 -0.512,0.71 -0.614,0.814l-0.692,0.697c-0.103,0.104 -0.372,0.324 -0.808,0.66c-0.436,0.336 -0.757,0.582 -0.962,0.737c-0.103,0.052 -0.218,0.104 -0.347,0.156c-0.128,0.052 -0.244,0.13 -0.346,0.233l-0.462,0.311c-0.051,0.052 -0.18,0.116 -0.385,0.195c-0.206,0.078 -0.424,0.169 -0.655,0.272c-0.232,0.104 -0.45,0.195 -0.655,0.273c-0.206,0.078 -0.335,0.118 -0.386,0.118c-0.102,0.103 -0.282,0.194 -0.539,0.272c-0.257,0.079 -0.386,0.169 -0.385,0.272l-0.306,0.696c-0.103,0.103 -0.192,0.207 -0.269,0.31c-0.077,0.103 -0.141,0.155 -0.192,0.155c0,-0.051 -0.04,-0.231 -0.118,-0.54c-0.079,-0.308 -0.17,-0.514 -0.273,-0.616c-0.001,-0.155 -0.053,-0.231 -0.155,-0.231l-0.078,0c-0.051,0 -0.154,0.078 -0.307,0.233c0.001,0.36 -0.022,1.004 -0.07,1.93c-0.047,0.927 -0.082,1.931 -0.103,3.012c-0.021,1.081 -0.055,2.084 -0.103,3.011c-0.048,0.926 -0.071,1.57 -0.069,1.93c0,0.155 -0.049,0.605 -0.149,1.352c-0.1,0.746 -0.149,1.3 -0.147,1.66c-0.102,0.258 -0.204,0.644 -0.304,1.159c-0.101,0.516 -0.151,0.825 -0.151,0.927c0,0.052 -0.064,0.181 -0.191,0.387c-0.128,0.207 -0.192,0.336 -0.192,0.387l-0.068,-16.289c-0.154,0.001 -0.566,-0.113 -1.236,-0.342c-0.67,-0.229 -1.134,-0.394 -1.392,-0.496l-2.475,-1.225c-0.104,-0.051 -0.336,-0.191 -0.697,-0.422c-0.361,-0.23 -0.735,-0.473 -1.122,-0.728l-1.975,-1.304c-0.103,-0.051 -0.258,-0.167 -0.464,-0.346c-0.207,-0.179 -0.426,-0.358 -0.659,-0.538c-0.232,-0.179 -0.439,-0.345 -0.619,-0.499c-0.181,-0.153 -0.297,-0.256 -0.349,-0.307l-6.279,-6.227l-0.466,-0.616c-0.103,-0.154 -0.22,-0.32 -0.349,-0.5c-0.13,-0.18 -0.246,-0.321 -0.35,-0.423c-0.103,-0.154 -0.259,-0.398 -0.466,-0.732c-0.207,-0.333 -0.362,-0.551 -0.466,-0.654l-0.389,-0.693c0,-0.103 -0.052,-0.334 -0.157,-0.694c-0.104,-0.36 -0.208,-0.591 -0.312,-0.694c0,-0.103 -0.053,-0.411 -0.158,-0.925c-0.052,-0.206 -0.105,-0.437 -0.157,-0.695l-0.006,-1.466l-0.006,-1.39c-0.001,-0.206 0.049,-0.502 0.151,-0.888c0.101,-0.387 0.151,-0.683 0.15,-0.889c0.102,-0.206 0.255,-0.528 0.459,-0.967c0.204,-0.438 0.421,-0.876 0.651,-1.315c0.23,-0.438 0.434,-0.838 0.613,-1.199c0.178,-0.361 0.293,-0.593 0.344,-0.696c0.103,-0.052 0.334,-0.272 0.692,-0.659c0.359,-0.388 0.756,-0.801 1.192,-1.24c0.435,-0.44 0.858,-0.879 1.268,-1.318c0.41,-0.439 0.743,-0.762 1,-0.969c0.102,-0.104 0.32,-0.259 0.654,-0.466c0.333,-0.208 0.577,-0.363 0.731,-0.466c0.206,-0.053 0.617,-0.235 1.233,-0.546c0.616,-0.311 1.027,-0.519 1.233,-0.623c0.257,-0.104 0.693,-0.26 1.31,-0.468c0.617,-0.209 1.028,-0.365 1.233,-0.469c0.155,0 0.438,-0.014 0.849,-0.042c0.412,-0.027 0.862,-0.068 1.351,-0.121c0.489,-0.054 0.952,-0.094 1.389,-0.122c0.437,-0.028 0.733,-0.042 0.888,-0.042c-0.053,-0.206 -0.08,-0.566 -0.082,-1.081c-0.002,-0.514 0.022,-0.849 0.073,-1.004c-0.001,-0.205 0.127,-0.502 0.382,-0.889c0.256,-0.387 0.435,-0.684 0.537,-0.89c0.102,-0.155 0.435,-0.491 0.999,-1.008c0.564,-0.517 0.923,-0.879 1.077,-1.085l1.54,-0.779l0.541,-0.002l0.386,-0.001l0.01,0.009Zm-30.12,0.298l0.016,3.86c0,0 -0.012,0.142 -0.037,0.425c-0.024,0.283 -0.061,0.592 -0.112,0.927c-0.05,0.334 -0.087,0.656 -0.111,0.965c-0.025,0.309 -0.037,0.489 -0.037,0.541l0.007,1.621c0.001,0.103 0.015,0.527 0.044,1.273c0.029,0.747 0.058,1.57 0.088,2.47c0.029,0.901 0.071,1.737 0.126,2.509c0.055,0.772 0.082,1.209 0.082,1.312c0.001,0.154 0.067,0.514 0.198,1.08c0.131,0.566 0.197,0.9 0.197,1.003c0.104,0.257 0.261,0.745 0.469,1.465c0.209,0.719 0.366,1.233 0.47,1.542c0.053,0.257 0.183,0.681 0.391,1.272c0.209,0.591 0.43,1.22 0.665,1.888c0.234,0.668 0.455,1.298 0.664,1.889c0.208,0.591 0.338,0.989 0.391,1.195c0.052,0.154 0.182,0.488 0.39,1.002c0.208,0.514 0.338,0.873 0.39,1.079c0.104,0.257 0.286,0.578 0.545,0.963c0.259,0.385 0.388,0.629 0.389,0.732c0.103,-0.001 0.36,0.114 0.773,0.344c0.413,0.23 0.671,0.344 0.774,0.344c0.103,0.102 0.219,0.192 0.348,0.269c0.129,0.076 0.194,0.14 0.194,0.192c-0.102,0.309 -0.151,0.875 -0.147,1.699c0.003,0.823 0.057,1.389 0.161,1.698c0,0 0.078,0.167 0.234,0.5c0.156,0.334 0.337,0.732 0.545,1.195c0.208,0.462 0.441,0.924 0.701,1.386c0.259,0.462 0.466,0.822 0.622,1.079c0.052,0.102 0.221,0.578 0.508,1.426c0.286,0.848 0.599,1.773 0.938,2.775c0.338,1.002 0.651,1.94 0.938,2.814c0.286,0.874 0.456,1.336 0.507,1.387c0.105,0.36 0.26,0.668 0.467,0.925c0.104,0.205 0.234,0.41 0.389,0.616l0.007,1.698c-0.102,0.103 -0.243,0.374 -0.421,0.812c-0.178,0.439 -0.319,0.761 -0.421,0.967l-2.075,2.093c-0.103,0.001 -0.258,0.053 -0.463,0.157c-0.205,0.103 -0.36,0.155 -0.462,0.156l-1.004,0.004l-1.081,0.005c-0.051,0 -0.309,-0.166 -0.774,-0.499c-0.465,-0.333 -0.774,-0.55 -0.929,-0.652c0,-0.103 -0.066,-0.309 -0.196,-0.617c-0.13,-0.308 -0.195,-0.514 -0.195,-0.617l-0.006,-1.389l-0.311,-0.617c-0.104,-0.154 -0.182,-0.321 -0.234,-0.501c-0.052,-0.179 -0.13,-0.321 -0.233,-0.423c-0.363,-0.565 -0.805,-1.541 -1.325,-2.928c-0.52,-1.388 -1.067,-2.801 -1.639,-4.239c-0.625,-1.696 -1.301,-3.495 -2.03,-5.396l-3.396,0.014c0,0.155 -0.05,0.438 -0.151,0.85c-0.101,0.412 -0.152,0.696 -0.151,0.85c-0.103,0 -0.193,0.065 -0.269,0.194c-0.077,0.129 -0.141,0.194 -0.193,0.194c0.001,0.206 -0.023,0.579 -0.072,1.12c-0.049,0.54 -0.086,1.119 -0.109,1.737c-0.023,0.618 -0.059,1.223 -0.108,1.815c-0.049,0.592 -0.073,0.991 -0.072,1.197c-0.102,0.206 -0.191,0.618 -0.265,1.236c-0.075,0.618 -0.163,1.03 -0.265,1.236c0,0.155 -0.076,0.438 -0.228,0.85c-0.153,0.413 -0.229,0.696 -0.228,0.85l-0.048,-11.425c-0.154,0.001 -0.373,-0.05 -0.657,-0.152c-0.283,-0.101 -0.567,-0.203 -0.85,-0.305c-0.284,-0.102 -0.554,-0.178 -0.812,-0.228c-0.257,-0.05 -0.412,-0.05 -0.463,0.002c-0.102,0.206 -0.23,0.413 -0.383,0.619c-0.256,0.464 -0.434,0.825 -0.536,1.083c-0.102,0.206 -0.242,0.58 -0.42,1.121c-0.178,0.541 -0.318,0.864 -0.421,0.967c0,0.052 -0.012,0.18 -0.037,0.386c-0.025,0.206 -0.062,0.425 -0.113,0.657c-0.05,0.232 -0.088,0.451 -0.113,0.657c-0.025,0.206 -0.037,0.334 -0.037,0.386c0.001,0.103 -0.063,0.244 -0.191,0.425c-0.128,0.181 -0.192,0.323 -0.191,0.425c-0.154,0.104 -0.359,0.272 -0.616,0.505c-0.256,0.233 -0.512,0.491 -0.769,0.775c-0.256,0.284 -0.512,0.543 -0.768,0.775c-0.257,0.233 -0.411,0.349 -0.462,0.35l-1.54,0.932l-0.309,0.002l-0.232,0.001c-0.103,0 -0.244,-0.064 -0.425,-0.192c-0.181,-0.127 -0.323,-0.243 -0.426,-0.345c-0.052,-0.051 -0.104,-0.128 -0.155,-0.231c-0.104,-0.206 -0.156,-0.36 -0.157,-0.463l-0.002,-0.463l-0.001,-0.386c-0.001,-0.154 0.049,-0.463 0.15,-0.927c0.101,-0.464 0.152,-0.721 0.151,-0.773c0.102,-0.206 0.255,-0.58 0.459,-1.121c0.204,-0.541 0.407,-1.108 0.61,-1.701c0.204,-0.592 0.395,-1.147 0.572,-1.662c0.178,-0.515 0.319,-0.85 0.421,-1.005l-0.003,-0.772c-0.155,0 -0.489,-0.037 -1.004,-0.112c-0.515,-0.075 -0.876,-0.163 -1.082,-0.266c-0.001,-0.103 -0.053,-0.257 -0.157,-0.462c-0.103,-0.206 -0.156,-0.36 -0.156,-0.463l0,-0.077l-0.002,-0.386c0,-0.051 0.05,-0.283 0.152,-0.695c0.05,-0.206 0.101,-0.387 0.152,-0.541l2.921,-2.946c0.052,0 0.18,-0.027 0.386,-0.079c0.205,-0.052 0.424,-0.117 0.655,-0.196c0.231,-0.078 0.45,-0.156 0.655,-0.234c0.206,-0.078 0.334,-0.143 0.386,-0.195c-0.001,-0.103 0.126,-0.412 0.382,-0.928c0.255,-0.515 0.433,-0.902 0.535,-1.16c0.05,-0.309 0.19,-0.824 0.418,-1.546c0.229,-0.721 0.483,-1.494 0.763,-2.319c0.279,-0.824 0.521,-1.584 0.724,-2.28c0.202,-0.696 0.355,-1.198 0.456,-1.507c0.052,-0.052 0.115,-0.207 0.191,-0.464c0.067,-0.226 0.134,-0.471 0.2,-0.736l0.085,-0.344c0.057,-0.227 0.114,-0.447 0.171,-0.659c0.076,-0.284 0.14,-0.477 0.191,-0.58c0.051,-0.206 0.127,-0.502 0.228,-0.889c0.101,-0.386 0.203,-0.76 0.304,-1.121c0.101,-0.36 0.19,-0.682 0.266,-0.966c0.076,-0.283 0.114,-0.45 0.114,-0.502c0,-0.051 0.011,-0.527 0.033,-1.428c0.022,-0.901 0.043,-1.879 0.064,-2.934c0.022,-1.055 0.031,-2.033 0.027,-2.934c-0.004,-0.9 -0.006,-1.402 -0.006,-1.505c0.102,-0.104 0.217,-0.374 0.344,-0.812c0.126,-0.438 0.215,-0.709 0.266,-0.812c0,-0.051 0.128,-0.309 0.383,-0.774c0.256,-0.464 0.434,-0.773 0.537,-0.928c-0.001,-0.103 0.114,-0.309 0.344,-0.619c0.231,-0.31 0.397,-0.491 0.5,-0.543c0,-0.103 0.038,-0.206 0.115,-0.309c0.076,-0.103 0.14,-0.206 0.191,-0.31c0.205,-0.155 0.526,-0.362 0.963,-0.621c0.436,-0.259 0.705,-0.441 0.808,-0.544c0.103,-0.052 0.257,-0.104 0.463,-0.156c0.308,-0.104 0.565,-0.157 0.771,-0.158l0.386,-0.001l0.463,-0.002l0.31,0.307Zm86.776,25.124l-0.618,0.003l0.025,5.944l-0.695,0.003l-0.794,-5.478c-0.309,0.002 -0.824,-0.048 -1.545,-0.148c-0.721,-0.1 -1.21,-0.201 -1.468,-0.302c-0.103,0 -0.309,-0.038 -0.618,-0.114c-0.309,-0.076 -0.49,-0.139 -0.541,-0.19c-0.207,-0.102 -0.529,-0.255 -0.967,-0.46c-0.439,-0.204 -0.709,-0.357 -0.813,-0.459l-0.542,-0.538c-0.156,-0.154 -0.298,-0.282 -0.427,-0.385c-0.129,-0.102 -0.219,-0.179 -0.271,-0.23c0,-0.103 -0.117,-0.321 -0.35,-0.655c-0.233,-0.333 -0.401,-0.551 -0.505,-0.654c-0.103,-0.154 -0.246,-0.449 -0.428,-0.886c-0.182,-0.437 -0.273,-0.707 -0.273,-0.809c-0.104,-0.103 -0.221,-0.36 -0.351,-0.771c-0.13,-0.411 -0.196,-0.668 -0.196,-0.771l-0.011,-2.625l-0.009,-2.084c-0.001,-0.206 0.126,-0.567 0.382,-1.083c0.255,-0.515 0.434,-0.851 0.536,-1.005c-0.155,0 -0.438,-0.024 -0.85,-0.074c-0.412,-0.05 -0.824,-0.087 -1.235,-0.111c-0.412,-0.024 -0.824,-0.061 -1.236,-0.11c-0.412,-0.05 -0.695,-0.075 -0.85,-0.074c-0.102,0 -0.257,-0.05 -0.463,-0.153c-0.207,-0.102 -0.361,-0.204 -0.465,-0.306c-0.103,0 -0.245,-0.115 -0.426,-0.346c-0.181,-0.231 -0.323,-0.346 -0.426,-0.346c0,-0.051 -0.052,-0.231 -0.157,-0.539c-0.052,-0.155 -0.104,-0.283 -0.156,-0.386l-0.004,-1.003l-0.004,-1.081c0,-0.052 0.05,-0.309 0.151,-0.773c0.101,-0.463 0.151,-0.772 0.15,-0.927c0.103,-0.206 0.243,-0.554 0.421,-1.044c0.178,-0.489 0.356,-1.005 0.534,-1.546l0.8,-2.435c0.05,-0.258 0.306,-0.76 0.766,-1.509c0.46,-0.748 0.766,-1.354 0.919,-1.818c0.102,-0.206 0.28,-0.618 0.535,-1.237c0.255,-0.619 0.535,-1.289 0.841,-2.011c0.305,-0.722 0.586,-1.405 0.84,-2.049c0.255,-0.644 0.433,-1.096 0.535,-1.353c0.255,-0.619 0.6,-1.225 1.035,-1.819c0.435,-0.594 0.882,-1.187 1.343,-1.781c0.461,-0.594 0.896,-1.226 1.305,-1.897c0.409,-0.671 0.714,-1.392 0.917,-2.165c0.051,-0.052 0.154,-0.207 0.307,-0.465c0.153,-0.258 0.319,-0.529 0.498,-0.812c0.179,-0.284 0.358,-0.568 0.537,-0.852c0.179,-0.284 0.32,-0.503 0.422,-0.658c0,-0.051 0.089,-0.245 0.268,-0.58c0.178,-0.335 0.319,-0.606 0.421,-0.812c0.154,-0.155 0.397,-0.427 0.73,-0.814c0.333,-0.387 0.551,-0.607 0.653,-0.659c0.102,-0.206 0.371,-0.529 0.807,-0.968c0.436,-0.44 0.705,-0.711 0.807,-0.814c0.052,0 0.231,-0.13 0.539,-0.388c0.308,-0.259 0.513,-0.44 0.615,-0.543c0.052,-0.001 0.232,-0.053 0.54,-0.157c0.103,-0.052 0.231,-0.104 0.385,-0.156l1.467,-0.006l1.39,-0.006l0.93,0.923c0.103,0.051 0.245,0.23 0.427,0.538c0.181,0.308 0.324,0.513 0.427,0.616c0,0.103 0.092,0.411 0.274,0.925c0.182,0.514 0.325,0.9 0.429,1.156c0.104,0.154 0.286,0.552 0.546,1.195c0.26,0.642 0.39,1.04 0.391,1.195c0,0.103 0.04,0.295 0.118,0.578c0.078,0.283 0.17,0.578 0.274,0.887c0.104,0.308 0.195,0.604 0.274,0.886c0.078,0.283 0.118,0.502 0.118,0.656c0.001,0.103 0.066,0.373 0.197,0.81c0.13,0.437 0.196,0.758 0.197,0.964c0.053,0.309 0.157,0.733 0.314,1.273c0.157,0.539 0.313,1.092 0.47,1.657c0.157,0.566 0.288,1.08 0.392,1.543c0.105,0.463 0.184,0.745 0.236,0.848c0.001,0.257 0.118,0.579 0.351,0.964c0.233,0.385 0.351,0.757 0.352,1.117c0.104,0.36 0.222,0.862 0.354,1.504c0.131,0.643 0.197,1.016 0.197,1.119l0.012,2.779c0,0.103 -0.063,0.245 -0.191,0.426c-0.128,0.18 -0.243,0.322 -0.346,0.426c-0.102,0.154 -0.307,0.464 -0.614,0.929c-0.306,0.464 -0.485,0.722 -0.537,0.774c-0.102,0.103 -0.372,0.323 -0.808,0.659c-0.436,0.337 -0.705,0.557 -0.807,0.66c-0.103,0 -0.322,0.053 -0.656,0.157c-0.334,0.104 -0.578,0.157 -0.733,0.157l-0.154,0.001l-0.232,0.001c-0.051,0 -0.18,-0.051 -0.386,-0.153c-0.207,-0.102 -0.336,-0.153 -0.387,-0.152c-0.103,-0.103 -0.181,-0.231 -0.233,-0.385c-0.104,-0.309 -0.157,-0.489 -0.157,-0.54c-0.103,-0.103 -0.194,-0.308 -0.273,-0.617c-0.078,-0.308 -0.169,-0.488 -0.272,-0.539c-0.001,-0.206 -0.067,-0.527 -0.197,-0.964c-0.131,-0.437 -0.196,-0.707 -0.196,-0.81c-0.001,-0.154 -0.015,-0.424 -0.042,-0.81c-0.028,-0.386 -0.068,-0.811 -0.122,-1.274c-0.053,-0.463 -0.093,-0.9 -0.121,-1.312c-0.027,-0.411 -0.041,-0.668 -0.042,-0.771c-0.104,-0.309 -0.182,-0.591 -0.235,-0.849c-0.052,-0.257 -0.105,-0.501 -0.157,-0.732c-0.053,-0.232 -0.079,-0.399 -0.08,-0.502c-0.105,-0.514 -0.326,-1.131 -0.663,-1.85c-0.338,-0.719 -0.559,-1.207 -0.663,-1.464c-0.052,-0.205 -0.183,-0.681 -0.392,-1.426c-0.209,-0.746 -0.339,-1.247 -0.392,-1.504c-0.104,-0.257 -0.221,-0.591 -0.352,-1.002c-0.13,-0.411 -0.273,-0.823 -0.429,-1.234c-0.208,-0.462 -0.39,-0.95 -0.547,-1.464l-0.463,0.002c0.001,0.154 0.015,0.463 0.042,0.926c0.028,0.463 0.043,0.965 0.045,1.505c0.003,0.541 0.018,1.042 0.045,1.505c0.028,0.463 0.042,0.772 0.043,0.927c0.001,0.205 -0.062,0.605 -0.188,1.197c-0.127,0.592 -0.215,0.966 -0.266,1.12c0,-0.102 -0.066,-0.334 -0.196,-0.693c-0.13,-0.36 -0.195,-0.592 -0.196,-0.694c-0.052,-0.155 -0.104,-0.399 -0.157,-0.733c-0.053,-0.335 -0.093,-0.695 -0.12,-1.08c-0.028,-0.386 -0.068,-0.759 -0.121,-1.119c-0.053,-0.36 -0.105,-0.618 -0.158,-0.772l-0.688,1.624l0.032,7.643l-0.46,0.697l-0.62,-0.693l-0.027,-6.253c-0.102,0.104 -0.243,0.285 -0.422,0.543c-0.179,0.258 -0.371,0.529 -0.575,0.813c-0.205,0.284 -0.384,0.554 -0.537,0.812c-0.154,0.258 -0.256,0.465 -0.307,0.619c-0.051,0.103 -0.204,0.426 -0.459,0.967c-0.255,0.542 -0.535,1.173 -0.841,1.895c-0.306,0.722 -0.625,1.444 -0.956,2.166c-0.332,0.722 -0.574,1.289 -0.726,1.701c-0.051,0.206 -0.179,0.425 -0.384,0.658c-0.205,0.232 -0.332,0.452 -0.383,0.658c-0.102,0.309 -0.241,0.721 -0.419,1.237c-0.178,0.515 -0.356,1.03 -0.534,1.546c-0.178,0.515 -0.344,0.992 -0.496,1.43c-0.153,0.438 -0.255,0.683 -0.306,0.735c0.001,0.103 0.066,0.36 0.196,0.771c0.131,0.411 0.196,0.694 0.197,0.848c0.154,0 0.476,0.011 0.965,0.035c0.489,0.024 1.004,0.034 1.544,0.032c0.541,-0.002 1.055,-0.004 1.544,-0.006c0.489,-0.002 0.862,-0.03 1.119,-0.082c0.052,0 0.206,-0.014 0.463,-0.041c0.257,-0.027 0.553,-0.066 0.888,-0.119c0.334,-0.053 0.655,-0.093 0.964,-0.12c0.309,-0.027 0.515,-0.041 0.617,-0.041c0.206,-0.053 0.489,-0.118 0.849,-0.197c0.36,-0.078 0.72,-0.144 1.08,-0.197c0.36,-0.053 0.668,-0.106 0.926,-0.159c0.257,-0.052 0.411,-0.078 0.462,-0.079l3.629,-0.015l3.01,-0.012c0.155,0.102 0.555,0.255 1.199,0.458c0.644,0.203 1.095,0.355 1.353,0.457c0.103,0.103 0.375,0.372 0.814,0.808c0.439,0.435 0.711,0.756 0.814,0.961c0.053,0.154 0.195,0.437 0.429,0.848c0.233,0.41 0.35,0.693 0.351,0.847l0.019,4.555c0,0.051 -0.051,0.232 -0.153,0.541c-0.101,0.309 -0.152,0.515 -0.151,0.618c-0.051,0.103 -0.128,0.271 -0.23,0.503c-0.102,0.232 -0.23,0.477 -0.383,0.735c-0.153,0.258 -0.306,0.516 -0.46,0.774c-0.153,0.258 -0.255,0.464 -0.306,0.619c-0.051,0.154 -0.127,0.309 -0.23,0.464c-0.102,0.103 -0.192,0.219 -0.268,0.348c-0.077,0.129 -0.141,0.246 -0.192,0.349c-0.205,0.206 -0.461,0.503 -0.768,0.891c-0.307,0.387 -0.512,0.632 -0.615,0.736c0.001,0.103 -0.089,0.244 -0.268,0.425c-0.18,0.181 -0.321,0.323 -0.423,0.427c-0.103,0.103 -0.282,0.258 -0.538,0.465c-0.257,0.207 -0.526,0.427 -0.808,0.66c-0.282,0.233 -0.539,0.439 -0.77,0.621c-0.231,0.181 -0.372,0.297 -0.423,0.349c-0.102,0.103 -0.32,0.258 -0.654,0.466c-0.334,0.207 -0.552,0.362 -0.654,0.466c-0.103,0 -0.283,0.091 -0.54,0.272c-0.256,0.181 -0.551,0.363 -0.885,0.544c-0.334,0.182 -0.642,0.363 -0.924,0.544c-0.283,0.182 -0.449,0.298 -0.501,0.35c-0.051,0 -0.154,0.078 -0.307,0.233c-0.052,0.051 -0.077,0.103 -0.077,0.154l0.005,1.158c0,0.155 0.028,0.528 0.082,1.119c0.054,0.592 0.095,1.222 0.123,1.891c0.029,0.669 0.07,1.287 0.124,1.853c0.054,0.566 0.081,0.9 0.081,1.003l0.023,5.481c0.001,0.103 -0.024,0.296 -0.075,0.579c-0.05,0.284 -0.087,0.58 -0.112,0.889c-0.024,0.308 -0.061,0.605 -0.112,0.888c-0.05,0.283 -0.075,0.45 -0.075,0.502c-0.103,-0.154 -0.195,-0.488 -0.274,-1.003c-0.08,-0.514 -0.171,-0.874 -0.275,-1.079c-0.053,-0.412 -0.121,-1.145 -0.202,-2.2c-0.082,-1.054 -0.164,-2.186 -0.246,-3.395c-0.082,-1.209 -0.151,-2.341 -0.207,-3.396c-0.056,-1.055 -0.085,-1.788 -0.086,-2.2l-0.471,-1.774Zm-33.09,-1.782c0.069,0.377 0.138,0.734 0.207,1.071c0.079,0.386 0.118,0.656 0.119,0.811c0.103,0.102 0.207,0.398 0.312,0.886c0.105,0.489 0.158,0.784 0.159,0.887l0.003,0.772c0,0.103 -0.05,0.322 -0.152,0.657c-0.101,0.335 -0.203,0.554 -0.306,0.657c0,0.052 -0.089,0.232 -0.268,0.542c-0.179,0.31 -0.319,0.516 -0.422,0.619l-0.922,0.931c-0.052,0.051 -0.231,0.181 -0.539,0.388c-0.308,0.207 -0.513,0.337 -0.616,0.388c-0.103,0.104 -0.205,0.169 -0.308,0.195c-0.103,0.026 -0.206,0.065 -0.308,0.117c-0.155,0.052 -0.257,0.078 -0.309,0.078c-0.154,0.052 -0.283,0.104 -0.385,0.156c-0.052,0.052 -0.129,0.078 -0.232,0.078l-0.154,0.001c-0.206,0.001 -0.386,-0.024 -0.541,-0.075c-0.154,-0.051 -0.283,-0.102 -0.386,-0.153c-0.103,0.001 -0.181,-0.025 -0.232,-0.076c-0.104,-0.102 -0.155,-0.205 -0.156,-0.308c0,-0.051 -0.053,-0.283 -0.157,-0.694c-0.105,-0.411 -0.209,-0.746 -0.313,-1.002c-0.053,-0.309 -0.145,-0.772 -0.276,-1.389c-0.131,-0.617 -0.25,-1.26 -0.356,-1.928c-0.105,-0.669 -0.224,-1.286 -0.355,-1.852c-0.131,-0.565 -0.222,-0.925 -0.274,-1.079c-0.001,-0.052 -0.027,-0.193 -0.079,-0.425c-0.053,-0.231 -0.093,-0.501 -0.12,-0.81c-0.027,-0.308 -0.066,-0.617 -0.119,-0.926c-0.053,-0.308 -0.08,-0.565 -0.081,-0.771c0,-0.155 -0.027,-0.412 -0.08,-0.772c-0.053,-0.36 -0.106,-0.72 -0.159,-1.08c-0.053,-0.36 -0.106,-0.682 -0.158,-0.964c-0.053,-0.283 -0.08,-0.45 -0.08,-0.502c-0.001,-0.309 -0.016,-0.772 -0.044,-1.389c-0.028,-0.618 -0.07,-1.274 -0.124,-1.968c-0.054,-0.695 -0.096,-1.312 -0.124,-1.853c-0.028,-0.54 -0.042,-0.887 -0.043,-1.042l-0.039,-9.418l-0.039,-9.341c0,-0.103 0.05,-0.309 0.152,-0.618c0.102,-0.309 0.152,-0.49 0.152,-0.541c0.103,-0.103 0.205,-0.284 0.307,-0.542c0.05,-0.154 0.101,-0.283 0.152,-0.386c0.103,-0.104 0.257,-0.259 0.462,-0.466c0.205,-0.206 0.41,-0.426 0.614,-0.658c0.205,-0.233 0.398,-0.439 0.577,-0.62c0.179,-0.181 0.32,-0.298 0.423,-0.349c0.103,-0.104 0.372,-0.247 0.809,-0.428c0.437,-0.182 0.706,-0.325 0.809,-0.428l0.694,-0.003l0.695,-0.003c0.052,0.102 0.104,0.179 0.156,0.231l0.232,0.23c0.052,0.103 0.118,0.373 0.197,0.81c0.079,0.437 0.118,0.707 0.119,0.81l0.085,20.535c0.154,-0.104 0.437,-0.259 0.848,-0.467c0.411,-0.207 0.834,-0.415 1.271,-0.623c0.436,-0.207 0.847,-0.402 1.233,-0.584c0.385,-0.182 0.654,-0.324 0.808,-0.428c0.103,-0.103 0.321,-0.258 0.655,-0.466c0.333,-0.207 0.577,-0.362 0.731,-0.466c0.205,-0.155 0.487,-0.375 0.847,-0.66c0.359,-0.284 0.705,-0.569 1.038,-0.853c0.334,-0.285 0.641,-0.518 0.924,-0.699c0.282,-0.181 0.423,-0.272 0.423,-0.272c0.205,-0.207 0.577,-0.568 1.115,-1.085c0.538,-0.517 1.102,-1.073 1.691,-1.667c0.59,-0.594 1.141,-1.15 1.653,-1.667c0.513,-0.517 0.846,-0.904 0.999,-1.162c0.052,0 0.115,-0.116 0.192,-0.348c0.076,-0.232 0.165,-0.348 0.268,-0.349c0,-0.051 0.051,-0.27 0.152,-0.657c0.101,-0.386 0.152,-0.631 0.151,-0.734c0.052,-0.051 0.077,-0.103 0.077,-0.154c-0.001,-0.103 0.025,-0.181 0.076,-0.232c0.051,-0.103 0.128,-0.207 0.23,-0.31c0.154,-0.258 0.397,-0.581 0.73,-0.968c0.333,-0.387 0.55,-0.633 0.653,-0.736c0.102,-0.103 0.41,-0.375 0.923,-0.815c0.513,-0.439 0.897,-0.762 1.154,-0.969l0.308,-0.156c0.205,-0.104 0.334,-0.156 0.385,-0.156c0.154,-0.104 0.398,-0.195 0.733,-0.273c0.334,-0.079 0.552,-0.118 0.655,-0.119l0.309,-0.078c0.051,-0.001 0.103,0.012 0.154,0.038c0.052,0.025 0.103,0.038 0.155,0.038l0.077,-0.001c0.36,-0.001 0.541,0.127 0.542,0.384l0.009,2.084c0,0.052 -0.051,0.181 -0.153,0.387c-0.102,0.206 -0.217,0.438 -0.344,0.696c-0.128,0.258 -0.269,0.516 -0.422,0.774c-0.153,0.258 -0.255,0.438 -0.306,0.542c-0.102,0.206 -0.371,0.632 -0.806,1.277c-0.434,0.645 -0.754,1.122 -0.959,1.432c-0.051,0.155 -0.306,0.49 -0.767,1.007c-0.462,0.516 -0.769,0.878 -0.922,1.084c-0.154,0.207 -0.461,0.568 -0.922,1.085c-0.461,0.517 -0.961,1.059 -1.499,1.628c-0.538,0.568 -1.037,1.11 -1.498,1.627c-0.461,0.517 -0.769,0.852 -0.923,1.007c0.104,0.103 0.31,0.256 0.62,0.461c0.31,0.205 0.516,0.358 0.619,0.461c0.104,0.102 0.259,0.243 0.465,0.422c0.207,0.18 0.427,0.385 0.659,0.615c0.233,0.231 0.439,0.449 0.62,0.654c0.181,0.205 0.298,0.333 0.349,0.384c0.104,0.051 0.337,0.449 0.7,1.194c0.364,0.745 0.649,1.297 0.856,1.656c0.052,0.154 0.26,0.565 0.623,1.233c0.363,0.667 0.739,1.361 1.128,2.079c0.389,0.719 0.752,1.413 1.09,2.08c0.337,0.668 0.557,1.079 0.661,1.233c0,0.103 0.091,0.321 0.273,0.655c0.181,0.334 0.402,0.719 0.661,1.155c0.259,0.436 0.531,0.873 0.816,1.309c0.285,0.436 0.505,0.783 0.661,1.039c0.103,0.103 0.258,0.308 0.465,0.616c0.207,0.308 0.363,0.513 0.466,0.616c0.104,0.205 0.311,0.5 0.621,0.885c0.311,0.385 0.492,0.68 0.544,0.886c0.207,0.256 0.531,0.666 0.971,1.231c0.439,0.564 0.711,0.846 0.814,0.845c0.155,0.206 0.491,0.565 1.008,1.077l3.256,3.229c0.516,0.512 0.904,0.845 1.162,0.999c0,0.096 0.057,0.238 0.171,0.424l0.047,0.076c0.114,0.186 0.171,0.328 0.172,0.424l0.002,0.464c-0.103,0.154 -0.243,0.438 -0.421,0.85c-0.179,0.413 -0.268,0.671 -0.267,0.774c-0.103,0.103 -0.269,0.284 -0.5,0.542c-0.23,0.258 -0.487,0.517 -0.769,0.775c-0.282,0.259 -0.551,0.504 -0.807,0.737c-0.257,0.233 -0.462,0.401 -0.616,0.504l-0.462,0.157c-0.309,0.104 -0.54,0.156 -0.694,0.157l-0.927,0.004c-0.154,-0.051 -0.283,-0.102 -0.386,-0.153c-0.052,0 -0.091,-0.012 -0.116,-0.038c-0.026,-0.026 -0.065,-0.038 -0.116,-0.038c-0.052,0 -0.103,-0.025 -0.155,-0.077c-0.104,-0.205 -0.375,-0.461 -0.814,-0.768c-0.439,-0.307 -0.71,-0.512 -0.813,-0.614c-0.206,-0.051 -0.568,-0.345 -1.084,-0.884c-0.517,-0.538 -0.854,-0.935 -1.009,-1.192c-0.103,-0.103 -0.284,-0.282 -0.543,-0.538c-0.258,-0.256 -0.517,-0.538 -0.775,-0.846c-0.259,-0.308 -0.517,-0.59 -0.776,-0.846c-0.258,-0.256 -0.413,-0.436 -0.465,-0.539c-0.052,-0.102 -0.194,-0.308 -0.427,-0.615c-0.233,-0.308 -0.479,-0.642 -0.738,-1.001c-0.259,-0.359 -0.518,-0.718 -0.776,-1.078c-0.259,-0.359 -0.44,-0.615 -0.544,-0.769c-0.103,-0.103 -0.259,-0.308 -0.466,-0.616c-0.207,-0.308 -0.362,-0.487 -0.465,-0.538c-0.156,-0.257 -0.441,-0.732 -0.855,-1.425c-0.415,-0.693 -0.83,-1.425 -1.245,-2.195c-0.415,-0.77 -0.829,-1.489 -1.244,-2.156c-0.414,-0.668 -0.699,-1.13 -0.855,-1.386l-0.696,-0.383l0.008,2.084l-0.463,0.002c-0.052,-0.206 -0.104,-0.411 -0.157,-0.617c-0.052,-0.206 -0.117,-0.399 -0.195,-0.578c-0.078,-0.18 -0.143,-0.347 -0.195,-0.501c-0.001,-0.103 -0.027,-0.335 -0.08,-0.695c-0.053,-0.36 -0.094,-0.733 -0.121,-1.119c-0.027,-0.386 -0.067,-0.759 -0.12,-1.119c-0.053,-0.36 -0.08,-0.591 -0.08,-0.694c-0.001,-0.103 -0.053,-0.309 -0.157,-0.617c-0.105,-0.308 -0.157,-0.565 -0.158,-0.771l-0.466,-0.693c-0.103,-0.103 -0.259,-0.282 -0.466,-0.539c-0.206,-0.256 -0.361,-0.384 -0.464,-0.384l0.004,0.927c0.052,0.205 0.118,0.733 0.199,1.581c0.081,0.849 0.149,1.763 0.205,2.74c0.055,0.978 0.098,1.904 0.127,2.779c0.029,0.875 0.044,1.415 0.045,1.621l0.049,11.58l-0.532,2.086l-0.388,-0.384c0,0 -0.026,-0.129 -0.078,-0.386c-0.053,-0.257 -0.093,-0.566 -0.12,-0.926c-0.027,-0.36 -0.055,-0.72 -0.082,-1.08c-0.027,-0.36 -0.041,-0.643 -0.042,-0.849c-0.053,-0.257 -0.106,-0.836 -0.162,-1.736c-0.055,-0.901 -0.111,-1.956 -0.167,-3.165c-0.057,-1.209 -0.126,-2.496 -0.209,-3.859c-0.083,-1.364 -0.153,-2.65 -0.209,-3.859c-0.057,-1.209 -0.1,-2.264 -0.129,-3.165c-0.03,-0.9 -0.045,-1.505 -0.047,-1.814c-0.052,-0.103 -0.104,-0.321 -0.157,-0.655c-0.053,-0.335 -0.093,-0.669 -0.12,-1.003c-0.027,-0.335 -0.067,-0.656 -0.12,-0.965c-0.052,-0.309 -0.105,-0.514 -0.157,-0.617c-0.102,0 -0.308,-0.037 -0.618,-0.113c-0.309,-0.076 -0.489,-0.114 -0.54,-0.114c-0.103,0.001 -0.361,0.053 -0.772,0.158c-0.205,0.052 -0.385,0.079 -0.54,0.079c-0.051,0.001 -0.398,0.092 -1.041,0.275c-0.643,0.183 -1.144,0.326 -1.504,0.431c-0.102,0.103 -0.372,0.246 -0.808,0.428c-0.437,0.182 -0.707,0.324 -0.809,0.428c0,0.154 0.027,0.373 0.08,0.656c0.052,0.282 0.092,0.578 0.119,0.887c0.027,0.309 0.067,0.604 0.12,0.887c0.052,0.283 0.079,0.476 0.079,0.579c0.104,0.257 0.196,0.694 0.276,1.311c0.08,0.617 0.171,0.977 0.275,1.08c0,0.154 0.04,0.437 0.119,0.848c0.059,0.309 0.119,0.625 0.178,0.948l0.089,0.488Zm-58.898,4.24c-0.101,0.258 -0.28,0.709 -0.534,1.353c-0.255,0.645 -0.382,1.044 -0.381,1.199c0,0.102 -0.012,0.257 -0.037,0.463c-0.025,0.206 -0.037,0.36 -0.037,0.463l0.464,-0.002c0.154,-0.103 0.513,-0.195 1.079,-0.274c0.566,-0.08 0.9,-0.171 1.003,-0.275l-0.001,-0.154l-0.001,-0.232c-0.001,-0.154 -0.118,-0.553 -0.352,-1.195c-0.235,-0.642 -0.352,-1.092 -0.353,-1.349c-0.103,0 -0.194,-0.115 -0.272,-0.347c-0.078,-0.231 -0.143,-0.346 -0.194,-0.346l-0.384,0.696Zm87.149,-14.944c0.001,0.103 0.002,0.27 0.003,0.502c0,0.232 0.027,0.476 0.08,0.733c0.052,0.257 0.105,0.54 0.158,0.849c0.001,0.205 0.092,0.501 0.274,0.886c0.181,0.385 0.376,0.681 0.582,0.886c0.001,0.051 0.22,0.307 0.66,0.769c0.439,0.461 0.762,0.769 0.969,0.922c0.051,0 0.18,0.064 0.386,0.192c0.207,0.127 0.336,0.191 0.387,0.191l2.316,-0.01l1.853,-0.007c0.051,-0.001 0.193,-0.053 0.424,-0.157c0.231,-0.104 0.475,-0.22 0.732,-0.35c0.257,-0.13 0.513,-0.272 0.77,-0.428c0.257,-0.155 0.436,-0.285 0.539,-0.388c0.102,-0.052 0.256,-0.181 0.461,-0.388c0.205,-0.207 0.359,-0.336 0.462,-0.388c0.051,-0.206 0.191,-0.503 0.421,-0.89c0.23,-0.386 0.344,-0.683 0.343,-0.889l-0.004,-1.003l-0.004,-1.081c-0.001,-0.103 -0.118,-0.373 -0.351,-0.809c-0.233,-0.437 -0.376,-0.706 -0.428,-0.809c-0.103,-0.051 -0.322,-0.192 -0.658,-0.422c-0.335,-0.23 -0.555,-0.345 -0.658,-0.345c-0.051,-0.102 -0.361,-0.191 -0.927,-0.266c-0.567,-0.075 -0.953,-0.112 -1.159,-0.111l-1.003,0.004l-1.081,0.005c-0.257,0.001 -0.617,0.015 -1.08,0.043c-0.464,0.028 -0.94,0.055 -1.428,0.083c-0.489,0.028 -0.926,0.068 -1.312,0.121c-0.386,0.053 -0.605,0.106 -0.656,0.158c-0.103,0 -0.257,0.052 -0.462,0.156c-0.155,0.052 -0.283,0.104 -0.386,0.156c0.001,0.206 -0.036,0.566 -0.111,1.081c-0.075,0.515 -0.112,0.85 -0.112,1.004Z" style="fill:#f00;stroke:#fff;stroke-width:1px;"/>
    </g>
</svg>
