<?xml version="1.0" encoding="UTF-8" standalone="no"?>
<!DOCTYPE svg PUBLIC "-//W3C//DTD SVG 1.1//EN" "http://www.w3.org/Graphics/SVG/1.1/DTD/svg11.dtd">
<svg width="567px" height="98px" version="1.1" xmlns="http://www.w3.org/2000/svg" xmlns:xlink="http://www.w3.org/1999/xlink" xml:space="preserve" style="fill-rule:evenodd;clip-rule:evenodd;stroke-linejoin:round;stroke-miterlimit:1.41421;">
    <g id="Ebene-1">
        <path id="path6945" d="M0,0.001l176.632,0l0,52.38l-169.653,0l0,45.398l-6.979,0l0,-52.38l169.652,0l0,-38.42l-169.652,0l0,-6.978" style="fill:#0895ff;fill-rule:nonzero;"/>
        <path id="path6947" d="M397.278,52.381l0,45.398l-6.98,0l0,-52.38l169.65,0l0,-38.42l-169.65,0l0,-6.979l176.631,0l0,52.38l-169.651,0" style="fill:#0895ff;fill-rule:nonzero;"/>
        <path id="path6949" d="M266.693,0.001l0,90.798l-90.061,0l0,6.98l97.428,0l0,-90.8l90.062,0l0,-6.979l-97.429,0" style="fill:#0895ff;fill-rule:nonzero;"/>
    </g>
</svg>
