<?xml version="1.0" encoding="UTF-8" standalone="no"?>
<!DOCTYPE svg PUBLIC "-//W3C//DTD SVG 1.1//EN" "http://www.w3.org/Graphics/SVG/1.1/DTD/svg11.dtd">
<svg width="567px" height="235px" version="1.1" xmlns="http://www.w3.org/2000/svg" xmlns:xlink="http://www.w3.org/1999/xlink" xml:space="preserve" style="fill-rule:evenodd;clip-rule:evenodd;stroke-linejoin:round;stroke-miterlimit:1.41421;">
    <g id="rect3604" transform="matrix(1,0,0,1,0.463,70.905)">
        <rect x="-0.463" y="-70.905" width="566.928" height="234.744" style="fill:rgb(0,62,153);"/>
    </g>
    <g id="path2830" transform="matrix(1,0,0,1,0.463,70.905)">
        <path d="M36.727,130.562l43.064,-169.511l39.932,0l20.749,73.991l21.531,-73.991l37.583,0l35.233,124.883l85.965,-0.162c9.022,-0.088 9.577,-18.748 -0.669,-18.744l-50.063,-0.668c-21.497,0.207 -44.167,-23.05 -43.063,-54.023c0.229,-28.412 25.004,-50.786 56.698,-50.778l127.689,-0.114l32.494,44.238l31.709,-44.629l52.85,0.392l-57.938,81.428l62.637,88.292l-52.572,-0.16l-36.456,-50.664l-34.681,50.662l-53.633,-0.049l61.072,-87.299l-26.622,-38.757l-110.999,0.162c-12.114,0.111 -11.669,19.169 0.095,18.812l46.769,0.716c19.767,0.127 47.604,20.668 46.91,52.735c0.301,37.279 -33.274,54.313 -49.44,53.401l-122.419,0.163l-20.357,-76.271l-20.357,76.108l-38.644,0l-21.255,-75.718l-18.677,75.833l-45.135,-0.278Z" style="fill:white;fill-rule:nonzero;"/>
    </g>
</svg>
