<?xml version="1.0" encoding="UTF-8" standalone="no"?>
<!DOCTYPE svg PUBLIC "-//W3C//DTD SVG 1.1//EN" "http://www.w3.org/Graphics/SVG/1.1/DTD/svg11.dtd">
<svg width="254px" height="110px" version="1.1" xmlns="http://www.w3.org/2000/svg" xmlns:xlink="http://www.w3.org/1999/xlink" xml:space="preserve" style="fill-rule:evenodd;clip-rule:evenodd;stroke-linejoin:round;stroke-miterlimit:1.41421;">
    <defs>
        <linearGradient id="_Linear1" x1="0" y1="0" x2="1" y2="0" gradientUnits="userSpaceOnUse" gradientTransform="matrix(6.68743e-15,109.214,-109.214,6.68743e-15,127.017,-0.367797)"><stop offset="0" style="stop-color:#009ee0;stop-opacity:1"/><stop offset="0.51" style="stop-color:#0078bd;stop-opacity:1"/><stop offset="1" style="stop-color:#003f86;stop-opacity:1"/></linearGradient>
    </defs>
    <g id="g5018">
        <g id="g4781">
            <path id="path4783" d="M93.94,0.711l0,5.774l0.15,0c0.474,0 21.755,0.399 21.755,9.458l0,78.032c0,5.239 -9.703,9.457 -21.755,9.457l-0.15,0l0,5.774l65.268,0l0,-5.774l-0.15,0c-12.053,0 -21.755,-4.218 -21.755,-9.457l0,-78.032c0,-9.059 21.28,-9.458 21.755,-9.458l0.15,0l0,-5.774l-28.787,0l-7.695,0l-28.786,0Z" style="fill:#999;"/>
            <path id="path4785" d="M93.94,0l0,5.775l0.15,0c0.474,0 21.755,0.398 21.755,9.457l0,78.032c0,5.239 -9.703,9.458 -21.755,9.458l-0.15,0l0,5.773l65.268,0l0,-5.773l-0.15,0c-12.053,0 -21.755,-4.219 -21.755,-9.458l0,-78.032c0,-9.059 21.28,-9.457 21.755,-9.457l0.15,0l0,-5.775l-28.787,0l-7.695,0l-28.786,0l0,0Z" style="fill:url(#_Linear1);"/>
        </g>
        <g id="g4995">
            <g id="g4787">
                <path id="rect4789" d="M233.737,79.579c0,-5.671 -4.604,-10.275 -10.275,-10.275l-193.776,0c-5.671,0 -10.275,4.604 -10.275,10.275c0,5.671 4.604,10.275 10.275,10.275l193.776,0c5.671,0 10.275,-4.604 10.275,-10.275Z" style="fill:#0c4da1;"/>
                <g id="g4791">
                    <path id="path4793" d="M75.152,78.061c0,0.409 -0.072,0.81 -0.215,1.202c-0.143,0.389 -0.348,0.716 -0.613,0.982c-0.364,0.359 -0.771,0.631 -1.221,0.815c-0.445,0.184 -1.001,0.276 -1.668,0.276l-1.465,0l0,2.974l-2.355,0l0,-9.131l3.875,0c0.581,0 1.07,0.051 1.466,0.153c0.401,0.098 0.754,0.248 1.061,0.448c0.368,0.241 0.648,0.55 0.84,0.926c0.197,0.376 0.295,0.828 0.295,1.355l0,0Zm-2.435,0.055c0,-0.257 -0.07,-0.478 -0.209,-0.662c-0.139,-0.188 -0.3,-0.319 -0.484,-0.392c-0.245,-0.098 -0.485,-0.152 -0.718,-0.16c-0.233,-0.012 -0.543,-0.018 -0.932,-0.018l-0.404,0l0,2.735l0.674,0c0.401,0 0.73,-0.025 0.987,-0.074c0.262,-0.049 0.481,-0.147 0.657,-0.294c0.151,-0.131 0.259,-0.286 0.325,-0.466c0.069,-0.184 0.104,-0.407 0.104,-0.669l0,0Z" style="fill:#fff;fill-rule:nonzero;"/>
                    <path id="path4795" d="M85.743,84.31l-6.587,0l0,-9.131l2.355,0l0,7.365l4.232,0l0,1.766Z" style="fill:#fff;fill-rule:nonzero;"/>
                    <path id="path4797" d="M98.254,84.31l-2.434,0l-0.78,-1.845l-4.632,0l-0.824,1.845l-2.374,0l4.167,-9.131l2.711,0l4.166,9.131Zm-3.918,-3.52l-1.634,-3.275l-1.62,3.275l3.254,0Z" style="fill:#fff;fill-rule:nonzero;"/>
                    <path id="path4799" d="M109.783,75.179l-3.514,5.599l0,3.532l-2.355,0l0,-3.422l-3.6,-5.709l2.674,0l2.152,3.532l2.055,-3.532l2.588,0Z" style="fill:#fff;fill-rule:nonzero;"/>
                    <path id="path4801" d="M126.517,81.275c0,0.899 -0.383,1.631 -1.147,2.195c-0.761,0.56 -1.795,0.84 -3.103,0.84c-0.757,0 -1.417,-0.065 -1.981,-0.196c-0.56,-0.135 -1.086,-0.304 -1.576,-0.509l0.756,-1.764c0.296,0.169 0.802,0.356 1.133,0.47c0.605,0.209 1.185,0.313 1.741,0.313c0.143,0 0.331,-0.012 0.564,-0.037c0.234,-0.024 0.424,-0.065 0.571,-0.122c0.18,-0.074 0.327,-0.166 0.441,-0.276c0.119,-0.111 0.178,-0.274 0.178,-0.491c0,-0.2 -0.086,-0.372 -0.257,-0.515c-0.168,-0.147 -0.415,-0.26 -0.742,-0.337c-0.344,-0.082 -0.708,-0.158 -1.092,-0.227c-0.38,-0.074 -0.738,-0.166 -1.073,-0.276c-0.769,-0.25 -1.323,-0.587 -1.662,-1.012c-0.335,-0.43 -0.503,-0.961 -0.503,-1.595c0,-0.85 0.38,-1.543 1.141,-2.079c0.764,-0.539 1.745,-0.809 2.943,-0.809c0.601,0 1.194,0.059 1.779,0.178c0.588,0.114 1.098,0.259 1.527,0.435l-0.993,1.633c-0.191,-0.097 -0.395,-0.185 -0.614,-0.265c-0.531,-0.201 -1.075,-0.301 -1.631,-0.301c-0.197,0 -0.393,0.014 -0.589,0.043c-0.192,0.025 -0.378,0.074 -0.558,0.147c-0.16,0.062 -0.296,0.156 -0.411,0.282c-0.114,0.123 -0.172,0.264 -0.172,0.423c0,0.242 0.092,0.428 0.276,0.559c0.184,0.126 0.532,0.243 1.043,0.349c0.335,0.07 0.656,0.137 0.963,0.202c0.31,0.066 0.644,0.156 0.999,0.27c0.699,0.229 1.215,0.542 1.546,0.939c0.335,0.392 0.503,0.903 0.503,1.533l0,0Z" style="fill:#fff;fill-rule:nonzero;"/>
                    <path id="path4803" d="M159.815,76.945l-2.852,0l0,7.365l-2.354,0l0,-7.365l-2.852,0l0,-1.766l8.058,0l0,1.766Z" style="fill:#fff;fill-rule:nonzero;"/>
                    <path id="path4805" d="M169.827,84.31l-7.024,0l0,-9.131l7.024,0l0,1.766l-4.681,0l0,1.576l4.374,0l0,1.766l-4.374,0l0,2.257l4.681,0l0,1.766Z" style="fill:#fff;fill-rule:nonzero;"/>
                    <path id="path4807" d="M185.533,84.31l-2.468,0l-0.21,-4.401l-2.549,4.4l-1.625,0l-2.549,-4.4l-0.21,4.401l-2.345,0l0.335,-9.131l2.295,0l3.351,6.31l3.345,-6.31l2.295,0l0.335,9.131Z" style="fill:#fff;fill-rule:nonzero;"/>
                    <path id="path4809" d="M138.678,75.179l-3.515,5.599l0,3.532l-2.355,0l0,-3.422l-3.599,-5.709l2.674,0l2.152,3.532l2.055,-3.532l2.588,0Z" style="fill:#fff;fill-rule:nonzero;"/>
                    <path id="path4811" d="M148.711,81.275c0,0.899 -0.382,1.631 -1.147,2.195c-0.76,0.56 -1.794,0.84 -3.103,0.84c-0.756,0 -1.416,-0.065 -1.981,-0.196c-0.56,-0.135 -1.085,-0.304 -1.576,-0.509l0.757,-1.764c0.296,0.169 0.802,0.356 1.132,0.47c0.605,0.209 1.186,0.313 1.742,0.313c0.143,0 0.331,-0.012 0.564,-0.037c0.233,-0.024 0.423,-0.065 0.57,-0.122c0.18,-0.074 0.327,-0.166 0.442,-0.276c0.118,-0.111 0.178,-0.274 0.178,-0.491c0,-0.2 -0.086,-0.372 -0.258,-0.515c-0.167,-0.147 -0.415,-0.26 -0.742,-0.337c-0.343,-0.082 -0.707,-0.158 -1.091,-0.227c-0.381,-0.074 -0.738,-0.166 -1.074,-0.276c-0.768,-0.25 -1.322,-0.587 -1.662,-1.012c-0.335,-0.43 -0.503,-0.961 -0.503,-1.595c0,-0.85 0.381,-1.543 1.141,-2.079c0.765,-0.539 1.746,-0.809 2.944,-0.809c0.601,0 1.194,0.059 1.778,0.178c0.589,0.114 1.098,0.259 1.527,0.435l-0.992,1.633c-0.191,-0.097 -0.396,-0.185 -0.614,-0.265c-0.532,-0.201 -1.076,-0.301 -1.632,-0.301c-0.196,0 -0.392,0.014 -0.588,0.043c-0.193,0.025 -0.379,0.074 -0.559,0.147c-0.159,0.062 -0.296,0.156 -0.41,0.282c-0.115,0.123 -0.172,0.264 -0.172,0.423c0,0.242 0.092,0.428 0.276,0.559c0.184,0.126 0.531,0.243 1.042,0.349c0.336,0.07 0.657,0.137 0.963,0.202c0.311,0.066 0.644,0.156 1,0.27c0.699,0.229 1.214,0.542 1.545,0.939c0.336,0.392 0.503,0.903 0.503,1.533l0,0Z" style="fill:#fff;fill-rule:nonzero;"/>
                </g>
            </g>
            <g id="g4813">
                <path id="path4815" d="M44.754,30.699l-11.968,12.642l-7.905,-5.42c0,0 2.601,-2.482 0.228,-4.289c-1.85,-1.41 -7.04,1.58 -6.815,7.452c0.264,6.772 4.449,10.609 9.071,10.609c4.293,0 5.421,-3.461 5.421,-3.461l9.618,0l0,7.98l13.522,-35.674l15.468,0l12.419,32.063c0,0 0.903,1.69 1.805,2.142c0,0 0.052,-21.032 0.052,-21.623c0,-0.589 -0.078,-1.239 -0.446,-1.662c-0.606,-0.698 -1.638,-0.987 -1.638,-0.987l0,-9.933c0,0 14.333,0 21.674,0c11.242,0 14.126,3.048 17.385,8.92c4.501,-6.06 10.697,-10.05 19.531,-10.05c9.089,0 15.521,3.351 19.194,8.919c5.13,-6.133 13.386,-8.975 20.942,-8.975c9.285,0 17.039,4.5 21.052,11.459l0,-10.273l20.884,0l2.2,5.586l1.64,-5.586l21.562,0l0,9.707c0,0 -1.244,0.341 -1.588,0.901c-0.334,0.553 -0.275,2.319 -0.275,2.319l3.008,19.187c0.126,0.624 0.348,1.276 0.886,1.754c0.624,0.557 1.467,0.453 1.467,0.453l0,11.06l-21.674,0l0,-8.355l-12.417,0l0,8.377l-20.378,0l0,-5.445c0,0 -7.447,6.55 -17.045,6.55c-12.284,0 -20.491,-9.03 -20.491,-9.03l0,7.902c0,0 -0.902,0 -14.447,0c-12.86,0 -23.899,-7.037 -26.982,-19.869c-1.462,1.398 -7.907,5.999 -15.637,7.733c-0.601,0.135 -0.901,0.36 -0.901,1.012c0,1.189 2.539,1.612 2.539,1.612l0,9.51c0,0 -66.831,0 -79.246,0c-14.678,0.003 -26.469,-10.044 -26.469,-22.8c0,-12.757 9.192,-23.596 24.431,-23.596c14.565,0 20.323,11.179 20.323,11.179l0,0Z" style="fill:#0c4da1;"/>
                <path id="path4817" d="M39.051,30.897l-6.376,6.686c0,0 -0.339,0.17 -0.62,0.17c-0.284,0 -0.68,-0.283 -0.68,-0.283l-0.789,-0.675c0,0 -0.227,-0.055 -0.227,-0.283c0,-0.223 0.622,-0.791 0.622,-1.863c0,-1.074 -0.225,-5.533 -7.111,-5.533c-6.886,0 -9.934,6.435 -9.934,11.742c0,5.306 3.272,15.014 14,15.014c6.239,0 7.56,-3.502 7.56,-3.502l2.144,0l0,9.146l-11.739,0c-13.997,0 -21.788,-10.953 -21.788,-18.854c0,-12.116 10.535,-18.839 20.095,-18.839c9.257,0.001 14.843,7.074 14.843,7.074l0,0Z" style="fill:#ffca08;"/>
                <path id="path4819" d="M58.81,24.829l9.651,0l11.741,30.706c0.337,0.844 0.902,1.64 1.465,2.313c0.563,0.678 1.919,1.132 1.919,1.132l0,2.649l-14.164,0l0,-2.709c0,0 0.901,0.117 1.354,-0.676c0.45,-0.79 0.45,-1.411 0.114,-2.2c-0.339,-0.792 -2.715,-7.055 -2.715,-7.055l-11.569,0c0,0 -2.369,6.32 -2.597,6.884c-0.226,0.564 -0.226,1.469 0,2.031c0.376,0.94 1.695,1.077 1.695,1.077l0,2.649l-11.347,0l0,-2.649c0,0 1.032,-0.355 1.806,-1.132c0.846,-0.846 1.128,-1.751 1.128,-1.751l11.519,-31.269l0,0Zm-0.285,18.4l7.453,0l-3.838,-10.723l-3.615,10.723Z" style="fill:#ffca08;"/>
                <path id="path4821" d="M88.101,24.829c0,0 11.402,0 18.064,0c6.661,0 13.319,2.368 13.319,10.044c0,7.677 -4.854,10.388 -9.03,12.308c-4.821,2.215 -11.175,3.952 -11.175,3.952l0,5.868c0,0 0.057,0.396 0.62,1.069c0.566,0.678 1.187,0.849 1.187,0.849l0,2.709l-13.096,0l0,-2.649c0,0 0.789,-0.172 1.356,-0.736c0.563,-0.565 0.678,-1.242 0.678,-1.242l0,-26.529c0,0 0.052,-1.13 -0.396,-1.579c-0.451,-0.456 -1.525,-1.074 -1.525,-1.074l0,-2.99l-0.001,0l-0.001,0Zm11.29,5.53l0,15.691c0,0 10.61,-4.401 10.61,-10.611c0,-7.676 -10.61,-5.08 -10.61,-5.08Z" style="fill:#ffca08;"/>
                <path id="path4823" d="M158.603,30.962l-6.379,6.685c0,0 -0.339,0.17 -0.621,0.17c-0.28,0 -0.676,-0.283 -0.676,-0.283l-0.792,-0.679c0,0 -0.224,-0.053 -0.224,-0.277c0,-0.228 0.619,-0.796 0.619,-1.863c0,-1.075 -0.223,-5.534 -7.111,-5.534c-6.888,0 -9.935,6.433 -9.935,11.74c0,5.303 3.274,15.015 14.001,15.015c6.239,0 7.561,-3.502 7.561,-3.502l2.147,0l0,9.145l-11.744,0c-13.996,0 -21.788,-10.95 -21.788,-18.852c0,-12.115 10.534,-18.841 20.095,-18.841c9.258,0 14.847,7.076 14.847,7.076l0,0Z" style="fill:#ffca08;"/>
                <path id="path4825" d="M181.464,62.688c-12.194,0 -20.958,-8.904 -20.958,-19.739c0,-10.842 8.991,-19.239 20.958,-19.239c11.963,0 20.954,8.397 20.954,19.239c0,10.834 -8.765,19.739 -20.954,19.739Zm-10.841,-19.572c0,10.838 5.533,13.547 10.841,13.547c5.302,0 10.95,-3.387 10.95,-13.547c0,-10.158 -6.322,-13.547 -10.95,-13.547c-4.629,0 -10.841,2.707 -10.841,13.547Z" style="fill:#ffca08;"/>
                <path id="path4827" d="M207.876,24.853l13.437,0l4.854,14.99l5.191,-15.014l14.053,0l0,2.2c0,0 -0.935,0.395 -1.35,0.903c-0.508,0.622 -0.508,1.072 -0.397,1.979c0.113,0.9 3.725,25.398 3.839,26.302c0.114,0.904 0.225,1.411 0.451,2.033c0.224,0.615 1.299,1.126 1.299,1.126l0,2.277l-13.492,0l0,-2.445c0,0 1.185,-0.169 1.583,-0.736c0.395,-0.565 0.562,-0.904 0.45,-1.805c-0.113,-0.903 -3.328,-21.449 -3.328,-21.449l-5.871,18.175l-7.112,0l-5.816,-17.049l-2.934,20.096c0,0 -0.114,1.206 0.339,1.864c0.62,0.904 1.753,0.904 1.753,0.904l0,2.425l-11.689,0l0,-2.592c0,0 0.931,-0.144 1.608,-0.936c0.676,-0.787 0.791,-1.807 0.791,-1.807l4.263,-26.5c0,0 0.256,-0.99 -0.028,-1.439c-0.298,-0.476 -1.892,-0.875 -1.892,-0.875l0,-2.627l-0.001,0l-0.001,0Z" style="fill:#ffca08;"/>
            </g>
        </g>
    </g>
</svg>
